<svg width="28" height="28" viewBox="0 0 28 28" fill="none" xmlns="http://www.w3.org/2000/svg">
<g clip-path="url(#clip0_526_217)">
<path d="M28 14C28 6.26808 21.7319 0 14 0C6.26808 0 0 6.26808 0 14C0 20.9877 5.11962 26.7797 11.8123 27.83V18.0468H8.2577V14H11.8123V10.9155C11.8123 7.40676 13.9022 5.46858 17.1002 5.46858C18.6321 5.46858 20.2341 5.74188 20.2341 5.74188V9.18726H18.4685C16.7292 9.18726 16.1868 10.2664 16.1868 11.3737V14H20.0696L19.449 18.0468H16.1868V27.83C22.88 26.7797 27.9991 20.9881 27.9991 14H28Z" fill="#F77962"/>
<path d="M19.4496 18.0467L20.0702 13.9999H16.1874V11.3736C16.1874 10.2664 16.7298 9.18719 18.4691 9.18719H20.2347V5.74181C20.2347 5.74181 18.6327 5.46851 17.1009 5.46851C13.9028 5.46851 11.8129 7.40669 11.8129 10.9154V13.9999H8.2583V18.0467H11.8129V27.8299C12.5257 27.9417 13.2564 27.9999 14.0006 27.9999C14.7449 27.9999 15.4755 27.9417 16.1883 27.8299V18.0467H19.4505H19.4496Z" fill="white"/>
</g>
<defs>
<clipPath id="clip0_526_217">
<rect width="28" height="28" fill="white"/>
</clipPath>
</defs>
</svg>
