<svg width="28" height="28" viewBox="0 0 28 28" fill="none" xmlns="http://www.w3.org/2000/svg">
<g clip-path="url(#clip0_234_314)">
<path d="M23.9022 23.9012C29.3699 18.4334 29.3699 9.56851 23.9022 4.10079C18.4345 -1.36693 9.56956 -1.36693 4.10184 4.10079C-1.36588 9.56851 -1.36588 18.4334 4.10184 23.9012C9.56956 29.3689 18.4345 29.3689 23.9022 23.9012Z" fill="#F77962"/>
<path d="M6.82378 14.5301L9.64887 15.361L16.5268 11.0368L11.492 16.0679L15.831 19.6852C15.831 19.6852 16.6907 20.5162 16.9768 19.4779C17.2629 18.4381 18.9824 9.62319 18.9824 9.62319C18.9824 9.62319 19.1865 8.66663 18.2046 9.12372C17.2227 9.58081 6.74183 13.4479 6.74183 13.4479C6.74183 13.4479 5.01936 13.9428 6.82378 14.5286V14.5301Z" fill="white"/>
</g>
<defs>
<clipPath id="clip0_234_314">
<rect width="28" height="28" fill="white"/>
</clipPath>
</defs>
</svg>
