<svg width="94" height="23" viewBox="0 0 94 23" fill="none" xmlns="http://www.w3.org/2000/svg">
<path d="M64.1522 6.51238C64.2039 4.54152 65.0351 2.64558 66.9899 1.33287C67.7836 0.799579 68.6593 0.464266 69.5939 0.250236C70.8781 -0.0422702 72.1729 -0.0583213 73.4571 0.134305C75.3923 0.425028 77.076 1.23121 78.271 2.85248C78.8649 3.65687 79.2056 4.56293 79.3911 5.55281C79.5837 6.5748 79.5409 7.57717 79.309 8.56884C78.9202 10.2311 77.9999 11.5438 76.5356 12.4428C74.7342 13.5486 72.7526 13.8215 70.6658 13.6128C69.8365 13.5308 69.016 13.3506 68.2473 13.0278C66.371 12.2412 65.0707 10.9446 64.4822 9.03079C64.261 8.31379 64.1486 7.58431 64.1504 6.51238H64.1522ZM71.6575 12.68C73.227 12.6604 74.3435 12.0754 75.2318 11.0444C76.1574 9.97073 76.5748 8.68834 76.6515 7.29359C76.7496 5.53855 76.384 3.90122 75.205 2.54035C74.0314 1.18484 72.5332 0.64441 70.7746 1.06177C69.4887 1.36676 68.5202 2.18007 67.8977 3.33048C66.6456 5.64556 66.6278 8.00702 67.9155 10.3025C68.7538 11.7953 70.0755 12.6354 71.6575 12.6782V12.68Z" fill="black"/>
<path d="M51.6922 0.298134C52.7427 0.257112 53.5935 0.228572 54.4442 0.189333C55.625 0.135826 56.7861 0.23571 57.8955 0.667336C59.3919 1.24878 60.5298 2.22261 61.1594 3.72795C61.6998 5.02104 61.7694 6.36229 61.5785 7.73743C61.4073 8.97167 61.0131 10.1042 60.2462 11.0727C59.5167 11.9966 58.5037 12.6494 57.3871 13.0222C56.1797 13.4253 54.9419 13.4984 53.6916 13.452C52.6375 13.4146 51.5852 13.3236 50.5329 13.3111C49.8587 13.304 49.1845 13.4003 48.5085 13.4449C48.3551 13.4556 48.1964 13.4591 48.0501 13.4342C47.7059 13.3789 47.6666 12.9615 48.0109 12.8955C48.059 12.8866 48.1179 12.8599 48.175 12.8492C48.7814 12.7368 49.1096 12.4193 49.2219 11.8111C49.2576 11.6131 49.2736 11.408 49.2736 11.2065C49.2772 8.27964 49.2772 5.35101 49.2736 2.42415C49.2736 2.02642 49.2522 1.63047 49.0043 1.2898C48.8206 1.03832 48.587 0.867096 48.2713 0.817156C48.0519 0.781484 47.7701 0.747594 47.8004 0.458655C47.8307 0.159014 48.1161 0.169718 48.3533 0.176852C49.5323 0.217874 50.7112 0.260677 51.6922 0.296349V0.298134ZM51.7225 6.84208C51.7225 8.38844 51.7225 9.9348 51.7225 11.4794C51.7225 11.6238 51.7279 11.7701 51.7439 11.9128C51.7938 12.3194 51.9597 12.4871 52.3646 12.4871C53.1672 12.4889 53.9752 12.5228 54.7724 12.4532C55.9835 12.348 57.0233 11.8575 57.7849 10.8694C58.3039 10.1988 58.6089 9.43361 58.7569 8.60603C59.0334 7.05432 59.1101 5.51153 58.6071 3.99371C58.2575 2.93783 57.5263 2.04247 56.5221 1.5609C55.3057 0.975891 54.0019 0.88493 52.6945 1.08291C51.8902 1.20419 51.7047 1.38255 51.7136 2.23153C51.7296 3.76719 51.7189 5.30463 51.7189 6.84029L51.7225 6.84208Z" fill="black"/>
<path d="M88.7032 13.6501C87.8096 13.6091 86.9677 13.3754 86.1419 13.0579C85.6479 12.8689 85.1324 12.7744 84.5974 12.7851C84.3084 12.7904 84.0552 12.5692 84.0552 12.2803C84.0552 12.0431 84.1087 11.8076 84.114 11.5704C84.1283 10.9355 84.1336 10.3005 84.1372 9.66557C84.1372 9.57104 84.1283 9.45511 84.1176 9.3588C84.0944 9.15012 84.1622 8.9789 84.3584 8.96284C84.4743 8.95214 84.642 9.10018 84.724 9.2179C84.8257 9.36415 84.8667 9.55321 84.9273 9.72622C85.6265 11.7096 87.617 12.9402 89.7055 12.6388C90.8684 12.4694 91.9564 11.5134 91.7049 10.1275C91.5943 9.5211 91.2216 9.08591 90.7525 8.72206C89.9713 8.11564 89.0581 7.76785 88.1574 7.3933C87.1247 6.96346 86.0688 6.57999 85.1538 5.90936C83.9981 5.06395 83.6289 3.95813 84.1711 2.45279C84.6063 1.24352 85.6033 0.658511 86.7591 0.285744C87.8381 -0.0620538 88.9439 -0.0014106 90.048 0.114522C90.2905 0.139492 90.5278 0.200133 90.7614 0.269692C91.202 0.401677 91.6336 0.387411 92.0777 0.300015C92.4719 0.221538 92.8143 0.480153 92.8393 0.881458C92.891 1.71082 92.9713 2.53662 93.039 3.3642C93.0462 3.44089 93.0747 3.52829 93.0515 3.5925C93.0069 3.71021 92.9534 3.86895 92.8607 3.90819C92.7697 3.94564 92.5789 3.89213 92.5147 3.81187C92.3488 3.60141 92.2239 3.35885 92.092 3.1252C91.6585 2.34934 91.1217 1.67337 90.2638 1.3434C89.2989 0.97242 88.3108 0.870756 87.3173 1.23817C86.3845 1.58419 86.1098 2.73459 86.7626 3.51223C87.2692 4.11508 87.9594 4.44683 88.6497 4.77679C89.8322 5.34218 91.0343 5.87191 92.1936 6.48367C92.9017 6.85644 93.4742 7.41827 93.7899 8.18699C94.0878 8.90934 94.0343 9.64953 93.8434 10.3772C93.3529 12.2428 91.5284 13.4539 89.6609 13.5984C89.3435 13.6233 89.0242 13.6322 88.7049 13.6501H88.7032Z" fill="black"/>
<path d="M37.2987 9.71913C36.4961 9.71913 35.6917 9.72448 34.8891 9.71556C34.659 9.71199 34.5306 9.7869 34.4664 10.0116C34.313 10.5503 34.1293 11.08 33.9919 11.6222C33.9313 11.8594 33.9259 12.1216 33.9491 12.366C33.9741 12.6139 34.1507 12.7744 34.3968 12.8422C34.4432 12.8547 34.4931 12.8547 34.5395 12.8707C34.7107 12.9296 34.9319 12.967 34.8998 13.2096C34.8694 13.4415 34.6554 13.4183 34.4824 13.4201C33.2838 13.4361 32.0835 13.4486 30.8849 13.4611C30.8082 13.4611 30.7244 13.4504 30.6566 13.445C30.2072 13.4147 30.2553 12.9278 30.6281 12.8868C31.4842 12.8065 31.898 12.2215 32.2244 11.5348C32.9325 10.0455 33.6388 8.55267 34.3397 7.05982C35.3207 4.97125 36.2945 2.8809 37.2737 0.79411C37.3611 0.608618 37.4521 0.421341 37.5733 0.257252C37.8623 -0.129784 38.4705 -0.0673578 38.6952 0.358917C38.9645 0.867237 39.1696 1.40944 39.3997 1.93738C40.3218 4.042 41.2368 6.15019 42.1696 8.24946C42.6708 9.37846 43.197 10.4968 43.7249 11.6133C43.9318 12.052 44.1708 12.4783 44.6327 12.7066C44.7754 12.778 44.9359 12.8386 45.0947 12.8564C45.6458 12.9207 45.6833 13.4254 45.0858 13.4539C44.9324 13.4611 44.7772 13.4539 44.622 13.4539C43.3058 13.4415 41.9913 13.4308 40.675 13.4129C40.4752 13.4111 40.1863 13.5074 40.1417 13.2167C40.0953 12.9189 40.3914 12.9046 40.6019 12.8493C40.9461 12.7583 41.0834 12.539 40.9639 12.1947C40.7017 11.4474 40.4253 10.7054 40.1542 9.96169C40.0775 9.75302 39.9134 9.712 39.7119 9.71378C38.9092 9.71913 38.1048 9.71556 37.3022 9.71378L37.2987 9.71913ZM37.2701 8.86836C37.9479 8.86836 38.6257 8.86479 39.3034 8.86836C39.6476 8.86836 39.7029 8.79167 39.5709 8.47776C39.0644 7.26671 38.5632 6.0521 38.0549 4.84105C37.873 4.40407 37.6875 3.96888 37.4842 3.5426C37.4378 3.44272 37.3022 3.28042 37.2273 3.31787C36.9223 3.47483 35.6185 6.91178 34.9622 8.55267C34.8641 8.79702 34.9194 8.87015 35.1798 8.87015C35.8772 8.87015 36.5728 8.87015 37.2701 8.87015V8.86836Z" fill="black"/>
<path d="M2.72594 0.239194C3.41261 0.239194 4.09929 0.239194 4.78597 0.239194C4.85374 0.239194 4.93044 0.217793 4.98751 0.240979H4.99108C5.17657 0.323024 5.22651 0.567376 5.08383 0.711846C5.07669 0.71898 5.06777 0.727894 5.05886 0.735028C5.00891 0.781401 4.91439 0.783185 4.84126 0.802805C4.49524 0.895551 4.36326 1.08818 4.47741 1.42706C4.69857 2.0852 4.92865 2.74155 5.19084 3.38543C5.90427 5.1369 6.63554 6.88302 7.36324 8.62914C7.54159 9.0572 7.73244 9.47991 7.93398 9.89727C7.95538 9.94186 8.01959 9.99893 8.08559 10.0471C8.1712 10.1095 8.28713 10.1059 8.36561 10.0364C8.41376 9.9918 8.45657 9.94542 8.47976 9.89013C9.11293 8.36517 9.75501 6.84378 10.3489 5.30277C10.7413 4.28435 11.0606 3.24096 11.4013 2.20291C11.4726 1.98532 11.5136 1.74988 11.5243 1.52159C11.5422 1.1292 11.3406 0.886633 10.9625 0.792104C10.9161 0.779619 10.8644 0.765352 10.8252 0.75465C10.3258 0.619098 10.4881 0.217794 10.9019 0.242764C11.7633 0.296272 12.6284 0.253467 13.4898 0.255251C13.7841 0.255251 14.0766 0.221358 14.3691 0.189254C14.4868 0.176769 14.6188 0.192823 14.7258 0.185689C15.1503 0.160719 15.1557 0.679741 14.774 0.772487C13.9107 0.859882 13.5201 1.47343 13.2009 2.15297C12.1165 4.44844 11.0445 6.74925 9.96726 9.04828C9.33944 10.386 8.71876 11.7254 8.0731 13.0542C7.97144 13.2647 7.78416 13.4876 7.58083 13.5821C7.19736 13.7569 6.8353 13.5625 6.65159 13.138C6.12543 11.9252 5.61533 10.7052 5.08918 9.49239C4.51665 8.17433 3.93877 6.85805 3.3484 5.54891C2.8169 4.37175 2.27112 3.19993 1.71822 2.03169C1.52024 1.61255 1.29372 1.19698 0.856748 0.970461C0.69801 0.888417 0.514301 0.850965 0.339511 0.801025C0.162937 0.751085 -0.0118537 0.683304 0.000631298 0.467491C0.0131163 0.249895 0.203959 0.183905 0.380533 0.185689C0.756868 0.185689 1.1332 0.226711 1.51132 0.235629C1.91798 0.244546 2.32463 0.237414 2.7295 0.237414C2.7295 0.237414 2.7295 0.23741 2.7295 0.239194H2.72594Z" fill="black"/>
<path d="M23.2599 12.4909C24.2783 12.4944 25.2575 12.3036 26.1957 11.9112C26.8556 11.6348 27.3675 11.1657 27.792 10.6039C28.0542 10.2578 28.2825 9.88685 28.5339 9.53192C28.6517 9.36605 28.7926 9.17164 29.028 9.30541C29.242 9.42669 29.2046 9.63894 29.1386 9.84762C28.9014 10.586 28.6641 11.3244 28.4466 12.0682C28.3823 12.2893 28.3378 12.5158 28.3324 12.7459C28.3199 13.2846 28.0773 13.5289 27.5619 13.5129C25.2415 13.4362 22.921 13.3488 20.6006 13.3042C19.8693 13.2899 19.1363 13.4041 18.4014 13.4487C18.2498 13.4576 18.0858 13.4611 17.9413 13.4237C17.5988 13.3363 17.5596 13.1187 17.8646 12.9386C17.9377 12.8957 18.0269 12.869 18.1125 12.8529C18.2837 12.8208 18.4496 12.762 18.5959 12.6657C19.1791 12.284 19.1951 11.7792 19.1951 11.287C19.1951 8.31017 19.2005 5.33517 19.188 2.35838C19.188 2.05874 19.1077 1.75018 19.0132 1.46302C18.8937 1.09204 18.5941 0.899411 18.2177 0.826284C17.9877 0.781695 17.7326 0.754944 17.7076 0.455303C17.6934 0.276945 17.9823 0.14496 18.3051 0.187766C19.7035 0.371475 21.1018 0.375042 22.5001 0.187766C22.839 0.143177 23.1065 0.259106 23.0994 0.446382C23.0887 0.753157 22.8319 0.77991 22.6036 0.824499C22.0453 0.92973 21.7724 1.33282 21.6583 1.89286C21.6333 2.01593 21.6226 2.14256 21.6226 2.2692C21.6226 5.37262 21.6333 8.47605 21.6119 11.5795C21.6083 12.0824 21.9989 12.5212 22.5055 12.4944C22.7569 12.482 23.0084 12.4927 23.2599 12.4927V12.4909Z" fill="black"/>
<path d="M82.323 1.50378C82.2339 1.99783 82.2927 2.87891 81.9289 3.62088C81.7309 4.02219 81.1316 4.02932 81.2707 3.63871C81.5775 2.77903 80.9604 1.8373 80.8445 0.931244C80.7874 0.488917 80.9622 0.335531 81.4045 0.324829C81.4527 0.324829 81.5008 0.324829 81.549 0.324829C82.3248 0.324829 82.4033 0.408658 82.323 1.50199V1.50378Z" fill="black"/>
<path d="M30 22.4408V18.4795H31.1272C31.4697 18.4795 31.7408 18.5633 31.9423 18.731C32.1439 18.8986 32.2437 19.1162 32.2437 19.3855C32.2437 19.6103 32.1831 19.8047 32.0618 19.9706C31.9405 20.1364 31.7729 20.2542 31.5588 20.3237V20.3344C31.8264 20.3665 32.0404 20.4664 32.1992 20.6376C32.3579 20.8088 32.4399 21.03 32.4399 21.3029C32.4399 21.6418 32.3186 21.9164 32.0761 22.1269C31.8335 22.3374 31.5267 22.4426 31.1558 22.4426H30V22.4408ZM30.4655 18.8986V20.1775H30.9399C31.195 20.1775 31.3948 20.1168 31.5392 19.9937C31.6837 19.8707 31.7568 19.6995 31.7568 19.4765C31.7568 19.0913 31.5036 18.8986 30.997 18.8986H30.4637H30.4655ZM30.4655 20.5948V22.0199H31.0951C31.368 22.0199 31.5785 21.9557 31.7301 21.8273C31.8817 21.6988 31.9548 21.5223 31.9548 21.2975C31.9548 20.8302 31.6355 20.5966 30.9988 20.5966H30.4655V20.5948Z" fill="black" stroke="black" stroke-width="0.3" stroke-miterlimit="10"/>
<path d="M36.3103 22.4408H35.7966L35.3775 21.3296H33.6974L33.3014 22.4408H32.7842L34.3038 18.4795H34.7854L36.3103 22.4408ZM35.2259 20.9141L34.6034 19.2268C34.5838 19.1715 34.5624 19.0823 34.5428 18.9611H34.5321C34.5142 19.0734 34.4928 19.1626 34.4679 19.2268L33.8525 20.9141H35.2259Z" fill="black" stroke="black" stroke-width="0.3" stroke-miterlimit="10"/>
<path d="M39.735 22.4408H39.1821L38.5186 21.3296C38.4579 21.2262 38.3991 21.1388 38.342 21.0656C38.2849 20.9925 38.2261 20.9336 38.1672 20.8873C38.1083 20.8409 38.0423 20.807 37.9746 20.7856C37.9068 20.7642 37.8283 20.7535 37.7409 20.7535H37.3592V22.439H36.8955V18.4777H38.078C38.251 18.4777 38.4115 18.4991 38.5578 18.5419C38.7041 18.5847 38.8307 18.6507 38.9395 18.7398C39.0483 18.829 39.1321 18.9378 39.1928 19.0698C39.2534 19.2018 39.2837 19.3552 39.2837 19.5318C39.2837 19.6691 39.2623 19.7957 39.2213 19.9117C39.1803 20.0276 39.1214 20.1293 39.0447 20.2202C38.968 20.3112 38.8771 20.3879 38.7683 20.4503C38.6595 20.5127 38.54 20.5627 38.4044 20.5983V20.609C38.4704 20.6394 38.5275 20.6715 38.5774 20.7107C38.6274 20.7499 38.6719 20.7927 38.7165 20.8445C38.7611 20.8962 38.8039 20.955 38.8485 21.0193C38.8931 21.0835 38.9395 21.1602 38.993 21.2476L39.7367 22.439L39.735 22.4408ZM37.3575 18.8986V20.3362H37.9871C38.103 20.3362 38.21 20.3183 38.3081 20.2844C38.4062 20.2505 38.4918 20.1988 38.5632 20.1346C38.6345 20.0704 38.6916 19.9884 38.7308 19.8938C38.77 19.7993 38.7914 19.6923 38.7914 19.5746C38.7914 19.3623 38.7237 19.1982 38.5863 19.0787C38.449 18.9592 38.251 18.9004 37.9906 18.9004H37.3557L37.3575 18.8986Z" fill="black" stroke="black" stroke-width="0.3" stroke-miterlimit="10"/>
<path d="M40.2783 22.4408V18.4795H41.4055C41.748 18.4795 42.0191 18.5633 42.2206 18.731C42.4222 18.8986 42.5221 19.1162 42.5221 19.3855C42.5221 19.6103 42.4614 19.8047 42.3401 19.9706C42.2189 20.1364 42.0512 20.2542 41.8372 20.3237V20.3344C42.1047 20.3665 42.3187 20.4664 42.4775 20.6376C42.6362 20.8088 42.7183 21.03 42.7183 21.3029C42.7183 21.6418 42.597 21.9164 42.3544 22.1269C42.1118 22.3374 41.8051 22.4426 41.4341 22.4426H40.2783V22.4408ZM40.7421 18.8986V20.1775H41.2165C41.4715 20.1775 41.6713 20.1168 41.8158 19.9937C41.9602 19.8707 42.0334 19.6995 42.0334 19.4765C42.0334 19.0913 41.7801 18.8986 41.2736 18.8986H40.7403H40.7421ZM40.7421 20.5948V22.0199H41.3717C41.6445 22.0199 41.855 21.9557 42.0066 21.8273C42.1582 21.6988 42.2313 21.5223 42.2313 21.2975C42.2313 20.8302 41.9121 20.5966 41.2753 20.5966H40.7421V20.5948Z" fill="black" stroke="black" stroke-width="0.3" stroke-miterlimit="10"/>
<path d="M45.6227 22.4408H43.5234V18.4795H45.5353V18.8986H43.989V20.2167H45.4194V20.6341H43.989V22.0217H45.6245V22.4408H45.6227Z" fill="black" stroke="black" stroke-width="0.3" stroke-miterlimit="10"/>
<path d="M49.2252 22.4408H48.6723L48.0088 21.3296C47.9482 21.2262 47.8893 21.1388 47.8322 21.0656C47.7752 20.9925 47.7163 20.9336 47.6574 20.8873C47.5986 20.8409 47.5326 20.807 47.4648 20.7856C47.397 20.7642 47.3186 20.7535 47.2312 20.7535H46.8495V22.439H46.3857V18.4777H47.5683C47.7413 18.4777 47.9018 18.4991 48.048 18.5419C48.1943 18.5847 48.3209 18.6507 48.4297 18.7398C48.5385 18.829 48.6223 18.9378 48.683 19.0698C48.7436 19.2018 48.774 19.3552 48.774 19.5318C48.774 19.6691 48.7526 19.7957 48.7115 19.9117C48.6705 20.0276 48.6116 20.1293 48.535 20.2202C48.4583 20.3112 48.3673 20.3879 48.2585 20.4503C48.1497 20.5127 48.0302 20.5627 47.8946 20.5983V20.609C47.9606 20.6394 48.0177 20.6715 48.0677 20.7107C48.1176 20.7499 48.1622 20.7927 48.2068 20.8445C48.2514 20.8962 48.2942 20.955 48.3388 21.0193C48.3834 21.0835 48.4297 21.1602 48.4832 21.2476L49.227 22.439L49.2252 22.4408ZM46.8477 18.8986V20.3362H47.4773C47.5932 20.3362 47.7002 20.3183 47.7983 20.2844C47.8964 20.2505 47.982 20.1988 48.0534 20.1346C48.1247 20.0704 48.1818 19.9884 48.221 19.8938C48.2603 19.7993 48.2817 19.6923 48.2817 19.5746C48.2817 19.3623 48.2139 19.1982 48.0766 19.0787C47.9392 18.9592 47.7413 18.9004 47.4809 18.9004H46.8459L46.8477 18.8986Z" fill="black" stroke="black" stroke-width="0.3" stroke-miterlimit="10"/>
<path d="M49.584 22.2802V21.7327C49.6464 21.788 49.7213 21.8379 49.8087 21.8825C49.8961 21.9271 49.9889 21.9645 50.0852 21.9948C50.1815 22.0252 50.2796 22.0484 50.3759 22.0662C50.4722 22.084 50.5632 22.0912 50.647 22.0912C50.9324 22.0912 51.1464 22.0377 51.2873 21.9324C51.4282 21.8272 51.4995 21.6738 51.4995 21.4758C51.4995 21.3688 51.4764 21.2761 51.4282 21.1976C51.38 21.1191 51.3158 21.046 51.2338 20.98C51.1517 20.914 51.0537 20.8516 50.9395 20.7927C50.8254 20.7339 50.7041 20.6697 50.5739 20.6037C50.4365 20.5341 50.3063 20.4628 50.1868 20.3914C50.0673 20.3201 49.9639 20.2398 49.8747 20.1542C49.7855 20.0686 49.716 19.9687 49.666 19.8599C49.6161 19.7511 49.5893 19.6227 49.5893 19.4747C49.5893 19.2945 49.6286 19.1376 49.7088 19.0038C49.7891 18.87 49.8925 18.7594 50.021 18.6738C50.1494 18.5882 50.2974 18.5222 50.4615 18.4812C50.6256 18.4402 50.795 18.417 50.9663 18.417C51.3569 18.417 51.6405 18.4634 51.8206 18.5579V19.0805C51.5869 18.9182 51.2873 18.8379 50.9199 18.8379C50.8182 18.8379 50.7166 18.8486 50.6167 18.87C50.5168 18.8914 50.4258 18.9253 50.3456 18.9735C50.2653 19.0216 50.2011 19.0823 50.1529 19.159C50.1048 19.2357 50.078 19.3266 50.078 19.4354C50.078 19.5371 50.0977 19.6245 50.1351 19.6976C50.1726 19.7707 50.2279 19.8385 50.3028 19.8991C50.3777 19.9598 50.4669 20.0186 50.5721 20.0757C50.6773 20.1328 50.8004 20.1952 50.9377 20.263C51.0804 20.3326 51.2142 20.4075 51.3408 20.4842C51.4674 20.5609 51.5798 20.6465 51.6743 20.741C51.7689 20.8355 51.8456 20.939 51.9026 21.0531C51.9597 21.1673 51.9865 21.2975 51.9865 21.4455C51.9865 21.6399 51.949 21.8058 51.8723 21.9413C51.7956 22.0769 51.6922 22.1875 51.5638 22.2713C51.4353 22.3551 51.2837 22.4176 51.1143 22.455C50.9449 22.4925 50.7665 22.5121 50.5774 22.5121C50.515 22.5121 50.4383 22.5067 50.3456 22.496C50.2528 22.4853 50.1601 22.4711 50.0638 22.4514C49.9675 22.4318 49.8765 22.4086 49.7909 22.3801C49.7053 22.3516 49.6375 22.3195 49.5858 22.2856L49.584 22.2802Z" fill="black" stroke="black" stroke-width="0.3" stroke-miterlimit="10"/>
<path d="M55.7532 22.4408H55.2894V20.6341H53.2401V22.4408H52.7764V18.4795H53.2401V20.2167H55.2894V18.4795H55.7532V22.4408Z" fill="black" stroke="black" stroke-width="0.3" stroke-miterlimit="10"/>
<path d="M58.3889 22.5066C57.8271 22.5066 57.3776 22.3211 57.0388 21.9519C56.6999 21.5827 56.5322 21.0994 56.5322 20.5072C56.5322 19.8705 56.7052 19.3622 57.0495 18.9823C57.3937 18.6024 57.8628 18.4133 58.4549 18.4133C59.0025 18.4133 59.443 18.597 59.7765 18.9662C60.1101 19.3354 60.2777 19.817 60.2777 20.4109C60.2777 21.0566 60.1065 21.5685 59.7641 21.9448C59.4216 22.3211 58.9632 22.5084 58.3889 22.5084V22.5066ZM58.421 18.8325C58.0055 18.8325 57.6666 18.9823 57.4062 19.2819C57.1458 19.5816 57.0174 19.9757 57.0174 20.4644C57.0174 20.9531 57.144 21.3455 57.3973 21.6434C57.6505 21.9412 57.9805 22.0893 58.3871 22.0893C58.8223 22.0893 59.1648 21.9466 59.4145 21.663C59.6642 21.3794 59.7908 20.9817 59.7908 20.4716C59.7908 19.9615 59.6695 19.5441 59.427 19.2587C59.1844 18.9734 58.8491 18.8307 58.421 18.8307V18.8325Z" fill="black" stroke="black" stroke-width="0.3" stroke-miterlimit="10"/>
<path d="M61.5213 20.9442V22.4424H61.0576V18.4811H62.1456C62.5701 18.4811 62.8983 18.5845 63.1301 18.7896C63.362 18.9947 63.4797 19.2873 63.4797 19.6636C63.4797 20.0399 63.3495 20.3467 63.0909 20.5857C62.8323 20.8247 62.4827 20.9442 62.0421 20.9442H61.5196H61.5213ZM61.5213 18.8984V20.5233H62.0083C62.3293 20.5233 62.5737 20.4501 62.7413 20.3039C62.909 20.1576 62.9946 19.9507 62.9946 19.6832C62.9946 19.1606 62.686 18.8984 62.0671 18.8984H61.5231H61.5213Z" fill="black" stroke="black" stroke-width="0.3" stroke-miterlimit="10"/>
</svg>
