<svg width="456" height="456" viewBox="0 0 456 456" fill="none" xmlns="http://www.w3.org/2000/svg">
<path d="M436.173 228.797L455.073 229.381L454.723 240.714L452.693 240.651L452.972 231.607L446.586 231.41L446.333 239.605L444.303 239.542L444.556 231.347L436.102 231.086L436.173 228.797Z" fill="white"/>
<path d="M443.318 259.946C441.336 259.723 439.663 259.173 438.3 258.295C436.937 257.418 435.934 256.311 435.291 254.975C434.648 253.639 434.416 252.17 434.596 250.568C434.776 248.965 435.328 247.584 436.251 246.424C437.174 245.264 438.397 244.407 439.921 243.853C441.445 243.3 443.198 243.134 445.18 243.357C447.162 243.579 448.834 244.129 450.198 245.007C451.561 245.885 452.564 246.991 453.207 248.327C453.85 249.663 454.081 251.132 453.901 252.735C453.721 254.337 453.17 255.719 452.247 256.878C451.324 258.038 450.1 258.895 448.576 259.449C447.052 260.002 445.3 260.168 443.318 259.946ZM443.565 257.743C445.192 257.926 446.596 257.808 447.776 257.389C448.956 256.977 449.885 256.341 450.564 255.482C451.242 254.629 451.645 253.633 451.773 252.496C451.9 251.358 451.729 250.295 451.257 249.307C450.785 248.325 450.02 247.499 448.962 246.829C447.903 246.165 446.56 245.741 444.933 245.559C443.306 245.376 441.902 245.491 440.722 245.904C439.542 246.322 438.613 246.958 437.935 247.811C437.256 248.67 436.853 249.669 436.725 250.807C436.597 251.944 436.769 253.004 437.241 253.986C437.713 254.974 438.478 255.801 439.537 256.464C440.595 257.134 441.938 257.561 443.565 257.743Z" fill="white"/>
<path d="M433.105 263.318L451.665 266.932L451.228 269.179L434.661 265.954L432.981 274.582L430.988 274.193L433.105 263.318Z" fill="white"/>
<path d="M430.202 277.256L448.471 282.132L447.88 284.345L431.574 279.992L429.307 288.484L427.344 287.961L430.202 277.256Z" fill="white"/>
<path d="M430.431 307.933C428.551 307.268 427.047 306.353 425.918 305.19C424.788 304.026 424.062 302.721 423.738 301.274C423.414 299.828 423.522 298.344 424.06 296.824C424.598 295.304 425.448 294.083 426.609 293.162C427.771 292.241 429.157 291.684 430.767 291.49C432.376 291.296 434.121 291.531 436.001 292.197C437.881 292.862 439.386 293.776 440.515 294.94C441.644 296.104 442.37 297.409 442.694 298.855C443.018 300.302 442.911 301.785 442.373 303.306C441.835 304.826 440.985 306.047 439.823 306.967C438.661 307.888 437.276 308.446 435.666 308.64C434.056 308.834 432.311 308.599 430.431 307.933ZM431.171 305.844C432.714 306.39 434.108 306.593 435.353 306.453C436.595 306.318 437.645 305.909 438.5 305.226C439.354 304.549 439.971 303.67 440.353 302.591C440.735 301.512 440.809 300.437 440.573 299.368C440.336 298.305 439.778 297.327 438.899 296.435C438.018 295.548 436.805 294.832 435.262 294.285C433.718 293.739 432.325 293.533 431.083 293.668C429.838 293.809 428.789 294.218 427.935 294.895C427.08 295.578 426.461 296.459 426.079 297.539C425.697 298.618 425.625 299.689 425.862 300.753C426.097 301.822 426.656 302.8 427.537 303.686C428.416 304.579 429.627 305.298 431.171 305.844Z" fill="white"/>
<path d="M418.192 312.478L437.473 316.019L436.464 318.115L420.873 314.997L420.793 315.164L432.924 325.47L431.803 327.799L416.18 324.748L416.1 324.914L428.264 335.154L427.255 337.25L412.458 324.391L413.483 322.261L428.871 325.035L428.935 324.902L417.167 314.607L418.192 312.478Z" fill="white"/>
<path d="M415.788 355.412L414.545 357.335L404.031 350.537C402.946 349.835 402.142 348.952 401.62 347.889C401.1 346.834 400.894 345.686 401.001 344.443C401.113 343.203 401.572 341.961 402.378 340.715C403.183 339.469 404.128 338.541 405.212 337.93C406.302 337.322 407.435 337.037 408.614 337.073C409.794 337.118 410.927 337.491 412.013 338.193L422.526 344.992L421.283 346.914L410.925 340.216C410.149 339.715 409.349 339.439 408.524 339.39C407.703 339.343 406.916 339.523 406.162 339.93C405.41 340.345 404.748 340.994 404.177 341.878C403.605 342.762 403.284 343.632 403.214 344.489C403.15 345.348 403.308 346.14 403.691 346.864C404.075 347.596 404.655 348.213 405.43 348.714L415.788 355.412Z" fill="white"/>
<path d="M400.81 367.641C401.618 368.125 402.467 368.214 403.358 367.907C404.249 367.6 405.045 366.993 405.745 366.088C406.257 365.425 406.598 364.763 406.767 364.101C406.933 363.443 406.936 362.831 406.776 362.263C406.612 361.701 406.291 361.235 405.814 360.866C405.414 360.557 404.998 360.387 404.564 360.355C404.13 360.331 403.702 360.397 403.279 360.552C402.86 360.711 402.462 360.909 402.085 361.146C401.712 361.387 401.382 361.618 401.094 361.839L399.51 363.042C399.107 363.352 398.631 363.677 398.081 364.015C397.529 364.357 396.927 364.627 396.276 364.825C395.627 365.031 394.95 365.091 394.246 365.006C393.542 364.92 392.839 364.607 392.138 364.065C391.329 363.44 390.763 362.663 390.438 361.735C390.109 360.812 390.064 359.797 390.305 358.691C390.541 357.59 391.104 356.465 391.992 355.316C392.82 354.245 393.71 353.451 394.662 352.934C395.61 352.422 396.567 352.181 397.531 352.211C398.493 352.246 399.405 352.551 400.268 353.125L398.822 354.995C398.22 354.607 397.606 354.435 396.979 354.48C396.354 354.534 395.754 354.747 395.179 355.119C394.604 355.499 394.088 355.987 393.628 356.581C393.094 357.272 392.726 357.98 392.524 358.703C392.328 359.431 392.307 360.111 392.463 360.745C392.624 361.383 392.977 361.912 393.522 362.334C394.019 362.718 394.53 362.892 395.057 362.855C395.583 362.818 396.119 362.649 396.663 362.347C397.208 362.044 397.757 361.687 398.31 361.274L400.259 359.839C401.498 358.93 402.693 358.376 403.844 358.176C404.994 357.976 406.073 358.266 407.081 359.045C407.919 359.693 408.474 360.484 408.748 361.418C409.022 362.362 409.035 363.352 408.786 364.389C408.538 365.434 408.045 366.434 407.307 367.388C406.561 368.353 405.726 369.076 404.8 369.559C403.88 370.045 402.953 370.278 402.02 370.257C401.083 370.241 400.228 369.953 399.455 369.394L400.81 367.641Z" fill="white"/>
<path d="M378.965 384.616C377.529 383.232 376.539 381.776 375.993 380.25C375.447 378.723 375.327 377.234 375.631 375.783C375.936 374.333 376.647 373.027 377.767 371.866C378.886 370.705 380.165 369.946 381.604 369.589C383.043 369.232 384.535 369.298 386.081 369.788C387.626 370.278 389.117 371.216 390.552 372.6C391.988 373.984 392.979 375.44 393.525 376.967C394.07 378.493 394.191 379.982 393.886 381.433C393.582 382.884 392.87 384.189 391.751 385.35C390.631 386.511 389.352 387.27 387.913 387.627C386.474 387.984 384.982 387.918 383.437 387.428C381.891 386.938 380.401 386.001 378.965 384.616ZM380.503 383.021C381.682 384.158 382.867 384.92 384.058 385.307C385.245 385.699 386.369 385.762 387.43 385.494C388.488 385.231 389.414 384.688 390.209 383.863C391.003 383.039 391.515 382.092 391.744 381.021C391.968 379.955 391.865 378.834 391.434 377.658C391 376.486 390.193 375.332 389.014 374.195C387.836 373.058 386.653 372.294 385.466 371.902C384.275 371.515 383.151 371.452 382.093 371.715C381.032 371.983 380.104 372.529 379.309 373.353C378.514 374.177 378.005 375.122 377.78 376.188C377.552 377.259 377.655 378.38 378.089 379.552C378.52 380.728 379.325 381.885 380.503 383.021Z" fill="white"/>
<path d="M370.653 404.536L358.288 390.229L359.965 388.78L377.469 393.276L377.608 393.155L367.9 381.922L369.633 380.425L381.997 394.731L380.321 396.18L362.765 391.681L362.625 391.802L372.357 403.063L370.653 404.536Z" fill="white"/>
<path d="M359.366 412.977L348.243 397.685L350.095 396.338L361.218 411.63L359.366 412.977Z" fill="white"/>
<path d="M343.29 423.56L333.139 407.607L335.009 406.417L351.672 413.412L351.828 413.313L343.858 400.787L345.79 399.558L355.941 415.511L354.071 416.701L337.357 409.695L337.201 409.794L345.191 422.351L343.29 423.56Z" fill="white"/>
<path d="M325.835 427.574C326.366 428.351 327.101 428.787 328.039 428.88C328.977 428.973 329.953 428.754 330.967 428.223C331.709 427.835 332.296 427.376 332.726 426.845C333.152 426.316 333.41 425.761 333.501 425.179C333.587 424.599 333.49 424.042 333.21 423.507C332.977 423.06 332.669 422.731 332.288 422.52C331.904 422.318 331.488 422.199 331.038 422.163C330.592 422.133 330.147 422.147 329.705 422.204C329.266 422.267 328.869 422.339 328.516 422.42L326.574 422.852C326.078 422.966 325.51 423.061 324.87 423.139C324.224 423.22 323.565 423.214 322.891 423.122C322.215 423.038 321.575 422.81 320.971 422.438C320.367 422.067 319.859 421.488 319.448 420.703C318.975 419.797 318.784 418.855 318.876 417.876C318.963 416.9 319.346 415.959 320.027 415.055C320.701 414.153 321.682 413.366 322.969 412.693C324.169 412.065 325.309 411.715 326.39 411.643C327.465 411.574 328.435 411.754 329.299 412.185C330.158 412.618 330.859 413.275 331.404 414.157L329.31 415.253C328.924 414.649 328.438 414.236 327.85 414.016C327.26 413.804 326.625 413.746 325.947 413.844C325.266 413.95 324.593 414.177 323.928 414.525C323.153 414.93 322.523 415.419 322.038 415.993C321.556 416.571 321.253 417.181 321.13 417.822C321.01 418.469 321.109 419.097 321.429 419.708C321.72 420.265 322.112 420.636 322.606 420.822C323.099 421.009 323.657 421.079 324.278 421.031C324.899 420.984 325.547 420.888 326.222 420.744L328.592 420.255C330.098 419.946 331.415 419.942 332.544 420.24C333.672 420.539 334.532 421.253 335.123 422.382C335.613 423.32 335.788 424.271 335.646 425.234C335.501 426.206 335.099 427.111 334.44 427.949C333.778 428.795 332.912 429.498 331.843 430.057C330.763 430.622 329.702 430.931 328.66 430.983C327.62 431.04 326.681 430.865 325.842 430.456C324.997 430.05 324.341 429.432 323.871 428.601L325.835 427.574Z" fill="white"/>
<path d="M321.501 432.632L322.299 434.5L309.259 440.073L308.46 438.206L313.928 435.869L307.295 420.349L309.401 419.449L316.034 434.969L321.501 432.632Z" fill="white"/>
<path d="M299.052 423.634L301.33 422.876L300.715 443.01L298.472 443.757L285.912 428.009L288.19 427.25L298.579 440.568L298.719 440.522L299.052 423.634ZM300.544 430.923L291.364 433.979L290.722 432.052L299.903 428.995L300.544 430.923Z" fill="white"/>
<path d="M273.613 444.403C273.954 444.961 274.344 445.441 274.782 445.843C275.215 446.252 275.694 446.574 276.218 446.81C276.737 447.047 277.296 447.189 277.895 447.235C278.495 447.282 279.127 447.226 279.792 447.068C280.881 446.808 281.805 446.29 282.563 445.514C283.321 444.738 283.832 443.74 284.098 442.518C284.363 441.297 284.306 439.89 283.926 438.297C283.546 436.705 282.959 435.424 282.164 434.456C281.37 433.487 280.451 432.83 279.406 432.485C278.362 432.139 277.271 432.102 276.133 432.373C275.08 432.625 274.205 433.071 273.51 433.711C272.81 434.359 272.335 435.15 272.083 436.083C271.826 437.024 271.832 438.057 272.101 439.183L271.384 439.202L276.916 437.882L277.388 439.858L270.383 441.529L269.911 439.553C269.55 438.039 269.559 436.644 269.938 435.37C270.312 434.098 270.991 433.018 271.975 432.132C272.955 431.252 274.175 430.638 275.636 430.29C277.265 429.901 278.787 429.943 280.203 430.415C281.614 430.888 282.832 431.75 283.857 432.998C284.877 434.248 285.618 435.843 286.081 437.783C286.428 439.238 286.546 440.593 286.434 441.847C286.317 443.109 285.998 444.236 285.475 445.227C284.952 446.219 284.252 447.051 283.375 447.722C282.497 448.393 281.468 448.87 280.289 449.151C279.319 449.383 278.38 449.452 277.472 449.358C276.559 449.272 275.71 449.041 274.924 448.666C274.134 448.297 273.429 447.798 272.81 447.167C272.193 446.543 271.694 445.804 271.314 444.952L273.613 444.403Z" fill="white"/>
<path d="M264.433 432.927L267.334 451.612L261.02 452.592C259.561 452.819 258.324 452.755 257.31 452.402C256.296 452.055 255.498 451.484 254.914 450.69C254.329 449.897 253.952 448.949 253.781 447.848C253.61 446.747 253.683 445.736 254.001 444.815C254.319 443.893 254.906 443.117 255.761 442.486C256.617 441.861 257.769 441.436 259.216 441.211L264.325 440.418L264.643 442.462L259.607 443.244C258.609 443.399 257.829 443.669 257.266 444.056C256.697 444.443 256.317 444.926 256.126 445.503C255.931 446.088 255.891 446.755 256.007 447.503C256.123 448.251 256.365 448.883 256.731 449.399C257.098 449.915 257.612 450.278 258.274 450.486C258.936 450.701 259.772 450.73 260.782 450.574L264.76 449.956L262.17 433.278L264.433 432.927ZM256.941 442.686L251.04 435.006L253.667 434.598L259.496 442.289L256.941 442.686Z" fill="white"/>
<path d="M248.552 435.153L250.946 434.977L245.406 454.344L243.049 454.517L234.74 436.167L237.134 435.992L243.935 451.453L244.082 451.442L248.552 435.153ZM248.209 442.585L238.559 443.293L238.41 441.267L248.06 440.559L248.209 442.585Z" fill="white"/>
<path d="M230.439 455.198L227.707 455.124L221.707 439.261L221.486 439.255L214.638 454.771L211.906 454.697L212.417 435.795L214.558 435.853L214.17 450.214L214.355 450.219L220.65 436.018L222.717 436.074L228.236 450.594L228.421 450.599L228.809 436.238L230.95 436.296L230.439 455.198Z" fill="white"/>
<path d="M202.418 434.482C202.871 434.536 203.239 434.744 203.524 435.107C203.809 435.47 203.925 435.877 203.87 436.33C203.816 436.782 203.608 437.151 203.245 437.436C202.882 437.721 202.475 437.836 202.022 437.782C201.57 437.727 201.201 437.519 200.916 437.156C200.631 436.793 200.516 436.386 200.57 435.934C200.606 435.634 200.716 435.368 200.899 435.136C201.075 434.903 201.298 434.725 201.567 434.603C201.829 434.485 202.113 434.445 202.418 434.482Z" fill="white"/>
<path d="M188.206 451.733L185.866 435.017L185.649 434.973L176.985 449.459L174.633 448.982L185.193 431.828L187.51 432.298L190.559 452.209L188.206 451.733Z" fill="white"/>
<path d="M174.84 429.463L169.687 447.657L167.484 447.033L172.083 430.794L163.626 428.398L164.18 426.444L174.84 429.463Z" fill="white"/>
<path d="M161.404 425.519L163.658 426.346L150.629 441.709L148.41 440.895L148.401 420.751L150.655 421.578L150.48 438.468L150.619 438.519L161.404 425.519ZM158.029 432.149L148.944 428.818L149.644 426.911L158.728 430.242L158.029 432.149Z" fill="white"/>
<path d="M139.742 416.806L145.028 419.278L137.018 436.407L131.498 433.826C129.837 433.049 128.575 432.041 127.714 430.802C126.85 429.569 126.401 428.167 126.368 426.596C126.333 425.03 126.729 423.36 127.559 421.587C128.393 419.803 129.429 418.415 130.667 417.424C131.902 416.439 133.289 415.885 134.828 415.762C136.364 415.645 138.002 415.993 139.742 416.806ZM142.093 420.148L139.015 418.709C137.599 418.047 136.298 417.771 135.111 417.882C133.924 417.993 132.866 418.446 131.937 419.242C131.008 420.037 130.218 421.132 129.566 422.526C128.919 423.908 128.588 425.204 128.573 426.414C128.556 427.629 128.87 428.714 129.518 429.669C130.163 430.629 131.154 431.422 132.492 432.048L135.804 433.597L142.093 420.148Z" fill="white"/>
<path d="M110.999 412.041C112 410.317 113.177 409.007 114.53 408.113C115.882 407.219 117.299 406.746 118.78 406.696C120.262 406.645 121.7 407.025 123.094 407.835C124.489 408.645 125.531 409.706 126.221 411.018C126.911 412.33 127.203 413.795 127.096 415.412C126.989 417.03 126.435 418.701 125.433 420.426C124.432 422.15 123.255 423.46 121.902 424.354C120.55 425.249 119.133 425.721 117.651 425.772C116.17 425.822 114.732 425.443 113.337 424.633C111.943 423.823 110.901 422.762 110.21 421.45C109.52 420.138 109.229 418.673 109.336 417.055C109.443 415.437 109.997 413.766 110.999 412.041ZM112.915 413.154C112.092 414.57 111.635 415.903 111.543 417.152C111.446 418.398 111.653 419.505 112.167 420.472C112.674 421.436 113.423 422.205 114.413 422.78C115.403 423.355 116.445 423.626 117.54 423.593C118.629 423.556 119.693 423.188 120.732 422.49C121.767 421.788 122.695 420.729 123.517 419.313C124.34 417.897 124.799 416.566 124.897 415.32C124.989 414.071 124.781 412.964 124.273 412C123.76 411.033 123.009 410.262 122.019 409.687C121.029 409.112 119.989 408.843 118.9 408.879C117.806 408.913 116.742 409.28 115.707 409.982C114.668 410.681 113.737 411.739 112.915 413.154Z" fill="white"/>
<path d="M95.447 407.019C95.0014 407.85 94.953 408.702 95.3021 409.578C95.6511 410.453 96.2946 411.219 97.2326 411.875C97.9185 412.355 98.5962 412.664 99.2659 412.802C99.9306 412.937 100.542 412.911 101.102 412.724C101.656 412.533 102.106 412.19 102.452 411.696C102.741 411.283 102.892 410.858 102.903 410.423C102.906 409.99 102.82 409.565 102.645 409.149C102.467 408.739 102.25 408.351 101.995 407.985C101.737 407.624 101.491 407.305 101.256 407.028L99.9792 405.503C99.6498 405.115 99.3034 404.655 98.9397 404.122C98.5711 403.586 98.2727 402.998 98.0447 402.358C97.8082 401.719 97.7158 401.046 97.7677 400.338C97.8195 399.631 98.0996 398.914 98.6078 398.188C99.1937 397.35 99.9424 396.747 100.854 396.379C101.761 396.006 102.772 395.914 103.888 396.102C104.999 396.285 106.149 396.794 107.34 397.627C108.449 398.403 109.284 399.255 109.846 400.181C110.402 401.104 110.688 402.048 110.704 403.013C110.714 403.974 110.454 404.9 109.921 405.79L107.985 404.434C108.344 403.814 108.486 403.192 108.411 402.569C108.328 401.947 108.087 401.358 107.688 400.801C107.28 400.245 106.769 399.752 106.154 399.321C105.438 398.82 104.713 398.486 103.981 398.319C103.246 398.157 102.565 398.169 101.939 398.355C101.31 398.546 100.797 398.923 100.402 399.488C100.042 400.003 99.8929 400.522 99.9545 401.046C100.016 401.57 100.211 402.097 100.539 402.627C100.866 403.156 101.25 403.688 101.688 404.22L103.214 406.099C104.18 407.294 104.791 408.461 105.045 409.601C105.299 410.74 105.061 411.832 104.331 412.876C103.724 413.743 102.96 414.336 102.039 414.653C101.11 414.972 100.121 415.031 99.074 414.832C98.0181 414.634 96.9959 414.189 96.0075 413.497C95.0089 412.798 94.2467 411.998 93.7206 411.097C93.191 410.2 92.9146 409.285 92.8913 408.353C92.863 407.416 93.1097 406.548 93.6316 405.749L95.447 407.019Z" fill="white"/>
<path d="M95.0536 388.732L82.6893 403.038L77.6876 398.715C76.691 397.854 76.0179 396.971 75.6684 396.067C75.3149 395.168 75.2294 394.293 75.4118 393.441C75.5901 392.595 75.9812 391.822 76.5849 391.124C77.1162 390.509 77.6644 390.096 78.2294 389.885C78.7897 389.669 79.3475 389.598 79.9027 389.671C80.4532 389.74 80.9817 389.896 81.4881 390.138L81.6088 389.999C81.1952 389.592 80.888 389.058 80.687 388.397C80.4861 387.735 80.462 387.014 80.6147 386.235C80.7675 385.456 81.1698 384.689 81.8219 383.935C82.4417 383.218 83.1621 382.713 83.9832 382.422C84.8042 382.131 85.7113 382.122 86.7043 382.394C87.6973 382.667 88.7573 383.29 89.8843 384.264L95.0536 388.732ZM91.993 388.771L88.5561 385.801C87.4244 384.823 86.4319 384.347 85.5786 384.375C84.7165 384.403 84.0138 384.731 83.4705 385.36C83.0519 385.844 82.7889 386.398 82.6815 387.021C82.5702 387.649 82.636 388.283 82.8791 388.924C83.1181 389.57 83.5497 390.163 84.1737 390.702L87.6945 393.745L91.993 388.771ZM86.3904 395.254L83.177 392.477C82.6554 392.026 82.0965 391.722 81.5003 391.565C80.8994 391.403 80.3146 391.402 79.7458 391.561C79.1723 391.717 78.6682 392.046 78.2335 392.549C77.6902 393.177 77.4482 393.9 77.5076 394.716C77.563 395.537 78.0658 396.358 79.0158 397.179L82.2851 400.004L86.3904 395.254Z" fill="white"/>
<path d="M82.9896 378.022L84.6747 379.732L66.3334 388.06L64.6742 386.376L73.268 368.158L74.9531 369.868L67.5826 385.066L67.6862 385.171L82.9896 378.022ZM77.1067 382.576L70.3145 375.684L71.7612 374.258L78.5534 381.15L77.1067 382.576Z" fill="white"/>
<path d="M70.8983 365.367L56.4134 377.522L52.3064 372.628C51.3568 371.496 50.7707 370.405 50.548 369.354C50.3206 368.308 50.3953 367.329 50.772 366.418C51.1488 365.508 51.7639 364.694 52.6173 363.978C53.4708 363.262 54.3739 362.801 55.3269 362.596C56.2798 362.391 57.2475 362.491 58.2301 362.896C59.208 363.305 60.1677 364.07 61.1094 365.193L64.433 369.153L62.8487 370.483L59.5726 366.579C58.9237 365.805 58.2883 365.278 57.6663 364.996C57.0403 364.71 56.4309 364.635 55.8379 364.771C55.2362 364.906 54.6454 365.217 54.0655 365.704C53.4855 366.19 53.0696 366.724 52.8178 367.305C52.566 367.886 52.5221 368.513 52.6859 369.188C52.8451 369.866 53.2531 370.596 53.9099 371.379L56.4975 374.462L69.4265 363.613L70.8983 365.367ZM58.6701 364.009L62.1858 354.984L63.8951 357.021L60.3319 365.99L58.6701 364.009Z" fill="white"/>
<path d="M60.5989 352.732L45.1865 363.687L41.3566 358.299C40.5934 357.225 40.1497 356.208 40.0252 355.247C39.8958 354.289 40.0209 353.418 40.4005 352.635C40.7751 351.855 41.3387 351.198 42.0912 350.663C42.7535 350.192 43.3842 349.921 43.9832 349.851C44.5787 349.775 45.1374 349.838 45.6593 350.041C46.1776 350.239 46.6539 350.516 47.0881 350.872L47.2386 350.765C46.9335 350.272 46.7621 349.68 46.7243 348.99C46.6866 348.299 46.8345 347.594 47.1682 346.873C47.5019 346.153 48.0751 345.504 48.8879 344.926C49.6605 344.377 50.4802 344.058 51.3469 343.971C52.2136 343.883 53.0968 344.09 53.9966 344.591C54.8963 345.092 55.7776 345.949 56.6406 347.163L60.5989 352.732ZM57.6167 352.043L54.985 348.34C54.1184 347.121 53.2675 346.423 52.4321 346.247C51.5882 346.069 50.8276 346.22 50.1503 346.702C49.6285 347.073 49.2414 347.548 48.9889 348.128C48.7313 348.711 48.6444 349.343 48.7279 350.024C48.8065 350.708 49.0847 351.386 49.5626 352.058L52.2585 355.851L57.6167 352.043ZM50.633 357.007L48.1724 353.545C47.773 352.983 47.3024 352.555 46.7607 352.26C46.2155 351.961 45.6477 351.82 45.0573 351.84C44.4634 351.854 43.8955 352.054 43.3536 352.439C42.6763 352.92 42.2695 353.565 42.1331 354.371C41.9917 355.182 42.2847 356.099 43.0122 357.122L45.5156 360.644L50.633 357.007Z" fill="white"/>
<path d="M51.7972 340.063L35.6238 349.859L29.7113 340.098L31.4487 339.046L36.1748 346.848L41.6397 343.538L37.2197 336.241L38.9571 335.189L43.3771 342.486L48.8735 339.157L44.0708 331.228L45.8082 330.175L51.7972 340.063Z" fill="white"/>
<path d="M44.0144 326.899L27.1627 335.476L24.2644 329.782C23.5943 328.466 23.2692 327.271 23.289 326.197C23.3034 325.126 23.5967 324.189 24.1691 323.387C24.7414 322.584 25.524 321.931 26.5169 321.425C27.5098 320.92 28.4936 320.675 29.4682 320.69C30.4428 320.705 31.3631 321.02 32.2291 321.636C33.0897 322.255 33.8522 323.217 34.5167 324.523L36.8621 329.13L35.019 330.069L32.7071 325.527C32.2492 324.627 31.749 323.97 31.2064 323.555C30.6611 323.135 30.0843 322.925 29.4759 322.924C28.8593 322.92 28.2136 323.089 27.5388 323.433C26.8641 323.776 26.3386 324.203 25.9624 324.712C25.5861 325.221 25.4019 325.823 25.4096 326.516C25.4118 327.213 25.6447 328.016 26.1082 328.927L27.9342 332.514L42.9758 324.858L44.0144 326.899ZM32.4069 322.82L37.8662 314.82L39.0724 317.189L33.5796 325.124L32.4069 322.82Z" fill="white"/>
<path d="M19.7672 308.187C18.9452 308.648 18.4461 309.341 18.2699 310.267C18.0937 311.192 18.2246 312.184 18.6627 313.242C18.9831 314.015 19.3885 314.64 19.8789 315.117C20.367 315.587 20.8972 315.894 21.4693 316.037C22.0391 316.174 22.6026 316.127 23.16 315.896C23.6263 315.703 23.9813 315.426 24.2249 315.065C24.4605 314.701 24.6162 314.297 24.692 313.853C24.762 313.41 24.7881 312.967 24.7701 312.521C24.7464 312.078 24.7101 311.676 24.6611 311.317L24.4039 309.345C24.3349 308.84 24.2902 308.266 24.2698 307.622C24.247 306.971 24.3116 306.315 24.4636 305.652C24.6075 304.987 24.8915 304.369 25.3155 303.801C25.7396 303.232 26.361 302.778 27.1799 302.439C28.124 302.048 29.0794 301.942 30.0464 302.121C31.011 302.294 31.9134 302.76 32.7537 303.518C33.5916 304.27 34.2884 305.317 34.8443 306.66C35.3625 307.911 35.6093 309.078 35.5848 310.16C35.5579 311.238 35.2917 312.187 34.7861 313.01C34.2782 313.826 33.5607 314.467 32.6336 314.93L31.7291 312.747C32.3653 312.417 32.8193 311.969 33.0914 311.403C33.3554 310.834 33.4689 310.207 33.432 309.523C33.3871 308.835 33.2209 308.145 32.9335 307.451C32.5991 306.643 32.168 305.973 31.6402 305.438C31.1068 304.906 30.5263 304.551 29.8989 304.371C29.2657 304.193 28.6307 304.236 27.9938 304.5C27.4137 304.74 27.0088 305.098 26.7791 305.573C26.5494 306.048 26.4304 306.597 26.4219 307.22C26.4135 307.843 26.4512 308.497 26.535 309.182L26.8111 311.586C26.984 313.113 26.8714 314.426 26.4733 315.523C26.0751 316.621 25.2874 317.413 24.1103 317.901C23.1321 318.306 22.1696 318.395 21.2226 318.168C20.2676 317.937 19.4021 317.456 18.6262 316.725C17.8423 315.99 17.2195 315.065 16.7578 313.951C16.2914 312.825 16.0788 311.74 16.1198 310.697C16.1552 309.657 16.4137 308.737 16.8955 307.938C17.375 307.133 18.0496 306.534 18.9192 306.14L19.7672 308.187Z" fill="white"/>
<path d="M31.0754 298.144L13.0678 303.913L12.3692 301.733L20.3882 299.164L17.3121 289.562L9.29311 292.131L8.5945 289.951L26.602 284.181L27.3006 286.362L19.2465 288.942L22.3226 298.544L30.3768 295.964L31.0754 298.144Z" fill="white"/>
<path d="M13.0049 267.444C14.9516 267.011 16.7121 266.988 18.2866 267.375C19.861 267.763 21.1691 268.484 22.211 269.538C23.2529 270.593 23.949 271.907 24.2994 273.481C24.6497 275.055 24.5768 276.541 24.0806 277.938C23.5843 279.335 22.7054 280.542 21.444 281.561C20.1825 282.58 18.5784 283.305 16.6317 283.739C14.685 284.172 12.9245 284.195 11.3501 283.808C9.77564 283.42 8.4675 282.699 7.42563 281.645C6.38376 280.59 5.68763 279.276 5.33726 277.702C4.98688 276.128 5.05982 274.642 5.55606 273.245C6.05231 271.848 6.93118 270.641 8.19266 269.622C9.45415 268.604 11.0582 267.878 13.0049 267.444ZM13.4863 269.607C11.8881 269.963 10.5988 270.531 9.61831 271.31C8.63648 272.084 7.96414 272.987 7.6013 274.02C7.23712 275.047 7.17939 276.119 7.42813 277.236C7.67688 278.354 8.1846 279.303 8.95131 280.085C9.71669 280.861 10.7086 281.393 11.9272 281.683C13.1444 281.967 14.5521 281.931 16.1503 281.576C17.7485 281.22 19.0385 280.655 20.0203 279.882C21.0008 279.103 21.6732 278.199 22.0373 277.172C22.4002 276.139 22.4572 275.064 22.2085 273.947C21.9597 272.829 21.4527 271.883 20.6873 271.107C19.9206 270.325 18.9286 269.793 17.7115 269.509C16.4929 269.219 15.0845 269.252 13.4863 269.607Z" fill="white"/>
<path d="M21.6683 261.762L2.93087 264.304L2.07197 257.973C1.87255 256.503 1.97486 255.266 2.37891 254.26C2.77604 253.25 3.39229 252.458 4.22767 251.885C5.06306 251.312 6.03275 250.951 7.13675 250.801C8.24074 250.651 9.27472 250.741 10.2387 251.07C11.2018 251.392 12.015 251.984 12.6784 252.844C13.3356 253.706 13.7631 254.865 13.9609 256.323L14.5765 260.861L12.5637 261.134L11.958 256.669C11.8215 255.663 11.538 254.878 11.1076 254.315C10.6772 253.753 10.1475 253.374 9.51865 253.18C8.88285 252.98 8.18983 252.932 7.4396 253.033C6.68937 253.135 6.03746 253.366 5.48388 253.727C4.92947 254.082 4.52632 254.59 4.27442 255.252C4.01643 255.914 3.95652 256.755 4.09471 257.773L4.63587 261.762L21.3605 259.493L21.6683 261.762Z" fill="white"/>
<path d="M19.5123 240.581C19.5404 241.036 19.4017 241.436 19.0962 241.782C18.7907 242.128 18.4107 242.315 17.9561 242.343C17.5014 242.371 17.1012 242.232 16.7555 241.927C16.4098 241.621 16.2229 241.241 16.1948 240.786C16.1667 240.332 16.3054 239.932 16.6108 239.586C16.9163 239.24 17.2964 239.053 17.751 239.025C18.052 239.007 18.3332 239.066 18.5946 239.204C18.8556 239.336 19.0707 239.523 19.2399 239.766C19.4025 240.002 19.4933 240.274 19.5123 240.581Z" fill="white"/>
<path d="M18.9068 229.609L0 229.317L0.175054 217.98L2.20606 218.012L2.06636 227.059L8.4548 227.158L8.58139 218.96L10.6124 218.991L10.4858 227.189L18.9422 227.32L18.9068 229.609Z" fill="white"/>
<path d="M11.1661 199.449C13.1519 199.633 14.8347 200.151 16.2146 201.002C17.5945 201.854 18.6186 202.941 19.2871 204.264C19.9556 205.587 20.2153 207.051 20.0662 208.657C19.9172 210.263 19.3924 211.655 18.4918 212.832C17.5913 214.01 16.3845 214.89 14.8715 215.473C13.3585 216.055 11.6091 216.255 9.62335 216.07C7.63757 215.886 5.95474 215.368 4.57486 214.517C3.19498 213.666 2.17081 212.578 1.50235 211.255C0.833892 209.932 0.574182 208.468 0.723223 206.862C0.872264 205.256 1.39706 203.864 2.29762 202.687C3.19817 201.51 4.40494 200.629 5.91793 200.046C7.43092 199.464 9.18031 199.264 11.1661 199.449ZM10.9613 201.655C9.331 201.504 7.92974 201.649 6.75751 202.09C5.58585 202.525 4.66901 203.179 4.00699 204.051C3.34554 204.917 2.96191 205.92 2.8561 207.06C2.75029 208.2 2.9425 209.259 3.43273 210.238C3.92352 211.211 4.7044 212.022 5.77538 212.672C6.84692 213.315 8.19784 213.713 9.82814 213.864C11.4584 214.015 12.8594 213.873 14.0311 213.438C15.2033 212.997 16.1202 212.343 16.7816 211.477C17.4436 210.605 17.8275 209.599 17.9333 208.459C18.0392 207.319 17.8467 206.263 17.3559 205.29C16.8656 204.311 16.0848 203.5 15.0132 202.856C13.9422 202.207 12.5916 201.806 10.9613 201.655Z" fill="white"/>
<path d="M21.2945 195.915L2.66826 192.657L3.06281 190.402L19.6882 193.31L21.2028 184.652L23.2036 185.002L21.2945 195.915Z" fill="white"/>
<path d="M23.9033 181.97L5.54455 177.441L6.09295 175.218L22.4796 179.26L24.5847 170.727L26.5569 171.213L23.9033 181.97Z" fill="white"/>
<path d="M23.3437 150.568C25.2335 151.205 26.7517 152.097 27.8982 153.243C29.0447 154.389 29.7907 155.683 30.1362 157.125C30.4817 158.567 30.3969 160.051 29.8817 161.58C29.3666 163.108 28.5352 164.341 27.3875 165.279C26.2398 166.218 24.8626 166.796 23.256 167.014C21.6494 167.233 19.9012 167.023 18.0114 166.386C16.1216 165.749 14.6034 164.858 13.4569 163.711C12.3104 162.565 11.5644 161.271 11.2189 159.829C10.8734 158.388 10.9582 156.903 11.4733 155.374C11.9885 153.846 12.8199 152.613 13.9676 151.675C15.1153 150.737 16.4924 150.158 18.099 149.94C19.7056 149.721 21.4538 149.931 23.3437 150.568ZM22.6358 152.668C21.0843 152.145 19.6873 151.963 18.4449 152.122C17.2045 152.275 16.1617 152.7 15.3165 153.396C14.4733 154.086 13.8689 154.974 13.5031 156.059C13.1374 157.144 13.0803 158.219 13.3317 159.284C13.585 160.344 14.1579 161.313 15.0503 162.192C15.9447 163.065 17.1677 163.764 18.7192 164.287C20.2708 164.81 21.6667 164.994 22.9072 164.841C24.1496 164.682 25.1924 164.257 26.0356 163.567C26.8808 162.871 27.4862 161.98 27.8519 160.895C28.2176 159.811 28.2738 158.738 28.0204 157.678C27.769 156.613 27.1962 155.644 26.3018 154.77C25.4094 153.892 24.1874 153.191 22.6358 152.668Z" fill="white"/>
<path d="M35.2217 146.43L15.8785 143.248L16.8483 141.133L32.4944 143.961L32.5713 143.793L20.2506 133.714L21.3282 131.364L37.005 134.124L37.082 133.957L24.7305 123.945L25.7003 121.83L40.733 134.412L39.7478 136.56L24.3115 134.073L24.2499 134.207L36.207 144.282L35.2217 146.43Z" fill="white"/>
<path d="M37.2671 102.724L38.4821 100.784L49.0941 107.427C50.1898 108.113 51.0063 108.983 51.5439 110.039C52.0794 111.086 52.3027 112.231 52.2137 113.475C52.1195 114.716 51.6789 115.965 50.8918 117.223C50.1047 118.48 49.1736 119.422 48.0985 120.049C47.0182 120.673 45.8886 120.975 44.7096 120.956C43.5287 120.928 42.3904 120.572 41.2948 119.886L30.6827 113.243L31.8977 111.302L42.3532 117.847C43.1358 118.337 43.9401 118.601 44.7661 118.638C45.5869 118.673 46.3713 118.481 47.1193 118.064C47.8654 117.638 48.5176 116.978 49.0761 116.086C49.6346 115.194 49.9426 114.319 50 113.462C50.0521 112.601 49.8817 111.812 49.4888 111.094C49.094 110.368 48.5052 109.76 47.7226 109.27L37.2671 102.724Z" fill="white"/>
<path d="M51.4638 91.0121C50.6471 90.5424 49.7962 90.4692 48.911 90.7925C48.0258 91.1158 47.2414 91.7367 46.5579 92.6551C46.058 93.3266 45.7293 93.9951 45.5717 94.6604C45.4178 95.3208 45.4262 95.9332 45.5969 96.4977C45.7713 97.0572 46.1004 97.517 46.5843 97.8772C46.9892 98.1785 47.409 98.3414 47.8437 98.3656C48.277 98.3813 48.704 98.3077 49.1244 98.1449C49.5399 97.9784 49.9343 97.7732 50.3077 97.5293C50.6761 97.2818 51.0021 97.0448 51.2856 96.8185L52.847 95.5867C53.2447 95.2688 53.715 94.9359 54.2579 94.588C54.8044 94.2352 55.4011 93.9542 56.0478 93.745C56.6934 93.5272 57.3689 93.4545 58.0746 93.5271C58.7803 93.5996 59.4886 93.9004 60.1997 94.4297C61.0193 95.0397 61.6001 95.8058 61.942 96.7279C62.2876 97.645 62.3504 98.6585 62.1304 99.7685C61.9141 100.874 61.3723 102.009 60.5049 103.174C59.6964 104.26 58.821 105.071 57.8787 105.605C56.9401 106.134 55.9882 106.392 55.023 106.379C54.0615 106.362 53.1439 106.074 52.2702 105.516L53.6815 103.62C54.291 103.997 54.9084 104.157 55.5336 104.101C56.1575 104.036 56.7537 103.812 57.3223 103.429C57.8896 103.038 58.3975 102.542 58.8459 101.939C59.3677 101.238 59.7227 100.524 59.9109 99.7969C60.0941 99.0663 60.1021 98.3854 59.9348 97.7545C59.7626 97.1199 59.4 96.5968 58.847 96.1852C58.3433 95.8103 57.8288 95.646 57.3033 95.6922C56.7778 95.7385 56.2454 95.9177 55.7061 96.2299C55.1668 96.5421 54.6246 96.9097 54.0796 97.3327L52.1571 98.8023C50.9343 99.7337 49.7497 100.31 48.6031 100.531C47.4566 100.752 46.3723 100.482 45.3502 99.7209C44.5009 99.0888 43.9311 98.3079 43.6409 97.3783C43.3494 96.44 43.3187 95.4504 43.5488 94.4093C43.7776 93.3596 44.2522 92.3508 44.9725 91.383C45.7002 90.4054 46.5223 89.6668 47.4389 89.1673C48.3505 88.6642 49.2729 88.4146 50.206 88.4186C51.1429 88.4176 52.0032 88.6896 52.7869 89.2346L51.4638 91.0121Z" fill="white"/>
<path d="M72.923 73.6498C74.3834 75.0079 75.4004 76.4452 75.9738 77.9618C76.5472 79.4783 76.6949 80.9647 76.4168 82.4208C76.1387 83.8768 75.4506 85.1954 74.3525 86.3764C73.2543 87.5574 71.9892 88.3395 70.5572 88.7225C69.1251 89.1056 67.632 89.0662 66.0778 88.6044C64.5235 88.1426 63.0162 87.2327 61.5557 85.8747C60.0952 84.5167 59.0782 83.0794 58.5048 81.5628C57.9314 80.0462 57.7837 78.5598 58.0618 77.1038C58.3399 75.6477 59.028 74.3291 60.1262 73.1481C61.2243 71.9671 62.4894 71.1851 63.9215 70.802C65.3535 70.4189 66.8467 70.4583 68.4009 70.9201C69.9551 71.3819 71.4625 72.2918 72.923 73.6498ZM71.414 75.2726C70.215 74.1577 69.0165 73.4173 67.8185 73.0514C66.6248 72.6811 65.4996 72.6392 64.4429 72.9259C63.3905 73.208 62.4745 73.7683 61.6949 74.6068C60.9152 75.4452 60.4208 76.4017 60.2116 77.4764C60.0066 78.5465 60.1301 79.6657 60.582 80.834C61.038 81.9977 61.8656 83.137 63.0646 84.2519C64.2637 85.3669 65.4601 86.1095 66.6538 86.4799C67.8518 86.8457 68.977 86.8876 70.0294 86.6054C71.086 86.3187 72.0042 85.7562 72.7838 84.9178C73.5634 84.0793 74.0557 83.125 74.2607 82.0549C74.4699 80.9802 74.3465 79.861 73.8904 78.6973C73.4385 77.5291 72.6131 76.3875 71.414 75.2726Z" fill="white"/>
<path d="M80.4941 53.8592L93.1166 67.9386L91.4666 69.4177L73.8839 65.2415L73.7464 65.3647L83.657 76.4192L81.9521 77.9477L69.3296 63.8684L70.9796 62.3892L88.6144 66.5683L88.7519 66.445L78.8167 55.363L80.4941 53.8592Z" fill="white"/>
<path d="M92.3603 44.5668L103.706 59.6941L101.874 61.0679L90.5285 45.9406L92.3603 44.5668Z" fill="white"/>
<path d="M107.367 34.2621L117.809 50.0269L115.961 51.2505L99.1725 44.5625L99.0186 44.6644L107.217 57.0422L105.308 58.3066L94.8663 42.5419L96.7137 41.3182L113.554 48.0167L113.708 47.9147L105.489 35.5061L107.367 34.2621Z" fill="white"/>
<path d="M125.734 29.3131C125.191 28.5434 124.449 28.119 123.51 28.0399C122.571 27.9607 121.599 28.194 120.592 28.7396C119.856 29.1385 119.277 29.6066 118.854 30.1439C118.436 30.6782 118.186 31.2374 118.104 31.8212C118.026 32.4022 118.132 32.9578 118.419 33.4881C118.659 33.9319 118.972 34.2562 119.356 34.4611C119.742 34.6576 120.161 34.7705 120.611 34.7996C121.058 34.8234 121.502 34.8032 121.943 34.7391C122.381 34.6695 122.777 34.5917 123.129 34.5056L125.064 34.045C125.559 33.924 126.125 33.8199 126.764 33.7327C127.408 33.6425 128.068 33.6386 128.743 33.7209C129.42 33.7949 130.063 34.0133 130.673 34.376C131.283 34.7386 131.799 35.3096 132.221 36.0889C132.708 36.9872 132.913 37.9265 132.835 38.9068C132.762 39.8842 132.393 40.8301 131.726 41.7445C131.065 42.656 130.096 43.4579 128.819 44.1501C127.629 44.7954 126.494 45.1621 125.414 45.2501C124.34 45.3352 123.368 45.1691 122.497 44.7517C121.632 44.3313 120.921 43.6842 120.363 42.8103L122.441 41.6839C122.836 42.2823 123.328 42.6874 123.919 42.8992C124.513 43.1027 125.148 43.1506 125.824 43.0428C126.504 42.9267 127.173 42.6897 127.833 42.3319C128.602 41.9153 129.224 41.4169 129.701 40.8365C130.175 40.2507 130.468 39.6364 130.582 38.9937C130.693 38.3455 130.584 37.7184 130.255 37.1123C129.956 36.5604 129.558 36.1948 129.062 36.0157C128.566 35.8365 128.008 35.7751 127.387 35.8315C126.767 35.8878 126.12 35.9932 125.448 36.1476L123.085 36.6719C121.584 37.0025 120.267 37.0268 119.134 36.7448C118.001 36.4628 117.131 35.7617 116.524 34.6415C116.019 33.7107 115.831 32.7626 115.959 31.7971C116.089 30.8233 116.477 29.9126 117.124 29.065C117.773 28.2089 118.628 27.4935 119.689 26.9186C120.76 26.3378 121.817 26.0137 122.859 25.9462C123.897 25.8732 124.839 26.0349 125.684 26.4311C126.534 26.8244 127.2 27.4331 127.682 28.2572L125.734 29.3131Z" fill="white"/>
<path d="M129.783 24.2292L128.957 22.3735L141.913 16.6063L142.739 18.462L137.307 20.88L144.17 36.2993L142.078 37.2304L135.215 21.8112L129.783 24.2292Z" fill="white"/>
<path d="M151.382 33.1913L149.119 33.9923L149.355 13.8502L151.583 13.0615L164.437 28.5703L162.174 29.3713L151.537 16.2512L151.397 16.3005L151.382 33.1913ZM149.753 25.9325L158.874 22.704L159.552 24.6188L150.43 27.8474L149.753 25.9325Z" fill="white"/>
<path d="M176.734 11.7724C176.382 11.2214 175.983 10.7492 175.538 10.3558C175.097 9.95485 174.612 9.64161 174.083 9.41607C173.56 9.189 172.999 9.05778 172.398 9.02244C171.798 8.9871 171.167 9.05502 170.505 9.22621C169.421 9.5069 168.507 10.0422 167.764 10.8321C167.021 11.6221 166.529 12.6301 166.287 13.8564C166.044 15.0826 166.128 16.4882 166.539 18.0733C166.949 19.6584 167.56 20.9275 168.373 21.8808C169.185 22.834 170.117 23.4735 171.168 23.7992C172.219 24.1249 173.31 24.1413 174.442 23.8483C175.491 23.5768 176.357 23.1143 177.04 22.4607C177.727 21.7997 178.188 21.0001 178.422 20.0621C178.66 19.1166 178.634 18.0837 178.345 16.9634L179.061 16.9306L173.555 18.3556L173.046 16.3892L180.018 14.5848L180.527 16.5512C180.917 18.0589 180.934 19.4531 180.579 20.734C180.23 22.0133 179.572 23.1056 178.604 24.0109C177.641 24.9086 176.433 25.5457 174.979 25.922C173.358 26.3415 171.835 26.3287 170.41 25.8836C168.991 25.437 167.757 24.5993 166.708 23.3703C165.665 22.1398 164.893 20.5592 164.393 18.6285C164.019 17.1805 163.875 15.8283 163.964 14.572C164.056 13.3082 164.354 12.1756 164.858 11.1742C165.362 10.1727 166.046 9.32804 166.911 8.64011C167.775 7.95218 168.795 7.45631 169.969 7.15249C170.934 6.90265 171.872 6.81577 172.781 6.89184C173.696 6.96042 174.549 7.17506 175.342 7.53576C176.139 7.88897 176.853 8.37498 177.484 8.99381C178.113 9.60668 178.626 10.3355 179.022 11.1802L176.734 11.7724Z" fill="white"/>
<path d="M186.29 22.9696L183.103 4.33097L189.401 3.25415C190.857 3.00518 192.095 3.04957 193.114 3.38732C194.133 3.71901 194.94 4.27725 195.536 5.06203C196.133 5.84681 196.525 6.78829 196.713 7.88646C196.9 8.98464 196.842 9.99681 196.539 10.923C196.235 11.8492 195.66 12.6343 194.815 13.2784C193.969 13.9165 192.823 14.3589 191.379 14.6058L186.283 15.4772L185.934 13.4386L190.958 12.5797C191.953 12.4095 192.729 12.127 193.286 11.732C193.849 11.336 194.221 10.8477 194.403 10.2671C194.59 9.67941 194.619 9.01242 194.492 8.26615C194.364 7.51988 194.113 6.89151 193.739 6.38104C193.364 5.87057 192.845 5.51605 192.18 5.31746C191.514 5.11281 190.678 5.09659 189.671 5.26879L185.703 5.94725L188.547 22.5837L186.29 22.9696ZM193.632 13.0967L199.65 20.6852L197.029 21.1334L191.084 13.5324L193.632 13.0967Z" fill="white"/>
<path d="M202.201 20.3961L199.809 20.6087L205.05 1.15893L207.405 0.949553L215.996 19.1693L213.604 19.3819L206.566 4.02742L206.419 4.0405L202.201 20.3961ZM202.429 12.9602L212.067 12.1031L212.247 14.1264L202.609 14.9835L202.429 12.9602Z" fill="white"/>
<path d="M219.378 0L222.111 0.0210992L228.416 15.7663L228.637 15.768L235.185 0.122033L237.917 0.143132L237.771 19.0517L235.63 19.0351L235.74 4.66907L235.556 4.66765L229.536 18.9881L227.468 18.9721L221.67 4.56044L221.485 4.55902L221.374 18.9251L219.232 18.9085L219.378 0Z" fill="white"/>
<path d="M248.185 20.1356C247.731 20.09 247.359 19.8886 247.067 19.5314C246.775 19.1741 246.652 18.7689 246.697 18.3157C246.743 17.8625 246.944 17.4899 247.302 17.198C247.659 16.906 248.064 16.7829 248.517 16.8285C248.97 16.874 249.343 17.0755 249.635 17.4327C249.927 17.7899 250.05 18.1952 250.005 18.6484C249.974 18.9485 249.87 19.2164 249.692 19.4521C249.519 19.6884 249.3 19.8705 249.034 19.9983C248.774 20.1207 248.491 20.1664 248.185 20.1356Z" fill="white"/>
<path d="M262.094 2.57904L264.754 19.2467L264.972 19.2865L273.357 4.63803L275.718 5.06975L265.487 22.4219L263.162 21.9968L259.733 2.14732L262.094 2.57904Z" fill="white"/>
<path d="M275.961 24.5676L280.768 6.27982L282.983 6.86194L278.692 23.1853L287.193 25.4198L286.676 27.3844L275.961 24.5676Z" fill="white"/>
<path d="M289.261 28.1443L286.992 27.3604L299.73 11.7553L301.964 12.5271L302.351 32.6669L300.082 31.883L299.94 14.9928L299.8 14.9445L289.261 28.1443ZM292.511 21.4523L301.657 24.6121L300.993 26.532L291.848 23.3722L292.511 21.4523Z" fill="white"/>
<path d="M311.199 36.4301L305.868 34.0571L313.558 16.7822L319.125 19.2603C320.801 20.0062 322.081 20.9903 322.965 22.2127C323.852 23.4294 324.326 24.8231 324.389 26.3937C324.453 27.9586 324.088 29.6352 323.292 31.4235C322.491 33.2229 321.481 34.6295 320.261 35.6431C319.045 36.6511 317.668 37.231 316.132 37.3826C314.598 37.5286 312.954 37.2111 311.199 36.4301ZM308.786 33.1326L311.89 34.5143C313.319 35.1501 314.625 35.4015 315.81 35.2684C316.994 35.1353 318.043 34.6625 318.957 33.8499C319.872 33.0374 320.642 31.9282 321.267 30.5223C321.888 29.1277 322.195 27.8258 322.187 26.6164C322.182 25.4015 321.847 24.3226 321.182 23.3797C320.52 22.4313 319.514 21.6567 318.164 21.0559L314.824 19.5691L308.786 33.1326Z" fill="white"/>
<path d="M340.855 41.089C339.879 42.8281 338.721 44.1547 337.382 45.069C336.043 45.9832 334.634 46.4766 333.153 46.549C331.672 46.6214 330.229 46.263 328.823 45.4736C327.416 44.6843 326.358 43.6388 325.649 42.3371C324.94 41.0354 324.627 39.575 324.71 37.9558C324.793 36.3365 325.322 34.6573 326.298 32.9183C327.275 31.1792 328.432 29.8525 329.771 28.9382C331.11 28.024 332.52 27.5307 334.001 27.4582C335.481 27.3858 336.925 27.7442 338.331 28.5336C339.737 29.3229 340.795 30.3685 341.504 31.6701C342.214 32.9718 342.527 34.4322 342.444 36.0515C342.361 37.6707 341.831 39.3499 340.855 41.089ZM338.923 40.0044C339.724 38.5766 340.162 37.2375 340.235 35.9871C340.314 34.7397 340.09 33.6363 339.563 32.6768C339.041 31.7203 338.281 30.9619 337.283 30.4015C336.284 29.8411 335.238 29.5857 334.144 29.6354C333.056 29.688 331.997 30.0714 330.968 30.7855C329.945 31.5026 329.032 32.5751 328.231 34.0029C327.429 35.4306 326.989 36.7682 326.91 38.0156C326.836 39.266 327.061 40.3694 327.583 41.3259C328.11 42.2854 328.873 43.0453 329.871 43.6057C330.869 44.1661 331.913 44.42 333.001 44.3673C334.095 44.3177 335.154 43.9343 336.177 43.2172C337.206 42.5031 338.121 41.4321 338.923 40.0044Z" fill="white"/>
<path d="M356.282 45.6903C356.716 44.8538 356.751 44.0005 356.39 43.1303C356.028 42.2601 355.373 41.5037 354.426 40.8611C353.733 40.3912 353.051 40.0921 352.379 39.9638C351.712 39.839 351.101 39.8742 350.545 40.0695C349.993 40.2683 349.548 40.6173 349.21 41.1165C348.926 41.5342 348.782 41.9607 348.777 42.396C348.78 42.8297 348.873 43.253 349.054 43.6659C349.238 44.0737 349.46 44.4587 349.72 44.821C349.984 45.1782 350.235 45.4935 350.474 45.7668L351.773 47.2727C352.108 47.6561 352.461 48.1114 352.832 48.6384C353.209 49.169 353.516 49.7528 353.753 50.3897C353.999 51.0251 354.101 51.6968 354.059 52.405C354.018 53.1132 353.748 53.834 353.251 54.5676C352.677 55.4132 351.938 56.027 351.031 56.409C350.13 56.7945 349.12 56.9017 348.002 56.7306C346.888 56.5629 345.731 56.0714 344.528 55.256C343.408 54.4958 342.56 53.6568 341.985 52.7389C341.415 51.8244 341.115 50.8847 341.086 49.9199C341.061 48.9585 341.308 48.0292 341.827 47.1319L343.784 48.4587C343.434 49.0841 343.301 49.7079 343.385 50.33C343.477 50.9505 343.727 51.5364 344.134 52.0876C344.549 52.6373 345.068 53.1228 345.689 53.5444C346.413 54.035 347.142 54.3583 347.876 54.5144C348.614 54.6654 349.295 54.6436 349.918 54.4488C350.544 54.2489 351.051 53.8637 351.438 53.2932C351.79 52.7736 351.932 52.2523 351.863 51.7293C351.793 51.2064 351.591 50.6823 351.255 50.1572C350.92 49.6322 350.529 49.1066 350.082 48.5807L348.53 46.7245C347.546 45.5437 346.918 44.3855 346.647 43.2497C346.376 42.114 346.598 41.0188 347.314 39.9644C347.908 39.0882 348.663 38.4847 349.579 38.154C350.504 37.8216 351.491 37.7476 352.541 37.9318C353.6 38.1144 354.629 38.5443 355.627 39.2215C356.636 39.9056 357.409 40.6945 357.949 41.5883C358.491 42.477 358.781 43.3875 358.818 44.32C358.86 45.2559 358.626 46.1273 358.116 46.9341L356.282 45.6903Z" fill="white"/>
<path d="M357.077 63.9702L369.232 49.4852L374.296 53.7347C375.305 54.5814 375.991 55.4542 376.353 56.3531C376.72 57.2473 376.818 58.1213 376.648 58.975C376.482 59.824 376.102 60.6021 375.509 61.3094C374.987 61.9318 374.444 62.3528 373.883 62.5723C373.325 62.7958 372.769 62.8751 372.213 62.8102C371.661 62.7492 371.13 62.6012 370.62 62.3661L370.502 62.5076C370.921 62.9078 371.236 63.4373 371.447 64.0961C371.657 64.7549 371.692 65.4749 371.551 66.2563C371.409 67.0376 371.018 67.8102 370.377 68.574C369.768 69.3002 369.055 69.8147 368.238 70.1177C367.421 70.4207 366.514 70.4433 365.518 70.1853C364.521 69.9273 363.452 69.3196 362.311 68.3621L357.077 63.9702ZM360.137 63.8861L363.616 66.8061C364.762 67.7675 365.761 68.2285 366.614 68.1888C367.476 68.1484 368.174 67.8099 368.708 67.1734C369.119 66.683 369.374 66.1255 369.473 65.5009C369.575 64.8715 369.5 64.238 369.247 63.6004C368.999 62.958 368.559 62.3717 367.927 61.8415L364.362 58.8503L360.137 63.8861ZM365.644 57.3226L368.898 60.0527C369.426 60.4958 369.989 60.7917 370.588 60.9403C371.191 61.0929 371.775 61.0855 372.342 60.9179C372.913 60.7544 373.412 60.418 373.84 59.9088C374.374 59.2722 374.605 58.5464 374.534 57.7312C374.467 56.9114 373.952 56.0978 372.99 55.2907L369.68 52.5131L365.644 57.3226Z" fill="white"/>
<path d="M369.367 74.4894L367.657 72.8043L385.875 64.2105L387.559 65.8697L379.231 84.211L377.521 82.5259L384.67 67.2225L384.565 67.1189L369.367 74.4894ZM375.183 69.8508L382.074 76.643L380.649 78.0897L373.757 71.2975L375.183 69.8508Z" fill="white"/>
<path d="M381.712 86.9638L396.018 74.5995L400.196 79.4336C401.162 80.5513 401.764 81.6337 402.002 82.6809C402.244 83.7241 402.184 84.7038 401.82 85.62C401.457 86.5361 400.854 87.3584 400.011 88.0869C399.168 88.8154 398.272 89.2891 397.322 89.508C396.372 89.7268 395.403 89.641 394.414 89.2504C393.431 88.8559 392.46 88.1044 391.502 86.996L388.121 83.0841L389.686 81.7317L393.018 85.5878C393.678 86.3515 394.322 86.8697 394.948 87.1422C395.578 87.4194 396.188 87.4856 396.779 87.341C397.379 87.197 397.965 86.8775 398.538 86.3825C399.111 85.8874 399.519 85.3476 399.762 84.7631C400.005 84.1786 400.04 83.5505 399.866 82.8789C399.697 82.2033 399.279 81.4789 398.611 80.7059L395.978 77.6601L383.209 88.6963L381.712 86.9638ZM393.958 88.1437L390.574 97.2187L388.836 95.2069L392.268 86.1877L393.958 88.1437Z" fill="white"/>
<path d="M391.896 98.992L407.106 87.7574L411.034 93.0749C411.817 94.1344 412.279 95.1436 412.421 96.1024C412.568 97.0576 412.459 97.9302 412.093 98.7204C411.733 99.5069 411.182 100.174 410.439 100.723C409.785 101.206 409.16 101.488 408.562 101.57C407.968 101.657 407.408 101.603 406.883 101.41C406.361 101.221 405.88 100.953 405.439 100.605L405.29 100.715C405.605 101.202 405.787 101.791 405.837 102.481C405.887 103.17 405.752 103.879 405.432 104.605C405.111 105.331 404.55 105.991 403.748 106.583C402.986 107.147 402.172 107.48 401.307 107.583C400.442 107.686 399.555 107.496 398.646 107.011C397.738 106.527 396.841 105.686 395.956 104.488L391.896 98.992ZM394.891 99.627L397.59 103.281C398.478 104.484 399.342 105.166 400.18 105.327C401.027 105.49 401.785 105.324 402.454 104.831C402.968 104.45 403.347 103.968 403.589 103.384C403.836 102.796 403.911 102.162 403.815 101.483C403.724 100.801 403.433 100.128 402.943 99.4642L400.179 95.7212L394.891 99.627ZM401.783 94.5363L404.306 97.9525C404.716 98.507 405.194 98.9267 405.741 99.2113C406.292 99.501 406.862 99.6307 407.452 99.6006C408.045 99.5753 408.61 99.3653 409.144 98.9703C409.813 98.4766 410.208 97.8251 410.329 97.016C410.456 96.2031 410.146 95.2917 409.4 94.2817L406.833 90.806L401.783 94.5363Z" fill="white"/>
<path d="M400.999 111.552L416.989 101.46L423.08 111.111L421.362 112.195L416.494 104.481L411.091 107.891L415.644 115.105L413.926 116.19L409.373 108.975L403.939 112.405L408.886 120.244L407.168 121.328L400.999 111.552Z" fill="white"/>
<path d="M409.099 124.665L425.789 115.777L428.792 121.416C429.487 122.72 429.834 123.909 429.834 124.983C429.839 126.054 429.563 126.996 429.006 127.809C428.449 128.622 427.678 129.29 426.695 129.814C425.711 130.337 424.732 130.601 423.758 130.604C422.783 130.607 421.857 130.308 420.98 129.708C420.108 129.106 419.328 128.158 418.639 126.865L416.209 122.301L418.034 121.329L420.43 125.828C420.904 126.719 421.417 127.366 421.967 127.771C422.52 128.181 423.1 128.38 423.709 128.37C424.325 128.363 424.968 128.181 425.636 127.825C426.304 127.469 426.822 127.033 427.188 126.517C427.555 126.001 427.728 125.396 427.708 124.703C427.693 124.007 427.445 123.208 426.965 122.306L425.073 118.753L410.175 126.686L409.099 124.665ZM420.78 128.528L415.47 136.628L414.22 134.281L419.565 126.246L420.78 128.528Z" fill="white"/>
<path d="M433.682 142.867C434.495 142.392 434.982 141.689 435.14 140.761C435.299 139.832 435.15 138.843 434.692 137.793C434.357 137.026 433.94 136.409 433.441 135.941C432.944 135.48 432.409 135.183 431.834 135.051C431.262 134.925 430.699 134.982 430.146 135.223C429.683 135.425 429.334 135.708 429.097 136.074C428.868 136.442 428.72 136.849 428.652 137.295C428.591 137.738 428.573 138.183 428.599 138.628C428.631 139.07 428.675 139.471 428.731 139.83L429.025 141.797C429.103 142.3 429.158 142.873 429.191 143.517C429.226 144.167 429.173 144.824 429.034 145.489C428.902 146.158 428.63 146.78 428.217 147.357C427.803 147.933 427.19 148.399 426.378 148.753C425.441 149.162 424.488 149.286 423.518 149.124C422.55 148.969 421.639 148.52 420.785 147.778C419.933 147.042 419.217 146.008 418.636 144.676C418.095 143.435 417.826 142.273 417.831 141.19C417.837 140.112 418.086 139.158 418.576 138.326C419.068 137.5 419.774 136.847 420.692 136.366L421.637 138.532C421.007 138.874 420.562 139.33 420.3 139.901C420.047 140.475 419.945 141.103 419.995 141.787C420.053 142.474 420.232 143.161 420.532 143.849C420.881 144.65 421.325 145.313 421.863 145.838C422.406 146.359 422.993 146.704 423.624 146.872C424.26 147.038 424.894 146.983 425.526 146.707C426.101 146.456 426.499 146.091 426.72 145.612C426.941 145.133 427.05 144.582 427.047 143.959C427.043 143.336 426.994 142.683 426.897 141.999L426.576 139.601C426.375 138.077 426.463 136.763 426.84 135.658C427.218 134.553 427.991 133.746 429.159 133.236C430.129 132.813 431.09 132.706 432.041 132.916C433 133.129 433.874 133.594 434.664 134.31C435.461 135.03 436.101 135.943 436.583 137.049C437.071 138.166 437.304 139.246 437.282 140.29C437.266 141.331 437.025 142.255 436.558 143.063C436.094 143.877 435.43 144.489 434.568 144.898L433.682 142.867Z" fill="white"/>
<path d="M422.541 153L440.437 146.892L441.177 149.059L433.207 151.779L436.464 161.321L444.433 158.601L445.173 160.768L427.277 166.876L426.538 164.709L434.542 161.977L431.285 152.435L423.281 155.167L422.541 153Z" fill="white"/>
<path d="M441.227 183.387C439.289 183.857 437.529 183.914 435.947 183.556C434.366 183.199 433.044 182.503 431.983 181.469C430.921 180.434 430.2 179.133 429.819 177.566C429.439 175.999 429.484 174.512 429.953 173.106C430.423 171.7 431.279 170.476 432.521 169.434C433.762 168.391 435.352 167.635 437.29 167.165C439.229 166.694 440.988 166.638 442.57 166.995C444.151 167.352 445.473 168.048 446.535 169.083C447.596 170.117 448.318 171.418 448.698 172.985C449.078 174.553 449.033 176.039 448.564 177.445C448.094 178.851 447.239 180.076 445.997 181.118C444.755 182.16 443.165 182.917 441.227 183.387ZM440.704 181.234C442.295 180.847 443.574 180.255 444.539 179.457C445.506 178.665 446.161 177.75 446.504 176.71C446.849 175.676 446.886 174.603 446.616 173.49C446.346 172.378 445.82 171.438 445.039 170.671C444.259 169.911 443.257 169.397 442.033 169.13C440.811 168.869 439.404 168.932 437.813 169.318C436.222 169.704 434.943 170.293 433.976 171.085C433.01 171.883 432.355 172.799 432.011 173.833C431.668 174.872 431.631 175.948 431.901 177.061C432.171 178.174 432.696 179.11 433.476 179.871C434.258 180.638 435.259 181.152 436.482 181.413C437.706 181.679 439.113 181.62 440.704 181.234Z" fill="white"/>
<path d="M432.703 189.309L451.388 186.408L452.368 192.722C452.596 194.188 452.517 195.427 452.133 196.44C451.755 197.458 451.154 198.261 450.33 198.85C449.506 199.439 448.543 199.819 447.442 199.99C446.341 200.161 445.306 200.091 444.336 199.781C443.367 199.476 442.542 198.901 441.862 198.053C441.189 197.205 440.739 196.054 440.513 194.6L439.811 190.074L441.818 189.763L442.509 194.215C442.665 195.219 442.964 195.998 443.405 196.552C443.846 197.107 444.383 197.475 445.015 197.657C445.655 197.844 446.348 197.88 447.097 197.764C447.845 197.648 448.492 197.404 449.039 197.032C449.586 196.667 449.979 196.151 450.219 195.485C450.464 194.818 450.508 193.976 450.35 192.961L449.732 188.983L433.054 191.572L432.703 189.309Z" fill="white"/>
<path d="M435.334 211.238C435.299 210.784 435.431 210.382 435.731 210.031C436.032 209.681 436.409 209.488 436.863 209.453C437.317 209.418 437.719 209.551 438.07 209.851C438.42 210.151 438.613 210.528 438.648 210.982C438.683 211.436 438.55 211.838 438.25 212.189C437.95 212.539 437.573 212.732 437.119 212.767C436.818 212.79 436.536 212.735 436.273 212.601C436.01 212.473 435.792 212.289 435.619 212.05C435.453 211.816 435.358 211.545 435.334 211.238Z" fill="white"/>
</svg>
