<svg width="127" height="92" viewBox="0 0 127 92" fill="none" xmlns="http://www.w3.org/2000/svg">
<g clip-path="url(#clip0_218_15)">
<path d="M86.6787 74.1131C86.7486 71.4455 87.8715 68.8792 90.5125 67.1023C91.5848 66.3805 92.768 65.9266 94.0307 65.6369C95.7656 65.241 97.5151 65.2193 99.25 65.48C101.865 65.8735 104.139 66.9647 105.754 69.1592C106.556 70.248 107.016 71.4744 107.267 72.8143C107.527 74.1976 107.469 75.5544 107.156 76.8967C106.631 79.1467 105.387 80.9236 103.409 82.1403C100.975 83.6371 98.2982 84.0065 95.4789 83.724C94.3584 83.613 93.2499 83.3691 92.2113 82.9322C89.6764 81.8675 87.9197 80.1124 87.1245 77.522C86.8257 76.5515 86.6739 75.5641 86.6763 74.1131H86.6787ZM96.8187 82.4614C98.9392 82.4349 100.448 81.643 101.648 80.2476C102.898 78.7942 103.462 77.0584 103.566 75.1705C103.698 72.795 103.204 70.5788 101.612 68.7367C100.026 66.9019 98.0018 66.1704 95.6259 66.7354C93.8885 67.1482 92.58 68.2491 91.739 69.8062C90.0474 72.9398 90.0233 76.1362 91.7631 79.2433C92.8957 81.264 94.6813 82.4011 96.8187 82.459V82.4614Z" fill="black"/>
<path d="M69.8449 65.7023C71.2642 65.6468 72.4136 65.6082 73.563 65.5551C75.1582 65.4827 76.7269 65.6178 78.2257 66.2021C80.2475 66.9891 81.7849 68.3073 82.6355 70.3448C83.3656 72.0951 83.4596 73.9106 83.2017 75.7719C82.9704 77.4426 82.4379 78.9756 81.4017 80.2865C80.3655 81.5974 79.0475 82.4206 77.539 82.9252C75.9076 83.4708 74.2353 83.5698 72.5461 83.507C71.122 83.4563 69.7003 83.3332 68.2786 83.3163C67.3677 83.3066 66.4569 83.437 65.5436 83.4973C65.3363 83.5118 65.1219 83.5167 64.9243 83.4829C64.4592 83.408 64.4062 82.8431 64.8713 82.7538C64.9363 82.7417 65.0159 82.7055 65.093 82.691C65.9123 82.5389 66.3556 82.1092 66.5075 81.286C66.5556 81.018 66.5773 80.7403 66.5773 80.4675C66.5822 76.5058 66.5822 72.5417 66.5773 68.5801C66.5773 68.0417 66.5484 67.5057 66.2135 67.0446C65.9653 66.7042 65.6496 66.4725 65.2231 66.4049C64.9267 66.3566 64.546 66.3107 64.5869 65.9196C64.6279 65.514 65.0135 65.5285 65.3339 65.5382C66.9267 65.5937 68.5195 65.6516 69.8449 65.6999V65.7023ZM69.8858 74.56C69.8858 76.6531 69.8858 78.7462 69.8858 80.8369C69.8858 81.0325 69.8931 81.2304 69.9148 81.4236C69.9822 81.974 70.2063 82.2009 70.7533 82.2009C71.8377 82.2033 72.9293 82.2492 74.0064 82.1551C75.6426 82.0126 77.0474 81.3487 78.0764 80.0113C78.7776 79.1035 79.1896 78.0678 79.3896 76.9476C79.7631 74.8473 79.8667 72.759 79.1872 70.7045C78.7149 69.2753 77.7269 68.0634 76.3703 67.4116C74.7269 66.6197 72.9654 66.4966 71.1991 66.7646C70.1123 66.9288 69.8617 67.1702 69.8738 68.3193C69.8955 70.3979 69.881 72.479 69.881 74.5576L69.8858 74.56Z" fill="black"/>
<path d="M119.848 83.7748C118.641 83.7193 117.503 83.403 116.388 82.9733C115.72 82.7174 115.024 82.5895 114.301 82.6039C113.911 82.6112 113.568 82.3118 113.568 81.9207C113.568 81.5996 113.641 81.281 113.648 80.9599C113.667 80.1004 113.674 79.241 113.679 78.3815C113.679 78.2536 113.667 78.0967 113.653 77.9663C113.621 77.6838 113.713 77.4521 113.978 77.4303C114.135 77.4158 114.361 77.6162 114.472 77.7756C114.609 77.9735 114.665 78.2294 114.747 78.4636C115.691 81.1482 118.38 82.814 121.202 82.406C122.773 82.1766 124.243 80.8826 123.903 79.0068C123.754 78.186 123.25 77.5969 122.617 77.1044C121.561 76.2836 120.328 75.8128 119.111 75.3058C117.715 74.724 116.289 74.205 115.053 73.2972C113.491 72.1529 112.992 70.6561 113.725 68.6185C114.313 66.9817 115.66 66.1899 117.221 65.6853C118.679 65.2145 120.173 65.2966 121.665 65.4535C121.993 65.4873 122.313 65.5694 122.629 65.6636C123.224 65.8422 123.807 65.8229 124.407 65.7046C124.94 65.5984 125.402 65.9484 125.436 66.4916C125.506 67.6142 125.614 68.732 125.706 69.8522C125.716 69.956 125.754 70.0743 125.723 70.1612C125.663 70.3205 125.59 70.5354 125.465 70.5885C125.342 70.6392 125.084 70.5668 124.997 70.4581C124.773 70.1733 124.605 69.8449 124.426 69.5287C123.841 68.4785 123.116 67.5635 121.956 67.1169C120.653 66.6148 119.318 66.4771 117.976 66.9745C116.715 67.4428 116.344 69 117.226 70.0526C117.911 70.8686 118.843 71.3176 119.776 71.7642C121.373 72.5295 122.997 73.2465 124.564 74.0746C125.52 74.5792 126.294 75.3396 126.72 76.3802C127.123 77.3579 127.051 78.3598 126.793 79.3448C126.13 81.87 123.665 83.5093 121.142 83.7048C120.713 83.7386 120.282 83.7507 119.85 83.7748H119.848Z" fill="black"/>
<path d="M50.3983 78.4541C49.314 78.4541 48.2272 78.4613 47.1429 78.4493C46.832 78.4444 46.6585 78.5458 46.5718 78.85C46.3645 79.5791 46.1163 80.2961 45.9308 81.03C45.8489 81.3511 45.8416 81.706 45.873 82.0367C45.9067 82.3723 46.1453 82.5896 46.4778 82.6813C46.5404 82.6982 46.6079 82.6982 46.6706 82.72C46.9019 82.7996 47.2007 82.8503 47.1573 83.1787C47.1164 83.4925 46.8272 83.4611 46.5935 83.4635C44.9741 83.4853 43.3524 83.5022 41.7331 83.5191C41.6295 83.5191 41.5162 83.5046 41.4247 83.4973C40.8174 83.4563 40.8825 82.7972 41.3861 82.7417C42.5428 82.633 43.1018 81.8412 43.5428 80.9117C44.4994 78.8959 45.4537 76.8752 46.4007 74.8545C47.726 72.0275 49.0417 69.1981 50.3646 66.3735C50.4827 66.1224 50.6056 65.8689 50.7694 65.6468C51.1598 65.1229 51.9815 65.2074 52.2851 65.7844C52.649 66.4724 52.9261 67.2064 53.2369 67.921C54.4828 70.7697 55.7189 73.6233 56.9792 76.4648C57.6563 77.993 58.3672 79.5067 59.0804 81.0179C59.36 81.6118 59.6829 82.1888 60.307 82.4978C60.4997 82.5944 60.7166 82.6765 60.9311 82.7006C61.6757 82.7876 61.7263 83.4708 60.919 83.5094C60.7118 83.5191 60.5022 83.5094 60.2925 83.5094C58.5142 83.4925 56.7382 83.478 54.9599 83.4539C54.69 83.4515 54.2996 83.5818 54.2394 83.1883C54.1767 82.7851 54.5767 82.7658 54.8611 82.691C55.3261 82.5679 55.5117 82.2709 55.3502 81.805C54.996 80.7934 54.6225 79.7891 54.2562 78.7824C54.1526 78.4999 53.9309 78.4444 53.6586 78.4468C52.5743 78.4541 51.4875 78.4492 50.4032 78.4468L50.3983 78.4541ZM50.3598 77.3025C51.2755 77.3025 52.1911 77.2977 53.1068 77.3025C53.5719 77.3025 53.6466 77.1987 53.4683 76.7738C52.7839 75.1346 52.1068 73.4905 51.42 71.8513C51.1743 71.2598 50.9237 70.6707 50.649 70.0937C50.5863 69.9585 50.4032 69.7388 50.302 69.7895C49.8899 70.002 48.1284 74.6541 47.2417 76.8752C47.1091 77.2059 47.1838 77.3049 47.5356 77.3049C48.4778 77.3049 49.4176 77.3049 50.3598 77.3049V77.3025Z" fill="black"/>
<path d="M3.6892 65.6226C4.61693 65.6226 5.54466 65.6226 6.47238 65.6226C6.56395 65.6226 6.66757 65.5936 6.74468 65.625H6.7495C7.0001 65.7361 7.06758 66.0668 6.8748 66.2624C6.86516 66.272 6.85311 66.2841 6.84107 66.2938C6.77359 66.3565 6.64588 66.3589 6.54708 66.3855C6.07961 66.511 5.90129 66.7718 6.05551 67.2305C6.35431 68.1213 6.66516 69.0097 7.01938 69.8812C7.98326 72.252 8.97123 74.6155 9.95438 76.979C10.1953 77.5584 10.4532 78.1305 10.7255 78.6955C10.7544 78.7558 10.8411 78.8331 10.9303 78.8982C11.046 78.9827 11.2026 78.9779 11.3086 78.8838C11.3737 78.8234 11.4315 78.7606 11.4628 78.6858C12.3183 76.6217 13.1858 74.5624 13.9882 72.4765C14.5183 71.098 14.9497 69.6857 15.4099 68.2806C15.5063 67.9861 15.5617 67.6674 15.5762 67.3584C15.6003 66.8273 15.328 66.499 14.8171 66.371C14.7545 66.3541 14.6846 66.3348 14.6316 66.3203C13.9569 66.1368 14.1761 65.5936 14.7352 65.6274C15.8991 65.6999 17.0678 65.6419 18.2316 65.6443C18.6292 65.6443 19.0244 65.5985 19.4196 65.555C19.5787 65.5381 19.757 65.5598 19.9016 65.5502C20.4751 65.5164 20.4823 66.2189 19.9666 66.3444C18.8003 66.4627 18.2726 67.2932 17.8413 68.213C16.3762 71.3201 14.928 74.4344 13.4725 77.5463C12.6243 79.3569 11.7857 81.17 10.9134 82.9686C10.7761 83.2534 10.5231 83.5552 10.2484 83.6832C9.73028 83.9198 9.24111 83.6566 8.99291 83.082C8.28206 81.4404 7.59289 79.7891 6.88203 78.1474C6.10852 76.3633 5.32778 74.5817 4.53018 72.8097C3.81209 71.2163 3.07473 69.6302 2.32773 68.0489C2.06025 67.4815 1.75422 66.919 1.16385 66.6124C0.949387 66.5014 0.70119 66.4507 0.465041 66.3831C0.226482 66.3155 -0.00966723 66.2237 0.00720057 65.9316C0.0240684 65.6371 0.281905 65.5478 0.520463 65.5502C1.02891 65.5502 1.53735 65.6057 2.0482 65.6178C2.59761 65.6298 3.14702 65.6202 3.69402 65.6202C3.69402 65.6202 3.69402 65.6202 3.69402 65.6226H3.6892Z" fill="black"/>
<path d="M31.4319 82.2056C32.8078 82.2104 34.1307 81.9521 35.3982 81.4209C36.2898 81.0468 36.9814 80.4118 37.5549 79.6513C37.9091 79.183 38.2176 78.6808 38.5573 78.2004C38.7164 77.9759 38.9067 77.7127 39.2248 77.8938C39.514 78.058 39.4634 78.3453 39.3742 78.6277C39.0537 79.6272 38.7332 80.6267 38.4393 81.6334C38.3525 81.9328 38.2923 82.2394 38.285 82.5508C38.2682 83.2799 37.9405 83.6106 37.2441 83.5889C34.1091 83.4851 30.9741 83.3668 27.8391 83.3064C26.8511 83.2871 25.8607 83.4416 24.8679 83.502C24.6631 83.5141 24.4414 83.5189 24.2462 83.4682C23.7836 83.3499 23.7305 83.0554 24.1426 82.8115C24.2414 82.7536 24.3619 82.7174 24.4775 82.6956C24.7089 82.6522 24.933 82.5725 25.1306 82.4421C25.9185 81.9255 25.9402 81.2423 25.9402 80.576C25.9402 76.5467 25.9475 72.5198 25.9306 68.4905C25.9306 68.085 25.8222 67.6673 25.6944 67.2786C25.533 66.7765 25.1282 66.5157 24.6197 66.4167C24.3089 66.3564 23.9643 66.3202 23.9306 65.9146C23.9113 65.6732 24.3016 65.4945 24.7378 65.5525C26.627 65.8011 28.5162 65.806 30.4054 65.5525C30.8632 65.4921 31.2247 65.649 31.215 65.9025C31.2006 66.3178 30.8536 66.354 30.5451 66.4143C29.7909 66.5568 29.4222 67.1024 29.268 67.8604C29.2343 68.027 29.2198 68.1984 29.2198 68.3698C29.2198 72.5705 29.2343 76.7712 29.2053 80.9719C29.2005 81.6527 29.7283 82.2466 30.4126 82.2104C30.7524 82.1935 31.0921 82.208 31.4319 82.208V82.2056Z" fill="black"/>
<path d="M111.229 67.3365C111.108 68.0052 111.188 69.1978 110.696 70.2022C110.429 70.7453 109.619 70.755 109.807 70.2263C110.221 69.0627 109.388 67.788 109.231 66.5615C109.154 65.9628 109.39 65.7552 109.988 65.7407C110.053 65.7407 110.118 65.7407 110.183 65.7407C111.231 65.7407 111.337 65.8542 111.229 67.3341V67.3365Z" fill="black"/>
<path d="M79.6447 41.5312C79.6447 41.5312 80.4447 41.0122 80.2206 40.2686C79.9965 39.525 79.664 37.9413 79.6447 37.3016C79.6255 36.6618 80.6351 33.055 81.1146 32.5408C81.5942 32.0266 83.64 29.3058 83.64 29.3058C83.64 29.3058 83.9508 29.1923 83.3749 28.0866C82.799 26.9809 82.9026 27.1402 82.6062 26.6139C82.3098 26.0876 80.5243 22.8092 80.5243 22.8092C80.4014 22.4591 79.623 20.7571 79.6447 20.3732C79.6664 19.9894 79.4038 18.9175 79.4399 18.8137C79.4761 18.7099 78.9146 18.3236 78.7748 18.0242C78.6351 17.7249 77.7435 16.5347 77.6905 15.8684C77.6375 15.2021 77.1314 14.1326 77.0254 13.6425C76.9194 13.1524 75.782 10.4702 75.782 9.71459C75.782 8.95895 75.5724 7.18935 75.5724 7.18935C75.5724 7.18935 75.2928 4.73412 75.3097 4.17403C75.3266 3.61393 75.5724 2.57825 75.6254 2.2813C75.6784 1.98435 75.8519 0.931767 75.8182 0.755531C75.7844 0.579295 75.0302 0.562396 74.9073 0.8352C74.7844 1.108 74.6615 1.33494 74.5217 1.75501C74.382 2.17508 73.7699 4.40096 73.7169 4.71722C73.6639 5.03348 73.3675 6.69927 73.3675 6.97932C73.3675 7.25936 73.1916 8.0319 73.1916 8.0319C73.1916 8.0319 72.8591 8.31195 72.6494 8.80203C72.4398 9.29211 72.3 9.99464 72.1771 10.3085C72.0542 10.6223 71.8277 12.0081 71.8277 12.0081C71.8277 12.0081 71.6711 13.0945 71.6711 13.5507C71.6711 14.007 71.8639 14.374 71.6711 14.6033C71.4783 14.8327 71.1988 15.0596 71.1626 15.4459C71.1265 15.8322 70.9867 17.1817 70.9699 17.6718C70.953 18.1618 70.7602 19.4607 70.794 19.9677C70.8277 20.4746 70.9867 21.5972 70.9867 21.5972C70.9867 21.5972 70.5482 22.6136 70.5843 22.8599C70.6205 23.1061 70.6012 23.8231 70.6903 24.2456C70.7795 24.6681 71.4253 26.9109 71.5819 27.244C71.7386 27.5772 71.9482 28.3208 71.9675 28.4487C71.9868 28.5767 71.6181 28.2966 71.6349 28.8736C71.6518 29.4506 72.0422 30.7494 72.2157 31.3457C72.3892 31.9421 72.5289 32.6953 72.7217 32.9053C72.9145 33.1154 73.1603 33.6416 73.3506 33.9048C73.541 34.1679 73.8398 34.8005 73.9627 34.8874C74.0856 34.9743 73.9627 35.2905 74.0687 35.7444C74.1748 36.1983 74.3145 36.6739 74.3145 36.6739C74.3145 36.6739 75.0326 37.8665 75.2061 38.3397C75.3796 38.8128 75.7314 39.4429 76.0278 39.7954C76.3242 40.1479 77.2013 40.6718 77.5676 40.9349C77.9339 41.1981 78.5965 41.7195 78.8447 41.705C79.0929 41.6906 79.5267 41.705 79.5267 41.705L79.6447 41.5264V41.5312Z" fill="white"/>
<path d="M56.0587 45.3287C56.2587 46.094 57.1407 48.052 57.6009 48.4358C58.0612 48.8197 59.3239 49.6622 59.5913 49.8916C59.8588 50.1209 64.4541 52.8079 64.6469 52.9214C64.8396 53.0348 67.0975 53.7615 67.2517 54.0126C67.4059 54.2637 70.9072 55.5311 70.9072 55.5311C70.9072 55.5311 75.1001 56.6054 75.5218 56.6441C75.9435 56.6827 79.37 56.2988 80.1484 56.0091C80.9267 55.7194 84.0159 54.7175 84.3268 54.3385C84.6376 53.9595 87.0593 52.3782 87.4834 51.7771C87.9075 51.1759 89.163 50.0412 89.3244 49.1721C89.4859 48.303 89.5413 47.3229 89.5124 46.5214C89.4835 45.7198 89.3461 44.5296 88.0039 43.9889C86.6617 43.4481 85.1292 42.5814 83.84 43.3829C82.5508 44.1844 82.1725 44.9425 81.1074 45.6981C80.0423 46.4538 80.3966 46.8787 78.7748 47.4339C77.1531 47.9892 77.9748 48.6362 74.7964 48.6796C71.6181 48.7231 70.7747 49.0587 68.9746 48.4575C67.1746 47.8564 66.818 47.8129 65.3071 47.4122C63.7962 47.0114 63.3745 46.6541 61.7287 45.9661C60.0829 45.278 57.8395 44.1627 57.2612 44.0951C56.6829 44.0275 56.172 45.3191 56.172 45.3191L56.0636 45.3263L56.0587 45.3287Z" fill="white"/>
<path d="M89.7991 45.1573C89.7991 45.2829 89.8955 46.5938 90.0208 46.6903C90.1461 46.7869 90.763 47.0959 91.1028 46.8714C91.4426 46.6469 91.7606 46.5358 91.6498 46.3403C91.5389 46.1447 91.3438 45.9033 90.9678 45.744C90.5919 45.5846 89.7991 45.1549 89.7991 45.1549V45.1573Z" fill="white"/>
<path d="M72.2542 45.855C72.2542 45.855 68.7626 41.5288 69.4831 37.8158C69.4831 37.8158 69.1337 31.2926 69.8759 30.4356C70.6181 29.5786 64.9505 28.0166 64.6083 26.0538C64.6083 26.0538 62.936 23.6155 62.9721 23.4441C63.0083 23.2727 56.1334 18.8113 55.8852 17.5849C55.8852 17.5849 52.4466 13.9032 52.49 12.5899C52.49 12.5899 51.3093 10.4171 51.3984 10.1105C51.3984 10.1105 50.5984 11.4866 51.6755 15.6873C51.6755 15.6873 50.4683 15.7984 51.996 21.153C51.6611 21.1313 51.5888 22.6088 53.9816 25.8969C53.9816 25.8969 53.0997 24.3108 53.1141 25.1992C53.1286 26.0876 54.237 28.5211 54.3382 28.6974C54.4394 28.8736 55.8515 31.6306 55.9551 31.7175C56.0587 31.8044 56.7045 32.9077 57.1576 33.2578C57.6106 33.6078 58.548 34.5928 58.7672 34.6073C58.9865 34.6218 57.6323 33.9072 57.572 33.9217C57.5118 33.9362 57.3552 33.9434 57.6178 34.4987C57.8805 35.0539 58.6925 36.8429 59.2757 37.205C59.8588 37.5671 59.6323 37.4271 60.0395 37.8447C60.4468 38.2624 60.3673 38.4 60.4106 38.7356C60.454 39.0712 61.254 39.9885 61.4444 40.172C61.6348 40.3555 63.2083 42.3472 63.5432 42.4196C63.8782 42.4921 63.6878 42.8614 64.5167 43.4771C65.3457 44.0927 65.3842 44.3969 66.2903 44.6141C67.1963 44.8314 67.1818 44.9207 67.7505 44.9352C68.3192 44.9497 67.3529 45.0246 67.3819 45.2298C67.4108 45.435 68.1481 45.8116 68.3337 45.7947C68.5192 45.7778 69.2903 46.0675 69.7 46.1013C70.1096 46.1351 70.4711 45.925 70.9675 46.0578C71.4639 46.1906 71.5072 46.263 71.9 46.292C72.2928 46.321 72.4952 46.0578 72.4952 46.0578L72.247 45.8526L72.2542 45.855Z" fill="white"/>
<path d="M28.6438 29.6172C30.0751 29.68 31.3282 29.7886 32.5282 29.8634C34.8824 30.0131 37.35 30.3704 39.6512 30.9305C42.5115 31.5558 45.0513 32.3476 47.6706 33.4896C47.8851 33.5909 47.9574 33.4799 47.7381 33.3423C45.1212 31.4013 42.6946 29.2454 40.5307 26.8095C38.3018 24.3036 36.3042 21.6262 34.7017 18.6688C34.2535 17.8408 33.8607 16.9789 33.4559 16.1267C33.3523 15.9118 33.2824 15.6776 33.2246 15.4435C33.1908 15.3083 39.0391 20.2936 41.7669 21.8749C42.8489 22.5026 43.9019 23.1834 44.9959 23.7893C46.7815 24.7767 48.6056 25.6917 50.4707 26.5198C51.2538 26.8674 52.0346 27.2175 52.8611 27.4492C52.9213 27.4661 52.984 27.4637 53.0466 27.4686C53.037 27.413 53.0298 27.3575 53.0153 27.302C52.8804 26.7902 52.7743 26.4136 52.6466 25.9017C52.4394 24.8226 52.731 24.7091 52.6948 24.6391C51.7309 22.7512 51.1719 20.733 50.7454 18.6712C50.5406 17.6814 50.49 16.682 50.7141 15.6849C50.7984 15.54 50.8755 14.7192 50.8056 14.2943C50.7044 13.0607 50.6514 12.1046 50.7141 11.0327C50.7695 10.4775 50.8538 10.0284 51.049 9.51663C51.2418 9.01931 51.7599 9.58423 51.7912 9.88359C51.902 10.9724 52.3647 11.9477 52.8225 12.9303C53.878 15.2045 55.4395 17.0924 57.3286 18.6978C59.0757 20.1825 60.9022 21.5683 62.6878 23.0095C62.8854 23.1689 63.095 23.3693 63.1842 23.5962C63.9746 25.5686 65.4734 26.9012 67.1602 28.0624C67.859 28.5429 68.577 28.9943 69.2903 29.4506C69.8518 29.8103 70.0566 30.2425 69.9482 30.9088C69.8951 31.2419 69.8373 31.5751 69.7698 31.9058C69.4807 33.3326 69.4108 34.7739 69.4542 36.2248C69.459 36.4011 69.5024 36.4566 69.6951 36.4807C71.2831 36.6859 72.8518 36.966 74.2663 37.7868C74.2904 37.8013 74.3193 37.811 74.3434 37.8279C74.6013 37.9968 74.4519 37.7603 74.435 37.724C74.2832 37.3909 74.1603 37.2122 74.035 36.8694C73.9193 36.5556 73.7772 36.0824 73.7314 35.7516C73.7097 35.5996 73.7097 35.3002 73.8061 35.1747C73.9193 35.0298 73.8856 34.9622 73.794 34.8391C72.2856 32.8208 71.6422 30.8195 71.4735 29.2164C71.4566 28.9895 71.3651 28.5139 71.5434 28.357C71.6012 28.2532 71.5169 28.048 71.4518 27.9079C71.0373 26.993 70.859 26.2856 70.6325 25.3054C70.4494 24.516 70.3096 23.7169 70.3217 22.9009C70.3241 22.7536 70.3337 22.3312 70.4108 22.0342C70.4952 21.7011 70.6518 21.491 70.7169 21.3607C70.7434 21.3051 70.753 21.2158 70.741 21.1458C70.5578 19.9894 70.4952 18.8233 70.553 17.6549C70.6084 16.5661 70.7578 15.4869 71.112 14.4464C71.1241 14.4102 71.1289 14.3692 71.1506 14.3378C71.5265 13.7777 71.4855 13.1331 71.5193 12.503C71.6663 9.67355 72.5482 7.71564 73.0567 7.37766C73.1193 7.31489 73.1434 7.19176 73.1506 7.0952C73.2446 5.96053 73.3458 4.82827 73.6012 3.71533C73.8157 2.77862 74.1579 1.89262 74.6446 1.06455C74.8711 0.680691 75.141 0.330634 75.529 0.0868003C75.6856 -0.0121816 75.8447 -0.0628796 76.0133 0.0554158C76.2182 0.200267 75.8929 2.47926 75.8447 3.41356C75.7892 4.5096 75.7676 5.61288 75.7941 6.71134C75.8278 8.1333 76.1242 9.52387 76.4447 10.9072C76.8423 12.6285 77.3772 14.3064 78.1218 15.9118C78.5917 16.921 79.1845 17.8577 79.905 18.7075C80.0761 18.9078 80.117 19.0913 80.0544 19.3641C79.9893 19.6538 80.0182 19.9797 80.0592 20.2815C80.2399 21.6093 80.7339 22.8309 81.4014 23.9801C82.1219 25.2209 82.8858 26.4377 83.6304 27.6665C83.6761 27.7414 83.7147 27.8186 83.7629 27.8886C84.1653 28.4535 84.1026 29.0233 83.7364 29.5592C83.3797 30.0831 82.9821 30.5829 82.5918 31.0826C81.3773 32.6422 80.5363 34.3731 80.1122 36.3117C79.8664 37.4416 80.0158 38.5352 80.3194 39.624C80.3604 39.7737 80.4375 39.7423 80.5291 39.7013C81.1195 39.4357 81.7508 39.3295 82.3821 39.2522C84.2978 39.0205 86.0135 39.5081 87.5364 40.708C88.2545 41.2753 88.7798 41.9875 89.2425 42.7625C89.604 43.366 89.951 43.9671 90.0377 44.6866C90.0497 44.788 90.1558 44.9014 90.2497 44.9666C90.9582 45.4664 91.6763 45.9516 92.3871 46.4489C92.6859 46.659 92.6763 46.9945 92.3534 47.1684C92.0763 47.318 91.7823 47.4315 91.4931 47.5595C91.0281 47.7647 90.5606 47.9626 90.1003 48.1751C90.0449 48.2016 90.0015 48.2861 89.9775 48.3513C89.8642 48.6652 89.7943 49.0031 89.6425 49.2953C89.0353 50.4517 88.3244 51.538 87.3726 52.4482C85.2159 54.5075 82.6882 55.8715 79.7749 56.4992C79.1556 56.632 78.5194 56.6972 77.8929 56.7937C76.9748 56.9313 76.0519 56.912 75.1362 56.8396C73.6012 56.7213 72.1048 56.3978 70.6301 55.9536C67.777 55.0917 65.1384 53.7615 62.5577 52.2937C60.4829 51.1131 58.5745 49.6984 56.6563 48.2885C56.0997 47.8781 53.184 45.5267 52.543 44.957C52.6008 44.1675 48.7116 41.7775 45.1525 39.6916C43.8609 38.8877 37.8994 35.5295 35.9258 34.6628C33.5836 33.6368 31.2366 32.6253 28.8799 31.6379C27.7184 31.1502 23.516 30.0807 23.4533 30.0204C23.1786 29.7572 27.9474 29.6099 28.6486 29.6099L28.6438 29.6172ZM66.4132 44.8604C65.4902 44.5393 64.6179 44.1192 63.8541 43.5012C63.4782 43.197 63.0782 42.8832 62.9022 42.4293C62.6444 41.874 62.2299 41.6012 61.7673 41.2029C61.6926 41.1594 61.6275 41.0991 61.5601 41.046C60.5673 40.2469 59.9721 39.4574 59.6371 38.2021C59.6154 38.1176 59.2588 37.8254 59.1937 37.7578C58.8684 37.4295 58.6347 37.1712 58.3359 36.8211C57.6106 35.9689 57.0467 35.0226 56.7551 33.9289C56.825 33.3664 56.4371 33.0453 56.1093 32.688C56.0563 32.6301 56.0081 32.5697 55.9599 32.5118C54.8997 31.225 54.1527 30.088 53.5021 28.5477C53.4491 28.4246 53.3286 28.3618 53.1888 28.3184C52.5575 28.1131 51.849 27.8862 51.2394 27.6279C49.0851 26.7177 46.9068 25.7279 44.8609 24.5933C43.4465 23.8086 41.9284 22.855 40.5476 22.0125C38.803 20.9454 37.309 19.9508 35.8439 18.5071C35.4535 18.1208 34.9427 17.6042 34.9089 17.5873C34.9186 17.6235 34.921 17.6621 34.9379 17.6935C35.1547 18.1232 35.0583 17.9494 35.2921 18.3719C36.7716 21.0396 38.562 23.49 40.5645 25.7786C43.4416 29.0716 46.7284 31.901 50.408 34.2669C50.4972 34.3249 51.1599 34.9574 50.9912 35.1022C50.6731 35.1771 50.9839 35.2567 47.9044 34.3128C45.2537 33.3495 42.3741 32.2825 39.6633 31.7272C38.5283 31.4713 36.2704 31.0271 35.121 30.8653C32.3234 30.5756 27.4919 30.2859 27.1401 30.2956C26.9473 30.2907 27.3618 30.4066 27.4028 30.4211C28.0919 30.6601 28.757 30.7543 29.4269 31.0391C31.9041 32.0917 34.374 33.1612 36.8367 34.2476C38.7909 35.1095 40.7187 36.0317 42.538 37.1567C44.126 38.1369 45.6899 39.1605 47.273 40.1527C49.9671 41.8427 52.4514 43.803 54.7672 45.9806C54.9407 46.1447 55.0949 46.3379 55.2876 46.4731C55.7985 46.8328 56.3262 47.1708 56.8467 47.516C56.9094 47.557 56.9744 47.5957 57.0395 47.6343C57.013 47.5595 57.0009 47.4774 56.96 47.4122C56.4563 46.601 56.0853 45.7392 55.9503 44.788C55.9045 44.4741 55.8828 44.1554 55.8732 43.8392C55.8684 43.6678 55.9479 43.5181 56.1383 43.4722C56.3335 43.4264 56.4491 43.5205 56.5214 43.6919C56.5335 43.7185 56.5479 43.7426 56.56 43.7692C57.0033 44.7952 57.6829 45.6571 58.4347 46.4682C60.7118 48.9259 63.4613 50.6569 66.5818 51.8374C67.9795 52.3661 69.4132 52.4723 70.8711 52.2599C72.688 51.9943 74.4205 51.4608 76.0061 50.5048C77.3507 49.6936 78.6351 48.8028 79.7628 47.7043C80.4255 47.0597 81.0496 46.3765 81.6857 45.7029C82.5364 44.8024 83.546 44.1699 84.7219 43.7885C86.4135 43.2381 88.5871 43.7595 89.3943 45.307C89.416 45.3456 89.4521 45.377 89.4811 45.4108C89.4907 45.3601 89.5148 45.3094 89.5076 45.2611C89.3871 44.4958 89.1895 43.7644 88.7678 43.0908C88.2377 42.2434 87.6883 41.4298 86.8497 40.8456C85.7726 40.0972 84.6159 39.6023 83.2785 39.6482C82.8665 39.6626 82.4496 39.6482 82.0472 39.7206C81.5821 39.8051 81.1315 39.9668 80.6761 40.102C80.5484 40.1406 80.4737 40.2179 80.4857 40.3797C80.5291 41.0315 80.1941 41.5264 79.7628 41.9561C79.4664 42.2531 79.1387 42.2917 78.811 42.1106C78.558 41.9706 78.3098 41.8233 78.0736 41.6592C77.1531 41.0122 76.3483 40.2396 75.623 39.3826C75.488 39.2233 75.288 39.076 75.1603 38.9505C74.4519 38.3083 74.047 38.0282 73.3458 37.7409C72.0109 37.2074 70.7361 36.9249 69.6807 36.8984C69.4807 36.9539 69.4566 36.9032 69.4855 37.2026C69.6855 39.4816 70.3168 41.6061 71.3916 43.6219C71.7121 44.2255 72.0277 44.8314 72.3578 45.4301C72.6687 46.1616 72.4157 46.6686 71.6711 46.671C71.4518 46.671 71.2108 46.6107 71.0012 46.5527C70.5699 46.432 70.1361 46.3813 69.6879 46.3934C69.3506 46.4031 69.0108 46.4175 68.6783 46.3741C67.7626 46.2534 66.9577 45.9419 66.5577 45.0028M67.6084 45.1911C67.5746 45.1911 67.5409 45.2056 67.5072 45.2153C67.524 45.2491 67.5313 45.2949 67.5553 45.3118C67.7457 45.4446 68.2614 45.9588 69.6783 45.8792C70.2012 45.8502 70.7795 45.9202 71.2807 46.0844C71.4084 46.1254 71.5434 46.1544 71.6759 46.1568C71.9506 46.1568 72.0325 46.0385 71.9096 45.7947C71.7217 45.4157 71.5169 45.0463 71.312 44.6745C70.7241 43.6098 70.2084 42.5138 69.8156 41.3598C69.3096 39.8823 69.0445 38.359 68.9481 36.8018C68.8518 35.2254 68.8903 33.6585 69.1795 32.1038C69.2735 31.6017 69.353 31.0971 69.4229 30.5925C69.459 30.3294 69.3481 30.1242 69.1096 29.9938C69.0012 29.9334 68.8999 29.8586 68.7939 29.791C67.6999 29.103 66.6083 28.4149 65.6131 27.5869C64.6517 26.7853 63.7697 25.9162 63.1842 24.7888C63.0782 24.5836 62.9794 24.3736 62.8733 24.1684C62.8492 24.1201 62.8107 24.0766 62.7794 24.0332C62.7625 24.0935 62.736 24.1515 62.7288 24.2118C62.7215 24.2891 62.7215 24.3663 62.7288 24.4436C62.8155 25.2185 63.0251 25.9573 63.3842 26.6477C63.8806 27.5989 64.4348 28.5211 65.1433 29.3251C65.8107 30.0831 66.5409 30.7881 67.2734 31.4834C67.6084 31.802 67.7554 31.9541 67.6975 32.4032C67.5337 33.7141 67.5794 35.2085 67.7409 36.5169C67.9048 39.5009 70.2662 44.5103 69.9939 44.112C69.8759 43.9406 68.5867 41.5578 68.2614 40.568C67.7915 39.1339 67.2831 37.654 67.1192 36.1548C67.0011 35.0781 66.9698 33.9989 67.071 32.9174C67.1577 31.9855 67.2156 32.2124 66.5987 31.6548C65.4927 30.6529 64.4902 29.5689 63.6902 28.3015C63.0926 27.3527 62.5287 26.3918 62.2878 25.2765C62.1649 24.7043 62.0661 24.1394 62.2468 23.5648C62.295 23.4103 62.2107 23.3355 62.1046 23.2558C61.3745 22.6885 60.6468 22.1187 59.9166 21.549C58.4178 20.3805 56.9407 19.1903 55.6105 17.8263C53.9479 16.1194 52.6635 14.1712 51.8201 11.9381C51.6683 11.5349 51.5671 11.11 51.4394 10.6972C51.4177 10.6247 51.3888 10.5547 51.3647 10.4847C51.3478 10.5523 51.3189 10.6175 51.3141 10.6851C51.2852 11.0883 51.2225 11.4939 51.2442 11.897C51.3189 13.249 51.5237 14.584 51.8876 15.8877C52.8274 19.2507 57.0467 26.1818 56.8901 26.0587C56.6057 25.909 53.2683 21.0203 52.0804 18.4467C51.837 17.819 51.6346 17.1744 51.4129 16.5395C51.3984 16.5009 51.3647 16.4719 51.3406 16.4357C51.3309 16.4719 51.3165 16.5105 51.3165 16.5468C51.3117 16.8365 51.2803 17.1286 51.3117 17.4135C51.5647 19.6345 52.1502 21.7711 53.0997 23.7869C53.2346 25.1075 57.4829 30.7857 58.4106 31.5485C58.2684 31.5172 57.4973 30.805 57.3094 30.5998C55.972 29.1271 54.6467 27.57 53.5358 25.8752C53.4828 25.7883 53.2587 25.3417 53.2828 25.4262C53.2876 25.5324 53.3647 25.8414 53.3695 25.9476C53.3695 25.9573 53.3744 25.9669 53.3768 25.9766C54.0153 28.4801 55.1937 30.7012 56.9094 32.6253C58.4492 34.6411 62.6565 37.1446 62.4492 37.2002C62.3673 37.3426 59.013 35.5344 57.8058 34.4118C57.7624 34.3707 57.7021 34.3466 57.6515 34.3152C57.666 34.378 57.6732 34.4456 57.6973 34.5035C58.172 35.6334 58.854 36.6208 59.7938 37.4078C61.1866 38.907 65.3433 40.9301 65.4131 40.9904C65.3384 41.1812 61.4251 39.3609 60.7697 38.9553C60.7167 38.9239 60.5793 38.7984 60.5215 38.7742C60.5432 38.8346 60.5022 39.2498 61.4829 40.1406C62.8661 41.495 64.5336 42.8276 66.4421 43.1246C66.4999 43.2212 65.0131 42.9701 64.0999 42.5935C63.9842 42.5452 63.8565 42.521 63.736 42.4872C63.8131 42.5838 63.8806 42.6924 63.9697 42.7769C65.3553 44.0637 66.9939 44.8749 68.9072 44.7035C69.1698 44.6793 67.7698 45.2104 67.6059 45.1984L67.6084 45.1911ZM81.199 29.4554C81.0809 29.7186 80.9508 29.9769 80.811 30.2304C80.0327 31.6475 79.4423 33.1395 79.076 34.7184C78.9821 35.1215 78.7098 36.4131 78.6182 36.5266C78.5122 36.6594 78.4182 34.617 79.7604 31.0367C80.0327 30.4525 80.346 29.8876 80.6423 29.313C80.758 29.0885 80.7411 28.8881 80.611 28.6612C80.2737 28.0673 79.9243 27.4734 79.6544 26.8481C78.8447 24.9795 78.2881 23.0578 78.5821 20.984C78.6833 20.267 78.7339 19.76 79.1291 19.1299C79.2158 18.9923 79.0736 18.9199 79.0038 18.8306C78.1676 17.7828 77.6158 16.414 77.129 15.1707C76.0278 12.3678 75.2832 9.47559 75.0977 6.45544C75.0181 5.16143 75.0856 3.86984 75.2157 2.58307C75.2712 2.03747 75.37 1.49669 75.4471 0.953495C75.4519 0.917282 75.4471 0.878655 75.4422 0.840028C75.4061 0.86417 75.3603 0.878655 75.3386 0.912454C75.2543 1.03075 75.17 1.14904 75.1001 1.27458C74.7579 1.87089 74.4904 2.49858 74.3025 3.16007C73.9892 4.27059 73.8543 5.40768 73.7723 6.55442C73.6615 8.08984 73.7097 9.61803 73.9362 11.1438C74.2109 12.981 75.3844 17.1117 75.3049 17.1334C75.2061 17.16 74.8495 16.3681 74.7772 16.1677C73.9097 13.7366 73.1723 11.2911 73.0856 8.70788C73.0807 8.57027 73.0639 8.43024 73.0518 8.29264C72.9868 8.42783 72.9048 8.55578 72.8542 8.69581C72.235 10.4316 71.9868 12.2254 72.0759 14.0601C72.1121 14.782 72.1964 15.5038 72.3145 16.216C72.6109 17.9904 73.0061 19.7311 73.6639 21.4017C73.6928 21.4741 73.8687 21.858 73.7265 21.9207C73.6326 21.8049 71.8133 17.5004 71.5361 15.3541C71.5265 15.2793 71.5145 15.2021 71.5048 15.1272C71.4735 15.2045 71.4325 15.2793 71.4157 15.3614C71.0422 17.0875 71.0373 18.8282 71.2687 20.5712C71.4084 23.5552 73.7988 27.3985 73.8085 27.5217C73.8205 27.6858 71.5265 24.2867 71.0566 22.6498C71.0325 22.5605 70.9892 22.4784 70.953 22.3939C70.9361 22.4833 70.9048 22.5702 70.9024 22.6595C70.8807 23.7217 71.3265 25.7014 71.6084 26.7177C72.1868 28.8012 74.594 32.0217 74.5242 32.0845C74.6784 32.3525 73.3506 30.9909 73.1049 30.5756C72.7241 30.1024 72.3241 29.5327 72.0253 29.0378C72.0036 29.004 71.9627 28.9823 71.9289 28.9533C71.9241 28.9895 71.9096 29.0281 71.9145 29.0643C71.9458 29.2454 71.9699 29.4265 72.0157 29.6027C72.7554 32.4418 74.0952 35.0153 76.3194 36.9177C76.6399 37.1977 76.7652 37.2605 76.9146 37.3861C76.8495 37.5406 74.9989 36.1234 74.4711 35.6044C74.4326 35.5658 74.3844 35.5368 74.341 35.5054C74.3266 35.5658 74.288 35.6309 74.3025 35.6816C74.3796 35.9496 74.4519 36.22 74.5627 36.4759C75.3242 38.2455 76.5338 39.6626 78.0302 40.8456C78.3387 41.0894 78.6784 41.2946 79.0134 41.4998C79.0857 41.5457 79.2279 41.5529 79.3001 41.5119C79.6544 41.3139 79.917 40.6476 79.8158 40.2445C79.7435 39.9548 79.664 39.6675 79.5845 39.3802C79.2495 38.1996 79.1893 37.0167 79.4736 35.8096C79.9556 33.7648 80.8857 31.9469 82.1942 30.3149C82.5364 29.8876 82.8641 29.4434 83.1749 28.9919C83.3846 28.6901 83.3749 28.3763 83.1701 28.048C82.411 26.8288 81.6568 25.6072 80.9291 24.3687C80.1821 23.0989 79.611 21.7566 79.3773 20.2888C79.3724 20.2574 79.3507 20.226 79.3363 20.1946C79.3122 20.2405 79.2761 20.2863 79.2664 20.337C79.0279 21.4548 78.9989 22.5702 79.2303 23.6976C79.5773 25.3779 80.1941 26.9447 81.0978 28.4004C81.2062 28.5743 81.4062 28.9654 81.1917 29.4603L81.199 29.4554ZM76.3796 56.1226C76.8375 56.0936 77.3001 56.0816 77.7555 56.0309C78.3315 55.9681 78.9146 55.9101 79.4785 55.7846C81.7339 55.2897 83.7798 54.3264 85.6135 52.9238C87.0738 51.806 88.2569 50.4613 89.0088 48.7569C89.2859 48.1268 89.3919 47.4991 89.2738 46.8183C89.1172 45.913 88.763 45.1308 87.934 44.6624C87.0401 44.1579 86.0834 44.0541 85.0882 44.3124C83.8641 44.631 82.8568 45.2974 82.0183 46.2317C80.8014 47.5884 79.517 48.8728 78.0086 49.9133C77.011 50.6013 75.9989 51.2652 74.8856 51.7505C73.4518 52.3758 71.9578 52.762 70.4012 52.9165C69.1313 53.0421 67.8927 52.9286 66.6758 52.5182C65.271 52.0474 63.9673 51.3787 62.6854 50.6472C60.454 49.3749 58.5841 47.6898 56.9889 45.686C56.9142 45.5919 56.8298 45.5026 56.7479 45.4108C56.7744 45.5291 56.7889 45.6522 56.8298 45.7657C57.1118 46.5745 57.5768 47.2867 58.0371 47.9988C58.4226 48.5976 58.9407 49.0659 59.5215 49.4763C60.7576 50.3478 62.0492 51.1325 63.3625 51.8784C65.4565 53.0686 67.6035 54.1357 69.8927 54.9058C71.9988 55.6132 74.1386 56.1178 76.3796 56.1154V56.1226ZM90.1847 45.8913C90.1847 45.8913 90.1967 45.8913 90.2016 45.8937C90.2016 45.9709 90.2016 46.0482 90.2016 46.123C90.2064 46.2751 90.2931 46.3186 90.4305 46.3041C90.6088 46.2824 90.7871 46.2679 90.9678 46.2486C91.0136 46.2437 91.057 46.2341 91.1028 46.2268C91.069 46.1858 91.0401 46.1351 90.9967 46.1061C90.8281 45.9806 90.6546 45.8599 90.4811 45.7416C90.404 45.6885 90.3196 45.6474 90.2377 45.5991C90.2184 45.6957 90.2016 45.7947 90.1823 45.8913H90.1847Z" fill="#231300"/>
<path d="M66.6469 44.7373C65.7047 44.4089 64.8444 44.2303 64.0637 43.5978C63.6806 43.2863 63.2709 42.9677 63.0926 42.5041C62.83 41.9392 62.4058 41.6592 61.9336 41.2512C61.8589 41.2077 61.7914 41.145 61.7215 41.0894C60.707 40.2734 60.0998 39.4671 59.76 38.1852C59.7383 38.0982 59.3745 37.7989 59.307 37.7313C58.9745 37.3957 58.7359 37.1326 58.4323 36.7753C57.6925 35.9062 57.1166 34.9381 56.8178 33.8227C56.8877 33.2505 56.4925 32.9198 56.16 32.5577C56.1069 32.4997 56.0587 32.437 56.0081 32.3766C54.9262 31.0633 54.1623 29.9021 53.4997 28.3304C53.4466 28.2049 53.3213 28.1421 53.1816 28.0962C52.5382 27.8886 51.8153 27.6544 51.1936 27.3913C48.9935 26.4618 46.7718 25.4503 44.6826 24.2915C43.2392 23.49 41.6874 22.5171 40.2801 21.6552C38.4994 20.5664 36.974 19.5524 35.4776 18.0774C35.0776 17.6838 34.5571 17.1551 34.5234 17.1382C34.533 17.1744 34.5354 17.2131 34.5523 17.2469C34.774 17.6863 34.6752 17.51 34.9138 17.9397C36.4246 20.663 38.2536 23.1641 40.297 25.5034C43.2344 28.864 46.4465 31.8455 50.2032 34.2597C50.2948 34.3176 51.1141 34.8729 50.9406 35.0201C50.6153 35.0974 50.9309 35.1771 47.7887 34.2138C45.0826 33.2312 42.1428 32.1424 39.3741 31.5727C38.215 31.312 35.9114 30.8581 34.7379 30.6939C31.88 30.3994 26.9498 30.1024 26.5907 30.1121C26.3955 30.1073 26.8172 30.2256 26.8582 30.24C27.5618 30.4839 28.2389 30.5805 28.9233 30.8702C31.451 31.9445 33.974 33.0381 36.4873 34.1462C38.4825 35.025 40.4512 35.9689 42.3091 37.1157C43.9308 38.1176 45.5284 39.1605 47.1429 40.1744C49.8924 41.9006 52.4298 43.902 54.7937 46.123C54.972 46.2896 55.1286 46.4876 55.3262 46.6252C55.8491 46.9921 56.3865 47.3373 56.919 47.6898C56.9841 47.7333 57.3359 48.1582 57.4009 48.1968C57.3744 48.122 57.0756 47.6512 57.0347 47.5836C57.2371 46.5793 56.2491 45.8502 56.0033 44.9038C55.9575 44.5828 55.9334 44.2593 55.9238 43.9333C55.919 43.7571 55.9985 43.605 56.1937 43.5591C56.3913 43.5133 56.5118 43.6098 56.5841 43.7837C56.5961 43.8102 56.613 43.8344 56.6226 43.8609C57.0732 44.9087 57.7696 45.7874 58.5383 46.6155C60.8637 49.1239 63.6709 50.891 66.8541 52.0957C68.2807 52.6365 69.7433 52.7427 71.2325 52.5255C73.088 52.2551 74.8543 51.7094 76.476 50.7317C77.8495 49.9036 79.1604 48.9935 80.3122 47.8733C80.9893 47.2166 81.6255 46.5165 82.2737 45.8309C83.1412 44.9135 84.1749 44.2665 85.375 43.8778C87.1003 43.3177 89.0497 44.4427 89.8738 46.024C89.8955 46.0651 89.9413 45.7054 89.9726 45.7416C89.9823 45.6909 90.0377 45.5267 90.0305 45.4784C89.9076 44.6962 89.7606 44.0154 89.3292 43.3274C88.7871 42.4631 88.4063 41.4733 87.5509 40.877C86.4521 40.1117 85.4111 39.4285 84.0472 39.4743C83.6279 39.4888 83.0689 39.4671 82.6568 39.5419C82.1821 39.6288 81.7532 39.6844 81.2881 39.822C81.158 39.8606 80.4809 39.9427 80.4905 40.1068C80.2857 40.7321 80.4978 40.9904 80.0568 41.4298C79.7532 41.7316 79.864 41.8861 79.5315 41.7026C79.5098 41.5892 79.1435 41.1932 78.9025 41.0242C78.1531 40.3797 77.917 40.2879 77.2543 39.7906C77.1001 39.6747 76.9555 39.5443 76.8134 39.414C76.4158 39.0422 75.6615 38.5642 75.4278 38.4411C74.7025 37.7844 74.3916 37.7337 73.6735 37.4416C73.2735 37.2822 72.8904 37.1591 72.5217 37.065C71.6325 36.838 70.8253 36.7753 70.0638 36.756C69.859 36.8139 69.2132 36.6739 69.2421 36.9781C69.4445 39.3029 70.3602 41.8789 71.4566 43.9358C71.7843 44.5514 72.0181 45.0994 72.3554 45.7102C72.2976 46.5576 72.4566 46.4755 71.7121 46.4755C71.5337 46.4755 71.3554 46.4562 71.1843 46.4103C70.7072 46.2824 70.2229 46.1858 69.7289 46.2389C69.4759 46.2654 69.2229 46.2727 68.9722 46.2389C68.018 46.1109 67.2517 46.0916 66.8397 45.1211" fill="#231300"/>
<path d="M86.8063 46.1375C86.6449 45.9637 86.3846 45.9299 86.1099 46.053C85.9268 46.1351 85.7509 46.2389 85.5677 46.3234C85.0689 46.5503 84.5605 46.5793 84.0617 46.3475C83.2135 45.954 82.5918 45.3143 82.2592 44.4427C81.9026 43.5036 81.7267 42.5186 81.8159 41.5023C81.7845 41.1087 81.7725 40.7152 81.7195 40.3241C81.6086 39.525 81.4809 38.738 81.0448 38.0186C80.57 37.234 80.1339 36.4324 79.4134 35.8337C78.9965 35.4861 78.5869 35.1384 78.076 34.9381C76.7097 34.4021 75.3145 34.378 73.9193 34.7715C72.8976 35.0588 71.9265 35.4668 71.0952 36.1693C70.4325 36.7294 69.912 37.4054 69.418 38.1031C69.4228 38.161 69.4349 38.2383 69.4686 38.3324C69.6012 38.697 69.6132 39.2353 69.7 39.6168C69.8421 40.2445 70.0156 40.8625 70.1433 41.495C70.3964 42.7504 70.7506 43.9213 71.4012 44.9883C71.5506 45.1308 71.7048 45.2684 71.8711 45.3988C72.9988 46.2896 73.8133 45.4036 74.9362 46.3524C75.1916 46.5672 76.4158 46.8038 77.1435 46.6469C78.9218 46.263 79.2495 45.6933 79.6496 45.5581C80.0134 45.435 80.0977 45.3843 80.3459 45.5291C80.6905 45.7319 80.9074 46.0506 81.1532 46.3451C81.6134 46.8956 82.2424 47.3832 82.8617 47.755C83.7267 48.2741 84.7436 48.2258 85.4762 48.023C86.1268 47.8419 86.8159 47.1611 86.9364 46.8642C87.0449 46.5986 87.0063 46.3524 86.8087 46.1399L86.8063 46.1375ZM80.3411 42.4921C80.1773 43.1029 79.6303 43.7837 79.2254 44.2424C78.3772 45.208 76.9483 45.5653 75.7603 45.7198C74.5892 45.8719 73.3458 45.406 72.4711 44.718C71.6639 44.083 70.8494 42.6804 70.6446 41.6543C70.3578 40.2203 70.7578 38.9215 71.5723 37.6806C71.9193 37.1519 72.5675 36.8815 72.9651 36.3987C73.553 35.6841 74.8302 35.5851 75.782 35.6527C76.5483 35.7082 77.464 35.8048 78.0905 36.2635C78.6495 36.6715 79.6568 37.2774 79.9724 37.9099C80.2086 38.3831 80.5604 39.1025 80.611 39.6433C80.6496 40.0537 80.799 40.5414 80.8375 40.9518C80.8423 41.4516 80.4688 42.0116 80.3411 42.4897V42.4921Z" fill="#F77962"/>
<path d="M73.2109 50.8621C72.3916 49.4812 71.141 48.6289 69.6951 48.0375C68.8734 47.7019 68.0084 47.5257 67.1312 47.3808C65.6878 47.1418 64.4348 46.5141 63.3938 45.4688C61.6926 43.7595 59.9865 42.0599 58.2805 40.3555C57.919 39.9934 57.5576 39.6337 57.1985 39.2691C57.1648 39.2353 57.1431 39.1943 57.1142 39.1557C57.1672 39.1557 57.2202 39.1508 57.2732 39.1508C57.3021 39.1508 57.3286 39.1629 57.3576 39.1701C58.2949 39.3995 59.2299 39.6313 60.1673 39.8606C60.0106 39.6168 59.895 39.3488 59.8058 39.076C59.7576 38.9287 59.4853 38.1345 59.6371 38.3155C59.2925 37.9051 58.8564 37.654 58.4708 37.3016C57.3552 37.0795 56.2395 36.8598 55.1286 36.6159C54.7961 36.5435 54.437 36.5145 54.1623 36.2369C49.2562 31.3144 44.3405 26.4039 39.4367 21.479C37.4319 19.4655 33.5041 15.6173 33.4318 15.6607C33.3595 15.7042 35.6246 18.6761 36.8728 20.057C40.9404 24.557 44.9983 29.0619 49.061 33.5644C49.4803 34.0279 49.9189 34.4721 50.3357 34.9381C50.6225 35.2616 50.8755 35.614 51.1647 35.9351C51.8972 36.7487 52.6442 37.5502 53.384 38.359C53.8129 38.8297 54.2346 39.3053 54.6611 39.7785C57.1913 42.5862 59.7191 45.3963 62.2564 48.1944C62.6131 48.5879 62.7673 49.0249 62.7384 49.5391C62.6926 50.3309 62.5119 51.0962 62.2974 51.8615C61.7215 53.916 61.8854 55.8812 63.1529 57.658C64.2541 59.2007 65.7192 60.1519 67.6493 60.2822C67.7891 60.2919 67.8469 60.345 67.8951 60.4681C68.1409 61.0789 68.0445 61.6366 67.6614 62.1605C67.5819 62.2691 67.5047 62.3826 67.459 62.5057C67.3216 62.8775 67.524 63.1769 67.9168 63.1769C68.2734 63.1769 68.5987 63.0755 68.8566 62.8123C69.5674 62.0929 69.7891 61.2431 69.5241 60.2702C69.4927 60.1567 69.4614 60.0915 69.6253 60.0432C70.4036 59.8139 71.1024 59.4542 71.7723 58.9689C72.5217 58.4257 73.047 57.7353 73.435 56.9362C74.0109 55.746 74.1458 54.4689 73.9844 53.1628C73.8832 52.3444 73.6422 51.5694 73.2181 50.8572L73.2109 50.8621ZM54.6708 38.54C54.3238 38.6269 53.9575 38.26 53.9189 37.7699C53.8924 37.4512 54.2394 37.1567 54.6443 37.1422C54.9864 37.1302 55.3696 37.4199 55.3864 37.7096C55.4154 38.1707 55.1117 38.5256 54.6708 38.54ZM72.4301 56.5813C71.9145 57.967 70.8494 58.5875 69.3819 58.8506C68.9096 58.9351 68.3674 59.1017 67.9216 59.0269C67.177 59.0631 66.6107 58.8675 65.9842 58.5392C64.6059 57.8198 63.2685 56.8082 63.0203 55.198C62.9601 54.8093 62.9384 54.2902 63.0107 53.8895C63.0782 53.5008 63.2083 52.692 63.3191 52.3178C63.7697 50.8186 64.8372 49.7491 66.3264 49.2446C66.7842 49.0901 67.3818 48.9476 67.8614 48.8897C68.2734 48.839 69.1 48.9476 69.5024 49.1045C70.0301 49.3097 70.9554 49.7371 71.4157 50.1088C72.2711 50.7993 72.6687 51.9654 73.0133 53.0155C73.4012 54.1985 72.8639 55.4225 72.4325 56.5813H72.4301Z" fill="#F77962"/>
<path d="M49.5526 35.6334C49.4056 35.445 49.2152 35.3726 49.0008 35.3243C48.0321 35.1095 47.061 34.897 46.0923 34.6773C44.9621 34.4214 43.832 34.1583 42.7019 33.8975C41.5717 33.6368 40.4416 33.3761 39.3114 33.1178C38.1813 32.8594 37.0512 32.6011 35.9234 32.3428C34.8897 32.1062 33.8559 31.8648 32.8222 31.6282C31.7041 31.3699 30.5836 31.1164 29.4655 30.8581C28.3281 30.5973 24.3353 29.8103 24.2871 29.9745C24.234 30.1531 30.0438 31.9058 32.7547 32.6567C35.7403 33.4847 38.7259 34.3152 41.7115 35.1409C44.7911 35.9931 47.8706 36.8429 50.9526 37.6902C51.0153 37.7071 51.0827 37.712 51.1478 37.7216C51.1213 37.6613 51.1044 37.5913 51.0659 37.5406C50.5623 36.9032 50.0538 36.2731 49.555 35.6309L49.5526 35.6334Z" fill="#F77962"/>
<path d="M54.6539 38.5231C54.9906 38.5231 55.2635 38.2497 55.2635 37.9123C55.2635 37.575 54.9906 37.3016 54.6539 37.3016C54.3172 37.3016 54.0442 37.575 54.0442 37.9123C54.0442 38.2497 54.3172 38.5231 54.6539 38.5231Z" fill="#231300"/>
<path d="M72.5024 37.1688C72.5024 37.1688 75.8904 37.951 78.758 40.6404C78.758 40.6404 80.1917 39.7882 80.5002 39.8727C80.8086 39.9572 80.2447 42.2169 80.2447 42.2169C80.2447 42.2169 77.8206 43.0546 77.6495 42.987C77.4784 42.9194 74.9338 40.4545 74.6278 39.9934C74.3217 39.5323 72.5048 37.1712 72.5048 37.1712L72.5024 37.1688Z" fill="#231300"/>
<path d="M43.9526 91.9107V86.5488H45.4756C45.9382 86.5488 46.3045 86.6623 46.5768 86.8892C46.8491 87.1162 46.984 87.4107 46.984 87.7752C46.984 88.0794 46.9021 88.3426 46.7382 88.5671C46.5744 88.7916 46.3479 88.9509 46.0587 89.0451V89.0596C46.4202 89.103 46.7093 89.2382 46.9238 89.47C47.1382 89.7018 47.2491 90.0011 47.2491 90.3705C47.2491 90.8292 47.0852 91.201 46.7575 91.4859C46.4298 91.7707 46.0153 91.9132 45.5141 91.9132H43.9526V91.9107ZM44.5792 87.1162V88.8471H45.2201C45.5647 88.8471 45.8346 88.7651 46.0298 88.5985C46.225 88.4319 46.3238 88.2001 46.3238 87.8984C46.3238 87.3769 45.9816 87.1162 45.2972 87.1162H44.5767H44.5792ZM44.5792 89.4121V91.341H45.4298C45.7985 91.341 46.0828 91.2541 46.2876 91.0803C46.4924 90.9064 46.5912 90.6674 46.5912 90.3632C46.5912 89.7307 46.1599 89.4145 45.2997 89.4145H44.5792V89.4121Z" fill="black"/>
<path d="M52.4783 91.9107H51.7843L51.218 90.4067H48.9481L48.4132 91.9107H47.7144L49.7674 86.5488H50.418L52.4783 91.9107ZM51.0108 89.8418L50.1698 87.558C50.1433 87.4831 50.1144 87.3624 50.0879 87.1982H50.0734C50.0493 87.3503 50.0204 87.471 49.9867 87.558L49.1553 89.8418H51.0108Z" fill="black"/>
<path d="M57.1048 91.9107H56.3578L55.4614 90.4067C55.3794 90.2667 55.2999 90.1484 55.2228 90.0494C55.1457 89.9504 55.0662 89.8707 54.9867 89.808C54.9071 89.7452 54.818 89.6993 54.7264 89.6704C54.6348 89.6414 54.5288 89.6269 54.4107 89.6269H53.8951V91.9083H53.2686V86.5464H54.8662C55.0999 86.5464 55.3168 86.5754 55.5144 86.6333C55.712 86.6912 55.8831 86.7806 56.0301 86.9013C56.177 87.022 56.2903 87.1692 56.3722 87.3479C56.4542 87.5265 56.4951 87.7342 56.4951 87.9732C56.4951 88.1591 56.4662 88.3305 56.4108 88.4874C56.3554 88.6443 56.2758 88.7819 56.1722 88.9051C56.0686 89.0282 55.9457 89.132 55.7987 89.2165C55.6517 89.301 55.4903 89.3686 55.3071 89.4169V89.4313C55.3963 89.4724 55.4734 89.5158 55.5409 89.569C55.6084 89.6221 55.6686 89.68 55.7288 89.75C55.7891 89.82 55.8469 89.8997 55.9072 89.9866C55.9674 90.0735 56.0301 90.1773 56.1023 90.2956L57.1072 91.9083L57.1048 91.9107ZM53.8927 87.1161V89.062H54.7433C54.8999 89.062 55.0445 89.0378 55.177 88.992C55.3096 88.9461 55.4252 88.8761 55.5216 88.7892C55.618 88.7023 55.6951 88.5912 55.7481 88.4633C55.8011 88.3353 55.8301 88.1905 55.8301 88.0311C55.8301 87.7438 55.7385 87.5217 55.5529 87.36C55.3674 87.1982 55.0999 87.1185 54.7481 87.1185H53.8903L53.8927 87.1161Z" fill="black"/>
<path d="M57.8398 91.9107V86.5488H59.3628C59.8254 86.5488 60.1917 86.6623 60.464 86.8892C60.7363 87.1162 60.8712 87.4107 60.8712 87.7752C60.8712 88.0794 60.7893 88.3426 60.6254 88.5671C60.4616 88.7916 60.2351 88.9509 59.9459 89.0451V89.0596C60.3074 89.103 60.5965 89.2382 60.811 89.47C61.0254 89.7018 61.1363 90.0011 61.1363 90.3705C61.1363 90.8292 60.9724 91.201 60.6447 91.4859C60.317 91.7707 59.9025 91.9132 59.4013 91.9132H57.8398V91.9107ZM58.4664 87.1162V88.8471H59.1073C59.4519 88.8471 59.7218 88.7651 59.917 88.5985C60.1122 88.4319 60.211 88.2001 60.211 87.8984C60.211 87.3769 59.8688 87.1162 59.1844 87.1162H58.464H58.4664ZM58.4664 89.4121V91.341H59.317C59.6857 91.341 59.97 91.2541 60.1748 91.0803C60.3797 90.9064 60.4784 90.6674 60.4784 90.3632C60.4784 89.7307 60.0471 89.4145 59.1869 89.4145H58.4664V89.4121Z" fill="black"/>
<path d="M65.0589 91.9107H62.2227V86.5488H64.9408V87.1162H62.8516V88.9002H64.7842V89.4652H62.8516V91.3434H65.0613V91.9107H65.0589Z" fill="black"/>
<path d="M69.9266 91.9107H69.1795L68.2831 90.4067C68.2012 90.2667 68.1217 90.1484 68.0446 90.0494C67.9675 89.9504 67.888 89.8707 67.8084 89.808C67.7289 89.7452 67.6398 89.6993 67.5482 89.6704C67.4566 89.6414 67.3506 89.6269 67.2325 89.6269H66.7169V91.9083H66.0903V86.5464H67.688C67.9217 86.5464 68.1386 86.5754 68.3362 86.6333C68.5338 86.6912 68.7048 86.7806 68.8518 86.9013C68.9988 87.022 69.1121 87.1692 69.194 87.3479C69.2759 87.5265 69.3169 87.7342 69.3169 87.9732C69.3169 88.1591 69.288 88.3305 69.2326 88.4874C69.1771 88.6443 69.0976 88.7819 68.994 88.9051C68.8904 89.0282 68.7675 89.132 68.6205 89.2165C68.4735 89.301 68.3121 89.3686 68.1289 89.4169V89.4313C68.2181 89.4724 68.2952 89.5158 68.3627 89.569C68.4301 89.6221 68.4904 89.68 68.5506 89.75C68.6109 89.82 68.6687 89.8997 68.7289 89.9866C68.7892 90.0735 68.8518 90.1773 68.9241 90.2956L69.929 91.9083L69.9266 91.9107ZM66.7144 87.1161V89.062H67.5651C67.7217 89.062 67.8663 89.0378 67.9988 88.992C68.1313 88.9461 68.247 88.8761 68.3434 88.7892C68.4398 88.7023 68.5169 88.5912 68.5699 88.4633C68.6229 88.3353 68.6518 88.1905 68.6518 88.0311C68.6518 87.7438 68.5603 87.5217 68.3747 87.36C68.1892 87.1982 67.9217 87.1185 67.5699 87.1185H66.712L66.7144 87.1161Z" fill="black"/>
<path d="M70.4111 91.6935V90.9523C70.4955 91.0272 70.5967 91.0948 70.7147 91.1551C70.8328 91.2155 70.9581 91.2662 71.0883 91.3072C71.2184 91.3483 71.3509 91.3796 71.481 91.4038C71.6112 91.4279 71.734 91.4376 71.8473 91.4376C72.2329 91.4376 72.522 91.3652 72.7124 91.2227C72.9027 91.0803 72.9991 90.8727 72.9991 90.6047C72.9991 90.4598 72.9678 90.3343 72.9027 90.2281C72.8377 90.1219 72.7509 90.0229 72.6401 89.9335C72.5292 89.8442 72.3967 89.7597 72.2425 89.6801C72.0883 89.6004 71.9244 89.5135 71.7485 89.4242C71.563 89.33 71.387 89.2334 71.2256 89.1369C71.0642 89.0403 70.9244 88.9317 70.8039 88.8158C70.6834 88.6999 70.5894 88.5647 70.522 88.4174C70.4545 88.2702 70.4184 88.0963 70.4184 87.896C70.4184 87.6521 70.4714 87.4397 70.5798 87.2586C70.6882 87.0776 70.828 86.9279 71.0015 86.812C71.175 86.6961 71.375 86.6068 71.5967 86.5513C71.8184 86.4957 72.0473 86.4644 72.2786 86.4644C72.8064 86.4644 73.1895 86.5271 73.4329 86.6551V87.3624C73.1172 87.1427 72.7124 87.0341 72.216 87.0341C72.0786 87.0341 71.9413 87.0486 71.8063 87.0776C71.6714 87.1065 71.5485 87.1524 71.4401 87.2176C71.3316 87.2828 71.2449 87.3648 71.1798 87.4687C71.1148 87.5725 71.0786 87.6956 71.0786 87.8429C71.0786 87.9805 71.1051 88.0988 71.1557 88.1977C71.2063 88.2967 71.281 88.3885 71.3822 88.4705C71.4834 88.5526 71.6039 88.6323 71.7461 88.7096C71.8883 88.7868 72.0545 88.8713 72.2401 88.963C72.4329 89.0572 72.6136 89.1586 72.7847 89.2624C72.9558 89.3662 73.1076 89.4821 73.2353 89.61C73.363 89.738 73.4666 89.878 73.5437 90.0325C73.6208 90.187 73.657 90.3633 73.657 90.5637C73.657 90.8268 73.6064 91.0513 73.5028 91.2348C73.3991 91.4183 73.2594 91.568 73.0859 91.6814C72.9124 91.7949 72.7076 91.8794 72.4786 91.9301C72.2497 91.9808 72.0087 92.0073 71.7533 92.0073C71.669 92.0073 71.5654 92.0001 71.4401 91.9856C71.3148 91.9711 71.1895 91.9518 71.0593 91.9253C70.9292 91.8987 70.8063 91.8673 70.6906 91.8287C70.575 91.7901 70.4834 91.7466 70.4135 91.7007L70.4111 91.6935Z" fill="black"/>
<path d="M78.7459 91.9107H78.1194V89.4652H75.3506V91.9107H74.7241V86.5488H75.3506V88.9002H78.1194V86.5488H78.7459V91.9107Z" fill="black"/>
<path d="M82.3078 92C81.5487 92 80.9415 91.749 80.4837 91.2492C80.0258 90.7495 79.7993 90.0952 79.7993 89.2937C79.7993 88.4319 80.0331 87.7438 80.4981 87.2296C80.9632 86.7154 81.5969 86.4595 82.397 86.4595C83.1367 86.4595 83.7319 86.7081 84.1825 87.2079C84.6331 87.7076 84.8597 88.3594 84.8597 89.1634C84.8597 90.0373 84.6283 90.7302 84.1657 91.2396C83.703 91.749 83.0837 92.0025 82.3078 92.0025V92ZM82.3512 87.0268C81.7897 87.0268 81.3319 87.2296 80.9801 87.6352C80.6282 88.0408 80.4548 88.5743 80.4548 89.2358C80.4548 89.8973 80.6258 90.4284 80.968 90.8316C81.3102 91.2347 81.756 91.4351 82.3054 91.4351C82.8933 91.4351 83.356 91.242 83.6934 90.8581C84.0307 90.4743 84.2018 89.9359 84.2018 89.2455C84.2018 88.555 84.038 87.9901 83.7102 87.6038C83.3825 87.2175 82.9295 87.0244 82.3512 87.0244V87.0268Z" fill="black"/>
<path d="M86.5391 89.8828V91.9107H85.9126V86.5488H87.3825C87.956 86.5488 88.3994 86.6889 88.7126 86.9665C89.0259 87.2441 89.1849 87.64 89.1849 88.1494C89.1849 88.6588 89.009 89.0741 88.6596 89.3976C88.3102 89.7211 87.8379 89.8828 87.2427 89.8828H86.5367H86.5391ZM86.5391 87.1162V89.3155H87.197C87.6307 89.3155 87.9608 89.2165 88.1873 89.0185C88.4139 88.8206 88.5295 88.5405 88.5295 88.1784C88.5295 87.471 88.1126 87.1162 87.2765 87.1162H86.5415H86.5391Z" fill="black"/>
</g>
<defs>
<clipPath id="clip0_218_15">
<rect width="127" height="92" fill="white"/>
</clipPath>
</defs>
</svg>
