<svg width="375" height="42" viewBox="0 0 375 42" fill="none" xmlns="http://www.w3.org/2000/svg">
<g clip-path="url(#clip0_619_1441)">
<rect width="430" height="42" transform="translate(-28)" fill="#F77962"/>
<path d="M-64.4399 20.408L-67.3439 12.2H-64.5599L-62.7839 17.624H-62.7359L-60.9119 12.2H-58.4159L-61.3199 20.408L-58.2719 29H-61.0559L-62.9759 23.144H-63.0239L-64.9919 29H-67.4879L-64.4399 20.408ZM-52.6941 12.2H-50.0541V19.04H-47.2221V12.2H-44.5821V29H-47.2221V21.44H-50.0541V29H-52.6941V12.2ZM-40.336 12.2H-36.76L-34.024 29H-36.664L-37.144 25.664V25.712H-40.144L-40.624 29H-43.072L-40.336 12.2ZM-37.456 23.432L-38.632 15.128H-38.68L-39.832 23.432H-37.456ZM-32.5032 12.2H-29.8632V29H-32.5032V12.2ZM-27.646 12.2H-23.734C-22.374 12.2 -21.382 12.52 -20.758 13.16C-20.134 13.784 -19.822 14.752 -19.822 16.064V17.096C-19.822 18.84 -20.398 19.944 -21.55 20.408V20.456C-20.91 20.648 -20.462 21.04 -20.206 21.632C-19.934 22.224 -19.798 23.016 -19.798 24.008V26.96C-19.798 27.44 -19.782 27.832 -19.75 28.136C-19.718 28.424 -19.638 28.712 -19.51 29H-22.198C-22.294 28.728 -22.358 28.472 -22.39 28.232C-22.422 27.992 -22.438 27.56 -22.438 26.936V23.864C-22.438 23.096 -22.566 22.56 -22.822 22.256C-23.062 21.952 -23.486 21.8 -24.094 21.8H-25.006V29H-27.646V12.2ZM-24.046 19.4C-23.518 19.4 -23.126 19.264 -22.87 18.992C-22.598 18.72 -22.462 18.264 -22.462 17.624V16.328C-22.462 15.72 -22.574 15.28 -22.798 15.008C-23.006 14.736 -23.342 14.6 -23.806 14.6H-25.006V19.4H-24.046ZM-14.0063 29.24C-15.2703 29.24 -16.2383 28.88 -16.9103 28.16C-17.5663 27.44 -17.8943 26.424 -17.8943 25.112V16.088C-17.8943 14.776 -17.5663 13.76 -16.9103 13.04C-16.2383 12.32 -15.2703 11.96 -14.0063 11.96C-12.7423 11.96 -11.7823 12.32 -11.1263 13.04C-10.4543 13.76 -10.1183 14.776 -10.1183 16.088V17.864H-12.6143V15.92C-12.6143 14.88 -13.0543 14.36 -13.9343 14.36C-14.8143 14.36 -15.2543 14.88 -15.2543 15.92V25.304C-15.2543 26.328 -14.8143 26.84 -13.9343 26.84C-13.0543 26.84 -12.6143 26.328 -12.6143 25.304V22.736H-10.1183V25.112C-10.1183 26.424 -10.4543 27.44 -11.1263 28.16C-11.7823 28.88 -12.7423 29.24 -14.0063 29.24ZM-4.45881 29.24C-5.73881 29.24 -6.71481 28.88 -7.38681 28.16C-8.05881 27.424 -8.39481 26.376 -8.39481 25.016V12.2H-5.75481V25.208C-5.75481 25.784 -5.64281 26.2 -5.41881 26.456C-5.17881 26.712 -4.84281 26.84 -4.41081 26.84C-3.97881 26.84 -3.65081 26.712 -3.42681 26.456C-3.18681 26.2 -3.06681 25.784 -3.06681 25.208V12.2H-0.522814V25.016C-0.522814 26.376 -0.858814 27.424 -1.53081 28.16C-2.20281 28.88 -3.17881 29.24 -4.45881 29.24ZM3.66143 14.6H0.901434V12.2H9.06143V14.6H6.30143V29H3.66143V14.6ZM16.9914 20.408L14.0874 12.2H16.8714L18.6474 17.624H18.6954L20.5194 12.2H23.0154L20.1114 20.408L23.1594 29H20.3754L18.4554 23.144H18.4074L16.4394 29H13.9434L16.9914 20.408ZM28.7371 12.2H31.3771V19.04H34.2091V12.2H36.8491V29H34.2091V21.44H31.3771V29H28.7371V12.2ZM41.0953 12.2H44.6713L47.4073 29H44.7673L44.2873 25.664V25.712H41.2873L40.8073 29H38.3593L41.0953 12.2ZM43.9753 23.432L42.7993 15.128H42.7513L41.5993 23.432H43.9753ZM48.9281 12.2H51.5681V29H48.9281V12.2ZM53.7852 12.2H57.6972C59.0572 12.2 60.0492 12.52 60.6732 13.16C61.2972 13.784 61.6092 14.752 61.6092 16.064V17.096C61.6092 18.84 61.0332 19.944 59.8812 20.408V20.456C60.5212 20.648 60.9692 21.04 61.2252 21.632C61.4972 22.224 61.6332 23.016 61.6332 24.008V26.96C61.6332 27.44 61.6492 27.832 61.6812 28.136C61.7132 28.424 61.7932 28.712 61.9212 29H59.2332C59.1372 28.728 59.0732 28.472 59.0412 28.232C59.0092 27.992 58.9932 27.56 58.9932 26.936V23.864C58.9932 23.096 58.8652 22.56 58.6092 22.256C58.3692 21.952 57.9452 21.8 57.3372 21.8H56.4252V29H53.7852V12.2ZM57.3852 19.4C57.9132 19.4 58.3052 19.264 58.5612 18.992C58.8332 18.72 58.9692 18.264 58.9692 17.624V16.328C58.9692 15.72 58.8572 15.28 58.6332 15.008C58.4252 14.736 58.0892 14.6 57.6252 14.6H56.4252V19.4H57.3852ZM67.4249 29.24C66.1609 29.24 65.1929 28.88 64.5209 28.16C63.8649 27.44 63.5369 26.424 63.5369 25.112V16.088C63.5369 14.776 63.8649 13.76 64.5209 13.04C65.1929 12.32 66.1609 11.96 67.4249 11.96C68.6889 11.96 69.6489 12.32 70.3049 13.04C70.9769 13.76 71.3129 14.776 71.3129 16.088V17.864H68.8169V15.92C68.8169 14.88 68.3769 14.36 67.4969 14.36C66.6169 14.36 66.1769 14.88 66.1769 15.92V25.304C66.1769 26.328 66.6169 26.84 67.4969 26.84C68.3769 26.84 68.8169 26.328 68.8169 25.304V22.736H71.3129V25.112C71.3129 26.424 70.9769 27.44 70.3049 28.16C69.6489 28.88 68.6889 29.24 67.4249 29.24ZM76.9724 29.24C75.6924 29.24 74.7164 28.88 74.0444 28.16C73.3724 27.424 73.0364 26.376 73.0364 25.016V12.2H75.6764V25.208C75.6764 25.784 75.7884 26.2 76.0124 26.456C76.2524 26.712 76.5884 26.84 77.0204 26.84C77.4524 26.84 77.7804 26.712 78.0044 26.456C78.2444 26.2 78.3644 25.784 78.3644 25.208V12.2H80.9084V25.016C80.9084 26.376 80.5724 27.424 79.9004 28.16C79.2284 28.88 78.2524 29.24 76.9724 29.24ZM85.0927 14.6H82.3327V12.2H90.4927V14.6H87.7327V29H85.0927V14.6ZM98.4226 20.408L95.5186 12.2H98.3026L100.079 17.624H100.127L101.951 12.2H104.447L101.543 20.408L104.591 29H101.807L99.8866 23.144H99.8386L97.8706 29H95.3746L98.4226 20.408ZM110.168 12.2H112.808V19.04H115.64V12.2H118.28V29H115.64V21.44H112.808V29H110.168V12.2ZM122.527 12.2H126.103L128.839 29H126.199L125.719 25.664V25.712H122.719L122.239 29H119.791L122.527 12.2ZM125.407 23.432L124.231 15.128H124.183L123.031 23.432H125.407ZM130.359 12.2H132.999V29H130.359V12.2ZM135.216 12.2H139.128C140.488 12.2 141.48 12.52 142.104 13.16C142.728 13.784 143.04 14.752 143.04 16.064V17.096C143.04 18.84 142.464 19.944 141.312 20.408V20.456C141.952 20.648 142.4 21.04 142.656 21.632C142.928 22.224 143.064 23.016 143.064 24.008V26.96C143.064 27.44 143.08 27.832 143.112 28.136C143.144 28.424 143.224 28.712 143.352 29H140.664C140.568 28.728 140.504 28.472 140.472 28.232C140.44 27.992 140.424 27.56 140.424 26.936V23.864C140.424 23.096 140.296 22.56 140.04 22.256C139.8 21.952 139.376 21.8 138.768 21.8H137.856V29H135.216V12.2ZM138.816 19.4C139.344 19.4 139.736 19.264 139.992 18.992C140.264 18.72 140.4 18.264 140.4 17.624V16.328C140.4 15.72 140.288 15.28 140.064 15.008C139.856 14.736 139.52 14.6 139.056 14.6H137.856V19.4H138.816ZM148.856 29.24C147.592 29.24 146.624 28.88 145.952 28.16C145.296 27.44 144.968 26.424 144.968 25.112V16.088C144.968 14.776 145.296 13.76 145.952 13.04C146.624 12.32 147.592 11.96 148.856 11.96C150.12 11.96 151.08 12.32 151.736 13.04C152.408 13.76 152.744 14.776 152.744 16.088V17.864H150.248V15.92C150.248 14.88 149.808 14.36 148.928 14.36C148.048 14.36 147.608 14.88 147.608 15.92V25.304C147.608 26.328 148.048 26.84 148.928 26.84C149.808 26.84 150.248 26.328 150.248 25.304V22.736H152.744V25.112C152.744 26.424 152.408 27.44 151.736 28.16C151.08 28.88 150.12 29.24 148.856 29.24ZM158.404 29.24C157.124 29.24 156.148 28.88 155.476 28.16C154.804 27.424 154.468 26.376 154.468 25.016V12.2H157.108V25.208C157.108 25.784 157.22 26.2 157.444 26.456C157.684 26.712 158.02 26.84 158.452 26.84C158.884 26.84 159.212 26.712 159.436 26.456C159.676 26.2 159.796 25.784 159.796 25.208V12.2H162.34V25.016C162.34 26.376 162.004 27.424 161.332 28.16C160.66 28.88 159.684 29.24 158.404 29.24ZM166.524 14.6H163.764V12.2H171.924V14.6H169.164V29H166.524V14.6ZM179.854 20.408L176.95 12.2H179.734L181.51 17.624H181.558L183.382 12.2H185.878L182.974 20.408L186.022 29H183.238L181.318 23.144H181.27L179.302 29H176.806L179.854 20.408ZM191.6 12.2H194.24V19.04H197.072V12.2H199.712V29H197.072V21.44H194.24V29H191.6V12.2ZM203.958 12.2H207.534L210.27 29H207.63L207.15 25.664V25.712H204.15L203.67 29H201.222L203.958 12.2ZM206.838 23.432L205.662 15.128H205.614L204.462 23.432H206.838ZM211.791 12.2H214.431V29H211.791V12.2ZM216.648 12.2H220.56C221.92 12.2 222.912 12.52 223.536 13.16C224.16 13.784 224.472 14.752 224.472 16.064V17.096C224.472 18.84 223.896 19.944 222.744 20.408V20.456C223.384 20.648 223.832 21.04 224.088 21.632C224.36 22.224 224.496 23.016 224.496 24.008V26.96C224.496 27.44 224.512 27.832 224.544 28.136C224.576 28.424 224.656 28.712 224.784 29H222.096C222 28.728 221.936 28.472 221.904 28.232C221.872 27.992 221.856 27.56 221.856 26.936V23.864C221.856 23.096 221.728 22.56 221.472 22.256C221.232 21.952 220.808 21.8 220.2 21.8H219.288V29H216.648V12.2ZM220.248 19.4C220.776 19.4 221.168 19.264 221.424 18.992C221.696 18.72 221.832 18.264 221.832 17.624V16.328C221.832 15.72 221.72 15.28 221.496 15.008C221.288 14.736 220.952 14.6 220.488 14.6H219.288V19.4H220.248ZM230.287 29.24C229.023 29.24 228.055 28.88 227.383 28.16C226.727 27.44 226.399 26.424 226.399 25.112V16.088C226.399 14.776 226.727 13.76 227.383 13.04C228.055 12.32 229.023 11.96 230.287 11.96C231.551 11.96 232.511 12.32 233.167 13.04C233.839 13.76 234.175 14.776 234.175 16.088V17.864H231.679V15.92C231.679 14.88 231.239 14.36 230.359 14.36C229.479 14.36 229.039 14.88 229.039 15.92V25.304C229.039 26.328 229.479 26.84 230.359 26.84C231.239 26.84 231.679 26.328 231.679 25.304V22.736H234.175V25.112C234.175 26.424 233.839 27.44 233.167 28.16C232.511 28.88 231.551 29.24 230.287 29.24ZM239.835 29.24C238.555 29.24 237.579 28.88 236.907 28.16C236.235 27.424 235.899 26.376 235.899 25.016V12.2H238.539V25.208C238.539 25.784 238.651 26.2 238.875 26.456C239.115 26.712 239.451 26.84 239.883 26.84C240.315 26.84 240.643 26.712 240.867 26.456C241.107 26.2 241.227 25.784 241.227 25.208V12.2H243.771V25.016C243.771 26.376 243.435 27.424 242.763 28.16C242.091 28.88 241.115 29.24 239.835 29.24ZM247.955 14.6H245.195V12.2H253.355V14.6H250.595V29H247.955V14.6ZM261.285 20.408L258.381 12.2H261.165L262.941 17.624H262.989L264.813 12.2H267.309L264.405 20.408L267.453 29H264.669L262.749 23.144H262.701L260.733 29H258.237L261.285 20.408ZM273.031 12.2H275.671V19.04H278.503V12.2H281.143V29H278.503V21.44H275.671V29H273.031V12.2ZM285.389 12.2H288.965L291.701 29H289.061L288.581 25.664V25.712H285.581L285.101 29H282.653L285.389 12.2ZM288.269 23.432L287.093 15.128H287.045L285.893 23.432H288.269ZM293.222 12.2H295.862V29H293.222V12.2ZM298.079 12.2H301.991C303.351 12.2 304.343 12.52 304.967 13.16C305.591 13.784 305.903 14.752 305.903 16.064V17.096C305.903 18.84 305.327 19.944 304.175 20.408V20.456C304.815 20.648 305.263 21.04 305.519 21.632C305.791 22.224 305.927 23.016 305.927 24.008V26.96C305.927 27.44 305.943 27.832 305.975 28.136C306.007 28.424 306.087 28.712 306.215 29H303.527C303.431 28.728 303.367 28.472 303.335 28.232C303.303 27.992 303.287 27.56 303.287 26.936V23.864C303.287 23.096 303.159 22.56 302.903 22.256C302.663 21.952 302.239 21.8 301.631 21.8H300.719V29H298.079V12.2ZM301.679 19.4C302.207 19.4 302.599 19.264 302.855 18.992C303.127 18.72 303.263 18.264 303.263 17.624V16.328C303.263 15.72 303.151 15.28 302.927 15.008C302.719 14.736 302.383 14.6 301.919 14.6H300.719V19.4H301.679ZM311.719 29.24C310.455 29.24 309.487 28.88 308.815 28.16C308.159 27.44 307.831 26.424 307.831 25.112V16.088C307.831 14.776 308.159 13.76 308.815 13.04C309.487 12.32 310.455 11.96 311.719 11.96C312.983 11.96 313.943 12.32 314.599 13.04C315.271 13.76 315.607 14.776 315.607 16.088V17.864H313.111V15.92C313.111 14.88 312.671 14.36 311.791 14.36C310.911 14.36 310.471 14.88 310.471 15.92V25.304C310.471 26.328 310.911 26.84 311.791 26.84C312.671 26.84 313.111 26.328 313.111 25.304V22.736H315.607V25.112C315.607 26.424 315.271 27.44 314.599 28.16C313.943 28.88 312.983 29.24 311.719 29.24ZM321.266 29.24C319.986 29.24 319.01 28.88 318.338 28.16C317.666 27.424 317.33 26.376 317.33 25.016V12.2H319.97V25.208C319.97 25.784 320.082 26.2 320.306 26.456C320.546 26.712 320.882 26.84 321.314 26.84C321.746 26.84 322.074 26.712 322.298 26.456C322.538 26.2 322.658 25.784 322.658 25.208V12.2H325.202V25.016C325.202 26.376 324.866 27.424 324.194 28.16C323.522 28.88 322.546 29.24 321.266 29.24ZM329.386 14.6H326.626V12.2H334.786V14.6H332.026V29H329.386V14.6ZM342.716 20.408L339.812 12.2H342.596L344.372 17.624H344.42L346.244 12.2H348.74L345.836 20.408L348.884 29H346.1L344.18 23.144H344.132L342.164 29H339.668L342.716 20.408ZM354.462 12.2H357.102V19.04H359.934V12.2H362.574V29H359.934V21.44H357.102V29H354.462V12.2ZM366.82 12.2H370.396L373.132 29H370.492L370.012 25.664V25.712H367.012L366.532 29H364.084L366.82 12.2ZM369.7 23.432L368.524 15.128H368.476L367.324 23.432H369.7ZM374.653 12.2H377.293V29H374.653V12.2ZM379.51 12.2H383.422C384.782 12.2 385.774 12.52 386.398 13.16C387.022 13.784 387.334 14.752 387.334 16.064V17.096C387.334 18.84 386.758 19.944 385.606 20.408V20.456C386.246 20.648 386.694 21.04 386.95 21.632C387.222 22.224 387.358 23.016 387.358 24.008V26.96C387.358 27.44 387.374 27.832 387.406 28.136C387.438 28.424 387.518 28.712 387.646 29H384.958C384.862 28.728 384.798 28.472 384.766 28.232C384.734 27.992 384.718 27.56 384.718 26.936V23.864C384.718 23.096 384.59 22.56 384.334 22.256C384.094 21.952 383.67 21.8 383.062 21.8H382.15V29H379.51V12.2ZM383.11 19.4C383.638 19.4 384.03 19.264 384.286 18.992C384.558 18.72 384.694 18.264 384.694 17.624V16.328C384.694 15.72 384.582 15.28 384.358 15.008C384.15 14.736 383.814 14.6 383.35 14.6H382.15V19.4H383.11ZM393.15 29.24C391.886 29.24 390.918 28.88 390.246 28.16C389.59 27.44 389.262 26.424 389.262 25.112V16.088C389.262 14.776 389.59 13.76 390.246 13.04C390.918 12.32 391.886 11.96 393.15 11.96C394.414 11.96 395.374 12.32 396.03 13.04C396.702 13.76 397.038 14.776 397.038 16.088V17.864H394.542V15.92C394.542 14.88 394.102 14.36 393.222 14.36C392.342 14.36 391.902 14.88 391.902 15.92V25.304C391.902 26.328 392.342 26.84 393.222 26.84C394.102 26.84 394.542 26.328 394.542 25.304V22.736H397.038V25.112C397.038 26.424 396.702 27.44 396.03 28.16C395.374 28.88 394.414 29.24 393.15 29.24ZM402.697 29.24C401.417 29.24 400.441 28.88 399.769 28.16C399.097 27.424 398.761 26.376 398.761 25.016V12.2H401.401V25.208C401.401 25.784 401.513 26.2 401.737 26.456C401.977 26.712 402.313 26.84 402.745 26.84C403.177 26.84 403.505 26.712 403.729 26.456C403.969 26.2 404.089 25.784 404.089 25.208V12.2H406.633V25.016C406.633 26.376 406.297 27.424 405.625 28.16C404.953 28.88 403.977 29.24 402.697 29.24ZM410.818 14.6H408.058V12.2H416.218V14.6H413.458V29H410.818V14.6Z" fill="black"/>
</g>
<defs>
<clipPath id="clip0_619_1441">
<rect width="430" height="42" fill="white" transform="translate(-28)"/>
</clipPath>
</defs>
</svg>
