<svg width="177" height="133" viewBox="0 0 177 133" fill="none" xmlns="http://www.w3.org/2000/svg">
    <g clip-path="url(#clip0_528_325)">
        <path d="M120.804 106.229C120.902 102.527 122.467 98.9654 126.147 96.4995C127.642 95.4977 129.291 94.8678 131.051 94.4658C133.469 93.9163 135.907 93.8862 138.325 94.248C141.969 94.7941 145.139 96.3085 147.389 99.354C148.508 100.865 149.149 102.567 149.498 104.427C149.861 106.346 149.78 108.229 149.344 110.092C148.612 113.215 146.879 115.681 144.122 117.369C140.73 119.446 136.998 119.959 133.069 119.567C131.507 119.413 129.963 119.075 128.515 118.468C124.982 116.991 122.534 114.555 121.426 110.96C121.009 109.613 120.798 108.243 120.801 106.229H120.804ZM134.936 117.815C137.892 117.778 139.994 116.679 141.667 114.742C143.41 112.726 144.195 110.317 144.34 107.697C144.525 104.4 143.836 101.324 141.616 98.7677C139.406 96.2214 136.585 95.2062 133.274 95.9902C130.853 96.5631 129.029 98.0909 127.857 100.252C125.499 104.601 125.466 109.037 127.89 113.349C129.469 116.153 131.957 117.731 134.936 117.811V117.815Z" fill="white"/>
        <path d="M97.3425 94.5561C99.3206 94.479 100.923 94.4254 102.525 94.3517C104.748 94.2512 106.934 94.4388 109.023 95.2496C111.841 96.3419 113.983 98.1712 115.169 100.999C116.186 103.428 116.317 105.948 115.958 108.531C115.636 110.849 114.893 112.977 113.449 114.796C112.076 116.531 110.168 117.758 108.066 118.458C105.792 119.215 103.462 119.353 101.107 119.265C99.1225 119.195 97.141 119.024 95.1596 119.001C93.8901 118.987 92.6207 119.168 91.3478 119.252C91.059 119.272 90.7601 119.279 90.4847 119.232C89.8366 119.128 89.7627 118.344 90.4108 118.22C90.5015 118.203 90.6123 118.153 90.7198 118.133C91.8617 117.922 92.4796 117.326 92.6912 116.183C92.7584 115.811 92.7886 115.426 92.7886 115.047C92.7953 109.549 92.7953 104.048 92.7886 98.5498C92.7886 97.8026 92.7483 97.0589 92.2815 96.4189C91.9355 95.9465 91.4956 95.6249 90.9012 95.5311C90.4881 95.4641 89.9575 95.4004 90.0146 94.8576C90.0716 94.2948 90.609 94.3149 91.0557 94.3283C93.2755 94.4053 95.4954 94.4857 97.3425 94.5527V94.5561ZM97.3996 106.849C97.3996 109.754 97.3996 112.658 97.3996 115.56C97.3996 115.831 97.4097 116.106 97.4399 116.374C97.534 117.138 97.8463 117.453 98.6086 117.453C100.12 117.456 101.641 117.52 103.142 117.389C105.423 117.192 107.381 116.27 108.815 114.414C109.792 113.154 110.366 111.717 110.645 110.162C111.166 107.247 111.31 104.349 110.363 101.498C109.705 99.5147 108.328 97.8328 106.437 96.9282C104.147 95.8293 101.692 95.6584 99.2299 96.0303C97.7153 96.2581 97.366 96.5931 97.3828 98.1879C97.4131 101.073 97.3929 103.961 97.3929 106.845L97.3996 106.849Z" fill="white"/>
        <path d="M167.032 119.637C165.35 119.56 163.765 119.122 162.21 118.525C161.279 118.17 160.309 117.992 159.301 118.013C158.757 118.023 158.28 117.607 158.28 117.064C158.28 116.619 158.381 116.176 158.391 115.731C158.418 114.538 158.428 113.345 158.435 112.153C158.435 111.975 158.418 111.757 158.398 111.576C158.354 111.184 158.482 110.863 158.851 110.833C159.07 110.812 159.385 111.091 159.54 111.312C159.731 111.586 159.808 111.942 159.923 112.267C161.239 115.992 164.987 118.304 168.92 117.738C171.109 117.419 173.158 115.624 172.684 113.02C172.476 111.881 171.774 111.064 170.891 110.38C169.42 109.241 167.701 108.588 166.005 107.884C164.06 107.077 162.072 106.356 160.349 105.097C158.173 103.509 157.478 101.431 158.499 98.6036C159.318 96.332 161.195 95.233 163.372 94.5328C165.403 93.8795 167.486 93.9934 169.565 94.2112C170.021 94.2581 170.468 94.372 170.908 94.5027C171.737 94.7506 172.55 94.7238 173.386 94.5596C174.129 94.4122 174.773 94.898 174.82 95.6518C174.918 97.2098 175.069 98.761 175.197 100.316C175.21 100.46 175.264 100.624 175.22 100.744C175.136 100.966 175.035 101.264 174.861 101.338C174.689 101.408 174.33 101.307 174.209 101.157C173.897 100.761 173.662 100.306 173.413 99.8667C172.597 98.4092 171.586 97.1394 169.971 96.5196C168.154 95.8227 166.293 95.6317 164.423 96.3219C162.666 96.9719 162.149 99.1329 163.378 100.594C164.332 101.726 165.632 102.349 166.932 102.969C169.158 104.031 171.422 105.026 173.605 106.176C174.938 106.876 176.016 107.931 176.61 109.375C177.171 110.732 177.07 112.122 176.711 113.489C175.788 116.994 172.352 119.269 168.836 119.54C168.238 119.587 167.637 119.604 167.036 119.637H167.032Z" fill="white"/>
        <path d="M70.2405 112.253C68.7292 112.253 67.2146 112.263 65.7033 112.246C65.2701 112.24 65.0283 112.38 64.9074 112.803C64.6186 113.814 64.2726 114.809 64.014 115.828C63.8999 116.274 63.8898 116.766 63.9334 117.225C63.9805 117.691 64.3129 117.992 64.7764 118.12C64.8637 118.143 64.9577 118.143 65.0451 118.173C65.3675 118.284 65.7839 118.354 65.7235 118.81C65.6664 119.245 65.2634 119.202 64.9376 119.205C62.6808 119.235 60.4206 119.259 58.1637 119.282C58.0193 119.282 57.8615 119.262 57.7339 119.252C56.8876 119.195 56.9782 118.28 57.6801 118.203C59.2922 118.053 60.0713 116.954 60.6859 115.664C62.0192 112.866 63.3491 110.062 64.6689 107.258C66.516 103.334 68.3497 99.4076 70.1935 95.4876C70.358 95.1391 70.5293 94.7873 70.7577 94.4791C71.3017 93.7521 72.4469 93.8693 72.8701 94.6701C73.3772 95.6249 73.7634 96.6435 74.1966 97.6352C75.9329 101.589 77.6558 105.549 79.4122 109.492C80.3559 111.613 81.3466 113.714 82.3407 115.811C82.7303 116.635 83.1803 117.436 84.0501 117.865C84.3188 117.999 84.6211 118.113 84.92 118.146C85.9577 118.267 86.0282 119.215 84.9032 119.269C84.6143 119.282 84.3222 119.269 84.03 119.269C81.5515 119.245 79.0764 119.225 76.5979 119.192C76.2217 119.188 75.6777 119.369 75.5937 118.823C75.5064 118.264 76.0639 118.237 76.4602 118.133C77.1084 117.962 77.367 117.55 77.1419 116.903C76.6483 115.5 76.1277 114.106 75.6172 112.709C75.4728 112.317 75.1639 112.24 74.7844 112.243C73.2731 112.253 71.7585 112.246 70.2472 112.243L70.2405 112.253ZM70.1867 110.655C71.4629 110.655 72.7391 110.648 74.0153 110.655C74.6635 110.655 74.7676 110.511 74.5191 109.921C73.5653 107.646 72.6216 105.365 71.6644 103.09C71.3219 102.269 70.9726 101.451 70.5897 100.651C70.5024 100.463 70.2472 100.158 70.1061 100.228C69.5319 100.523 67.0769 106.979 65.841 110.062C65.6563 110.521 65.7604 110.658 66.2507 110.658C67.5638 110.658 68.8736 110.658 70.1867 110.658V110.655Z" fill="white"/>
        <path d="M5.14165 94.4456C6.43462 94.4456 7.7276 94.4456 9.02057 94.4456C9.14819 94.4456 9.2926 94.4054 9.40007 94.4489H9.40679C9.75606 94.6031 9.85009 95.0621 9.58142 95.3335C9.56799 95.3469 9.5512 95.3636 9.53441 95.377C9.44037 95.4641 9.26238 95.4675 9.12468 95.5043C8.47316 95.6786 8.22464 96.0404 8.43957 96.677C8.85601 97.9133 9.28924 99.1462 9.78293 100.356C11.1263 103.646 12.5032 106.926 13.8734 110.206C14.2093 111.01 14.5686 111.804 14.9481 112.588C14.9884 112.672 15.1093 112.779 15.2336 112.87C15.3948 112.987 15.6131 112.98 15.7608 112.849C15.8515 112.766 15.9321 112.679 15.9758 112.575C17.168 109.71 18.377 106.852 19.4954 103.957C20.2342 102.044 20.8354 100.084 21.4768 98.1344C21.6111 97.7257 21.6884 97.2834 21.7085 96.8545C21.7421 96.1175 21.3626 95.6618 20.6506 95.4842C20.5633 95.4608 20.4659 95.434 20.392 95.4139C19.4517 95.1592 19.7573 94.4054 20.5365 94.4523C22.1586 94.5528 23.7874 94.4724 25.4095 94.4758C25.9636 94.4758 26.5144 94.4121 27.0651 94.3518C27.2868 94.3283 27.5353 94.3585 27.7368 94.3451C28.5361 94.2982 28.5462 95.2732 27.8275 95.4474C26.202 95.6115 25.4666 96.7641 24.8654 98.0406C22.8235 102.353 20.8051 106.675 18.7767 110.993C17.5945 113.506 16.4258 116.022 15.2101 118.518C15.0186 118.914 14.666 119.332 14.2832 119.51C13.5611 119.838 12.8794 119.473 12.5334 118.676C11.5427 116.398 10.5822 114.106 9.5915 111.828C8.51346 109.352 7.42534 106.879 6.31372 104.42C5.31292 102.209 4.28526 100.007 3.24416 97.8128C2.87138 97.0254 2.44487 96.2448 1.62206 95.8193C1.32317 95.6651 0.977256 95.5948 0.648135 95.501C0.30558 95.4072 -0.023541 95.2799 -3.23955e-05 94.8745C0.0234763 94.4657 0.382823 94.3417 0.715302 94.3451C1.42392 94.3451 2.13254 94.4221 2.84451 94.4389C3.61022 94.4556 4.37594 94.4422 5.13829 94.4422C5.13829 94.4422 5.13829 94.4422 5.13829 94.4456H5.14165Z" fill="white"/>
        <path d="M43.8067 117.46C45.7244 117.466 47.5681 117.108 49.3346 116.371C50.5772 115.851 51.5411 114.97 52.3404 113.915C52.8341 113.265 53.2639 112.568 53.7375 111.901C53.9591 111.59 54.2244 111.225 54.6677 111.476C55.0707 111.704 55.0002 112.102 54.876 112.494C54.4293 113.881 53.9826 115.268 53.5729 116.666C53.452 117.081 53.368 117.507 53.358 117.939C53.3345 118.951 52.8777 119.41 51.9072 119.379C47.5379 119.235 43.1686 119.071 38.7994 118.987C37.4225 118.961 36.0422 119.175 34.6585 119.259C34.3731 119.276 34.0641 119.282 33.7921 119.212C33.1472 119.048 33.0734 118.639 33.6476 118.301C33.7853 118.22 33.9533 118.17 34.1145 118.14C34.4369 118.079 34.7492 117.969 35.0246 117.788C36.1228 117.071 36.153 116.123 36.153 115.198C36.153 109.606 36.1631 104.018 36.1396 98.4259C36.1396 97.8631 35.9884 97.2835 35.8104 96.744C35.5854 96.0472 35.0212 95.6853 34.3126 95.5479C33.8794 95.4642 33.3991 95.4139 33.3521 94.8511C33.3252 94.516 33.8693 94.2681 34.4772 94.3485C37.1101 94.6936 39.7431 94.7003 42.3761 94.3485C43.0142 94.2647 43.5179 94.4825 43.5045 94.8343C43.4843 95.4106 43.0007 95.4608 42.5709 95.5446C41.5197 95.7423 41.0059 96.4995 40.7909 97.5515C40.7439 97.7827 40.7238 98.0205 40.7238 98.2584C40.7238 104.088 40.7439 109.918 40.7036 115.748C40.6969 116.692 41.4324 117.517 42.3861 117.466C42.8597 117.443 43.3332 117.463 43.8067 117.463V117.46Z" fill="white"/>
        <path d="M155.019 96.8245C154.851 97.7526 154.962 99.4077 154.277 100.801C153.904 101.555 152.776 101.569 153.038 100.835C153.616 99.22 152.454 97.451 152.235 95.749C152.128 94.9181 152.457 94.63 153.29 94.6099C153.381 94.6099 153.471 94.6099 153.562 94.6099C155.023 94.6099 155.171 94.7673 155.019 96.8211V96.8245Z" fill="white"/>
        <path d="M56.9783 131.91V124.469H59.1008C59.7456 124.469 60.256 124.626 60.6355 124.941C61.015 125.256 61.2031 125.665 61.2031 126.171C61.2031 126.593 61.0889 126.958 60.8606 127.27C60.6322 127.581 60.3165 127.802 59.9135 127.933V127.953C60.4172 128.013 60.8203 128.201 61.1192 128.523C61.418 128.844 61.5725 129.26 61.5725 129.772C61.5725 130.409 61.3442 130.925 60.8874 131.32C60.4307 131.716 59.853 131.913 59.1545 131.913H56.9783V131.91ZM57.8548 125.256V127.658H58.7481C59.2284 127.658 59.6045 127.544 59.8765 127.313C60.1486 127.082 60.2863 126.76 60.2863 126.342C60.2863 125.618 59.8094 125.256 58.8556 125.256H57.8514H57.8548ZM57.8548 128.446V131.123H59.0403C59.5541 131.123 59.9504 131.002 60.2359 130.761C60.5214 130.52 60.6591 130.188 60.6591 129.766C60.6591 128.888 60.0579 128.449 58.859 128.449H57.8548V128.446Z" fill="white" stroke="white" stroke-width="0.318345" stroke-miterlimit="10"/>
        <path d="M68.8602 131.91H67.893L67.1038 129.823H63.9402L63.1946 131.91H62.2207L65.082 124.469H65.9888L68.8602 131.91ZM66.8183 129.042L65.6462 125.873C65.6093 125.769 65.569 125.601 65.5321 125.373H65.5119C65.4783 125.584 65.438 125.752 65.391 125.873L64.2324 129.042H66.8183Z" fill="white" stroke="white" stroke-width="0.318345" stroke-miterlimit="10"/>
        <path d="M75.3082 131.91H74.2671L73.0178 129.823C72.9036 129.628 72.7928 129.464 72.6853 129.327C72.5778 129.189 72.467 129.079 72.3562 128.992C72.2454 128.905 72.1211 128.841 71.9935 128.801C71.8659 128.761 71.7181 128.74 71.5535 128.74H70.8348V131.907H69.9617V124.465H72.1883C72.514 124.465 72.8163 124.506 73.0917 124.586C73.3671 124.666 73.6055 124.79 73.8104 124.958C74.0152 125.125 74.1731 125.33 74.2873 125.578C74.4014 125.826 74.4585 126.114 74.4585 126.445C74.4585 126.703 74.4182 126.941 74.341 127.159C74.2638 127.377 74.1529 127.568 74.0085 127.739C73.8641 127.91 73.6928 128.054 73.488 128.171C73.2831 128.288 73.0581 128.382 72.8029 128.449V128.469C72.9271 128.526 73.0346 128.586 73.1286 128.66C73.2227 128.734 73.3066 128.814 73.3906 128.911C73.4745 129.008 73.5551 129.119 73.6391 129.24C73.7231 129.36 73.8104 129.504 73.9111 129.669L75.3116 131.907L75.3082 131.91ZM70.8315 125.256V127.956H72.017C72.2353 127.956 72.4368 127.923 72.6215 127.859C72.8062 127.796 72.9674 127.698 73.1018 127.578C73.2361 127.457 73.3436 127.303 73.4174 127.126C73.4913 126.948 73.5316 126.747 73.5316 126.526C73.5316 126.127 73.404 125.819 73.1454 125.594C72.8868 125.37 72.514 125.259 72.0237 125.259H70.8281L70.8315 125.256Z" fill="white" stroke="white" stroke-width="0.318345" stroke-miterlimit="10"/>
        <path d="M76.3326 131.91V124.469H78.4551C79.0999 124.469 79.6104 124.626 79.9899 124.941C80.3694 125.256 80.5575 125.665 80.5575 126.171C80.5575 126.593 80.4433 126.958 80.2149 127.27C79.9866 127.581 79.6709 127.802 79.2679 127.933V127.953C79.7716 128.013 80.1746 128.201 80.4735 128.523C80.7724 128.844 80.9269 129.26 80.9269 129.772C80.9269 130.409 80.6985 130.925 80.2418 131.32C79.7851 131.716 79.2074 131.913 78.5089 131.913H76.3326V131.91ZM77.2058 125.256V127.658H78.0992C78.5794 127.658 78.9555 127.544 79.2276 127.313C79.4996 127.082 79.6373 126.76 79.6373 126.342C79.6373 125.618 79.1604 125.256 78.2066 125.256H77.2025H77.2058ZM77.2058 128.446V131.123H78.3913C78.9052 131.123 79.3014 131.002 79.5869 130.761C79.8724 130.52 80.0101 130.188 80.0101 129.766C80.0101 128.888 79.4089 128.449 78.21 128.449H77.2058V128.446Z" fill="white" stroke="white" stroke-width="0.318345" stroke-miterlimit="10"/>
        <path d="M86.3943 131.91H82.4415V124.469H86.2298V125.256H83.3181V127.732H86.0115V128.516H83.3181V131.123H86.3977V131.91H86.3943Z" fill="white" stroke="white" stroke-width="0.318345" stroke-miterlimit="10"/>
        <path d="M93.1781 131.91H92.137L90.8877 129.823C90.7735 129.628 90.6627 129.464 90.5552 129.327C90.4477 129.189 90.3369 129.079 90.2261 128.992C90.1152 128.905 89.991 128.841 89.8634 128.801C89.7357 128.761 89.588 128.74 89.4234 128.74H88.7047V131.907H87.8315V124.465H90.0581C90.3839 124.465 90.6862 124.506 90.9616 124.586C91.2369 124.666 91.4754 124.79 91.6802 124.958C91.8851 125.125 92.043 125.33 92.1571 125.578C92.2713 125.826 92.3284 126.114 92.3284 126.445C92.3284 126.703 92.2881 126.941 92.2109 127.159C92.1336 127.377 92.0228 127.568 91.8784 127.739C91.734 127.91 91.5627 128.054 91.3578 128.171C91.153 128.288 90.928 128.382 90.6727 128.449V128.469C90.797 128.526 90.9045 128.586 90.9985 128.66C91.0925 128.734 91.1765 128.814 91.2604 128.911C91.3444 129.008 91.425 129.119 91.509 129.24C91.5929 129.36 91.6802 129.504 91.781 129.669L93.1814 131.907L93.1781 131.91ZM88.7014 125.256V127.956H89.8869C90.1052 127.956 90.3067 127.923 90.4914 127.859C90.6761 127.796 90.8373 127.698 90.9716 127.578C91.106 127.457 91.2134 127.303 91.2873 127.126C91.3612 126.948 91.4015 126.747 91.4015 126.526C91.4015 126.127 91.2739 125.819 91.0153 125.594C90.7567 125.37 90.3839 125.259 89.8936 125.259H88.698L88.7014 125.256Z" fill="white" stroke="white" stroke-width="0.318345" stroke-miterlimit="10"/>
        <path d="M93.8533 131.609V130.58C93.9708 130.684 94.1119 130.778 94.2764 130.861C94.441 130.945 94.6156 131.016 94.797 131.072C94.9783 131.129 95.163 131.173 95.3444 131.207C95.5257 131.24 95.697 131.253 95.8549 131.253C96.3922 131.253 96.7952 131.153 97.0605 130.955C97.3258 130.758 97.4602 130.469 97.4602 130.098C97.4602 129.897 97.4165 129.722 97.3258 129.575C97.2352 129.427 97.1143 129.29 96.9598 129.166C96.8053 129.042 96.6206 128.925 96.4056 128.814C96.1907 128.704 95.9623 128.583 95.7172 128.459C95.4586 128.329 95.2134 128.194 94.9884 128.06C94.7634 127.926 94.5686 127.776 94.4007 127.615C94.2328 127.454 94.1018 127.266 94.0078 127.062C93.9137 126.858 93.8633 126.616 93.8633 126.338C93.8633 126 93.9372 125.705 94.0884 125.454C94.2395 125.203 94.4343 124.995 94.6761 124.834C94.9179 124.673 95.1966 124.549 95.5056 124.472C95.8146 124.395 96.1336 124.352 96.456 124.352C97.1915 124.352 97.7255 124.439 98.0647 124.616V125.598C97.6247 125.293 97.0605 125.142 96.3687 125.142C96.1773 125.142 95.9858 125.162 95.7978 125.203C95.6097 125.243 95.4384 125.306 95.2873 125.397C95.1362 125.487 95.0153 125.601 94.9246 125.745C94.8339 125.889 94.7835 126.06 94.7835 126.265C94.7835 126.456 94.8205 126.62 94.891 126.757C94.9615 126.895 95.0656 127.022 95.2067 127.136C95.3477 127.25 95.5157 127.36 95.7138 127.467C95.912 127.575 96.1437 127.692 96.4023 127.819C96.671 127.95 96.9228 128.091 97.1613 128.235C97.3997 128.379 97.6113 128.54 97.7893 128.717C97.9673 128.895 98.1117 129.089 98.2192 129.303C98.3266 129.518 98.377 129.762 98.377 130.041C98.377 130.406 98.3065 130.717 98.1621 130.972C98.0177 131.227 97.8229 131.434 97.5811 131.592C97.3393 131.749 97.0538 131.867 96.7348 131.937C96.4157 132.007 96.0799 132.044 95.7239 132.044C95.6063 132.044 95.4619 132.034 95.2873 132.014C95.1127 131.994 94.938 131.967 94.7567 131.93C94.5753 131.893 94.404 131.85 94.2428 131.796C94.0816 131.743 93.954 131.682 93.8566 131.619L93.8533 131.609Z" fill="white" stroke="white" stroke-width="0.318345" stroke-miterlimit="10"/>
        <path d="M105.47 131.91H104.597V128.516H100.738V131.91H99.8646V124.469H100.738V127.732H104.597V124.469H105.47V131.91Z" fill="white" stroke="white" stroke-width="0.318345" stroke-miterlimit="10"/>
        <path d="M110.434 132.034C109.376 132.034 108.529 131.685 107.891 130.992C107.253 130.298 106.938 129.39 106.938 128.278C106.938 127.082 107.263 126.127 107.911 125.414C108.56 124.7 109.443 124.345 110.558 124.345C111.589 124.345 112.418 124.69 113.046 125.383C113.674 126.077 113.99 126.982 113.99 128.097C113.99 129.31 113.668 130.272 113.023 130.979C112.378 131.685 111.515 132.037 110.434 132.037V132.034ZM110.494 125.132C109.712 125.132 109.073 125.414 108.583 125.976C108.093 126.539 107.851 127.28 107.851 128.198C107.851 129.116 108.089 129.853 108.566 130.412C109.043 130.972 109.665 131.25 110.43 131.25C111.25 131.25 111.894 130.982 112.365 130.449C112.835 129.916 113.073 129.169 113.073 128.211C113.073 127.253 112.845 126.469 112.388 125.933C111.931 125.397 111.3 125.129 110.494 125.129V125.132Z" fill="white" stroke="white" stroke-width="0.318345" stroke-miterlimit="10"/>
        <path d="M116.331 129.099V131.913H115.458V124.472H117.506C118.306 124.472 118.923 124.666 119.36 125.052C119.797 125.437 120.018 125.987 120.018 126.693C120.018 127.4 119.773 127.977 119.286 128.426C118.799 128.875 118.141 129.099 117.311 129.099H116.327H116.331ZM116.331 125.256V128.308H117.248C117.852 128.308 118.312 128.171 118.628 127.896C118.944 127.622 119.105 127.233 119.105 126.73C119.105 125.749 118.524 125.256 117.358 125.256H116.334H116.331Z" fill="white" stroke="white" stroke-width="0.318345" stroke-miterlimit="10"/>
    </g>
    <g clip-path="url(#clip1_528_325)">
        <path d="M104.441 56.5303C104.441 56.5303 105.529 55.8238 105.225 54.8117C104.92 53.8029 104.468 51.6439 104.441 50.7731C104.415 49.9023 105.788 44.9929 106.44 44.2929C107.093 43.593 109.875 39.8896 109.875 39.8896C109.875 39.8896 110.298 39.7351 109.514 38.2301C108.731 36.7251 108.872 36.942 108.469 36.2256C108.066 35.5092 105.638 31.0468 105.638 31.0468C105.47 30.5703 104.412 28.2536 104.441 27.7311C104.471 27.2086 104.114 25.7496 104.163 25.6083C104.212 25.467 103.448 24.9412 103.258 24.5337C103.068 24.1263 101.856 22.5062 101.784 21.5993C101.712 20.6923 101.023 19.2366 100.879 18.5695C100.735 17.9024 99.1883 14.2516 99.1883 13.2231C99.1883 12.1945 98.9032 9.78581 98.9032 9.78581C98.9032 9.78581 98.523 6.44387 98.546 5.6815C98.5689 4.91913 98.9032 3.5094 98.9753 3.10521C99.0474 2.70102 99.2833 1.26829 99.2374 1.02841C99.1916 0.788522 98.1658 0.76552 97.9987 1.13685C97.8316 1.50817 97.6644 1.81707 97.4744 2.38884C97.2843 2.96062 96.4519 5.99039 96.3798 6.42086C96.3077 6.85134 95.9046 9.11874 95.9046 9.49992C95.9046 9.88111 95.6654 10.9327 95.6654 10.9327C95.6654 10.9327 95.2132 11.3138 94.928 11.9809C94.6429 12.648 94.4529 13.6042 94.2857 14.0314C94.1186 14.4586 93.8106 16.3448 93.8106 16.3448C93.8106 16.3448 93.5975 17.8236 93.5975 18.4446C93.5975 19.0657 93.8597 19.5652 93.5975 19.8774C93.3354 20.1895 92.9552 20.4984 92.9061 21.0242C92.8569 21.55 92.6669 23.3869 92.6439 24.054C92.621 24.721 92.3588 26.489 92.4047 27.179C92.4506 27.8691 92.6669 29.3971 92.6669 29.3971C92.6669 29.3971 92.0704 30.7806 92.1196 31.1158C92.1687 31.4509 92.1425 32.4269 92.2638 33.002C92.385 33.577 93.2633 36.6298 93.4763 37.0833C93.6893 37.5368 93.9744 38.5489 94.0006 38.723C94.0268 38.8972 93.5255 38.516 93.5484 39.3014C93.5713 40.0868 94.1022 41.8547 94.3382 42.6663C94.5741 43.478 94.7642 44.5033 95.0264 44.7891C95.2885 45.075 95.6228 45.7914 95.8817 46.1496C96.1406 46.5078 96.5469 47.3687 96.7141 47.487C96.8812 47.6053 96.7141 48.0358 96.8583 48.6536C97.0024 49.2714 97.1925 49.9187 97.1925 49.9187C97.1925 49.9187 98.1691 51.542 98.405 52.1861C98.641 52.8302 99.1195 53.6878 99.5225 54.1676C99.9256 54.6474 101.118 55.3605 101.617 55.7186C102.115 56.0768 103.016 56.7866 103.353 56.7669C103.691 56.7472 104.281 56.7669 104.281 56.7669L104.441 56.5237V56.5303Z" fill="white"/>
        <path d="M72.3652 61.6992C72.6372 62.7409 73.8366 65.4059 74.4626 65.9284C75.0885 66.4509 76.8057 67.5977 77.1695 67.9099C77.5332 68.2221 83.7826 71.8795 84.0448 72.0339C84.307 72.1884 87.3776 73.1775 87.5873 73.5192C87.7971 73.861 92.5587 75.5862 92.5587 75.5862C92.5587 75.5862 98.2608 77.0485 98.8343 77.1011C99.4078 77.1536 104.068 76.6311 105.126 76.2368C106.185 75.8425 110.386 74.4788 110.809 73.9628C111.232 73.4469 114.525 71.2946 115.102 70.4763C115.675 69.6581 117.386 68.1136 117.606 66.9306C117.825 65.7476 117.9 64.4135 117.861 63.3225C117.822 62.2315 117.635 60.6115 115.81 59.8754C113.984 59.1393 111.9 57.9596 110.147 59.0506C108.394 60.1416 107.879 61.1734 106.431 62.202C104.979 63.2338 105.464 63.8089 103.258 64.5647C101.053 65.3205 102.17 66.2011 97.8479 66.2603C93.5254 66.3194 92.3785 66.7762 89.9305 65.958C87.4825 65.1397 86.9975 65.0806 84.9427 64.5351C82.888 63.9896 82.3145 63.5033 80.0762 62.5667C77.838 61.6302 74.787 60.112 74.0005 60.02C73.214 59.928 72.5193 61.6861 72.5193 61.6861L72.3718 61.6959L72.3652 61.6992Z" fill="white"/>
        <path d="M118.251 61.4662C118.251 61.6371 118.382 63.4214 118.553 63.5528C118.723 63.6843 119.562 64.1049 120.024 63.7993C120.486 63.4937 120.919 63.3425 120.768 63.0764C120.617 62.8102 120.352 62.4816 119.84 62.2647C119.329 62.0478 118.251 61.4629 118.251 61.4629V61.4662Z" fill="white"/>
        <path d="M94.3904 62.4154C94.3904 62.4154 89.6419 56.5268 90.6218 51.4728C90.6218 51.4728 90.1466 42.5938 91.156 41.4272C92.1653 40.2607 84.4576 38.1346 83.9922 35.463C83.9922 35.463 81.7179 32.1441 81.7671 31.9107C81.8162 31.6774 72.4667 25.6048 72.1291 23.9354C72.1291 23.9354 67.4527 18.9242 67.5117 17.1365C67.5117 17.1365 65.9059 14.1791 66.0272 13.7617C66.0272 13.7617 64.9392 15.6348 66.404 21.3526C66.404 21.3526 64.7622 21.5037 66.8399 28.7923C66.3844 28.7627 66.2861 30.7738 69.5402 35.2494C69.5402 35.2494 68.3408 33.0904 68.3605 34.2997C68.3801 35.509 69.8876 38.8214 70.0252 39.0613C70.1629 39.3011 72.0833 43.0538 72.2242 43.1721C72.3651 43.2904 73.2433 44.7922 73.8594 45.2687C74.4755 45.7451 75.7503 47.0859 76.0485 47.1056C76.3468 47.1253 74.505 46.1526 74.4231 46.1723C74.3412 46.192 74.1282 46.2019 74.4854 46.9577C74.8426 47.7135 75.9469 50.1485 76.74 50.6414C77.5331 51.1343 77.225 50.9437 77.7788 51.5122C78.3327 52.0807 78.2245 52.268 78.2835 52.7248C78.3425 53.1815 79.4305 54.4302 79.6894 54.68C79.9483 54.9297 82.0882 57.6408 82.5437 57.7393C82.9993 57.8379 82.7404 58.3407 83.8677 59.1786C84.995 60.0166 85.0474 60.4306 86.2796 60.7264C87.5118 61.0221 87.4922 61.1437 88.2656 61.1634C89.0389 61.1831 87.7248 61.285 87.7642 61.5643C87.8035 61.8436 88.8063 62.3563 89.0586 62.3333C89.311 62.3103 90.3596 62.7046 90.9167 62.7506C91.4738 62.7966 91.9654 62.5107 92.6405 62.6915C93.3156 62.8722 93.3745 62.9708 93.9087 63.0102C94.4429 63.0496 94.7182 62.6915 94.7182 62.6915L94.3806 62.4121L94.3904 62.4154Z" fill="white"/>
        <path d="M35.0817 40.3134C37.0283 40.3988 38.7324 40.5467 40.3644 40.6485C43.5661 40.8523 46.9219 41.3386 50.0515 42.101C53.9414 42.9521 57.3955 44.0299 60.9577 45.5842C61.2493 45.7223 61.3476 45.5711 61.0494 45.3838C57.4905 42.7418 54.1905 39.8073 51.2476 36.4917C48.2163 33.0807 45.4996 29.4364 43.3203 25.411C42.7108 24.2839 42.1766 23.1107 41.6261 21.9507C41.4852 21.6583 41.3901 21.3395 41.3115 21.0208C41.2656 20.8368 49.2191 27.6225 52.9288 29.7749C54.4002 30.6293 55.8323 31.556 57.3201 32.3808C59.7484 33.7248 62.2292 34.9702 64.7656 36.0973C65.8307 36.5705 66.8925 37.047 68.0165 37.3625C68.0985 37.3855 68.1837 37.3822 68.2689 37.3888C68.2558 37.3132 68.2459 37.2376 68.2263 37.162C68.0427 36.4654 67.8986 35.9527 67.7249 35.2561C67.443 33.7872 67.8396 33.6328 67.7904 33.5375C66.4796 30.9677 65.7193 28.2206 65.1392 25.4143C64.8607 24.067 64.7919 22.7065 65.0966 21.3494C65.2113 21.1522 65.3162 20.035 65.2212 19.4566C65.0835 17.7774 65.0114 16.4761 65.0966 15.0171C65.172 14.2613 65.2867 13.6501 65.5522 12.9535C65.8143 12.2765 66.5189 13.0455 66.5615 13.4529C66.7122 14.935 67.3414 16.2625 67.9641 17.6C69.3995 20.6955 71.523 23.2652 74.0923 25.4504C76.4682 27.4714 78.9522 29.3576 81.3805 31.3194C81.6492 31.5362 81.9344 31.809 82.0556 32.1179C83.1305 34.8026 85.1688 36.6165 87.4628 38.1971C88.4132 38.8511 89.3897 39.4656 90.3598 40.0866C91.1233 40.5762 91.4019 41.1645 91.2544 42.0714C91.1823 42.5249 91.1037 42.9784 91.0119 43.4286C90.6187 45.3706 90.5236 47.3324 90.5826 49.3074C90.5892 49.5472 90.6482 49.6228 90.9103 49.6557C93.0699 49.935 95.2033 50.3162 97.127 51.4335C97.1597 51.4532 97.1991 51.4663 97.2318 51.4893C97.5825 51.7193 97.3793 51.3973 97.3564 51.348C97.1499 50.8945 96.9828 50.6514 96.8124 50.1847C96.6551 49.7576 96.4617 49.1135 96.3995 48.6633C96.37 48.4563 96.37 48.0488 96.501 47.8779C96.6551 47.6808 96.6092 47.5887 96.4847 47.4212C94.4332 44.674 93.5582 41.9498 93.3288 39.7679C93.3059 39.459 93.1813 38.8116 93.4239 38.598C93.5025 38.4567 93.3878 38.1774 93.2993 37.9868C92.7357 36.7414 92.4932 35.7786 92.1851 34.4444C91.9361 33.3699 91.746 32.2822 91.7624 31.1715C91.7656 30.971 91.7788 30.396 91.8836 29.9918C91.9983 29.5383 92.2113 29.2524 92.2998 29.075C92.3359 28.9994 92.349 28.8778 92.3326 28.7825C92.0835 27.2085 91.9983 25.6213 92.077 24.0308C92.1523 22.5488 92.3555 21.0799 92.8372 19.6636C92.8536 19.6143 92.8602 19.5585 92.8897 19.5158C93.4009 18.7534 93.3452 17.876 93.3911 17.0183C93.591 13.1671 94.7904 10.502 95.4819 10.042C95.5671 9.95655 95.5998 9.78896 95.6097 9.65752C95.7375 8.11306 95.8751 6.57189 96.2225 5.05701C96.5142 3.78201 96.9795 2.57601 97.6415 1.44889C97.9495 0.926403 98.3166 0.449921 98.8442 0.118027C99.0572 -0.0167025 99.2735 -0.0857102 99.5029 0.0753077C99.7814 0.272473 99.339 3.37453 99.2735 4.64625C99.1981 6.13813 99.1686 7.63986 99.2047 9.13503C99.2505 11.0705 99.6536 12.9633 100.089 14.8462C100.63 17.1892 101.358 19.473 102.37 21.6583C103.009 23.0319 103.816 24.3069 104.795 25.4636C105.028 25.7363 105.084 25.9861 104.999 26.3574C104.91 26.7517 104.949 27.1953 105.005 27.6061C105.251 29.4134 105.923 31.0762 106.83 32.6404C107.81 34.3294 108.849 35.9856 109.862 37.6582C109.924 37.7601 109.976 37.8652 110.042 37.9605C110.589 38.7295 110.504 39.505 110.006 40.2345C109.521 40.9476 108.98 41.6278 108.449 42.308C106.798 44.4308 105.654 46.7869 105.077 49.4257C104.743 50.9636 104.946 52.4521 105.359 53.9342C105.415 54.1379 105.52 54.0952 105.644 54.0393C106.447 53.6778 107.306 53.5333 108.164 53.4281C110.77 53.1126 113.103 53.7764 115.174 55.4096C116.151 56.1818 116.865 57.1512 117.494 58.2061C117.986 59.0276 118.458 59.8458 118.576 60.8251C118.592 60.9631 118.736 61.1175 118.864 61.2063C119.827 61.8865 120.804 62.547 121.771 63.2239C122.177 63.5098 122.164 63.9666 121.725 64.2032C121.348 64.4069 120.948 64.5613 120.555 64.7355C119.922 65.0148 119.287 65.2843 118.661 65.5735C118.585 65.6096 118.526 65.7246 118.494 65.8133C118.34 66.2405 118.245 66.7006 118.038 67.0982C117.212 68.6722 116.246 70.151 114.951 71.3898C112.018 74.1928 108.58 76.0495 104.618 76.9039C103.776 77.0846 102.911 77.1733 102.059 77.3048C100.81 77.4921 99.5553 77.4658 98.31 77.3672C96.2225 77.2062 94.1874 76.7659 92.1818 76.1612C88.3018 74.9881 84.7133 73.1775 81.2036 71.1795C78.382 69.5726 75.7865 67.647 73.178 65.7279C72.4209 65.1693 68.4557 61.9686 67.584 61.1931C67.6626 60.1186 62.3734 56.8654 57.5331 54.0262C55.7766 52.9319 47.669 48.361 44.9851 47.1813C41.7998 45.7847 38.6079 44.4078 35.4029 43.0638C33.8233 42.4 28.108 40.9443 28.0228 40.8621C27.6493 40.504 34.1346 40.3035 35.0883 40.3035L35.0817 40.3134ZM86.4469 61.0617C85.1918 60.6246 84.0055 60.0528 82.9666 59.2116C82.4554 58.7976 81.9114 58.3704 81.6722 57.7526C81.3215 56.9968 80.7579 56.6255 80.1287 56.0833C80.0271 56.0241 79.9386 55.942 79.8468 55.8697C78.4967 54.782 77.6872 53.7074 77.2317 51.9987C77.2022 51.8837 76.7172 51.486 76.6287 51.394C76.1863 50.9471 75.8684 50.5955 75.4621 50.119C74.4757 48.959 73.7088 47.6709 73.3123 46.1823C73.4073 45.4166 72.8797 44.9796 72.434 44.4933C72.362 44.4144 72.2964 44.3322 72.2309 44.2534C70.7889 42.5019 69.773 40.9541 68.8882 38.8576C68.8161 38.69 68.6523 38.6046 68.4622 38.5455C67.6036 38.2661 66.6401 37.9572 65.811 37.6056C62.8813 36.3668 59.9188 35.0195 57.1366 33.475C55.2129 32.4071 53.1483 31.1091 51.2706 29.9622C48.8979 28.5098 46.8661 27.1559 44.8737 25.1908C44.3428 24.665 43.648 23.9618 43.6022 23.9388C43.6153 23.9881 43.6185 24.0407 43.6415 24.0834C43.9364 24.6683 43.8053 24.4317 44.1232 25.0068C46.1354 28.6379 48.5702 31.9733 51.2935 35.0885C55.2064 39.5707 59.6763 43.422 64.6804 46.6424C64.8017 46.7212 65.7029 47.5822 65.4735 47.7793C65.0409 47.8812 65.4637 47.9896 61.2755 46.7048C57.6707 45.3936 53.7546 43.9412 50.0679 43.1854C48.5244 42.8371 45.4537 42.2324 43.8905 42.0123C40.0858 41.6179 33.5153 41.2236 33.0368 41.2368C32.7746 41.2302 33.3383 41.3879 33.394 41.4076C34.3313 41.7329 35.2357 41.8611 36.1468 42.2489C39.5156 43.6816 42.8746 45.1373 46.2238 46.6161C48.8816 47.7892 51.5032 49.0445 53.9774 50.5758C56.1371 51.9099 58.2639 53.3032 60.4169 54.6538C64.0807 56.9541 67.4594 59.6224 70.6087 62.5864C70.8447 62.8099 71.0544 63.0728 71.3166 63.2568C72.0113 63.7464 72.729 64.2065 73.4368 64.6764C73.522 64.7322 73.6105 64.7848 73.699 64.8374C73.663 64.7355 73.6466 64.6238 73.5909 64.5351C72.906 63.4309 72.4013 62.2578 72.2178 60.9631C72.1555 60.5359 72.126 60.1021 72.1129 59.6717C72.1063 59.4384 72.2145 59.2346 72.4734 59.1722C72.7388 59.1097 72.8961 59.2379 72.9944 59.4712C73.0108 59.5074 73.0305 59.5402 73.0469 59.5764C73.6499 60.9729 74.574 62.1461 75.5965 63.2502C78.6933 66.5954 82.4325 68.9516 86.6763 70.5584C88.577 71.2781 90.5269 71.4227 92.5095 71.1335C94.9805 70.772 97.3367 70.0458 99.493 68.7445C101.322 67.6404 103.068 66.4278 104.602 64.9327C105.503 64.0553 106.352 63.1253 107.217 62.2085C108.374 60.9828 109.747 60.1219 111.346 59.6027C113.647 58.8534 116.603 59.5632 117.701 61.6696C117.73 61.7222 117.779 61.7649 117.819 61.8109C117.832 61.7419 117.864 61.6729 117.855 61.6072C117.691 60.5655 117.422 59.5698 116.849 58.653C116.128 57.4996 115.38 56.3922 114.24 55.5969C112.775 54.5782 111.202 53.9046 109.383 53.967C108.823 53.9867 108.256 53.967 107.709 54.0656C107.076 54.1806 106.463 54.4008 105.844 54.5848C105.67 54.6374 105.569 54.7425 105.585 54.9627C105.644 55.8499 105.189 56.5236 104.602 57.1085C104.199 57.5127 103.753 57.5653 103.308 57.3188C102.963 57.1282 102.626 56.9278 102.305 56.7043C101.053 55.8237 99.9584 54.7721 98.972 53.6056C98.7885 53.3887 98.5165 53.1882 98.3428 53.0173C97.3793 52.1432 96.8288 51.7621 95.8751 51.371C94.0596 50.6448 92.326 50.2603 90.8907 50.2242C90.6187 50.2998 90.5859 50.2308 90.6252 50.6382C90.8972 53.7403 91.7558 56.632 93.2174 59.3759C93.6532 60.1974 94.0826 61.0222 94.5315 61.8372C94.9543 62.8329 94.6102 63.5229 93.5975 63.5262C93.2993 63.5262 92.9716 63.4441 92.6865 63.3652C92.0999 63.2009 91.51 63.1319 90.9005 63.1483C90.4417 63.1615 89.9796 63.1812 89.5274 63.122C88.2821 62.9577 87.1875 62.5338 86.6435 61.2556M88.0724 61.5119C88.0265 61.5119 87.9806 61.5316 87.9347 61.5447C87.9577 61.5907 87.9675 61.6532 88.0003 61.6762C88.2591 61.8569 88.9604 62.5568 90.8874 62.4484C91.5985 62.409 92.385 62.5043 93.0667 62.7277C93.2403 62.7836 93.4239 62.823 93.6041 62.8263C93.9777 62.8263 94.0891 62.6653 93.922 62.3334C93.6664 61.8175 93.3878 61.3147 93.1092 60.8086C92.3096 59.3595 91.6083 57.8676 91.0742 56.2969C90.386 54.2858 90.0255 52.2123 89.8944 50.0927C89.7633 47.9469 89.8158 45.8143 90.209 43.698C90.3368 43.0145 90.445 42.3277 90.54 41.6409C90.5892 41.2828 90.4384 41.0034 90.114 40.826C89.9665 40.7438 89.8289 40.642 89.6847 40.55C88.1969 39.6134 86.7124 38.6769 85.3589 37.5498C84.0514 36.4588 82.8519 35.2758 82.0556 33.7412C81.9114 33.4619 81.7771 33.176 81.6329 32.8967C81.6001 32.831 81.5477 32.7718 81.5051 32.7127C81.4821 32.7948 81.4461 32.8737 81.4362 32.9558C81.4264 33.061 81.4264 33.1661 81.4362 33.2713C81.5542 34.3261 81.8393 35.3317 82.3276 36.2715C83.0027 37.5662 83.7564 38.8215 84.7199 39.9157C85.6276 40.9476 86.6206 41.9071 87.6168 42.8535C88.0724 43.2873 88.2723 43.4943 88.1936 44.1055C87.9708 45.8898 88.033 47.9239 88.2526 49.705C88.4754 53.7666 91.687 60.5852 91.3167 60.043C91.1561 59.8097 89.4029 56.5663 88.9604 55.219C88.3214 53.2671 87.6299 51.2527 87.4071 49.2121C87.2465 47.7465 87.2039 46.2776 87.3416 44.8054C87.4595 43.537 87.5382 43.8459 86.6992 43.0868C85.1951 41.7231 83.8318 40.2476 82.7438 38.5224C81.9311 37.231 81.1642 35.9232 80.8365 34.405C80.6694 33.6262 80.535 32.8572 80.7808 32.0752C80.8464 31.8649 80.7317 31.763 80.5875 31.6545C79.5945 30.8823 78.6048 30.1068 77.6119 29.3313C75.5735 27.7408 73.5647 26.1208 71.7557 24.2641C69.4945 21.9409 67.7478 19.289 66.6008 16.2494C66.3944 15.7006 66.2567 15.1223 66.083 14.5604C66.0535 14.4618 66.0142 14.3665 65.9814 14.2712C65.9585 14.3632 65.9192 14.4519 65.9126 14.5439C65.8733 15.0927 65.7881 15.6448 65.8176 16.1935C65.9192 18.0337 66.1977 19.8509 66.6926 21.6254C67.9706 26.2029 73.7088 35.6373 73.4958 35.4697C73.1091 35.2659 68.5704 28.6116 66.9548 25.1087C66.6238 24.2543 66.3485 23.3769 66.047 22.5127C66.0273 22.4601 65.9815 22.4207 65.9487 22.3714C65.9356 22.4207 65.9159 22.4732 65.9159 22.5225C65.9094 22.9169 65.8668 23.3145 65.9094 23.7022C66.2534 26.7254 67.0498 29.6336 68.341 32.3775C68.5245 34.175 74.302 41.9038 75.5637 42.9422C75.3703 42.8995 74.3217 41.9301 74.066 41.6508C72.2473 39.6463 70.4449 37.5268 68.9341 35.2199C68.862 35.1016 68.5572 34.4937 68.59 34.6087C68.5966 34.7533 68.7014 35.1739 68.708 35.3185C68.708 35.3317 68.7146 35.3448 68.7178 35.358C69.5863 38.7656 71.1888 41.7888 73.522 44.4078C75.6161 47.1517 81.3379 50.5594 81.0561 50.6349C80.9447 50.8288 76.383 48.3675 74.7411 46.8395C74.6821 46.7837 74.6002 46.7508 74.5314 46.7081C74.5511 46.7935 74.5609 46.8855 74.5937 46.9644C75.2392 48.5023 76.1667 49.8463 77.4447 50.9175C79.3389 52.9582 84.9919 55.7119 85.0869 55.7941C84.9853 56.0537 79.6633 53.576 78.772 53.0239C78.6999 52.9812 78.5131 52.8103 78.4344 52.7775C78.4639 52.8596 78.4082 53.4248 79.742 54.6374C81.623 56.4809 83.8908 58.2948 86.4862 58.699C86.5649 58.8304 84.5429 58.4887 83.3009 57.976C83.1436 57.9103 82.9699 57.8775 82.8061 57.8315C82.9109 57.9629 83.0027 58.1108 83.1239 58.2258C85.0083 59.9773 87.2367 61.0814 89.8387 60.8481C90.1959 60.8152 88.2919 61.5382 88.0691 61.5217L88.0724 61.5119ZM106.558 40.0932C106.398 40.4514 106.221 40.803 106.031 41.148C104.972 43.077 104.169 45.1078 103.671 47.2569C103.544 47.8056 103.173 49.5637 103.049 49.7181C102.904 49.8989 102.777 47.1188 104.602 42.2456C104.972 41.4503 105.398 40.6814 105.801 39.8993C105.959 39.5937 105.936 39.321 105.759 39.0121C105.3 38.2037 104.825 37.3953 104.458 36.5442C103.357 34.0008 102.6 31.3851 103 28.5623C103.137 27.5864 103.206 26.8963 103.743 26.0386C103.861 25.8513 103.668 25.7527 103.573 25.6312C102.436 24.205 101.685 22.3418 101.023 20.6495C99.5258 16.8343 98.5132 12.8976 98.2608 8.78671C98.1527 7.02537 98.2445 5.26731 98.4214 3.51583C98.4968 2.77318 98.6312 2.0371 98.736 1.29773C98.7426 1.24844 98.736 1.19586 98.7295 1.14328C98.6803 1.17614 98.618 1.19586 98.5886 1.24187C98.4739 1.40288 98.3592 1.5639 98.2641 1.73478C97.7988 2.54644 97.435 3.40082 97.1794 4.30121C96.7534 5.8128 96.5699 7.36055 96.4584 8.92144C96.3077 11.0114 96.3732 13.0915 96.6813 15.1683C97.0549 17.669 98.6508 23.2915 98.5427 23.321C98.4083 23.3572 97.9233 22.2794 97.825 22.0066C96.6452 18.6975 95.6424 15.3687 95.5245 11.8526C95.5179 11.6653 95.495 11.4747 95.4786 11.2874C95.3901 11.4714 95.2787 11.6456 95.2099 11.8362C94.3677 14.1989 94.0301 16.6404 94.1514 19.1379C94.2005 20.1204 94.3152 21.1029 94.4758 22.0723C94.8789 24.4876 95.4163 26.8569 96.311 29.1308C96.3503 29.2294 96.5895 29.7519 96.3962 29.8373C96.2684 29.6796 93.7942 23.8205 93.4173 20.8992C93.4042 20.7973 93.3878 20.6922 93.3747 20.5903C93.3321 20.6955 93.2764 20.7973 93.2534 20.9091C92.7455 23.2586 92.7389 25.6279 93.0535 28.0004C93.2436 32.062 96.4945 37.2935 96.5076 37.461C96.524 37.6845 93.4042 33.0577 92.7652 30.8297C92.7324 30.7081 92.6734 30.5964 92.6242 30.4814C92.6013 30.603 92.5587 30.7213 92.5554 30.8429C92.5259 32.2888 93.1322 34.9833 93.5156 36.3668C94.3021 39.2027 97.5759 43.5863 97.4809 43.6717C97.6906 44.0365 95.8849 42.1831 95.5507 41.6179C95.0329 40.9739 94.4889 40.1983 94.0825 39.5247C94.0531 39.4787 93.9973 39.4491 93.9515 39.4097C93.9449 39.459 93.9252 39.5116 93.9318 39.5608C93.9744 39.8073 94.0072 40.0538 94.0694 40.2936C95.0755 44.1581 96.8976 47.661 99.9223 50.2505C100.358 50.6317 100.529 50.7171 100.732 50.888C100.643 51.0983 98.1265 49.1693 97.4088 48.4628C97.3564 48.4103 97.2908 48.3708 97.2318 48.3281C97.2122 48.4103 97.1597 48.499 97.1794 48.568C97.2843 48.9328 97.3826 49.3008 97.5333 49.6491C98.5689 52.0578 100.214 53.9867 102.249 55.5969C102.669 55.9288 103.131 56.2081 103.586 56.4874C103.684 56.5499 103.878 56.5597 103.976 56.5039C104.458 56.2344 104.815 55.3275 104.677 54.7787C104.579 54.3844 104.471 53.9933 104.363 53.6023C103.907 51.9954 103.825 50.3852 104.212 48.7422C104.867 45.9589 106.132 43.4844 107.912 41.263C108.377 40.6814 108.823 40.0768 109.246 39.4623C109.531 39.0515 109.518 38.6243 109.239 38.1774C108.207 36.5179 107.181 34.8552 106.191 33.1694C105.176 31.4409 104.399 29.6139 104.081 27.6159C104.074 27.5732 104.045 27.5305 104.025 27.4878C103.992 27.5502 103.943 27.6127 103.93 27.6817C103.606 29.2031 103.566 30.7213 103.881 32.2559C104.353 34.543 105.192 36.6757 106.421 38.6572C106.568 38.8938 106.84 39.4261 106.549 40.0998L106.558 40.0932ZM100.004 76.3912C100.627 76.3518 101.256 76.3354 101.875 76.2664C102.659 76.1809 103.452 76.1021 104.219 75.9312C107.286 75.2575 110.068 73.9464 112.562 72.0372C114.548 70.5157 116.157 68.6854 117.18 66.3654C117.556 65.5077 117.701 64.6534 117.54 63.7267C117.327 62.4944 116.845 61.4297 115.718 60.7922C114.502 60.1054 113.201 59.9641 111.848 60.3157C110.183 60.7495 108.813 61.6565 107.673 62.9282C106.018 64.7749 104.271 66.5231 102.22 67.9394C100.863 68.876 99.4865 69.7796 97.9725 70.4401C96.0226 71.2912 93.9908 71.817 91.8738 72.0273C90.1468 72.1982 88.4623 72.0438 86.8074 71.4851C84.8968 70.8443 83.1239 69.9341 81.3805 68.9384C78.3459 67.2066 75.8029 64.913 73.6335 62.1855C73.5319 62.0574 73.4172 61.9358 73.3058 61.8109C73.3418 61.9719 73.3615 62.1395 73.4172 62.294C73.8006 63.3948 74.4331 64.3642 75.059 65.3336C75.5833 66.1485 76.2879 66.786 77.0777 67.3447C78.7588 68.5309 80.5154 69.5989 82.3014 70.6143C85.1492 72.2343 88.0691 73.6868 91.1823 74.7351C94.0465 75.6979 96.9566 76.3847 100.004 76.3814V76.3912ZM118.775 62.4648C118.775 62.4648 118.792 62.4648 118.798 62.4681C118.798 62.5733 118.798 62.6784 118.798 62.7803C118.805 62.9873 118.923 63.0465 119.11 63.0268C119.352 62.9972 119.595 62.9775 119.841 62.9512C119.903 62.9446 119.962 62.9315 120.024 62.9216C119.978 62.8657 119.939 62.7967 119.88 62.7573C119.65 62.5864 119.415 62.4221 119.179 62.2611C119.074 62.1888 118.959 62.1329 118.848 62.0672C118.821 62.1987 118.798 62.3334 118.772 62.4648H118.775Z" fill="#231300"/>
        <path d="M86.7646 60.8941C85.4832 60.4472 84.3133 60.204 83.2515 59.3431C82.7305 58.9192 82.1733 58.4854 81.9308 57.8545C81.5736 57.0855 80.9969 56.7044 80.3546 56.149C80.253 56.0899 80.1612 56.0044 80.0662 55.9288C78.6865 54.8181 77.8607 53.7206 77.3986 51.9757C77.3691 51.8574 76.8743 51.4499 76.7825 51.3579C76.3303 50.9011 76.0058 50.543 75.5929 50.0566C74.5869 48.8736 73.8036 47.5559 73.3973 46.0377C73.4923 45.2589 72.9549 44.8087 72.5026 44.3158C72.4305 44.237 72.365 44.1515 72.2962 44.0694C70.8248 42.2817 69.7859 40.7011 68.8847 38.5619C68.8126 38.391 68.6422 38.3056 68.4521 38.2432C67.5772 37.9606 66.594 37.6418 65.7485 37.2836C62.7565 36.0185 59.7351 34.6416 56.8938 33.0643C54.9308 31.9733 52.8204 30.649 50.9066 29.4759C48.4848 27.9939 46.4104 26.6137 44.3753 24.6059C43.8313 24.0703 43.1235 23.3506 43.0776 23.3276C43.0907 23.3769 43.094 23.4295 43.1169 23.4755C43.4184 24.0736 43.284 23.8337 43.6085 24.4186C45.6632 28.1253 48.1505 31.5297 50.9295 34.7139C54.9243 39.2881 59.2927 43.3464 64.4016 46.6325C64.5262 46.7114 65.6404 47.4672 65.4044 47.6676C64.962 47.7728 65.3913 47.8812 61.118 46.5701C57.4378 45.2326 53.4398 43.7506 49.6744 42.9751C48.0981 42.6202 44.9652 42.0024 43.3692 41.779C39.4826 41.3781 32.7777 40.9739 32.2894 40.987C32.0239 40.9805 32.5974 41.1415 32.6531 41.1612C33.6101 41.4931 34.5309 41.6245 35.4616 42.0189C38.8993 43.4812 42.3304 44.9698 45.7484 46.4781C48.4619 47.6742 51.1392 48.9591 53.6659 50.52C55.8714 51.8837 58.0441 53.3033 60.2397 54.6834C63.9789 57.033 67.4297 59.7571 70.6445 62.7803C70.887 63.0071 71.1 63.2765 71.3688 63.4638C72.0799 63.9633 72.8107 64.4332 73.5349 64.913C73.6234 64.9721 74.1019 65.5505 74.1903 65.6031C74.1543 65.5012 73.7479 64.8604 73.6922 64.7684C73.9675 63.4014 72.6239 62.409 72.2896 61.1208C72.2274 60.6838 72.1946 60.2435 72.1815 59.7998C72.1749 59.56 72.2831 59.3529 72.5485 59.2905C72.8172 59.2281 72.9811 59.3595 73.0794 59.5961C73.0958 59.6323 73.1187 59.6651 73.1318 59.7013C73.7447 61.1274 74.6917 62.3236 75.7371 63.4507C78.8995 66.8649 82.7173 69.2703 87.0464 70.9101C88.9864 71.6462 90.9756 71.7908 93.0009 71.495C95.5242 71.127 97.9263 70.3843 100.132 69.0534C102 67.9263 103.783 66.6875 105.349 65.1627C106.27 64.2689 107.135 63.3159 108.017 62.3827C109.196 61.134 110.602 60.2533 112.234 59.7243C114.581 58.9619 117.232 60.4932 118.352 62.6456C118.382 62.7015 118.444 62.2118 118.487 62.2611C118.5 62.1921 118.575 61.9687 118.565 61.9029C118.398 60.8382 118.198 59.9116 117.612 58.975C116.875 57.7986 116.357 56.4513 115.193 55.6397C113.699 54.598 112.283 53.668 110.428 53.7305C109.858 53.7502 109.098 53.7206 108.538 53.8225C107.892 53.9408 107.309 54.0163 106.676 54.2036C106.499 54.2562 105.578 54.368 105.591 54.5914C105.313 55.4425 105.601 55.7941 105.002 56.3922C104.589 56.8029 104.739 57.0132 104.287 56.7635C104.258 56.6091 103.76 56.0701 103.432 55.8401C102.413 54.9627 102.092 54.8379 101.19 54.1609C100.981 54.0032 100.784 53.8257 100.591 53.6483C100.05 53.1422 99.0242 52.4916 98.7063 52.324C97.7199 51.4302 97.2971 51.3612 96.3206 50.9636C95.7766 50.7467 95.2555 50.5791 94.7541 50.4509C93.5449 50.1421 92.447 50.0566 91.4115 50.0303C91.1329 50.1092 90.2547 49.9186 90.294 50.3326C90.5693 53.4971 91.8146 57.0034 93.3056 59.8031C93.7513 60.6411 94.0692 61.387 94.528 62.2184C94.4493 63.3718 94.6656 63.2601 93.653 63.2601C93.4105 63.2601 93.168 63.2338 92.9353 63.1714C92.2865 62.9972 91.6278 62.8658 90.956 62.938C90.6119 62.9742 90.2678 62.9841 89.927 62.938C88.6292 62.7639 87.5871 62.7376 87.0267 61.4166" fill="#231300"/>
        <path d="M114.181 62.8003C113.962 62.5637 113.608 62.5177 113.234 62.6853C112.985 62.797 112.746 62.9383 112.497 63.0533C111.819 63.3622 111.127 63.4017 110.449 63.0862C109.295 62.5506 108.45 61.6798 107.997 60.4935C107.512 59.2152 107.273 57.8745 107.394 56.491C107.352 55.9554 107.335 55.4198 107.263 54.8874C107.113 53.7997 106.939 52.7285 106.346 51.7492C105.7 50.6812 105.107 49.5903 104.127 48.7753C103.56 48.3021 103.003 47.8289 102.308 47.5562C100.45 46.8267 98.5529 46.7938 96.6554 47.3294C95.2659 47.7205 93.9453 48.2758 92.8147 49.2321C91.9135 49.9945 91.2056 50.9146 90.5338 51.8642C90.5404 51.9431 90.5568 52.0483 90.6026 52.1764C90.7829 52.6726 90.7993 53.4054 90.9172 53.9246C91.1106 54.779 91.3465 55.6202 91.5202 56.4812C91.8643 58.1899 92.346 59.7837 93.2309 61.2361C93.434 61.43 93.6438 61.6173 93.8699 61.7948C95.4036 63.0073 96.5112 61.8013 98.0384 63.0928C98.3857 63.3852 100.051 63.7073 101.04 63.4937C103.459 62.9712 103.904 62.1957 104.448 62.0117C104.943 61.8441 105.058 61.7751 105.395 61.9722C105.864 62.2483 106.159 62.682 106.493 63.0829C107.119 63.8321 107.975 64.4959 108.817 65.002C109.993 65.7085 111.376 65.6428 112.372 65.3667C113.257 65.1203 114.194 64.1936 114.358 63.7894C114.506 63.428 114.453 63.0928 114.185 62.8036L114.181 62.8003ZM105.389 57.8383C105.166 58.6697 104.422 59.5964 103.872 60.2207C102.718 61.5352 100.775 62.0215 99.1591 62.2318C97.5665 62.4388 95.8755 61.8046 94.6859 60.8681C93.5881 60.0039 92.4804 58.0946 92.2019 56.6981C91.8119 54.7461 92.3559 52.9782 93.4635 51.2892C93.9354 50.5695 94.817 50.2015 95.3577 49.5443C96.1573 48.5716 97.8942 48.4369 99.1886 48.5289C100.231 48.6044 101.476 48.7359 102.328 49.3602C103.088 49.9156 104.458 50.7404 104.887 51.6014C105.209 52.2454 105.687 53.2247 105.756 53.9608C105.808 54.5194 106.012 55.1832 106.064 55.7418C106.071 56.422 105.563 57.1844 105.389 57.835V57.8383Z" fill="#F77962"/>
        <path d="M95.692 69.231C94.5778 67.3514 92.877 66.1914 90.9108 65.3863C89.7933 64.9295 88.6168 64.6896 87.4239 64.4925C85.4609 64.1671 83.7569 63.3128 82.3411 61.8899C80.0275 59.5633 77.7073 57.2499 75.3871 54.93C74.8956 54.4371 74.404 53.9474 73.9157 53.4512C73.8699 53.4052 73.8404 53.3494 73.801 53.2968C73.8731 53.2968 73.9452 53.2902 74.0173 53.2902C74.0566 53.2902 74.0927 53.3066 74.132 53.3165C75.4068 53.6287 76.6783 53.9441 77.9531 54.2563C77.7401 53.9244 77.5828 53.5597 77.4615 53.1883C77.396 52.9879 77.0257 51.9068 77.2322 52.1532C76.7635 51.5946 76.1704 51.2528 75.646 50.7731C74.1287 50.4708 72.6114 50.1717 71.1007 49.8398C70.6485 49.7412 70.1602 49.7018 69.7866 49.3239C63.1144 42.6236 56.4291 35.9397 49.7603 29.2361C47.0337 26.4955 41.692 21.2575 41.5937 21.3167C41.4954 21.3758 44.5759 25.421 46.2734 27.3006C51.8052 33.4259 57.3238 39.5577 62.849 45.6862C63.4192 46.3172 64.0156 46.9218 64.5826 47.556C64.9725 47.9963 65.3166 48.4761 65.7099 48.9132C66.7061 50.0206 67.722 51.1115 68.7281 52.2124C69.3114 52.8532 69.8849 53.5005 70.4649 54.1446C73.9059 57.9663 77.3436 61.7913 80.7944 65.5999C81.2794 66.1355 81.4891 66.7303 81.4498 67.4302C81.3875 68.5081 81.1417 69.5497 80.8501 70.5914C80.0668 73.3879 80.2897 76.0628 82.0134 78.4813C83.5111 80.5811 85.5035 81.8758 88.1285 82.0533C88.3186 82.0664 88.3972 82.1387 88.4628 82.3063C88.797 83.1377 88.6659 83.8968 88.1449 84.6099C88.0367 84.7577 87.9319 84.9122 87.8696 85.0798C87.6828 85.5858 87.9581 85.9933 88.4923 85.9933C88.9773 85.9933 89.4197 85.8553 89.7703 85.4971C90.7371 84.5178 91.0386 83.3611 90.6781 82.0368C90.6355 81.8824 90.5929 81.7937 90.8157 81.728C91.8742 81.4158 92.8246 80.9262 93.7356 80.2656C94.7548 79.5263 95.4692 78.5865 95.9968 77.4988C96.78 75.8787 96.9636 74.1404 96.744 72.3626C96.6063 71.2486 96.2786 70.1938 95.7019 69.2244L95.692 69.231ZM70.4813 52.4588C70.0094 52.5771 69.5113 52.0777 69.4589 51.4106C69.4228 50.9768 69.8947 50.5759 70.4453 50.5562C70.9106 50.5398 71.4317 50.9341 71.4546 51.3284C71.494 51.9561 71.081 52.4391 70.4813 52.4588ZM94.6303 77.0157C93.929 78.9019 92.4805 79.7465 90.4847 80.1046C89.8424 80.2196 89.1051 80.4464 88.4988 80.3445C87.4862 80.3938 86.7161 80.1276 85.864 79.6807C83.9895 78.7015 82.1707 77.3246 81.8332 75.1328C81.7513 74.6037 81.7218 73.8972 81.8201 73.3517C81.9118 72.8227 82.0888 71.7218 82.2396 71.2125C82.8524 69.1718 84.3041 67.7161 86.3294 67.0293C86.952 66.819 87.7647 66.6251 88.4169 66.5463C88.9773 66.4773 90.1013 66.6251 90.6486 66.8387C91.3663 67.118 92.6247 67.6997 93.2506 68.2057C94.414 69.1456 94.9547 70.7327 95.4233 72.1622C95.9509 73.7724 95.2201 75.4384 94.6335 77.0157H94.6303Z" fill="#F77962"/>
        <path d="M63.5205 48.5027C63.3206 48.2464 63.0617 48.1478 62.7701 48.0821C61.4527 47.7896 60.132 47.5005 58.8146 47.2014C57.2776 46.8531 55.7407 46.4949 54.2037 46.14C52.6668 45.7851 51.1298 45.4302 49.5929 45.0786C48.0559 44.727 46.5189 44.3754 44.9853 44.0238C43.5794 43.7018 42.1735 43.3731 40.7676 43.0511C39.2471 42.6995 37.7232 42.3545 36.2026 42.0028C34.6558 41.6479 29.2257 40.5767 29.1602 40.8001C29.0881 41.0433 36.9891 43.429 40.6759 44.451C44.7362 45.5781 48.7965 46.7085 52.8568 47.8324C57.045 48.9923 61.2331 50.149 65.4245 51.3025C65.5097 51.3255 65.6015 51.332 65.69 51.3452C65.6539 51.263 65.631 51.1677 65.5785 51.0987C64.8936 50.2312 64.2022 49.3735 63.5238 48.4994L63.5205 48.5027Z" fill="#F77962"/>
        <path d="M88.6788 81.117C92.8615 81.117 96.2522 77.717 96.2522 73.5228C96.2522 69.3287 92.8615 65.9287 88.6788 65.9287C84.4962 65.9287 81.1055 69.3287 81.1055 73.5228C81.1055 77.717 84.4962 81.117 88.6788 81.117Z" stroke="#F77962" stroke-width="2.6875" stroke-miterlimit="10"/>
        <path d="M99.1066 62.9119C103.289 62.9119 106.68 59.5119 106.68 55.3178C106.68 51.1236 103.289 47.7236 99.1066 47.7236C94.9239 47.7236 91.5332 51.1236 91.5332 55.3178C91.5332 59.5119 94.9239 62.9119 99.1066 62.9119Z" stroke="#F77962" stroke-width="2.6875" stroke-miterlimit="10"/>
        <path d="M90.2516 47.0793C90.2516 47.0793 89.8321 57.769 94.4201 62.7704" stroke="#231300" stroke-width="1.075" stroke-miterlimit="10"/>
        <path d="M70.455 52.4357C70.9129 52.4357 71.2841 52.0635 71.2841 51.6043C71.2841 51.1452 70.9129 50.7729 70.455 50.7729C69.9971 50.7729 69.6259 51.1452 69.6259 51.6043C69.6259 52.0635 69.9971 52.4357 70.455 52.4357Z" fill="#231300" stroke="#231300" stroke-width="1.075" stroke-miterlimit="10"/>
        <path d="M89.8846 52.1006C89.9076 52.232 91.0021 58.6103 92.7619 61.3608" stroke="white" stroke-width="0.5375" stroke-miterlimit="10"/>
        <path d="M94.7281 50.5925C94.7281 50.5925 99.3357 51.6572 103.235 55.3179C103.235 55.3179 105.185 54.1579 105.605 54.2729C106.024 54.388 105.257 57.4637 105.257 57.4637C105.257 57.4637 101.961 58.604 101.728 58.512C101.495 58.42 98.0347 55.0649 97.6186 54.4372C97.2024 53.8096 94.7314 50.5958 94.7314 50.5958L94.7281 50.5925Z" fill="#231300"/>
    </g>
    <defs>
        <clipPath id="clip0_528_325">
            <rect width="177" height="38.2014" fill="white" transform="translate(0 94)"/>
        </clipPath>
        <clipPath id="clip1_528_325">
            <rect width="94.0625" height="86" fill="white" transform="translate(28)"/>
        </clipPath>
    </defs>
</svg>
