<svg width="145" height="36" viewBox="0 0 145 36" fill="none" xmlns="http://www.w3.org/2000/svg">
<path d="M98.9579 10.5309C99.0376 7.49078 100.32 4.56619 103.335 2.54126C104.559 1.71863 105.91 1.20139 107.352 0.871242C109.333 0.420035 111.33 0.395275 113.311 0.692411C116.296 1.14087 118.894 2.38444 120.737 4.88534C121.653 6.12616 122.179 7.5238 122.465 9.05075C122.762 10.6272 122.696 12.1734 122.338 13.7031C121.738 16.2673 120.319 18.2922 118.06 19.6789C115.281 21.3847 112.224 21.8056 109.005 21.4837C107.726 21.3571 106.461 21.0793 105.275 20.5813C102.38 19.368 100.375 17.3678 99.4668 14.4157C99.1257 13.3097 98.9524 12.1844 98.9551 10.5309H98.9579ZM110.535 20.0448C112.956 20.0145 114.679 19.1121 116.049 17.5219C117.477 15.8656 118.12 13.8875 118.239 11.736C118.39 9.02874 117.826 6.50308 116.007 4.40387C114.197 2.31291 111.886 1.47928 109.173 2.12307C107.19 2.59354 105.696 3.84811 104.736 5.62268C102.804 9.19381 102.777 12.8365 104.763 16.3774C106.056 18.6802 108.095 19.976 110.535 20.042V20.0448Z" fill="white"/>
<path d="M79.7383 0.945324C81.3588 0.882045 82.6712 0.83802 83.9835 0.777492C85.8048 0.694954 87.5959 0.849032 89.3072 1.51484C91.6155 2.41175 93.3708 3.91393 94.342 6.236C95.1756 8.23066 95.2829 10.2996 94.9886 12.4208C94.7244 14.3247 94.1164 16.0718 92.9334 17.5657C91.8081 18.9909 90.2454 19.9978 88.5231 20.5728C86.6605 21.1946 84.7511 21.3074 82.8225 21.2359C81.1965 21.1781 79.5732 21.0378 77.95 21.0185C76.91 21.0075 75.87 21.1561 74.8273 21.2249C74.5907 21.2414 74.3458 21.2469 74.1202 21.2084C73.5892 21.1231 73.5287 20.4793 74.0597 20.3775C74.134 20.3637 74.2248 20.3225 74.3128 20.306C75.2483 20.1326 75.7545 19.6429 75.9278 18.7047C75.9828 18.3993 76.0076 18.0829 76.0076 17.772C76.0131 13.2572 76.0131 8.73965 76.0076 4.22482C76.0076 3.61129 75.9746 3.00052 75.5922 2.47503C75.3088 2.0871 74.9484 1.82298 74.4614 1.74594C74.123 1.69092 73.6883 1.63864 73.7351 1.19294C73.7818 0.730724 74.222 0.747235 74.5879 0.75824C76.4065 0.821519 78.2251 0.887545 79.7383 0.94257V0.945324ZM79.7851 11.0397C79.7851 13.4251 79.7851 15.8104 79.7851 18.193C79.7851 18.4158 79.7933 18.6414 79.8181 18.8615C79.8951 19.4888 80.151 19.7475 80.7755 19.7475C82.0136 19.7502 83.2599 19.8025 84.4897 19.6952C86.3578 19.5329 87.9618 18.7763 89.1366 17.2521C89.9372 16.2176 90.4077 15.0373 90.6361 13.7607C91.0625 11.3671 91.1808 8.98726 90.4049 6.64594C89.8657 5.01719 88.7377 3.63605 87.1887 2.89321C85.3124 1.9908 83.3012 1.85049 81.2845 2.15588C80.0437 2.34296 79.7576 2.61809 79.7713 3.92769C79.7961 6.29653 79.7796 8.66812 79.7796 11.037L79.7851 11.0397Z" fill="white"/>
<path d="M136.829 21.5413C135.451 21.478 134.152 21.1176 132.879 20.6279C132.116 20.3363 131.321 20.1904 130.496 20.2069C130.05 20.2152 129.66 19.874 129.66 19.4283C129.66 19.0624 129.742 18.6992 129.75 18.3333C129.772 17.3539 129.781 16.3744 129.786 15.395C129.786 15.2492 129.772 15.0703 129.756 14.9218C129.72 14.5999 129.825 14.3357 130.127 14.311C130.306 14.2945 130.565 14.5228 130.691 14.7044C130.848 14.93 130.911 15.2217 131.005 15.4885C132.083 18.5479 135.154 20.4463 138.376 19.9813C140.169 19.72 141.848 18.2453 141.46 16.1076C141.289 15.1721 140.714 14.5008 139.991 13.9396C138.785 13.0041 137.377 12.4676 135.987 11.8899C134.394 11.2268 132.766 10.6353 131.354 9.60082C129.571 8.29673 129.002 6.59094 129.838 4.26888C130.51 2.40352 132.048 1.50111 133.83 0.926095C135.495 0.389599 137.201 0.483144 138.904 0.661977C139.278 0.700494 139.644 0.794036 140.004 0.901335C140.684 1.10493 141.35 1.08292 142.035 0.94811C142.643 0.827055 143.171 1.22598 143.21 1.84502C143.289 3.12435 143.413 4.39819 143.518 5.67478C143.529 5.79308 143.573 5.92789 143.537 6.02694C143.468 6.20852 143.386 6.45338 143.243 6.51391C143.102 6.57168 142.808 6.48914 142.709 6.36534C142.453 6.04069 142.26 5.66652 142.057 5.30611C141.388 4.10931 140.56 3.06658 139.237 2.55759C137.748 1.98533 136.224 1.82851 134.692 2.39527C133.253 2.92901 132.829 4.70358 133.836 5.90313C134.617 6.83305 135.682 7.34479 136.747 7.85377C138.571 8.72592 140.425 9.54305 142.214 10.4867C143.306 11.0617 144.189 11.9284 144.676 13.1142C145.135 14.2284 145.053 15.3702 144.758 16.4927C144.002 19.3706 141.187 21.2387 138.307 21.4615C137.817 21.5 137.325 21.5138 136.832 21.5413H136.829Z" fill="white"/>
<path d="M57.5354 15.4776C56.2973 15.4776 55.0565 15.4859 53.8184 15.4721C53.4635 15.4666 53.2654 15.5822 53.1664 15.9288C52.9298 16.7597 52.6464 17.5768 52.4346 18.4132C52.341 18.7791 52.3328 19.1836 52.3685 19.5605C52.407 19.9429 52.6794 20.1905 53.0591 20.2951C53.1306 20.3143 53.2077 20.3143 53.2792 20.3391C53.5433 20.4299 53.8845 20.4877 53.8349 20.8618C53.7882 21.2195 53.458 21.1837 53.1912 21.1865C51.3423 21.2113 49.4907 21.2305 47.6419 21.2498C47.5236 21.2498 47.3942 21.2333 47.2897 21.225C46.5964 21.1782 46.6707 20.4271 47.2457 20.3639C48.5663 20.2401 49.2046 19.3376 49.7081 18.2784C50.8003 15.9811 51.8898 13.6783 52.971 11.3755C54.4842 8.15377 55.9864 4.92929 57.4969 1.71031C57.6317 1.42418 57.772 1.13529 57.9591 0.882176C58.4048 0.285152 59.343 0.381449 59.6896 1.039C60.1051 1.82311 60.4215 2.6595 60.7764 3.47387C62.1988 6.72036 63.6102 9.97235 65.0491 13.2106C65.8222 14.9521 66.6338 16.6772 67.4482 18.3995C67.7673 19.0763 68.136 19.7338 68.8486 20.086C69.0687 20.196 69.3163 20.2896 69.5612 20.3171C70.4113 20.4161 70.4691 21.1947 69.5474 21.2388C69.3108 21.2498 69.0714 21.2388 68.8321 21.2388C66.8016 21.2195 64.774 21.203 62.7435 21.1755C62.4354 21.1727 61.9897 21.3213 61.9209 20.8728C61.8494 20.4134 62.3061 20.3914 62.6307 20.3061C63.1617 20.1658 63.3736 19.8274 63.1892 19.2964C62.7848 18.1436 62.3584 16.9991 61.9402 15.8518C61.8219 15.5299 61.5687 15.4666 61.2578 15.4694C60.0198 15.4776 58.779 15.4721 57.5409 15.4694L57.5354 15.4776ZM57.4914 14.1653C58.5369 14.1653 59.5823 14.1598 60.6278 14.1653C61.1588 14.1653 61.2441 14.047 61.0405 13.5627C60.2591 11.6946 59.486 9.82103 58.7019 7.95292C58.4213 7.27886 58.1352 6.60756 57.8215 5.95001C57.75 5.79593 57.5409 5.54557 57.4253 5.60334C56.9549 5.84545 54.9437 11.1471 53.9312 13.6783C53.7799 14.0552 53.8652 14.168 54.2669 14.168C55.3426 14.168 56.4156 14.168 57.4914 14.168V14.1653Z" fill="white"/>
<path d="M4.2049 0.854289C5.26414 0.854289 6.32337 0.854289 7.38261 0.854289C7.48716 0.854289 7.60546 0.821277 7.6935 0.857043H7.69901C7.98514 0.983601 8.06217 1.36053 7.84207 1.58338C7.83107 1.59439 7.81731 1.60813 7.80355 1.61914C7.72652 1.69067 7.5807 1.69343 7.4679 1.72369C6.93415 1.86675 6.73056 2.16389 6.90664 2.68663C7.2478 3.70185 7.60271 4.71431 8.00715 5.70752C9.10765 8.40926 10.2357 11.1027 11.3582 13.7962C11.6333 14.4565 11.9277 15.1086 12.2386 15.7524C12.2716 15.8212 12.3706 15.9092 12.4724 15.9835C12.6045 16.0798 12.7833 16.0743 12.9044 15.967C12.9787 15.8982 13.0447 15.8267 13.0805 15.7414C14.0572 13.389 15.0476 11.0422 15.9638 8.66513C16.5691 7.09416 17.0616 5.48467 17.587 3.88343C17.6971 3.54778 17.7604 3.18461 17.7769 2.83245C17.8044 2.22717 17.4935 1.853 16.9102 1.70718C16.8387 1.68792 16.7589 1.66592 16.6984 1.64941C15.928 1.44031 16.1784 0.82128 16.8167 0.859797C18.1455 0.942335 19.4799 0.876307 20.8088 0.879058C21.2627 0.879058 21.7139 0.826777 22.1651 0.777254C22.3467 0.757996 22.5503 0.78276 22.7154 0.771755C23.3702 0.733237 23.3784 1.53386 22.7897 1.67692C21.4581 1.81173 20.8555 2.75817 20.3631 3.8064C18.6903 7.34727 17.0368 10.8964 15.375 14.4428C14.4066 16.5062 13.4491 18.5724 12.4532 20.6221C12.2964 20.9468 12.0075 21.2907 11.6938 21.4365C11.1023 21.7061 10.5438 21.4062 10.2604 20.7514C9.44881 18.8806 8.66195 16.9987 7.85032 15.1278C6.96717 13.0947 6.07576 11.0642 5.16509 9.0448C4.34522 7.22897 3.50333 5.42139 2.65044 3.61931C2.34505 2.97277 1.99564 2.33172 1.32158 1.98231C1.07672 1.85575 0.793337 1.79798 0.523714 1.72094C0.251339 1.64391 -0.018285 1.53935 0.000973811 1.20645C0.0202326 0.870797 0.314618 0.769004 0.586993 0.771755C1.16751 0.771755 1.74803 0.835034 2.33129 0.84879C2.95858 0.862546 3.58587 0.851544 4.2104 0.851544C4.2104 0.851544 4.2104 0.851538 4.2104 0.854289H4.2049Z" fill="white"/>
<path d="M35.8802 19.7532C37.4512 19.7587 38.9616 19.4643 40.4088 18.859C41.4267 18.4326 42.2163 17.709 42.8711 16.8423C43.2756 16.3086 43.6277 15.7363 44.0157 15.1888C44.1973 14.933 44.4146 14.6331 44.7778 14.8394C45.1079 15.0265 45.0501 15.3539 44.9483 15.6758C44.5824 16.8148 44.2165 17.9538 43.8809 19.1011C43.7818 19.4423 43.713 19.7917 43.7048 20.1466C43.6855 20.9775 43.3113 21.3544 42.5162 21.3296C38.9368 21.2113 35.3574 21.0765 31.7781 21.0077C30.65 20.9857 29.5193 21.1618 28.3857 21.2306C28.1519 21.2444 27.8988 21.2499 27.6759 21.1921C27.1477 21.0573 27.0872 20.7216 27.5576 20.4437C27.6704 20.3777 27.808 20.3364 27.94 20.3117C28.2042 20.2622 28.46 20.1714 28.6856 20.0228C29.5853 19.434 29.6101 18.6554 29.6101 17.8961C29.6101 13.3042 29.6183 8.71511 29.5991 4.12326C29.5991 3.66104 29.4752 3.18508 29.3294 2.74213C29.1451 2.16986 28.6829 1.87273 28.1024 1.75992C27.7475 1.69114 27.354 1.64988 27.3155 1.18766C27.2935 0.912538 27.7392 0.708945 28.2372 0.774975C30.3942 1.05836 32.5512 1.06386 34.7081 0.774975C35.2309 0.706194 35.6436 0.885021 35.6326 1.1739C35.6161 1.64712 35.2199 1.68839 34.8677 1.75717C34.0066 1.91949 33.5856 2.54128 33.4096 3.40518C33.371 3.59502 33.3545 3.79035 33.3545 3.98569C33.3545 8.77289 33.371 13.5601 33.338 18.3473C33.3325 19.1231 33.935 19.7999 34.7164 19.7587C35.1043 19.7394 35.4923 19.7559 35.8802 19.7559V19.7532Z" fill="white"/>
<path d="M126.988 2.80528C126.851 3.56738 126.942 4.9265 126.38 6.07103C126.075 6.69006 125.151 6.70106 125.365 6.09854C125.838 4.77243 124.886 3.31976 124.708 1.92212C124.62 1.23981 124.889 1.0032 125.571 0.986694C125.646 0.986694 125.72 0.986694 125.794 0.986694C126.991 0.986694 127.112 1.11601 126.988 2.80253V2.80528Z" fill="white"/>
<path d="M47 35.1016V28.9911H48.7388C49.267 28.9911 49.6852 29.1204 49.9961 29.379C50.307 29.6376 50.4611 29.9733 50.4611 30.3887C50.4611 30.7354 50.3675 31.0353 50.1805 31.2911C49.9934 31.547 49.7348 31.7286 49.4046 31.8359V31.8524C49.8173 31.9019 50.1474 32.056 50.3923 32.3201C50.6372 32.5842 50.7637 32.9254 50.7637 33.3463C50.7637 33.8691 50.5766 34.2928 50.2025 34.6174C49.8283 34.9421 49.3551 35.1044 48.7828 35.1044H47V35.1016ZM47.7181 29.6376V31.6103H48.4499C48.8433 31.6103 49.1515 31.5167 49.3743 31.3269C49.5972 31.1371 49.71 30.873 49.71 30.529C49.71 29.9348 49.3193 29.6376 48.538 29.6376H47.7153H47.7181ZM47.7181 32.2541V34.4523H48.6893C49.1102 34.4523 49.4349 34.3533 49.6687 34.1552C49.9026 33.9571 50.0154 33.6847 50.0154 33.3381C50.0154 32.6172 49.5229 32.2568 48.5407 32.2568H47.7181V32.2541Z" fill="white" stroke="white" stroke-width="0.3" stroke-miterlimit="10"/>
<path d="M56.7342 35.1016H55.9418L55.2953 33.3876H52.7036L52.0928 35.1016H51.2949L53.639 28.9911H54.3818L56.7342 35.1016ZM55.0614 32.7466L54.1012 30.1439C54.0709 30.0586 54.0379 29.921 54.0077 29.7339H53.9912C53.9636 29.9073 53.9306 30.0448 53.8921 30.1439L52.9429 32.7466H55.0614Z" fill="white" stroke="white" stroke-width="0.3" stroke-miterlimit="10"/>
<path d="M62.0167 35.1016H61.1638L60.1404 33.3876C60.0468 33.228 59.956 33.0932 59.868 32.9804C59.7799 32.8676 59.6892 32.7768 59.5984 32.7052C59.5076 32.6337 59.4058 32.5814 59.3012 32.5484C59.1967 32.5154 59.0756 32.4989 58.9408 32.4989H58.352V35.0988H57.6367V28.9883H59.4608C59.7277 28.9883 59.9753 29.0213 60.2009 29.0873C60.4265 29.1534 60.6218 29.2552 60.7897 29.3927C60.9575 29.5303 61.0868 29.6981 61.1803 29.9017C61.2739 30.1053 61.3207 30.3419 61.3207 30.6143C61.3207 30.8261 61.2876 31.0215 61.2244 31.2003C61.1611 31.3791 61.0703 31.536 60.952 31.6763C60.8337 31.8166 60.6934 31.9349 60.5255 32.0312C60.3577 32.1275 60.1734 32.2045 59.9643 32.2595V32.276C60.0661 32.3228 60.1541 32.3723 60.2312 32.4329C60.3082 32.4934 60.377 32.5594 60.4458 32.6392C60.5145 32.719 60.5806 32.8098 60.6493 32.9088C60.7181 33.0079 60.7897 33.1262 60.8722 33.261L62.0195 35.0988L62.0167 35.1016ZM58.3493 29.6376V31.8551H59.3205C59.4993 31.8551 59.6644 31.8276 59.8157 31.7753C59.967 31.723 60.0991 31.6433 60.2091 31.5442C60.3192 31.4452 60.4072 31.3186 60.4678 31.1728C60.5283 31.027 60.5613 30.8619 60.5613 30.6803C60.5613 30.3529 60.4568 30.0998 60.2449 29.9155C60.0331 29.7311 59.7277 29.6403 59.326 29.6403H58.3465L58.3493 29.6376Z" fill="white" stroke="white" stroke-width="0.3" stroke-miterlimit="10"/>
<path d="M62.8555 35.1016V28.9911H64.5943C65.1225 28.9911 65.5407 29.1204 65.8516 29.379C66.1625 29.6376 66.3166 29.9733 66.3166 30.3887C66.3166 30.7354 66.223 31.0353 66.0359 31.2911C65.8488 31.547 65.5902 31.7286 65.2601 31.8359V31.8524C65.6728 31.9019 66.0029 32.056 66.2478 32.3201C66.4926 32.5842 66.6192 32.9254 66.6192 33.3463C66.6192 33.8691 66.4321 34.2928 66.0579 34.6174C65.6838 34.9421 65.2106 35.1044 64.6383 35.1044H62.8555V35.1016ZM63.5708 29.6376V31.6103H64.3026C64.6961 31.6103 65.0042 31.5167 65.2271 31.3269C65.4499 31.1371 65.5627 30.873 65.5627 30.529C65.5627 29.9348 65.172 29.6376 64.3907 29.6376H63.568H63.5708ZM63.5708 32.2541V34.4523H64.542C64.9629 34.4523 65.2876 34.3533 65.5214 34.1552C65.7553 33.9571 65.8681 33.6847 65.8681 33.3381C65.8681 32.6172 65.3756 32.2568 64.3934 32.2568H63.5708V32.2541Z" fill="white" stroke="white" stroke-width="0.3" stroke-miterlimit="10"/>
<path d="M71.0986 35.1016H67.8604V28.9911H70.9638V29.6376H68.5784V31.6708H70.7849V32.3146H68.5784V34.4551H71.1013V35.1016H71.0986Z" fill="white" stroke="white" stroke-width="0.3" stroke-miterlimit="10"/>
<path d="M76.6554 35.1016H75.8025L74.779 33.3876C74.6855 33.228 74.5947 33.0932 74.5067 32.9804C74.4186 32.8676 74.3278 32.7768 74.237 32.7052C74.1463 32.6337 74.0444 32.5814 73.9399 32.5484C73.8354 32.5154 73.7143 32.4989 73.5795 32.4989H72.9907V35.0988H72.2754V28.9883H74.0995C74.3664 28.9883 74.614 29.0213 74.8396 29.0873C75.0652 29.1534 75.2605 29.2552 75.4283 29.3927C75.5962 29.5303 75.7255 29.6981 75.819 29.9017C75.9126 30.1053 75.9593 30.3419 75.9593 30.6143C75.9593 30.8261 75.9263 31.0215 75.863 31.2003C75.7998 31.3791 75.709 31.536 75.5907 31.6763C75.4724 31.8166 75.332 31.9349 75.1642 32.0312C74.9964 32.1275 74.8121 32.2045 74.603 32.2595V32.276C74.7048 32.3228 74.7928 32.3723 74.8698 32.4329C74.9469 32.4934 75.0156 32.5594 75.0844 32.6392C75.1532 32.719 75.2192 32.8098 75.288 32.9088C75.3568 33.0079 75.4283 33.1262 75.5109 33.261L76.6581 35.0988L76.6554 35.1016ZM72.988 29.6376V31.8551H73.9592C74.138 31.8551 74.3031 31.8276 74.4544 31.7753C74.6057 31.723 74.7378 31.6433 74.8478 31.5442C74.9579 31.4452 75.0459 31.3186 75.1064 31.1728C75.167 31.027 75.2 30.8619 75.2 30.6803C75.2 30.3529 75.0954 30.0998 74.8836 29.9155C74.6717 29.7311 74.3664 29.6403 73.9647 29.6403H72.9852L72.988 29.6376Z" fill="white" stroke="white" stroke-width="0.3" stroke-miterlimit="10"/>
<path d="M77.209 34.8538V34.0091C77.3053 34.0944 77.4208 34.1714 77.5556 34.2402C77.6905 34.309 77.8335 34.3668 77.9821 34.4136C78.1307 34.4603 78.282 34.4961 78.4305 34.5236C78.5791 34.5511 78.7194 34.5621 78.8487 34.5621C79.2889 34.5621 79.6191 34.4796 79.8364 34.3173C80.0538 34.1549 80.1638 33.9183 80.1638 33.6129C80.1638 33.4479 80.1281 33.3048 80.0538 33.1837C79.9795 33.0627 79.8805 32.9499 79.7539 32.8481C79.6273 32.7463 79.476 32.65 79.2999 32.5592C79.1239 32.4684 78.9368 32.3694 78.7359 32.2676C78.5241 32.1603 78.3232 32.0502 78.1389 31.9402C77.9546 31.8301 77.795 31.7063 77.6574 31.5743C77.5199 31.4422 77.4126 31.2881 77.3355 31.1203C77.2585 30.9525 77.2172 30.7544 77.2172 30.526C77.2172 30.2482 77.2778 30.006 77.4016 29.7997C77.5254 29.5934 77.685 29.4228 77.883 29.2907C78.0811 29.1587 78.3095 29.0569 78.5626 28.9936C78.8157 28.9303 79.0771 28.8945 79.3412 28.8945C79.9437 28.8945 80.3812 28.9661 80.6591 29.1119V29.918C80.2987 29.6676 79.8364 29.5438 79.2697 29.5438C79.1129 29.5438 78.956 29.5603 78.802 29.5934C78.6479 29.6264 78.5076 29.6786 78.3838 29.7529C78.26 29.8272 78.1609 29.9208 78.0866 30.0391C78.0124 30.1574 77.9711 30.2977 77.9711 30.4655C77.9711 30.6223 78.0013 30.7571 78.0591 30.8699C78.1169 30.9827 78.2022 31.0873 78.3177 31.1808C78.4333 31.2744 78.5709 31.3652 78.7332 31.4532C78.8955 31.5412 79.0853 31.6375 79.2972 31.7421C79.5173 31.8494 79.7236 31.9649 79.919 32.0832C80.1143 32.2015 80.2876 32.3336 80.4335 32.4794C80.5793 32.6252 80.6976 32.7848 80.7856 32.9609C80.8737 33.137 80.9149 33.3378 80.9149 33.5662C80.9149 33.8661 80.8572 34.1219 80.7389 34.331C80.6206 34.5401 80.461 34.7107 80.2629 34.84C80.0648 34.9693 79.8309 35.0656 79.5696 35.1234C79.3082 35.1812 79.0331 35.2114 78.7414 35.2114C78.6451 35.2114 78.5268 35.2032 78.3838 35.1867C78.2407 35.1702 78.0976 35.1481 77.9491 35.1179C77.8005 35.0876 77.6602 35.0519 77.5281 35.0078C77.3961 34.9638 77.2915 34.9143 77.2117 34.862L77.209 34.8538Z" fill="white" stroke="white" stroke-width="0.3" stroke-miterlimit="10"/>
<path d="M86.7256 35.1016H86.0103V32.3146H82.8491V35.1016H82.1338V28.9911H82.8491V31.6708H86.0103V28.9911H86.7256V35.1016Z" fill="white" stroke="white" stroke-width="0.3" stroke-miterlimit="10"/>
<path d="M90.7918 35.2033C89.9251 35.2033 89.2318 34.9172 88.7091 34.3477C88.1864 33.7782 87.9277 33.0326 87.9277 32.1191C87.9277 31.1369 88.1946 30.3528 88.7256 29.7668C89.2566 29.1808 89.9802 28.8892 90.8936 28.8892C91.7382 28.8892 92.4178 29.1725 92.9323 29.7421C93.4468 30.3116 93.7054 31.0544 93.7054 31.9706C93.7054 32.9665 93.4413 33.7561 92.913 34.3367C92.3848 34.9172 91.6777 35.2061 90.7918 35.2061V35.2033ZM90.8413 29.5357C90.2003 29.5357 89.6775 29.7668 89.2759 30.229C88.8742 30.6912 88.6761 31.2993 88.6761 32.0531C88.6761 32.807 88.8714 33.4122 89.2621 33.8717C89.6528 34.3312 90.1618 34.5595 90.789 34.5595C91.4604 34.5595 91.9886 34.3394 92.3738 33.902C92.7589 33.4645 92.9543 32.851 92.9543 32.0641C92.9543 31.2772 92.7672 30.6335 92.393 30.1933C92.0189 29.7531 91.5016 29.533 90.8413 29.533V29.5357Z" fill="white" stroke="white" stroke-width="0.3" stroke-miterlimit="10"/>
<path d="M95.6235 32.7929V35.104H94.9082V28.9934H96.5865C97.2413 28.9934 97.7475 29.153 98.1052 29.4694C98.4628 29.7858 98.6444 30.237 98.6444 30.8175C98.6444 31.398 98.4436 31.8712 98.0446 32.2399C97.6457 32.6086 97.1065 32.7929 96.4269 32.7929H95.6208H95.6235ZM95.6235 29.6372V32.1436H96.3746C96.8698 32.1436 97.2468 32.0308 97.5054 31.8052C97.764 31.5796 97.8961 31.2604 97.8961 30.8478C97.8961 30.0416 97.4201 29.6372 96.4654 29.6372H95.6263H95.6235Z" fill="white" stroke="white" stroke-width="0.3" stroke-miterlimit="10"/>
</svg>
