<svg width="97" height="70" viewBox="0 0 97 70" fill="none" xmlns="http://www.w3.org/2000/svg">
    <g clip-path="url(#clip0_314_93)">
        <path d="M66.2035 56.3905C66.2569 54.3608 67.1146 52.4082 69.1317 51.0562C69.9507 50.507 70.8544 50.1616 71.8188 49.9412C73.1439 49.64 74.4801 49.6234 75.8052 49.8218C77.8021 50.1212 79.5395 50.9515 80.7727 52.6212C81.3855 53.4497 81.7371 54.3828 81.9285 55.4023C82.1272 56.4548 82.0831 57.4871 81.8438 58.5084C81.4426 60.2204 80.4929 61.5724 78.9819 62.4982C77.123 63.637 75.0783 63.9181 72.9249 63.7032C72.0691 63.6187 71.2225 63.4331 70.4292 63.1007C68.4931 62.2906 67.1514 60.9552 66.544 58.9842C66.3158 58.2458 66.1998 57.4945 66.2017 56.3905H66.2035ZM73.9482 62.7425C75.5678 62.7223 76.7199 62.1198 77.6365 61.058C78.5917 59.9522 79.0224 58.6315 79.1015 57.1951C79.2027 55.3876 78.8254 53.7013 77.6089 52.2998C76.3979 50.9038 74.8519 50.3472 73.0372 50.777C71.7102 51.0911 70.7108 51.9287 70.0685 53.1135C68.7765 55.4978 68.7581 57.9298 70.0869 60.2939C70.9519 61.8314 72.3157 62.6965 73.9482 62.7406V62.7425Z" fill="black"/>
        <path d="M53.346 49.9908C54.4301 49.9485 55.308 49.9192 56.1859 49.8787C57.4043 49.8236 58.6024 49.9265 59.7472 50.371C61.2913 50.9699 62.4656 51.9728 63.1152 53.5231C63.6729 54.8549 63.7447 56.2362 63.5478 57.6524C63.3711 58.9236 62.9643 60.09 62.1729 61.0874C61.3815 62.0848 60.3748 62.7112 59.2227 63.0951C57.9767 63.5103 56.6994 63.5856 55.4092 63.5378C54.3215 63.4992 53.2356 63.4056 52.1497 63.3927C51.454 63.3854 50.7583 63.4846 50.0608 63.5305C49.9025 63.5415 49.7387 63.5452 49.5878 63.5195C49.2326 63.4625 49.1921 63.0327 49.5473 62.9647C49.597 62.9555 49.6577 62.928 49.7166 62.917C50.3424 62.8012 50.681 62.4743 50.797 61.8479C50.8338 61.644 50.8504 61.4328 50.8504 61.2252C50.8541 58.2109 50.8541 55.1947 50.8504 52.1804C50.8504 51.7707 50.8283 51.3629 50.5725 51.0121C50.3829 50.7531 50.1418 50.5768 49.816 50.5253C49.5897 50.4886 49.2989 50.4537 49.3301 50.1561C49.3614 49.8475 49.6559 49.8585 49.9007 49.8659C51.1172 49.9081 52.3338 49.9522 53.346 49.989V49.9908ZM53.3773 56.7303C53.3773 58.3229 53.3773 59.9155 53.3773 61.5062C53.3773 61.655 53.3829 61.8056 53.3994 61.9526C53.451 62.3714 53.6221 62.5441 54.0399 62.5441C54.8681 62.5459 55.7018 62.5808 56.5245 62.5092C57.7742 62.4008 58.8472 61.8956 59.6331 60.878C60.1687 60.1873 60.4834 59.3993 60.6361 58.547C60.9214 56.9489 61.0005 55.36 60.4815 53.7968C60.1208 52.7094 59.3662 51.7873 58.33 51.2913C57.0748 50.6888 55.7295 50.5951 54.3804 50.799C53.5503 50.9239 53.3589 51.1076 53.3681 51.982C53.3847 53.5635 53.3737 55.1469 53.3737 56.7285L53.3773 56.7303Z" fill="black"/>
        <path d="M91.5377 63.7417C90.6156 63.6994 89.7469 63.4588 88.8948 63.1318C88.385 62.9371 87.8531 62.8398 87.3009 62.8508C87.0028 62.8563 86.7414 62.6285 86.7414 62.331C86.7414 62.0866 86.7966 61.8442 86.8022 61.5999C86.8169 60.9459 86.8224 60.292 86.8261 59.6381C86.8261 59.5407 86.8169 59.4213 86.8058 59.3221C86.7819 59.1072 86.8518 58.9309 87.0543 58.9144C87.1739 58.9033 87.3469 59.0558 87.4316 59.177C87.5365 59.3276 87.5788 59.5224 87.6414 59.7005C88.3629 61.7432 90.4168 63.0106 92.572 62.7002C93.772 62.5257 94.8947 61.5411 94.6352 60.1138C94.5211 59.4893 94.1364 59.0411 93.6524 58.6664C92.8463 58.0418 91.9039 57.6836 90.9745 57.2979C89.9089 56.8552 88.8193 56.4603 87.8751 55.7696C86.6825 54.8989 86.3015 53.7601 86.8611 52.2097C87.3101 50.9643 88.3389 50.3618 89.5316 49.9779C90.645 49.6197 91.7861 49.6822 92.9254 49.8016C93.1757 49.8273 93.4205 49.8897 93.6616 49.9614C94.1162 50.0973 94.5616 50.0826 95.0198 49.9926C95.4266 49.9118 95.78 50.1781 95.8057 50.5914C95.8591 51.4456 95.9419 52.2961 96.0119 53.1484C96.0192 53.2274 96.0487 53.3174 96.0247 53.3835C95.9787 53.5047 95.9235 53.6682 95.8278 53.7086C95.7339 53.7472 95.537 53.6921 95.4708 53.6094C95.2996 53.3927 95.1708 53.1429 95.0346 52.9022C94.5873 52.1032 94.0333 51.407 93.1481 51.0672C92.1524 50.6851 91.1328 50.5804 90.1076 50.9588C89.1451 51.3152 88.8616 52.5 89.5352 53.3008C90.0579 53.9217 90.7702 54.2634 91.4825 54.6032C92.7027 55.1855 93.9432 55.731 95.1395 56.3611C95.8701 56.745 96.4609 57.3236 96.7867 58.1153C97.094 58.8592 97.0388 59.6216 96.8419 60.371C96.3358 62.2924 94.453 63.5396 92.526 63.6884C92.1984 63.7141 91.869 63.7233 91.5395 63.7417H91.5377Z" fill="black"/>
        <path d="M38.4935 59.6932C37.6653 59.6932 36.8352 59.6987 36.007 59.6895C35.7696 59.6859 35.6371 59.763 35.5708 59.9945C35.4125 60.5492 35.223 61.0948 35.0813 61.6532C35.0187 61.8975 35.0132 62.1675 35.0371 62.4191C35.0628 62.6745 35.2451 62.8398 35.499 62.9096C35.5469 62.9225 35.5984 62.9225 35.6463 62.939C35.823 62.9996 36.0512 63.0382 36.0181 63.288C35.9868 63.5268 35.7659 63.5029 35.5874 63.5047C34.3506 63.5213 33.112 63.5341 31.8752 63.547C31.796 63.547 31.7095 63.536 31.6396 63.5305C31.1758 63.4992 31.2255 62.9978 31.6101 62.9555C32.4936 62.8729 32.9205 62.2704 33.2574 61.5632C33.988 60.0294 34.7168 58.4919 35.4401 56.9544C36.4524 54.8034 37.4573 52.6506 38.4677 50.5014C38.5579 50.3104 38.6518 50.1175 38.7769 49.9485C39.0751 49.5499 39.7027 49.6142 39.9346 50.0532C40.2125 50.5767 40.4241 51.1352 40.6616 51.6789C41.6131 53.8464 42.5572 56.0176 43.5198 58.1796C44.037 59.3424 44.5799 60.4941 45.1247 61.644C45.3382 62.0959 45.5848 62.5349 46.0615 62.77C46.2087 62.8435 46.3744 62.9059 46.5382 62.9243C47.1069 62.9904 47.1455 63.5103 46.529 63.5396C46.3707 63.547 46.2106 63.5396 46.0504 63.5396C44.6922 63.5268 43.3358 63.5158 41.9775 63.4974C41.7714 63.4956 41.4732 63.5947 41.4272 63.2953C41.3793 62.9886 41.6849 62.9739 41.902 62.9169C42.2572 62.8233 42.399 62.5973 42.2756 62.2428C42.0051 61.4732 41.7198 60.709 41.4401 59.943C41.3609 59.7281 41.1916 59.6859 40.9836 59.6877C40.1554 59.6932 39.3254 59.6895 38.4972 59.6877L38.4935 59.6932ZM38.464 58.817C39.1634 58.817 39.8628 58.8133 40.5622 58.817C40.9174 58.817 40.9744 58.738 40.8382 58.4147C40.3155 57.1675 39.7984 55.9166 39.2738 54.6693C39.0861 54.2193 38.8947 53.7711 38.6849 53.3321C38.637 53.2292 38.4972 53.0621 38.4199 53.1006C38.1051 53.2623 36.7598 56.8019 36.0825 58.4919C35.9812 58.7435 36.0383 58.8188 36.307 58.8188C37.0266 58.8188 37.7444 58.8188 38.464 58.8188V58.817Z" fill="black"/>
        <path d="M2.81777 49.9302C3.52635 49.9302 4.23493 49.9302 4.94351 49.9302C5.01345 49.9302 5.09259 49.9081 5.15148 49.932H5.15516C5.34657 50.0165 5.3981 50.2682 5.25087 50.4169C5.24351 50.4243 5.2343 50.4335 5.2251 50.4408C5.17357 50.4886 5.07602 50.4904 5.00056 50.5106C4.64351 50.6061 4.50732 50.8045 4.62511 51.1535C4.85333 51.8313 5.09075 52.5073 5.36129 53.1704C6.09748 54.9742 6.85207 56.7726 7.60298 58.5709C7.78703 59.0117 7.98396 59.4471 8.19193 59.8769C8.21402 59.9228 8.28028 59.9816 8.34837 60.0312C8.43672 60.0955 8.55635 60.0918 8.63733 60.0202C8.68702 59.9742 8.73119 59.9265 8.75512 59.8695C9.40848 58.299 10.0711 56.7321 10.6839 55.1451C11.0888 54.0962 11.4183 53.0216 11.7698 51.9526C11.8434 51.7285 11.8858 51.486 11.8968 51.2509C11.9152 50.8468 11.7072 50.597 11.317 50.4996C11.2692 50.4867 11.2158 50.472 11.1753 50.461C10.66 50.3214 10.8275 49.9081 11.2545 49.9338C12.1434 49.9889 13.036 49.9449 13.925 49.9467C14.2287 49.9467 14.5305 49.9118 14.8323 49.8787C14.9538 49.8659 15.09 49.8824 15.2004 49.8751C15.6385 49.8493 15.644 50.3839 15.2501 50.4794C14.3593 50.5694 13.9563 51.2013 13.6268 51.9011C12.5078 54.2652 11.4017 56.6348 10.2901 59.0025C9.64222 60.3802 9.00174 61.7597 8.33549 63.1282C8.23058 63.3449 8.03734 63.5745 7.82752 63.6719C7.43182 63.8519 7.05821 63.6517 6.86864 63.2145C6.3257 61.9654 5.79933 60.709 5.25639 59.4599C4.6656 58.1025 4.06929 56.7468 3.46009 55.3986C2.91163 54.1862 2.34845 52.9794 1.7779 51.7762C1.57361 51.3446 1.33987 50.9166 0.888959 50.6833C0.725157 50.5988 0.535589 50.5602 0.355223 50.5088C0.173017 50.4574 -0.00734903 50.3875 0.00553425 50.1653C0.0184175 49.9412 0.215348 49.8732 0.397554 49.8751C0.785893 49.8751 1.17423 49.9173 1.56441 49.9265C1.98404 49.9357 2.40366 49.9283 2.82145 49.9283C2.82145 49.9283 2.82145 49.9283 2.82145 49.9302H2.81777Z" fill="black"/>
        <path d="M24.0069 62.5477C25.0579 62.5514 26.0683 62.3549 27.0364 61.9507C27.7173 61.666 28.2455 61.1829 28.6836 60.6043C28.9541 60.2479 29.1897 59.8659 29.4492 59.5003C29.5707 59.3295 29.7161 59.1293 29.959 59.267C30.1799 59.392 30.1412 59.6105 30.0731 59.8255C29.8283 60.5859 29.5836 61.3464 29.359 62.1124C29.2928 62.3402 29.2468 62.5734 29.2412 62.8104C29.2284 63.3651 28.978 63.6168 28.4462 63.6003C26.0517 63.5213 23.6573 63.4313 21.2628 63.3853C20.5082 63.3707 19.7518 63.4882 18.9935 63.5341C18.8371 63.5433 18.6677 63.547 18.5187 63.5084C18.1653 63.4184 18.1248 63.1943 18.4395 63.0088C18.515 62.9647 18.607 62.9371 18.6954 62.9206C18.872 62.8876 19.0432 62.8269 19.1941 62.7277C19.796 62.3346 19.8125 61.8148 19.8125 61.3078C19.8125 58.2421 19.818 55.1781 19.8052 52.1124C19.8052 51.8038 19.7223 51.486 19.6248 51.1903C19.5015 50.8082 19.1923 50.6098 18.8039 50.5345C18.5665 50.4886 18.3033 50.461 18.2776 50.1524C18.2628 49.9687 18.561 49.8328 18.8941 49.8769C20.3371 50.0661 21.78 50.0698 23.2229 49.8769C23.5726 49.831 23.8487 49.9504 23.8413 50.1432C23.8303 50.4592 23.5652 50.4867 23.3297 50.5327C22.7536 50.641 22.472 51.0562 22.3542 51.633C22.3284 51.7597 22.3174 51.8901 22.3174 52.0205C22.3174 55.2167 22.3284 58.4129 22.3064 61.6091C22.3027 62.1271 22.7057 62.579 23.2284 62.5514C23.4879 62.5385 23.7474 62.5496 24.0069 62.5496V62.5477Z" fill="black"/>
        <path d="M84.954 51.2344C84.862 51.7433 84.9227 52.6507 84.5473 53.4148C84.343 53.8281 83.7246 53.8355 83.8682 53.4332C84.1847 52.5478 83.5479 51.5779 83.4283 50.6448C83.3694 50.1893 83.5498 50.0313 84.0062 50.0203C84.0559 50.0203 84.1056 50.0203 84.1553 50.0203C84.9559 50.0203 85.0369 50.1066 84.954 51.2326V51.2344Z" fill="black"/>
        <path d="M60.8314 31.6C60.8314 31.6 61.4424 31.2051 61.2712 30.6393C61.1001 30.0735 60.8461 28.8685 60.8314 28.3818C60.8166 27.895 61.5878 25.1507 61.954 24.7594C62.3203 24.3682 63.8829 22.298 63.8829 22.298C63.8829 22.298 64.1203 22.2117 63.6804 21.3704C63.2405 20.5291 63.3197 20.6503 63.0933 20.2499C62.8669 19.8494 61.5031 17.3549 61.5031 17.3549C61.4093 17.0886 60.8148 15.7936 60.8314 15.5015C60.8479 15.2095 60.6473 14.3939 60.6749 14.3149C60.7025 14.2359 60.2737 13.942 60.167 13.7142C60.0602 13.4865 59.3792 12.5809 59.3387 12.0739C59.2983 11.5669 58.9118 10.7532 58.8308 10.3803C58.7498 10.0074 57.8811 7.96663 57.8811 7.39168C57.8811 6.81674 57.721 5.4703 57.721 5.4703C57.721 5.4703 57.5075 3.60219 57.5204 3.17603C57.5332 2.74988 57.721 1.96185 57.7615 1.73592C57.802 1.50998 57.9345 0.709097 57.9087 0.575004C57.8829 0.440911 57.3069 0.428053 57.213 0.635621C57.1191 0.843189 57.0253 1.01586 56.9185 1.33547C56.8118 1.65509 56.3443 3.3487 56.3038 3.58933C56.2633 3.82996 56.0369 5.09741 56.0369 5.31049C56.0369 5.52357 55.9026 6.11137 55.9026 6.11137C55.9026 6.11137 55.6486 6.32445 55.4885 6.69734C55.3284 7.07023 55.2216 7.60476 55.1278 7.84356C55.0339 8.08235 54.8609 9.13672 54.8609 9.13672C54.8609 9.13672 54.7413 9.96332 54.7413 10.3105C54.7413 10.6577 54.8885 10.9369 54.7413 11.1114C54.594 11.2859 54.3805 11.4585 54.3529 11.7524C54.3253 12.0463 54.2186 13.0732 54.2057 13.4461C54.1928 13.8189 54.0456 14.8072 54.0713 15.1929C54.0971 15.5787 54.2186 16.4328 54.2186 16.4328C54.2186 16.4328 53.8836 17.2062 53.9112 17.3935C53.9388 17.5809 53.9241 18.1264 53.9922 18.4479C54.0603 18.7693 54.5535 20.4758 54.6732 20.7293C54.7928 20.9828 54.9529 21.5486 54.9676 21.6459C54.9824 21.7433 54.7008 21.5302 54.7136 21.9692C54.7265 22.4082 55.0247 23.3965 55.1572 23.8502C55.2897 24.3039 55.3965 24.877 55.5437 25.0368C55.6909 25.1966 55.8787 25.597 56.0241 25.7973C56.1695 25.9975 56.3977 26.4788 56.4915 26.5449C56.5854 26.611 56.4915 26.8516 56.5725 27.197C56.6535 27.5423 56.7602 27.9042 56.7602 27.9042C56.7602 27.9042 57.3087 28.8116 57.4412 29.1716C57.5737 29.5317 57.8424 30.0111 58.0688 30.2793C58.2952 30.5475 58.9651 30.9461 59.2449 31.1463C59.5246 31.3465 60.0308 31.7433 60.2203 31.7322C60.4099 31.7212 60.7412 31.7322 60.7412 31.7322L60.8314 31.5963V31.6Z" fill="white"/>
        <path d="M42.8169 34.4894C42.9696 35.0717 43.6432 36.5614 43.9948 36.8535C44.3463 37.1455 45.3107 37.7866 45.515 37.9611C45.7193 38.1356 49.2291 40.1801 49.3763 40.2664C49.5235 40.3527 51.248 40.9056 51.3658 41.0967C51.4836 41.2877 54.1578 42.2521 54.1578 42.2521C54.1578 42.2521 57.3602 43.0695 57.6823 43.0989C58.0044 43.1283 60.6215 42.8362 61.216 42.6158C61.8105 42.3954 64.17 41.633 64.4074 41.3447C64.6448 41.0563 66.4945 39.8531 66.8184 39.3957C67.1423 38.9383 68.1012 38.075 68.2245 37.4137C68.3478 36.7524 68.3902 36.0067 68.3681 35.3968C68.346 34.787 68.2411 33.8814 67.2159 33.4699C66.1908 33.0585 65.0203 32.399 64.0356 33.0089C63.051 33.6187 62.762 34.1955 61.9485 34.7704C61.135 35.3454 61.4056 35.6687 60.167 36.0912C58.9283 36.5137 59.5559 37.0059 57.1283 37.039C54.7008 37.0721 54.0566 37.3274 52.6818 36.87C51.3069 36.4126 51.0346 36.3796 49.8806 36.0746C48.7266 35.7697 48.4045 35.4979 47.1475 34.9743C45.8904 34.4508 44.177 33.6022 43.7353 33.5508C43.2935 33.4993 42.9034 34.4821 42.9034 34.4821L42.8205 34.4876L42.8169 34.4894Z" fill="white"/>
        <path d="M68.5871 34.359C68.5871 34.4545 68.6607 35.4519 68.7564 35.5254C68.8521 35.5989 69.3233 35.834 69.5828 35.6632C69.8423 35.4923 70.0852 35.4078 70.0006 35.2591C69.9159 35.1103 69.7668 34.9266 69.4797 34.8053C69.1926 34.6841 68.5871 34.3571 68.5871 34.3571V34.359Z" fill="white"/>
        <path d="M55.1866 34.8898C55.1866 34.8898 52.5198 31.5981 53.0701 28.773C53.0701 28.773 52.8032 23.8098 53.3701 23.1577C53.937 22.5056 49.6082 21.3171 49.3468 19.8237C49.3468 19.8237 48.0696 17.9685 48.0972 17.838C48.1248 17.7076 42.8739 14.3131 42.6844 13.3799C42.6844 13.3799 40.058 10.5787 40.0911 9.57941C40.0911 9.57941 39.1893 7.92622 39.2574 7.69293C39.2574 7.69293 38.6464 8.73996 39.4691 11.9361C39.4691 11.9361 38.547 12.0206 39.7138 16.0948C39.458 16.0783 39.4028 17.2025 41.2304 19.7043C41.2304 19.7043 40.5568 18.4975 40.5678 19.1735C40.5789 19.8494 41.4255 21.701 41.5028 21.8351C41.5801 21.9692 42.6586 24.0669 42.7377 24.133C42.8169 24.1992 43.3101 25.0386 43.6561 25.305C44.0021 25.5713 44.7181 26.3208 44.8856 26.3318C45.053 26.3428 44.0187 25.7991 43.9727 25.8101C43.9267 25.8211 43.807 25.8267 44.0077 26.2491C44.2083 26.6716 44.8285 28.0328 45.2739 28.3083C45.7193 28.5838 45.5463 28.4773 45.8573 28.7951C46.1684 29.1128 46.1076 29.2175 46.1408 29.4729C46.1739 29.7282 46.7849 30.4262 46.9303 30.5658C47.0757 30.7054 48.2775 32.2209 48.5334 32.276C48.7892 32.3311 48.6438 32.6121 49.2769 33.0805C49.91 33.5489 49.9395 33.7804 50.6315 33.9457C51.3235 34.111 51.3125 34.179 51.7468 34.19C52.1812 34.201 51.4431 34.258 51.4652 34.4141C51.4873 34.5702 52.0505 34.8568 52.1922 34.8439C52.3339 34.8311 52.9229 35.0515 53.2358 35.0772C53.5486 35.1029 53.8247 34.9431 54.2038 35.0441C54.583 35.1452 54.6161 35.2003 54.9161 35.2223C55.2161 35.2444 55.3707 35.0441 55.3707 35.0441L55.1811 34.888L55.1866 34.8898Z" fill="white"/>
        <path d="M21.8779 22.535C22.9711 22.5827 23.9282 22.6654 24.8447 22.7223C26.6428 22.8362 28.5275 23.1081 30.2851 23.5342C32.4698 24.01 34.4096 24.6125 36.4102 25.4813C36.574 25.5585 36.6292 25.474 36.4617 25.3693C34.463 23.8924 32.6096 22.2521 30.9569 20.3987C29.2545 18.492 27.7287 16.4549 26.5048 14.2047C26.1625 13.5746 25.8625 12.9189 25.5533 12.2704C25.4741 12.107 25.4208 11.9288 25.3766 11.7506C25.3508 11.6477 29.8176 15.4409 31.9011 16.6441C32.7274 17.1217 33.5317 17.6397 34.3673 18.1007C35.7311 18.852 37.1243 19.5482 38.5488 20.1782C39.147 20.4427 39.7433 20.7091 40.3746 20.8854C40.4206 20.8983 40.4684 20.8965 40.5163 20.9001C40.5089 20.8579 40.5034 20.8156 40.4924 20.7734C40.3893 20.384 40.3083 20.0974 40.2108 19.708C40.0525 18.8869 40.2752 18.8006 40.2476 18.7473C39.5114 17.3109 39.0844 15.7752 38.7586 14.2065C38.6022 13.4534 38.5635 12.6929 38.7347 11.9343C38.7991 11.8241 38.858 11.1995 38.8046 10.8763C38.7273 9.9376 38.6869 9.2102 38.7347 8.39462C38.777 7.97214 38.8415 7.63048 38.9905 7.24106C39.1378 6.86266 39.5335 7.29249 39.5574 7.52026C39.6421 8.3487 39.9954 9.0908 40.3451 9.83841C41.1512 11.5688 42.3439 13.0052 43.7868 14.2267C45.1211 15.3564 46.5162 16.4108 47.88 17.5074C48.0309 17.6286 48.191 17.7811 48.2591 17.9538C48.8628 19.4545 50.0076 20.4685 51.2959 21.352C51.8296 21.7175 52.3781 22.061 52.9229 22.4082C53.3517 22.6819 53.5081 23.0107 53.4253 23.5177C53.3848 23.7712 53.3407 24.0247 53.2891 24.2763C53.0683 25.3619 53.0149 26.4585 53.048 27.5625C53.0517 27.6966 53.0848 27.7389 53.2321 27.7572C54.4449 27.9134 55.6431 28.1264 56.7234 28.751C56.7418 28.762 56.7639 28.7693 56.7823 28.7822C56.9793 28.9108 56.8652 28.7308 56.8523 28.7032C56.7363 28.4497 56.6425 28.3138 56.5468 28.053C56.4584 27.8142 56.3498 27.4541 56.3149 27.2025C56.2983 27.0868 56.2983 26.859 56.3719 26.7635C56.4584 26.6533 56.4326 26.6018 56.3627 26.5081C55.2106 24.9725 54.7192 23.4497 54.5903 22.23C54.5774 22.0574 54.5075 21.6955 54.6437 21.5761C54.6879 21.4971 54.6235 21.341 54.5738 21.2344C54.2572 20.5383 54.121 20.0001 53.948 19.2543C53.8081 18.6536 53.7014 18.0456 53.7106 17.4247C53.7124 17.3127 53.7198 16.9912 53.7787 16.7653C53.8431 16.5118 53.9627 16.352 54.0124 16.2528C54.0327 16.2106 54.04 16.1426 54.0308 16.0893C53.891 15.2095 53.8431 14.3222 53.8873 13.4332C53.9296 12.6048 54.0437 11.7837 54.3143 10.992C54.3235 10.9644 54.3271 10.9332 54.3437 10.9093C54.6308 10.4832 54.5995 9.99271 54.6253 9.51328C54.7376 7.36046 55.4112 5.87074 55.7995 5.61358C55.8474 5.56582 55.8658 5.47214 55.8713 5.39866C55.9431 4.53533 56.0204 3.67383 56.2155 2.82702C56.3793 2.11431 56.6406 1.44018 57.0124 0.810125C57.1854 0.518061 57.3915 0.251712 57.6878 0.066187C57.8075 -0.00912529 57.9289 -0.0476999 58.0578 0.0423075C58.2142 0.152521 57.9658 1.88654 57.9289 2.59741C57.8866 3.43136 57.8701 4.27082 57.8903 5.1066C57.9161 6.18852 58.1424 7.24657 58.3872 8.2991C58.6909 9.6088 59.0995 10.8854 59.6682 12.107C60.0271 12.8748 60.4798 13.5875 61.0301 14.2341C61.1608 14.3865 61.1921 14.5261 61.1442 14.7337C61.0946 14.9541 61.1166 15.2021 61.1479 15.4317C61.286 16.442 61.6633 17.3715 62.1731 18.2458C62.7234 19.19 63.3068 20.1158 63.8755 21.0508C63.9105 21.1077 63.9399 21.1665 63.9767 21.2197C64.2841 21.6496 64.2362 22.0831 63.9565 22.4909C63.6841 22.8895 63.3804 23.2697 63.0823 23.65C62.1547 24.8366 61.5123 26.1536 61.1884 27.6286C61.0007 28.4883 61.1148 29.3204 61.3467 30.1488C61.378 30.2627 61.4369 30.2389 61.5068 30.2076C61.9577 30.0056 62.4399 29.9247 62.9221 29.866C64.3853 29.6896 65.6957 30.0607 66.8589 30.9736C67.4073 31.4053 67.8086 31.9472 68.1619 32.5368C68.438 32.996 68.703 33.4534 68.7693 34.0008C68.7785 34.0779 68.8595 34.1643 68.9313 34.2139C69.4724 34.5941 70.0208 34.9633 70.5638 35.3417C70.792 35.5015 70.7846 35.7569 70.538 35.8891C70.3263 36.003 70.1018 36.0893 69.8809 36.1867C69.5257 36.3428 69.1687 36.4934 68.8172 36.6551C68.7748 36.6753 68.7417 36.7396 68.7233 36.7892C68.6368 37.028 68.5834 37.2851 68.4675 37.5074C68.0037 38.3873 67.4607 39.2139 66.7337 39.9064C65.0865 41.4732 63.1559 42.5111 60.9307 42.9887C60.4577 43.0897 59.9719 43.1393 59.4933 43.2128C58.7921 43.3175 58.0872 43.3028 57.3878 43.2477C56.2155 43.1577 55.0725 42.9115 53.9462 42.5735C51.7671 41.9178 49.7517 40.9056 47.7806 39.7888C46.196 38.8906 44.7383 37.8142 43.2733 36.7414C42.8482 36.4292 40.6212 34.64 40.1316 34.2065C40.1758 33.6059 37.2053 31.7873 34.4869 30.2003C33.5004 29.5886 28.9471 27.0335 27.4398 26.3741C25.6508 25.5934 23.8582 24.8237 22.0582 24.0724C21.1711 23.7014 17.9614 22.8876 17.9135 22.8417C17.7037 22.6415 21.346 22.5294 21.8815 22.5294L21.8779 22.535ZM50.7254 34.1331C50.0205 33.8887 49.3542 33.5691 48.7708 33.0989C48.4837 32.8674 48.1782 32.6286 48.0438 32.2833C47.8469 31.8608 47.5303 31.6533 47.1769 31.3502C47.1199 31.3171 47.0702 31.2712 47.0187 31.2308C46.2604 30.6228 45.8058 30.0221 45.55 29.0669C45.5334 29.0026 45.261 28.7804 45.2113 28.7289C44.9629 28.4791 44.7843 28.2826 44.5561 28.0162C44.0021 27.3678 43.5715 26.6477 43.3488 25.8156C43.4021 25.3876 43.1058 25.1433 42.8555 24.8715C42.815 24.8274 42.7782 24.7815 42.7414 24.7374C41.9316 23.7583 41.3611 22.8932 40.8641 21.7212C40.8236 21.6275 40.7316 21.5798 40.6249 21.5467C40.1427 21.3906 39.6016 21.2179 39.1359 21.0214C37.4906 20.3289 35.8268 19.5757 34.2642 18.7124C33.1839 18.1154 32.0244 17.3898 30.9698 16.7488C29.6373 15.9369 28.4962 15.1801 27.3772 14.0816C27.079 13.7877 26.6888 13.3946 26.6631 13.3818C26.6704 13.4093 26.6723 13.4387 26.6852 13.4626C26.8508 13.7896 26.7772 13.6573 26.9557 13.9788C28.0858 16.0085 29.4532 17.8729 30.9827 19.6143C33.1802 22.1198 35.6906 24.2727 38.501 26.0728C38.5691 26.1169 39.0752 26.5981 38.9464 26.7084C38.7034 26.7653 38.9408 26.8259 36.5887 26.1077C34.5642 25.3748 32.3649 24.5629 30.2943 24.1404C29.4275 23.9457 27.7029 23.6077 26.825 23.4846C24.6883 23.2642 20.9981 23.0438 20.7294 23.0511C20.5822 23.0475 20.8987 23.1356 20.93 23.1466C21.4564 23.3285 21.9644 23.4001 22.476 23.6169C24.368 24.4178 26.2545 25.2315 28.1355 26.0581C29.6281 26.7139 31.1005 27.4156 32.49 28.2716C33.7029 29.0173 34.8973 29.7962 36.1065 30.5511C38.1642 31.8369 40.0617 33.3285 41.8304 34.9854C41.9629 35.1103 42.0807 35.2572 42.2279 35.3601C42.6181 35.6338 43.0212 35.8909 43.4187 36.1536C43.4666 36.1849 43.5162 36.2142 43.5659 36.2436C43.5457 36.1867 43.5365 36.1242 43.5052 36.0746C43.1205 35.4574 42.8371 34.8017 42.734 34.0779C42.6991 33.8391 42.6825 33.5967 42.6751 33.356C42.6715 33.2256 42.7322 33.1117 42.8776 33.0768C43.0267 33.0419 43.115 33.1136 43.1702 33.244C43.1794 33.2642 43.1905 33.2826 43.1997 33.3028C43.5383 34.0835 44.0573 34.7392 44.6316 35.3564C46.3708 37.2264 48.4708 38.5434 50.8542 39.4416C51.9217 39.8439 53.0167 39.9247 54.1302 39.7631C55.5179 39.561 56.8412 39.1551 58.0523 38.4277C59.0792 37.8105 60.0602 37.1327 60.9215 36.2969C61.4277 35.8065 61.9044 35.2866 62.3902 34.7741C63.0399 34.089 63.8111 33.6077 64.7092 33.3175C66.0012 32.8987 67.6613 33.2954 68.2779 34.4729C68.2945 34.5023 68.3221 34.5261 68.3441 34.5519C68.3515 34.5133 68.3699 34.4747 68.3644 34.438C68.2724 33.8557 68.1215 33.2991 67.7994 32.7866C67.3945 32.1419 66.9748 31.5228 66.3344 31.0783C65.5117 30.5089 64.6282 30.1323 63.6068 30.1672C63.2921 30.1782 62.9737 30.1672 62.6663 30.2223C62.3111 30.2866 61.9669 30.4097 61.6191 30.5126C61.5215 30.5419 61.4645 30.6007 61.4737 30.7238C61.5068 31.2197 61.251 31.5963 60.9215 31.9233C60.6952 32.1492 60.4449 32.1786 60.1946 32.0408C60.0013 31.9343 59.8117 31.8222 59.6314 31.6973C58.9283 31.2051 58.3136 30.6173 57.7596 29.9652C57.6566 29.8439 57.5038 29.7319 57.4063 29.6364C56.8652 29.1477 56.556 28.9347 56.0204 28.7161C55.0008 28.3101 54.0272 28.0952 53.221 28.075C53.0683 28.1173 53.0499 28.0787 53.0719 28.3065C53.2247 30.0405 53.7069 31.6569 54.5278 33.1907C54.7725 33.6499 55.0136 34.111 55.2658 34.5666C55.5032 35.1231 55.31 35.5089 54.7413 35.5107C54.5738 35.5107 54.3897 35.4648 54.2296 35.4207C53.9002 35.3289 53.5689 35.2903 53.2266 35.2995C52.9689 35.3068 52.7094 35.3178 52.4554 35.2848C51.756 35.1929 51.1413 34.956 50.8358 34.2414M51.6382 34.3847C51.6125 34.3847 51.5867 34.3957 51.5609 34.4031C51.5738 34.4288 51.5793 34.4637 51.5977 34.4765C51.7431 34.5776 52.137 34.9688 53.2192 34.9082C53.6186 34.8862 54.0603 34.9394 54.4431 35.0644C54.5406 35.0956 54.6437 35.1176 54.7449 35.1195C54.9548 35.1195 55.0173 35.0294 54.9235 34.8439C54.7799 34.5555 54.6235 34.2745 54.467 33.9916C54.018 33.1815 53.6241 32.3476 53.3241 31.4696C52.9376 30.3454 52.7351 29.1863 52.6615 28.0015C52.5879 26.802 52.6174 25.6099 52.8382 24.427C52.91 24.0449 52.9707 23.661 53.0241 23.2771C53.0517 23.0768 52.967 22.9207 52.7848 22.8215C52.702 22.7756 52.6247 22.7186 52.5437 22.6672C51.7082 22.1437 50.8744 21.6202 50.1143 20.9901C49.38 20.3803 48.7064 19.719 48.2591 18.8612C48.1781 18.7051 48.1027 18.5452 48.0217 18.3891C48.0033 18.3524 47.9739 18.3193 47.9499 18.2862C47.937 18.3322 47.9168 18.3763 47.9113 18.4222C47.9058 18.481 47.9058 18.5397 47.9113 18.5985C47.9775 19.1882 48.1377 19.7502 48.4119 20.2756C48.791 20.9993 49.2143 21.701 49.7554 22.3127C50.2652 22.8895 50.8229 23.4258 51.3824 23.9549C51.6382 24.1973 51.7505 24.3131 51.7063 24.6547C51.5812 25.6522 51.6161 26.7892 51.7395 27.7848C51.8646 30.0552 53.6683 33.8667 53.4603 33.5636C53.3701 33.4332 52.3855 31.6202 52.137 30.8671C51.7781 29.776 51.3898 28.6499 51.2646 27.5092C51.1744 26.69 51.1505 25.8689 51.2278 25.046C51.2941 24.3369 51.3382 24.5096 50.8671 24.0853C50.0223 23.323 49.2567 22.4982 48.6456 21.5339C48.1892 20.812 47.7585 20.0809 47.5745 19.2322C47.4806 18.7969 47.4052 18.3671 47.5432 17.9299C47.58 17.8123 47.5156 17.7554 47.4346 17.6948C46.8769 17.2631 46.3211 16.8296 45.7635 16.3961C44.6187 15.507 43.4905 14.6015 42.4745 13.5636C41.2046 12.2649 40.2236 10.7826 39.5795 9.08345C39.4635 8.77669 39.3862 8.4534 39.2887 8.13929C39.2721 8.08419 39.25 8.03092 39.2316 7.97765C39.2188 8.02908 39.1967 8.07868 39.193 8.13011C39.1709 8.43687 39.123 8.74547 39.1396 9.05223C39.1967 10.0809 39.3531 11.0967 39.631 12.0886C40.3488 14.6474 43.5715 19.9211 43.4518 19.8274C43.2347 19.7135 40.6856 15.9938 39.7783 14.0357C39.5924 13.5581 39.4378 13.0677 39.2684 12.5846C39.2574 12.5552 39.2316 12.5331 39.2132 12.5056C39.2059 12.5331 39.1948 12.5625 39.1948 12.5901C39.1911 12.8105 39.1672 13.0328 39.1911 13.2495C39.3844 14.9394 39.8316 16.5651 40.5568 18.0989C40.6598 19.1037 43.9046 23.424 44.6132 24.0045C44.5046 23.9806 43.9156 23.4387 43.7721 23.2826C42.7506 22.1621 41.7384 20.9773 40.8899 19.6878C40.8494 19.6217 40.6782 19.2818 40.6966 19.3461C40.7003 19.427 40.7592 19.6621 40.7629 19.7429C40.7629 19.7502 40.7666 19.7576 40.7684 19.7649C41.2561 21.6698 42.1561 23.3597 43.4666 24.8237C44.6426 26.3575 47.8561 28.2624 47.6978 28.3046C47.6352 28.413 45.0733 27.0372 44.1512 26.183C44.1181 26.1518 44.0721 26.1334 44.0334 26.1095C44.0445 26.1573 44.05 26.2087 44.0684 26.2528C44.431 27.1125 44.9518 27.8638 45.6696 28.4626C46.7334 29.6033 49.9082 31.1426 49.9616 31.1885C49.9045 31.3336 46.9156 29.9486 46.415 29.64C46.3745 29.6161 46.2696 29.5206 46.2254 29.5023C46.242 29.5482 46.2107 29.8641 46.9598 30.5419C48.0162 31.5724 49.2898 32.5864 50.7474 32.8123C50.7916 32.8858 49.656 32.6948 48.9585 32.4082C48.8702 32.3715 48.7726 32.3531 48.6806 32.3274C48.7395 32.4009 48.791 32.4835 48.8591 32.5478C49.9174 33.5269 51.1689 34.1441 52.6302 34.0137C52.8308 33.9953 51.7615 34.3994 51.6364 34.3902L51.6382 34.3847ZM62.0185 22.4119C61.9283 22.6121 61.8289 22.8087 61.7221 23.0015C61.1277 24.0798 60.6768 25.215 60.397 26.4163C60.3252 26.7231 60.1173 27.7058 60.0473 27.7921C59.9663 27.8932 59.8946 26.3391 60.9197 23.615C61.1277 23.1705 61.3669 22.7407 61.5933 22.3035C61.6817 22.1327 61.6688 21.9802 61.5694 21.8076C61.3117 21.3557 61.0449 20.9038 60.8387 20.4281C60.2203 19.0063 59.7952 17.5441 60.0197 15.9663C60.097 15.4207 60.1357 15.035 60.4375 14.5555C60.5038 14.4508 60.3952 14.3957 60.3418 14.3278C59.7032 13.5306 59.2817 12.489 58.9099 11.543C58.0688 9.41042 57.5001 7.20983 57.3584 4.91189C57.2977 3.92732 57.3492 2.94459 57.4486 1.96553C57.4909 1.55039 57.5664 1.13893 57.6253 0.725629C57.629 0.698075 57.6253 0.668685 57.6216 0.639295C57.594 0.657664 57.559 0.668685 57.5424 0.694402C57.478 0.784409 57.4136 0.874416 57.3602 0.969934C57.0989 1.42364 56.8946 1.90123 56.751 2.40454C56.5118 3.24951 56.4087 4.11468 56.3461 4.9872C56.2615 6.15546 56.2983 7.31821 56.4713 8.47912C56.6811 9.87699 57.5774 13.0199 57.5167 13.0364C57.4412 13.0566 57.1688 12.4541 57.1136 12.3017C56.451 10.4519 55.8879 8.59117 55.8216 6.6257C55.8179 6.521 55.805 6.41446 55.7958 6.30976C55.7462 6.41262 55.6836 6.50998 55.6449 6.61652C55.1719 7.93724 54.9824 9.30204 55.0505 10.6981C55.0781 11.2473 55.1425 11.7965 55.2327 12.3384C55.459 13.6885 55.7609 15.0129 56.2633 16.284C56.2854 16.3391 56.4198 16.6312 56.3112 16.679C56.2394 16.5908 54.8498 13.3156 54.6382 11.6826C54.6308 11.6257 54.6216 11.5669 54.6143 11.51C54.5903 11.5688 54.559 11.6257 54.5462 11.6882C54.2609 13.0015 54.2572 14.3259 54.4339 15.6522C54.5406 17.9225 56.3664 20.8469 56.3737 20.9405C56.3829 21.0655 54.6308 18.4791 54.2719 17.2337C54.2535 17.1657 54.2204 17.1033 54.1928 17.039C54.1799 17.107 54.156 17.1731 54.1541 17.2411C54.1376 18.0493 54.4781 19.5555 54.6934 20.3289C55.1351 21.9141 56.9737 24.3645 56.9204 24.4123C57.0382 24.6161 56.0241 23.5801 55.8363 23.2642C55.5455 22.9042 55.24 22.4707 55.0118 22.0941C54.9952 22.0684 54.964 22.0519 54.9382 22.0298C54.9345 22.0574 54.9235 22.0868 54.9271 22.1143C54.9511 22.2521 54.9695 22.3898 55.0044 22.5239C55.5695 24.6841 56.5928 26.6422 58.2915 28.0897C58.5363 28.3028 58.632 28.3505 58.7461 28.4461C58.6964 28.5636 57.2829 27.4854 56.8799 27.0904C56.8504 27.061 56.8136 27.039 56.7805 27.0151C56.7695 27.061 56.74 27.1106 56.751 27.1492C56.8099 27.3531 56.8652 27.5588 56.9498 27.7535C57.5314 29.1 58.4553 30.1782 59.5983 31.0783C59.8338 31.2638 60.0933 31.42 60.3492 31.5761C60.4044 31.611 60.513 31.6165 60.5682 31.5853C60.8387 31.4347 61.0393 30.9277 60.962 30.6209C60.9068 30.4005 60.8461 30.1819 60.7853 29.9633C60.5295 29.0651 60.4835 28.165 60.7007 27.2466C61.0688 25.6907 61.7792 24.3076 62.7786 23.0658C63.0399 22.7407 63.2902 22.4027 63.5276 22.0592C63.6878 21.8296 63.6804 21.5908 63.524 21.341C62.9442 20.4134 62.3682 19.4839 61.8123 18.5416C61.2418 17.5754 60.8056 16.5541 60.6271 15.4372C60.6234 15.4134 60.6068 15.3895 60.5958 15.3656C60.5774 15.4005 60.5498 15.4354 60.5424 15.474C60.3602 16.3245 60.3381 17.1731 60.5148 18.0309C60.7798 19.3094 61.251 20.5015 61.9412 21.6092C62.024 21.7414 62.1767 22.039 62.0129 22.4156L62.0185 22.4119ZM58.3375 42.7021C58.6872 42.6801 59.0406 42.6709 59.3884 42.6323C59.8283 42.5846 60.2737 42.5405 60.7044 42.445C62.427 42.0684 63.9896 41.3355 65.3902 40.2682C66.5055 39.4178 67.4092 38.3946 67.9834 37.0978C68.1951 36.6184 68.2761 36.1408 68.1859 35.6228C68.0662 34.9339 67.7957 34.3388 67.1626 33.9824C66.4798 33.5985 65.7491 33.5195 64.989 33.7161C64.054 33.9585 63.2847 34.4655 62.6442 35.1764C61.7148 36.2087 60.7338 37.186 59.5817 37.9776C58.8197 38.5012 58.0467 39.0063 57.1964 39.3755C56.1014 39.8513 54.9603 40.1452 53.7713 40.2627C52.8014 40.3583 51.8554 40.2719 50.926 39.9596C49.853 39.6015 48.8573 39.0926 47.8782 38.5361C46.1739 37.568 44.7457 36.2859 43.5273 34.7613C43.4702 34.6896 43.4058 34.6217 43.3432 34.5519C43.3635 34.6419 43.3745 34.7355 43.4058 34.8219C43.6212 35.4372 43.9764 35.9791 44.3279 36.521C44.6224 36.9765 45.0181 37.3329 45.4616 37.6452C46.4058 38.3083 47.3923 38.9053 48.3953 39.4729C49.9947 40.3785 51.6345 41.1904 53.383 41.7763C54.9916 42.3145 56.6259 42.6984 58.3375 42.6966V42.7021ZM68.8816 34.9174C68.8816 34.9174 68.8908 34.9174 68.8944 34.9192C68.8944 34.978 68.8944 35.0368 68.8944 35.0937C68.8981 35.2095 68.9644 35.2425 69.0693 35.2315C69.2055 35.215 69.3417 35.204 69.4797 35.1893C69.5147 35.1856 69.5478 35.1782 69.5828 35.1727C69.557 35.1415 69.5349 35.1029 69.5018 35.0809C69.373 34.9854 69.2405 34.8935 69.1079 34.8035C69.049 34.7631 68.9846 34.7319 68.9221 34.6951C68.9073 34.7686 68.8944 34.8439 68.8797 34.9174H68.8816Z" fill="#231300"/>
        <path d="M50.9039 34.0394C50.1843 33.7896 49.5272 33.6536 48.9309 33.1724C48.6383 32.9354 48.3254 32.6929 48.1892 32.3402C47.9886 31.9104 47.6647 31.6973 47.3039 31.3869C47.2469 31.3538 47.1953 31.3061 47.142 31.2638C46.3671 30.643 45.9033 30.0294 45.6438 29.0541C45.6273 28.9879 45.3493 28.7602 45.2978 28.7087C45.0438 28.4534 44.8616 28.2532 44.6297 27.9813C44.0647 27.32 43.6248 26.5835 43.3966 25.7348C43.45 25.2995 43.1482 25.0478 42.8942 24.7723C42.8537 24.7282 42.8169 24.6804 42.7782 24.6345C41.9518 23.6353 41.3684 22.7517 40.8623 21.5559C40.8218 21.4604 40.7261 21.4126 40.6193 21.3777C40.1279 21.2197 39.5758 21.0416 39.101 20.8414C37.4206 20.1342 35.7237 19.3645 34.128 18.4828C33.0256 17.8729 31.8403 17.1327 30.7655 16.4769C29.4054 15.6485 28.2404 14.877 27.0974 13.7547C26.7919 13.4552 26.3944 13.053 26.3686 13.0401C26.376 13.0677 26.3778 13.097 26.3907 13.1228C26.56 13.4571 26.4846 13.323 26.6668 13.6499C27.8207 15.722 29.2177 17.625 30.7784 19.4049C33.0219 21.9619 35.4752 24.2304 38.3445 26.0673C38.4145 26.1114 39.0402 26.5339 38.9077 26.6459C38.6593 26.7047 38.9004 26.7653 36.5004 26.0324C34.4335 25.2848 32.1882 24.4563 30.0735 24.0228C29.1882 23.8245 27.4287 23.4791 26.5324 23.3542C24.3496 23.1301 20.584 22.9042 20.3098 22.9115C20.1607 22.9078 20.4828 22.9979 20.5141 23.0089C21.0515 23.1944 21.5687 23.2679 22.0914 23.4883C24.022 24.3057 25.949 25.1378 27.8686 25.981C29.3925 26.6496 30.8962 27.3678 32.3152 28.2403C33.5538 29.0026 34.774 29.7962 36.0071 30.5677C38.1071 31.881 40.0451 33.4038 41.8506 35.0937C41.9868 35.2205 42.1064 35.3711 42.2574 35.4758C42.6567 35.755 43.0672 36.0177 43.4739 36.2859C43.5236 36.3189 43.7923 36.6422 43.842 36.6716C43.8218 36.6147 43.5935 36.2565 43.5623 36.2051C43.7169 35.4409 42.9623 34.8862 42.7745 34.1661C42.7396 33.9218 42.7212 33.6757 42.7138 33.4277C42.7101 33.2936 42.7709 33.1779 42.9199 33.143C43.0709 33.1081 43.1629 33.1815 43.2181 33.3138C43.2273 33.334 43.2402 33.3524 43.2475 33.3726C43.5917 34.1698 44.1236 34.8384 44.7107 35.4685C46.4868 37.377 48.6309 38.7216 51.0622 39.6382C52.1517 40.0497 53.2689 40.1305 54.4063 39.9652C55.8234 39.7594 57.1725 39.3443 58.4111 38.6003C59.4602 37.9703 60.4614 37.2778 61.3412 36.4255C61.8583 35.9258 62.3442 35.3932 62.8393 34.8715C63.5019 34.1735 64.2914 33.6812 65.208 33.3854C66.5258 32.9593 68.0147 33.8153 68.6441 35.0184C68.6607 35.0497 68.6957 34.776 68.7196 34.8035C68.727 34.7649 68.7693 34.64 68.7638 34.6033C68.6699 34.0081 68.5576 33.4901 68.2282 32.9666C67.8141 32.309 67.5233 31.5559 66.8699 31.1022C66.0307 30.5199 65.2356 30.0001 64.1939 30.035C63.8737 30.046 63.4467 30.0294 63.1319 30.0864C62.7694 30.1525 62.4418 30.1948 62.0866 30.2995C61.9872 30.3289 61.47 30.3913 61.4774 30.5162C61.3209 30.992 61.4829 31.1885 61.1461 31.5228C60.9142 31.7524 60.9988 31.87 60.7449 31.7304C60.7283 31.6441 60.4485 31.3428 60.2645 31.2142C59.6921 30.7238 59.5117 30.654 59.0056 30.2756C58.8878 30.1874 58.7774 30.0882 58.6688 29.989C58.3651 29.7062 57.7891 29.3425 57.6105 29.2488C57.0566 28.7491 56.8191 28.7106 56.2707 28.4883C55.9652 28.3671 55.6725 28.2734 55.3909 28.2017C54.7118 28.0291 54.0953 27.9813 53.5137 27.9666C53.3572 28.0107 52.864 27.9042 52.8861 28.1356C53.0407 29.9045 53.74 31.8645 54.5775 33.4295C54.8278 33.8979 55.0063 34.3149 55.2639 34.7796C55.2198 35.4244 55.3412 35.3619 54.7725 35.3619C54.6363 35.3619 54.5002 35.3472 54.3695 35.3123C54.0051 35.215 53.6351 35.1415 53.2578 35.1819C53.0646 35.2021 52.8713 35.2076 52.6799 35.1819C51.9511 35.0846 51.3658 35.0699 51.0511 34.3314" fill="#231300"/>
        <path d="M66.3012 35.1048C66.1779 34.9725 65.9791 34.9468 65.7693 35.0405C65.6295 35.1029 65.4951 35.1819 65.3552 35.2462C64.9743 35.4189 64.5859 35.4409 64.2049 35.2646C63.5571 34.9652 63.0822 34.4784 62.8283 33.8153C62.5559 33.1007 62.4215 32.3513 62.4896 31.5779C62.4657 31.2785 62.4565 30.9791 62.416 30.6815C62.3313 30.0735 62.2338 29.4747 61.9007 28.9273C61.5381 28.3303 61.205 27.7205 60.6547 27.2649C60.3363 27.0004 60.0234 26.7359 59.6332 26.5835C58.5897 26.1757 57.524 26.1573 56.4584 26.4567C55.6781 26.6753 54.9363 26.9857 54.3014 27.5203C53.7953 27.9464 53.3977 28.4608 53.0204 28.9916C53.0241 29.0357 53.0333 29.0945 53.0591 29.1661C53.1603 29.4435 53.1695 29.8531 53.2358 30.1433C53.3443 30.6209 53.4769 31.0912 53.5744 31.5724C53.7676 32.5276 54.0382 33.4185 54.5351 34.2304C54.6492 34.3388 54.767 34.4435 54.894 34.5427C55.7554 35.2205 56.3774 34.5463 57.2351 35.2682C57.4302 35.4317 58.3651 35.6117 58.921 35.4923C60.2792 35.2003 60.5295 34.7668 60.835 34.6639C61.113 34.5702 61.1774 34.5317 61.3669 34.6419C61.6301 34.7962 61.7958 35.0386 61.9835 35.2627C62.335 35.6815 62.8154 36.0526 63.2884 36.3355C63.9491 36.7304 64.7258 36.6937 65.2853 36.5394C65.7822 36.4016 66.3086 35.8836 66.4006 35.6577C66.4834 35.4556 66.454 35.2682 66.3031 35.1066L66.3012 35.1048ZM61.3633 32.3311C61.2381 32.7958 60.8203 33.3138 60.5111 33.6628C59.8633 34.3976 58.7719 34.6694 57.8645 34.787C56.9701 34.9027 56.0204 34.5482 55.3523 34.0247C54.7357 33.5416 54.1137 32.4743 53.9572 31.6937C53.7382 30.6026 54.0437 29.6143 54.6658 28.6702C54.9308 28.2679 55.4259 28.0621 55.7296 27.6948C56.1787 27.1511 57.1541 27.0757 57.8811 27.1272C58.4664 27.1694 59.1657 27.2429 59.6443 27.5919C60.0712 27.9023 60.8406 28.3634 61.0817 28.8447C61.262 29.2047 61.5307 29.7521 61.5694 30.1635C61.5988 30.4758 61.7129 30.8469 61.7424 31.1591C61.7461 31.5394 61.4608 31.9655 61.3633 32.3292V32.3311Z" fill="#F77962"/>
        <path d="M55.9173 38.6995C55.2916 37.6488 54.3364 37.0004 53.2321 36.5504C52.6045 36.2951 51.9437 36.161 51.2738 36.0508C50.1714 35.8689 49.2143 35.3913 48.4192 34.5959C47.1199 33.2954 45.8168 32.0023 44.5138 30.7054C44.2377 30.4299 43.9616 30.1562 43.6874 29.8788C43.6616 29.8531 43.6451 29.8219 43.623 29.7925C43.6635 29.7925 43.704 29.7888 43.7445 29.7888C43.7665 29.7888 43.7868 29.798 43.8089 29.8035C44.5248 29.978 45.2389 30.1544 45.9549 30.3289C45.8352 30.1433 45.7469 29.9394 45.6788 29.7319C45.642 29.6198 45.434 29.0155 45.55 29.1533C45.2868 28.841 44.9536 28.6499 44.6592 28.3818C43.807 28.2128 42.9549 28.0456 42.1064 27.8601C41.8525 27.805 41.5782 27.7829 41.3684 27.5717C37.6212 23.8263 33.8667 20.0901 30.1213 16.3428C28.5901 14.8109 25.5901 11.8829 25.5349 11.9159C25.4797 11.949 27.2097 14.2102 28.1631 15.2609C31.2698 18.6849 34.3691 22.1125 37.4722 25.5383C37.7924 25.8909 38.1274 26.2289 38.4458 26.5835C38.6648 26.8296 38.858 27.0978 39.0789 27.3421C39.6384 27.9611 40.2089 28.571 40.7739 29.1863C41.1016 29.5445 41.4236 29.9064 41.7494 30.2664C43.6819 32.4027 45.6125 34.5408 47.5505 36.6698C47.8229 36.9692 47.9407 37.3017 47.9186 37.6929C47.8837 38.2954 47.7456 38.8777 47.5818 39.46C47.142 41.0232 47.2671 42.5184 48.2352 43.8704C49.0763 45.0441 50.1953 45.7679 51.6695 45.8671C51.7763 45.8744 51.8204 45.9148 51.8572 46.0085C52.045 46.4732 51.9714 46.8976 51.6787 47.2962C51.618 47.3788 51.5591 47.4652 51.5241 47.5588C51.4192 47.8417 51.5738 48.0695 51.8738 48.0695C52.1462 48.0695 52.3947 47.9923 52.5916 47.7921C53.1345 47.2447 53.3038 46.5981 53.1014 45.8579C53.0775 45.7715 53.0535 45.722 53.1787 45.6852C53.7732 45.5107 54.3069 45.237 54.8186 44.8678C55.3909 44.4545 55.7922 43.9292 56.0885 43.3211C56.5284 42.4156 56.6314 41.4439 56.5081 40.4501C56.4308 39.8274 56.2468 39.2378 55.9228 38.6959L55.9173 38.6995ZM41.7568 29.3241C41.4917 29.3902 41.212 29.111 41.1825 28.7381C41.1623 28.4956 41.4273 28.2716 41.7365 28.2605C41.9979 28.2513 42.2905 28.4718 42.3034 28.6922C42.3255 29.043 42.0936 29.3131 41.7568 29.3241ZM55.321 43.0511C54.9271 44.1055 54.1137 44.5776 52.9928 44.7778C52.6321 44.8421 52.218 44.9688 51.8775 44.9119C51.3088 44.9394 50.8763 44.7907 50.3978 44.5408C49.345 43.9934 48.3235 43.2238 48.134 41.9986C48.088 41.7029 48.0714 41.3079 48.1266 41.003C48.1781 40.7073 48.2775 40.0919 48.3622 39.8072C48.7064 38.6665 49.5217 37.8527 50.6591 37.4688C51.0088 37.3513 51.4652 37.2429 51.8315 37.1988C52.1462 37.1602 52.7775 37.2429 53.0848 37.3623C53.4879 37.5184 54.1946 37.8436 54.5462 38.1264C55.1995 38.6518 55.5032 39.539 55.7664 40.338C56.0627 41.2381 55.6523 42.1694 55.3228 43.0511H55.321Z" fill="#F77962"/>
        <path d="M37.8476 27.1125C37.7353 26.9692 37.5899 26.9141 37.4261 26.8774C36.6863 26.7139 35.9446 26.5522 35.2047 26.3851C34.3415 26.1904 33.4783 25.9901 32.6152 25.7918C31.752 25.5934 30.8888 25.395 30.0256 25.1984C29.1624 25.0019 28.2993 24.8053 27.4379 24.6088C26.6484 24.4288 25.8588 24.2451 25.0692 24.0651C24.2153 23.8685 23.3594 23.6757 22.5055 23.4791C21.6368 23.2807 18.5871 22.6819 18.5503 22.8068C18.5098 22.9427 22.9472 24.2763 25.0177 24.8476C27.298 25.4776 29.5784 26.1095 31.8587 26.7378C34.2108 27.3862 36.563 28.0328 38.9169 28.6775C38.9648 28.6904 39.0163 28.694 39.066 28.7014C39.0457 28.6555 39.0329 28.6022 39.0034 28.5636C38.6188 28.0787 38.2304 27.5993 37.8494 27.1106L37.8476 27.1125Z" fill="#F77962"/>
        <path d="M41.7439 29.3112C42.001 29.3112 42.2095 29.1032 42.2095 28.8465C42.2095 28.5898 42.001 28.3818 41.7439 28.3818C41.4867 28.3818 41.2782 28.5898 41.2782 28.8465C41.2782 29.1032 41.4867 29.3112 41.7439 29.3112Z" fill="#231300"/>
        <path d="M55.3762 28.2807C55.3762 28.2807 57.9639 28.8759 60.1541 30.9222C60.1541 30.9222 61.2491 30.2738 61.4847 30.338C61.7203 30.4023 61.2896 32.1217 61.2896 32.1217C61.2896 32.1217 59.4381 32.7591 59.3075 32.7076C59.1768 32.6562 57.2332 30.7807 56.9995 30.4299C56.7658 30.079 55.3781 28.2826 55.3781 28.2826L55.3762 28.2807Z" fill="#231300"/>
        <path d="M33.5703 69.932V65.8523H34.7335C35.0869 65.8523 35.3666 65.9386 35.5746 66.1113C35.7826 66.284 35.8856 66.5081 35.8856 66.7854C35.8856 67.0169 35.823 67.2171 35.6979 67.3879C35.5727 67.5588 35.3997 67.68 35.1789 67.7516V67.7627C35.455 67.7957 35.6758 67.8986 35.8396 68.0749C36.0034 68.2513 36.0881 68.479 36.0881 68.7601C36.0881 69.1091 35.9629 69.392 35.7126 69.6087C35.4623 69.8255 35.1458 69.9339 34.7629 69.9339H33.5703V69.932ZM34.0488 66.284V67.601H34.5384C34.8016 67.601 35.0077 67.5386 35.1568 67.4118C35.3059 67.2851 35.3813 67.1087 35.3813 66.8791C35.3813 66.4823 35.12 66.284 34.5973 66.284H34.047H34.0488ZM34.0488 68.0308V69.4985H34.6985C34.9801 69.4985 35.1973 69.4324 35.3537 69.3001C35.5102 69.1679 35.5856 68.986 35.5856 68.7546C35.5856 68.2733 35.2562 68.0327 34.5991 68.0327H34.0488V68.0308Z" fill="black"/>
        <path d="M40.082 69.932H39.5519L39.1194 68.7876H37.3857L36.9771 69.932H36.4434L38.0114 65.8523H38.5084L40.082 69.932ZM38.9611 68.3578L38.3188 66.6201C38.2986 66.5632 38.2765 66.4713 38.2562 66.3464H38.2452C38.2268 66.4621 38.2047 66.554 38.1789 66.6201L37.544 68.3578H38.9611Z" fill="black"/>
        <path d="M43.6156 69.932H43.045L42.3604 68.7876C42.2978 68.6811 42.2371 68.5911 42.1782 68.5158C42.1193 68.4405 42.0585 68.3799 41.9978 68.3321C41.9371 68.2843 41.869 68.2494 41.799 68.2274C41.7291 68.2053 41.6481 68.1943 41.5579 68.1943H41.1641V69.9302H40.6855V65.8505H41.9058C42.0843 65.8505 42.2499 65.8725 42.4009 65.9166C42.5518 65.9607 42.6825 66.0286 42.7947 66.1205C42.907 66.2123 42.9935 66.3244 43.0561 66.4603C43.1186 66.5962 43.1499 66.7542 43.1499 66.9361C43.1499 67.0775 43.1278 67.2079 43.0855 67.3273C43.0432 67.4467 42.9825 67.5514 42.9033 67.6451C42.8242 67.7388 42.7303 67.8178 42.618 67.8821C42.5058 67.9463 42.3825 67.9978 42.2426 68.0345V68.0455C42.3107 68.0768 42.3696 68.1098 42.4211 68.1502C42.4726 68.1907 42.5187 68.2347 42.5647 68.288C42.6107 68.3413 42.6548 68.4019 42.7009 68.468C42.7469 68.5342 42.7947 68.6131 42.8499 68.7031L43.6174 69.9302L43.6156 69.932ZM41.1622 66.284V67.7645H41.8119C41.9315 67.7645 42.042 67.7461 42.1432 67.7112C42.2444 67.6763 42.3328 67.6231 42.4064 67.5569C42.48 67.4908 42.5389 67.4063 42.5794 67.309C42.6199 67.2116 42.642 67.1014 42.642 66.9802C42.642 66.7616 42.572 66.5926 42.4303 66.4695C42.2886 66.3464 42.0843 66.2858 41.8156 66.2858H41.1604L41.1622 66.284Z" fill="black"/>
        <path d="M44.1768 69.932V65.8523H45.3399C45.6933 65.8523 45.9731 65.9386 46.181 66.1113C46.389 66.284 46.4921 66.5081 46.4921 66.7854C46.4921 67.0169 46.4295 67.2171 46.3043 67.3879C46.1792 67.5588 46.0062 67.68 45.7853 67.7516V67.7627C46.0614 67.7957 46.2823 67.8986 46.4461 68.0749C46.6099 68.2513 46.6945 68.479 46.6945 68.7601C46.6945 69.1091 46.5694 69.392 46.3191 69.6087C46.0688 69.8255 45.7522 69.9339 45.3694 69.9339H44.1768V69.932ZM44.6553 66.284V67.601H45.1448C45.408 67.601 45.6142 67.5386 45.7632 67.4118C45.9123 67.2851 45.9878 67.1087 45.9878 66.8791C45.9878 66.4823 45.7264 66.284 45.2037 66.284H44.6534H44.6553ZM44.6553 68.0308V69.4985H45.305C45.5866 69.4985 45.8037 69.4324 45.9602 69.3001C46.1166 69.1679 46.1921 68.986 46.1921 68.7546C46.1921 68.2733 45.8626 68.0327 45.2056 68.0327H44.6553V68.0308Z" fill="black"/>
        <path d="M49.6911 69.932H47.5249V65.8523H49.6009V66.284H48.0053V67.6414H49.4813V68.0712H48.0053V69.5003H49.693V69.932H49.6911Z" fill="black"/>
        <path d="M53.4085 69.932H52.838L52.1533 68.7876C52.0908 68.6811 52.03 68.5911 51.9711 68.5158C51.9122 68.4405 51.8515 68.3799 51.7908 68.3321C51.73 68.2843 51.6619 68.2494 51.592 68.2274C51.5221 68.2053 51.4411 68.1943 51.3509 68.1943H50.957V69.9302H50.4785V65.8505H51.6987C51.8773 65.8505 52.0429 65.8725 52.1938 65.9166C52.3448 65.9607 52.4754 66.0286 52.5877 66.1205C52.7 66.2123 52.7865 66.3244 52.849 66.4603C52.9116 66.5962 52.9429 66.7542 52.9429 66.9361C52.9429 67.0775 52.9208 67.2079 52.8785 67.3273C52.8362 67.4467 52.7754 67.5514 52.6963 67.6451C52.6171 67.7388 52.5233 67.8178 52.411 67.8821C52.2987 67.9463 52.1754 67.9978 52.0356 68.0345V68.0455C52.1037 68.0768 52.1625 68.1098 52.2141 68.1502C52.2656 68.1907 52.3116 68.2347 52.3576 68.288C52.4036 68.3413 52.4478 68.4019 52.4938 68.468C52.5398 68.5342 52.5877 68.6131 52.6429 68.7031L53.4104 69.9302L53.4085 69.932ZM50.9552 66.284V67.7645H51.6049C51.7245 67.7645 51.8349 67.7461 51.9362 67.7112C52.0374 67.6763 52.1257 67.6231 52.1994 67.5569C52.273 67.4908 52.3319 67.4063 52.3724 67.309C52.4128 67.2116 52.4349 67.1014 52.4349 66.9802C52.4349 66.7616 52.365 66.5926 52.2233 66.4695C52.0816 66.3464 51.8773 66.2858 51.6086 66.2858H50.9534L50.9552 66.284Z" fill="black"/>
        <path d="M53.7788 69.7667V69.2027C53.8432 69.2597 53.9205 69.3111 54.0107 69.357C54.1009 69.403 54.1966 69.4415 54.296 69.4728C54.3954 69.504 54.4966 69.5279 54.596 69.5462C54.6954 69.5646 54.7892 69.5719 54.8757 69.5719C55.1702 69.5719 55.3911 69.5168 55.5365 69.4085C55.6819 69.3001 55.7555 69.1421 55.7555 68.9382C55.7555 68.828 55.7315 68.7325 55.6819 68.6517C55.6322 68.5708 55.5659 68.4955 55.4812 68.4276C55.3966 68.3596 55.2953 68.2953 55.1776 68.2347C55.0598 68.1741 54.9346 68.108 54.8003 68.04C54.6586 67.9683 54.5242 67.8949 54.4009 67.8214C54.2776 67.7479 54.1708 67.6653 54.0788 67.5771C53.9868 67.4889 53.915 67.3861 53.8635 67.274C53.8119 67.162 53.7843 67.0297 53.7843 66.8772C53.7843 66.6917 53.8248 66.5301 53.9076 66.3923C53.9905 66.2545 54.0972 66.1406 54.2297 66.0525C54.3622 65.9643 54.515 65.8963 54.6843 65.8541C54.8536 65.8118 55.0285 65.788 55.2052 65.788C55.6082 65.788 55.9009 65.8357 56.0868 65.9331V66.4713C55.8456 66.3041 55.5365 66.2215 55.1573 66.2215C55.0524 66.2215 54.9475 66.2325 54.8444 66.2545C54.7414 66.2766 54.6475 66.3115 54.5647 66.3611C54.4819 66.4107 54.4156 66.4731 54.3659 66.5521C54.3162 66.6311 54.2886 66.7248 54.2886 66.8368C54.2886 66.9415 54.3089 67.0315 54.3475 67.1068C54.3862 67.1822 54.4432 67.252 54.5205 67.3144C54.5978 67.3769 54.6898 67.4375 54.7984 67.4963C54.907 67.5551 55.034 67.6193 55.1757 67.6891C55.323 67.7608 55.461 67.8379 55.5917 67.9169C55.7223 67.9959 55.8383 68.0841 55.9358 68.1814C56.0334 68.2788 56.1125 68.3853 56.1714 68.5029C56.2303 68.6204 56.2579 68.7545 56.2579 68.907C56.2579 69.1072 56.2193 69.278 56.1401 69.4176C56.061 69.5573 55.9542 69.6711 55.8217 69.7575C55.6892 69.8438 55.5328 69.9081 55.3579 69.9467C55.1831 69.9852 54.999 70.0054 54.8039 70.0054C54.7395 70.0054 54.6604 69.9999 54.5647 69.9889C54.469 69.9779 54.3733 69.9632 54.2739 69.943C54.1745 69.9228 54.0806 69.8989 53.9923 69.8695C53.904 69.8401 53.834 69.8071 53.7806 69.7722L53.7788 69.7667Z" fill="black"/>
        <path d="M60.145 69.932H59.6665V68.0712H57.5518V69.932H57.0732V65.8523H57.5518V67.6414H59.6665V65.8523H60.145V69.932Z" fill="black"/>
        <path d="M62.8651 69.9999C62.2854 69.9999 61.8216 69.8089 61.4719 69.4287C61.1222 69.0484 60.9492 68.5506 60.9492 67.9408C60.9492 67.285 61.1277 66.7615 61.483 66.3703C61.8382 65.979 62.3222 65.7843 62.9332 65.7843C63.4983 65.7843 63.9529 65.9735 64.297 66.3537C64.6412 66.734 64.8142 67.2299 64.8142 67.8416C64.8142 68.5066 64.6375 69.0337 64.2841 69.4213C63.9308 69.8089 63.4578 70.0018 62.8651 70.0018V69.9999ZM62.8983 66.216C62.4694 66.216 62.1198 66.3703 61.851 66.6789C61.5823 66.9875 61.4498 67.3934 61.4498 67.8967C61.4498 68.4 61.5805 68.8041 61.8418 69.1109C62.1032 69.4177 62.4437 69.5701 62.8633 69.5701C63.3124 69.5701 63.6657 69.4232 63.9234 69.1311C64.1811 68.839 64.3118 68.4294 64.3118 67.9041C64.3118 67.3787 64.1866 66.9489 63.9363 66.655C63.686 66.3611 63.34 66.2141 62.8983 66.2141V66.216Z" fill="black"/>
        <path d="M66.0967 68.389V69.932H65.6182V65.8523H66.7409C67.1789 65.8523 67.5175 65.9588 67.7568 66.1701C67.996 66.3813 68.1175 66.6826 68.1175 67.0702C68.1175 67.4577 67.9832 67.7737 67.7163 68.0198C67.4494 68.266 67.0887 68.389 66.6341 68.389H66.0948H66.0967ZM66.0967 66.284V67.9574H66.5991C66.9304 67.9574 67.1826 67.8821 67.3556 67.7314C67.5286 67.5808 67.6169 67.3677 67.6169 67.0922C67.6169 66.554 67.2985 66.284 66.6599 66.284H66.0985H66.0967Z" fill="black"/>
    </g>
    <defs>
        <clipPath id="clip0_314_93">
            <rect width="97" height="70" fill="white"/>
        </clipPath>
    </defs>
</svg>
