<svg width="175" height="160" viewBox="0 0 175 160" fill="none" xmlns="http://www.w3.org/2000/svg">
<g clip-path="url(#clip0_526_186)">
<path d="M142.217 105.173C142.217 105.173 144.241 103.858 143.674 101.975C143.107 100.099 142.266 96.0819 142.217 94.4618C142.168 92.8417 144.723 83.7079 145.936 82.4057C147.149 81.1035 152.326 74.2135 152.326 74.2135C152.326 74.2135 153.112 73.9261 151.655 71.1261C150.198 68.326 150.46 68.7295 149.71 67.3968C148.96 66.064 144.442 57.7617 144.442 57.7617C144.131 56.8752 142.162 52.5651 142.217 51.593C142.272 50.6209 141.607 47.9065 141.699 47.6436C141.79 47.3807 140.37 46.4025 140.016 45.6444C139.662 44.8863 137.406 41.8723 137.272 40.185C137.138 38.4976 135.858 35.7892 135.59 34.5482C135.321 33.3071 132.444 26.5149 132.444 24.6013C132.444 22.6877 131.913 18.2064 131.913 18.2064C131.913 18.2064 131.206 11.9889 131.249 10.5705C131.291 9.15213 131.913 6.52938 132.047 5.7774C132.181 5.02543 132.62 2.35988 132.535 1.91359C132.45 1.46729 130.541 1.4245 130.23 2.11534C129.919 2.80618 129.608 3.38086 129.255 4.44463C128.901 5.5084 127.353 11.1452 127.218 11.9461C127.084 12.747 126.334 16.9654 126.334 17.6745C126.334 18.3837 125.889 20.3401 125.889 20.3401C125.889 20.3401 125.048 21.0493 124.518 22.2903C123.987 23.5314 123.633 25.3105 123.323 26.1052C123.012 26.9 122.438 30.4093 122.438 30.4093C122.438 30.4093 122.042 33.1604 122.042 34.3159C122.042 35.4713 122.53 36.4006 122.042 36.9814C121.554 37.5622 120.847 38.1369 120.756 39.1151C120.664 40.0933 120.311 43.5108 120.268 44.7518C120.225 45.9929 119.738 49.2821 119.823 50.5659C119.908 51.8498 120.311 54.6926 120.311 54.6926C120.311 54.6926 119.201 57.2665 119.292 57.8901C119.384 58.5136 119.335 60.3294 119.561 61.3993C119.786 62.4692 121.42 68.1487 121.817 68.9924C122.213 69.8361 122.743 71.7191 122.792 72.0431C122.841 72.3671 121.908 71.658 121.951 73.1191C121.993 74.5803 122.981 77.8694 123.42 79.3795C123.859 80.8896 124.213 82.797 124.7 83.3289C125.188 83.8608 125.81 85.1936 126.292 85.8599C126.773 86.5263 127.529 88.1281 127.84 88.3482C128.151 88.5683 127.84 89.3692 128.109 90.5185C128.377 91.6679 128.731 92.8723 128.731 92.8723C128.731 92.8723 130.547 95.8924 130.986 97.0907C131.425 98.289 132.315 99.8846 133.065 100.777C133.815 101.67 136.035 102.996 136.961 103.663C137.888 104.329 139.565 105.65 140.193 105.613C140.821 105.576 141.918 105.613 141.918 105.613L142.217 105.161V105.173Z" fill="white"/>
<path d="M82.54 114.79C83.0461 116.728 85.2776 121.686 86.4421 122.658C87.6066 123.63 90.8014 125.764 91.4781 126.344C92.1549 126.925 103.782 133.73 104.269 134.017C104.757 134.304 110.47 136.145 110.86 136.78C111.25 137.416 120.109 140.626 120.109 140.626C120.109 140.626 130.718 143.347 131.785 143.444C132.852 143.542 141.522 142.57 143.491 141.836C145.46 141.103 153.277 138.566 154.063 137.606C154.85 136.646 160.977 132.642 162.05 131.119C163.117 129.597 166.3 126.724 166.708 124.523C167.117 122.322 167.257 119.84 167.184 117.81C167.11 115.78 166.763 112.766 163.367 111.397C159.971 110.027 156.093 107.832 152.831 109.862C149.57 111.892 148.612 113.812 145.918 115.725C143.217 117.645 144.119 118.715 140.016 120.121C135.913 121.527 137.992 123.165 129.95 123.275C121.908 123.385 119.774 124.235 115.22 122.713C110.665 121.191 109.763 121.081 105.94 120.066C102.117 119.051 101.05 118.146 96.8861 116.404C92.7219 114.661 87.0457 111.837 85.5824 111.666C84.1191 111.494 82.8266 114.765 82.8266 114.765L82.5522 114.784L82.54 114.79Z" fill="white"/>
<path d="M167.909 114.356C167.909 114.674 168.153 117.993 168.47 118.238C168.787 118.482 170.348 119.265 171.208 118.696C172.067 118.128 172.872 117.846 172.592 117.351C172.311 116.856 171.817 116.245 170.866 115.841C169.915 115.438 167.909 114.349 167.909 114.349V114.356Z" fill="white"/>
<path d="M123.517 116.122C123.517 116.122 114.683 105.167 116.506 95.764C116.506 95.764 115.622 79.2449 117.5 77.0746C119.377 74.9043 105.038 70.9487 104.172 65.9783C104.172 65.9783 99.9405 59.8036 100.032 59.3695C100.123 58.9354 82.7289 47.6374 82.1009 44.5317C82.1009 44.5317 73.4006 35.2084 73.5103 31.8826C73.5103 31.8826 70.5228 26.3803 70.7484 25.6039C70.7484 25.6039 68.7242 29.0887 71.4496 39.7264C71.4496 39.7264 68.395 40.0076 72.2605 53.5677C71.413 53.5126 71.2301 57.2542 77.2843 65.581C77.2843 65.581 75.0529 61.5643 75.0894 63.8141C75.126 66.0639 77.9306 72.2265 78.1867 72.6728C78.4427 73.1191 82.0155 80.1008 82.2777 80.3209C82.5399 80.541 84.1738 83.335 85.3201 84.2214C86.4663 85.1079 88.838 87.6023 89.3928 87.639C89.9476 87.6756 86.5212 85.866 86.3687 85.9027C86.2163 85.9394 85.82 85.9577 86.4846 87.3638C87.1491 88.77 89.2038 93.3002 90.6793 94.2172C92.1547 95.1343 91.5816 94.7797 92.612 95.8373C93.6424 96.895 93.4412 97.2435 93.5509 98.0933C93.6607 98.9431 95.6848 101.266 96.1665 101.731C96.6482 102.196 100.629 107.239 101.477 107.423C102.324 107.606 101.843 108.541 103.94 110.1C106.037 111.659 106.135 112.43 108.427 112.98C110.72 113.53 110.683 113.756 112.122 113.793C113.561 113.83 111.116 114.019 111.189 114.539C111.262 115.059 113.128 116.012 113.598 115.97C114.067 115.927 116.018 116.66 117.055 116.746C118.091 116.832 119.006 116.3 120.262 116.636C121.518 116.972 121.627 117.156 122.621 117.229C123.615 117.302 124.127 116.636 124.127 116.636L123.499 116.116L123.517 116.122Z" fill="white"/>
<path d="M13.1753 75.0021C16.7969 75.1611 19.9673 75.4362 23.0036 75.6257C28.9603 76.0048 35.2035 76.9096 41.0261 78.3279C48.2631 79.9114 54.6893 81.9167 61.3166 84.8084C61.8593 85.0652 62.0422 84.784 61.4873 84.4355C54.8661 79.5201 48.7265 74.0606 43.2514 67.892C37.6118 61.546 32.5574 54.766 28.503 47.2768C27.369 45.1798 26.3752 42.9972 25.3509 40.8391C25.0887 40.295 24.9119 39.702 24.7656 39.109C24.6802 38.7666 39.4774 51.3913 46.3792 55.3957C49.1167 56.9852 51.781 58.7093 54.549 60.2438C59.0669 62.7443 63.6822 65.0614 68.4013 67.1583C70.3828 68.0387 72.3582 68.9252 74.4494 69.5121C74.6018 69.5549 74.7603 69.5488 74.9189 69.561C74.8945 69.4204 74.8762 69.2798 74.8396 69.1392C74.4982 67.8431 74.2299 66.8893 73.9068 65.5932C73.3824 62.8605 74.1202 62.5731 74.0287 62.3958C71.5899 57.6149 70.1755 52.5039 69.0963 47.2829C68.5781 44.7763 68.45 42.2453 69.017 39.7203C69.2304 39.3535 69.4255 37.2749 69.2487 36.1989C68.9927 33.0748 68.8585 30.6538 69.017 27.9393C69.1573 26.5332 69.3707 25.3961 69.8645 24.1C70.3523 22.8406 71.6631 24.2712 71.7424 25.0293C72.0228 27.7865 73.1934 30.2564 74.3519 32.7447C77.0223 38.5037 80.9731 43.2846 85.7531 47.3501C90.1734 51.11 94.7948 54.6193 99.3127 58.2691C99.8126 58.6726 100.343 59.18 100.569 59.7547C102.568 64.7496 106.361 68.1243 110.629 71.0649C112.397 72.2816 114.214 73.4248 116.018 74.5803C117.439 75.4912 117.957 76.5856 117.683 78.2729C117.549 79.1166 117.402 79.9603 117.232 80.7979C116.5 84.411 116.323 88.0609 116.433 91.7352C116.445 92.1815 116.555 92.3221 117.043 92.3832C121.06 92.9029 125.029 93.6121 128.608 95.6907C128.669 95.7274 128.742 95.7518 128.803 95.7946C129.456 96.2226 129.078 95.6234 129.035 95.5317C128.651 94.688 128.34 94.2356 128.023 93.3675C127.73 92.5727 127.371 91.3745 127.255 90.5369C127.2 90.1517 127.2 89.3936 127.444 89.0757C127.73 88.7089 127.645 88.5377 127.413 88.2259C123.597 83.1149 121.969 78.0467 121.542 73.9873C121.499 73.4126 121.268 72.2082 121.719 71.8108C121.865 71.5479 121.652 71.0283 121.487 70.6737C120.438 68.3566 119.987 66.5653 119.414 64.0832C118.951 62.084 118.597 60.0604 118.628 57.994C118.634 57.6211 118.658 56.5512 118.853 55.7992C119.067 54.9555 119.463 54.4236 119.628 54.0935C119.695 53.9529 119.719 53.7267 119.689 53.5494C119.225 50.6209 119.067 47.6681 119.213 44.7091C119.353 41.9518 119.731 39.219 120.627 36.584C120.658 36.4923 120.67 36.3884 120.725 36.3089C121.676 34.8906 121.573 33.2582 121.658 31.6626C122.03 24.4974 124.261 19.5392 125.548 18.6833C125.706 18.5243 125.767 18.2126 125.785 17.968C126.023 15.0946 126.279 12.2273 126.926 9.40891C127.468 7.03682 128.334 4.79312 129.566 2.69614C130.139 1.72407 130.822 0.837593 131.803 0.220116C132.199 -0.0305436 132.602 -0.15893 133.029 0.140638C133.547 0.507457 132.724 6.27873 132.602 8.64471C132.462 11.4203 132.407 14.2142 132.474 16.9959C132.559 20.5969 133.309 24.1183 134.12 27.6214C135.126 31.9805 136.479 36.2294 138.363 40.295C139.552 42.8505 141.052 45.2226 142.875 47.3746C143.308 47.882 143.412 48.3467 143.253 49.0375C143.089 49.7711 143.162 50.5965 143.265 51.3607C143.723 54.7232 144.973 57.8167 146.661 60.7268C148.484 63.8692 150.417 66.9505 152.301 70.0623C152.417 70.2518 152.514 70.4475 152.636 70.6248C153.655 72.0554 153.496 73.4982 152.569 74.8554C151.667 76.1821 150.661 77.4476 149.673 78.7131C146.6 82.6625 144.473 87.046 143.4 91.9553C142.778 94.8164 143.156 97.5859 143.924 100.343C144.027 100.722 144.223 100.643 144.454 100.539C145.948 99.8663 147.545 99.5973 149.143 99.4017C153.99 98.8148 158.331 100.05 162.184 103.088C164.001 104.525 165.33 106.328 166.501 108.291C167.415 109.819 168.293 111.342 168.513 113.163C168.543 113.42 168.811 113.708 169.049 113.873C170.842 115.138 172.659 116.367 174.457 117.626C175.213 118.158 175.189 119.008 174.372 119.448C173.671 119.827 172.927 120.115 172.195 120.439C171.019 120.958 169.836 121.46 168.671 121.998C168.531 122.065 168.421 122.279 168.36 122.444C168.074 123.239 167.897 124.095 167.513 124.834C165.976 127.763 164.178 130.514 161.77 132.819C156.313 138.034 149.917 141.488 142.546 143.077C140.979 143.414 139.369 143.579 137.784 143.823C135.461 144.172 133.126 144.123 130.809 143.94C126.926 143.64 123.139 142.821 119.408 141.696C112.189 139.513 105.513 136.145 98.9834 132.428C93.734 129.438 88.9052 125.855 84.0521 122.285C82.6437 121.246 75.2664 115.291 73.6446 113.848C73.7909 111.849 63.9505 105.797 54.9453 100.514C51.6774 98.4785 36.5936 89.9744 31.6002 87.7796C25.674 85.1813 19.7356 82.6197 13.7728 80.1192C10.8341 78.8843 0.201069 76.1759 0.0425487 76.0231C-0.652501 75.3567 11.4133 74.9838 13.1875 74.9838L13.1753 75.0021ZM108.738 113.604C106.403 112.791 104.196 111.727 102.264 110.162C101.312 109.391 100.3 108.597 99.8553 107.447C99.2029 106.041 98.1542 105.35 96.9836 104.341C96.7946 104.231 96.63 104.079 96.4593 103.944C93.9474 101.92 92.4414 99.9213 91.5939 96.7422C91.5391 96.5283 90.6367 95.7885 90.4721 95.6173C89.649 94.7859 89.0576 94.1317 88.3016 93.2452C86.4664 91.0871 85.0398 88.6906 84.302 85.9211C84.4788 84.4966 83.4972 83.6835 82.668 82.7787C82.5339 82.632 82.412 82.4791 82.29 82.3324C79.6074 79.0738 77.7174 76.1943 76.0712 72.2938C75.937 71.982 75.6322 71.823 75.2786 71.713C73.6812 71.1933 71.8887 70.6187 70.3462 69.9645C64.8955 67.6597 59.3839 65.1531 54.2076 62.2797C50.6287 60.2927 46.7877 57.8778 43.2941 55.7442C38.88 53.0419 35.0999 50.5231 31.3929 46.8672C30.4052 45.889 29.1127 44.5807 29.0273 44.5379C29.0517 44.6296 29.0578 44.7274 29.1005 44.8069C29.6492 45.8951 29.4053 45.4549 29.9967 46.5248C33.7402 53.2804 38.2703 59.4857 43.3368 65.2814C50.6165 73.6205 58.9327 80.7856 68.2427 86.777C68.4683 86.9237 70.145 88.5255 69.7182 88.8923C68.9134 89.0818 69.6999 89.2836 61.908 86.8932C55.2014 84.4538 47.9156 81.7516 41.0565 80.3455C38.1849 79.6974 32.4721 78.5725 29.5639 78.1629C22.4853 77.4292 10.261 76.6956 9.37084 76.7201C8.88309 76.7078 9.93176 77.0013 10.0354 77.038C11.7791 77.6432 13.4619 77.8817 15.1568 78.6031C21.4245 81.2686 27.6738 83.977 33.9049 86.7281C38.8495 88.9107 43.727 91.2461 48.3302 94.095C52.3481 96.5772 56.305 99.1693 60.3106 101.682C67.127 105.962 73.4129 110.926 79.2721 116.44C79.711 116.856 80.1012 117.345 80.589 117.688C81.8815 118.598 83.2168 119.454 84.5337 120.329C84.6922 120.433 84.8568 120.53 85.0215 120.628C84.9544 120.439 84.9239 120.231 84.8203 120.066C83.546 118.012 82.6071 115.829 82.2656 113.42C82.1498 112.625 82.0949 111.818 82.0705 111.018C82.0584 110.584 82.2596 110.204 82.7412 110.088C83.2351 109.972 83.5277 110.211 83.7106 110.645C83.7411 110.712 83.7777 110.773 83.8082 110.84C84.93 113.439 86.6493 115.621 88.5516 117.675C94.3132 123.899 101.27 128.282 109.165 131.272C112.701 132.611 116.329 132.88 120.018 132.342C124.615 131.669 128.999 130.318 133.01 127.897C136.412 125.843 139.662 123.587 142.515 120.806C144.192 119.173 145.771 117.443 147.381 115.737C149.533 113.457 152.088 111.855 155.063 110.889C159.343 109.495 164.842 110.816 166.885 114.735C166.94 114.832 167.031 114.912 167.104 114.998C167.129 114.869 167.19 114.741 167.171 114.618C166.867 112.68 166.367 110.828 165.3 109.122C163.958 106.976 162.568 104.916 160.447 103.437C157.721 101.541 154.795 100.288 151.411 100.404C150.368 100.441 149.314 100.404 148.295 100.588C147.119 100.802 145.979 101.211 144.826 101.554C144.503 101.651 144.314 101.847 144.345 102.257C144.454 103.907 143.607 105.161 142.515 106.249C141.766 107.001 140.936 107.099 140.107 106.64C139.467 106.286 138.839 105.913 138.242 105.497C135.912 103.859 133.876 101.902 132.041 99.7318C131.7 99.3283 131.193 98.9554 130.87 98.6375C129.078 97.0112 128.054 96.302 126.279 95.5745C122.902 94.2234 119.676 93.5081 117.006 93.4409C116.5 93.5815 116.439 93.4531 116.512 94.2112C117.018 99.9825 118.616 105.362 121.335 110.467C122.146 111.996 122.944 113.53 123.78 115.046C124.566 116.899 123.926 118.183 122.042 118.189C121.487 118.189 120.877 118.036 120.347 117.889C119.256 117.584 118.158 117.455 117.024 117.486C116.171 117.51 115.311 117.547 114.47 117.437C112.153 117.131 110.116 116.343 109.104 113.964M111.763 114.441C111.677 114.441 111.592 114.478 111.507 114.502C111.549 114.588 111.567 114.704 111.628 114.747C112.11 115.083 113.415 116.385 117 116.184C118.323 116.11 119.786 116.288 121.054 116.703C121.377 116.807 121.719 116.881 122.054 116.887C122.749 116.887 122.957 116.587 122.646 115.97C122.17 115.01 121.652 114.074 121.134 113.133C119.646 110.437 118.341 107.661 117.347 104.739C116.067 100.997 115.396 97.1396 115.152 93.1963C114.909 89.2041 115.006 85.2364 115.738 81.2992C115.976 80.0275 116.177 78.7498 116.354 77.472C116.445 76.8057 116.165 76.286 115.561 75.9559C115.287 75.803 115.031 75.6135 114.762 75.4423C111.994 73.6999 109.232 71.9575 106.714 69.8606C104.282 67.8308 102.05 65.6299 100.569 62.7749C100.3 62.2552 100.05 61.7233 99.7821 61.2037C99.7211 61.0814 99.6236 60.9713 99.5443 60.8613C99.5017 61.0141 99.4346 61.1609 99.4163 61.3137C99.398 61.5093 99.398 61.705 99.4163 61.9006C99.6358 63.8631 100.166 65.7339 101.075 67.4824C102.331 69.8911 103.733 72.2265 105.525 74.2624C107.214 76.1821 109.062 77.9672 110.915 79.728C111.763 80.535 112.134 80.9201 111.988 82.0573C111.574 85.377 111.689 89.1613 112.098 92.4749C112.512 100.031 118.487 112.717 117.799 111.708C117.5 111.274 114.238 105.24 113.415 102.734C112.226 99.1021 110.939 95.3544 110.525 91.5579C110.226 88.8312 110.147 86.0984 110.403 83.3595C110.622 80.9996 110.769 81.5743 109.208 80.162C106.409 77.6249 103.873 74.8799 101.849 71.6702C100.337 69.2675 98.9102 66.8343 98.3006 64.0098C97.9896 62.5609 97.7396 61.1303 98.1969 59.6752C98.3188 59.284 98.1055 59.0944 97.8372 58.8927C95.9898 57.456 94.1486 56.0132 92.3012 54.5704C88.5089 51.6114 84.7715 48.5973 81.406 45.1431C77.1991 40.8208 73.9495 35.8871 71.8155 30.232C71.4314 29.211 71.1754 28.135 70.8522 27.0896C70.7973 26.9061 70.7242 26.7288 70.6632 26.5516C70.6205 26.7227 70.5474 26.8878 70.5352 27.059C70.462 28.08 70.3035 29.1071 70.3584 30.128C70.5474 33.5517 71.0656 36.9325 71.9862 40.2339C74.364 48.7502 85.0398 66.3024 84.6435 65.9906C83.924 65.6116 75.4798 53.2315 72.474 46.7143C71.8582 45.1248 71.3461 43.4924 70.7851 41.8846C70.7486 41.7867 70.6632 41.7134 70.6022 41.6217C70.5779 41.7134 70.5413 41.8112 70.5413 41.9029C70.5291 42.6365 70.4498 43.3763 70.5291 44.0977C71.1693 49.7222 72.6508 55.1328 75.053 60.2377C75.3944 63.5819 86.1433 77.9611 88.4906 79.893C88.1309 79.8136 86.1799 78.01 85.7043 77.4904C82.3205 73.7611 78.9672 69.8178 76.1565 65.526C76.0224 65.3059 75.4554 64.1749 75.5164 64.3889C75.5286 64.6579 75.7237 65.4404 75.7359 65.7094C75.7359 65.7339 75.748 65.7583 75.7541 65.7828C77.3698 72.1226 80.3512 77.7472 84.6922 82.6197C88.5882 87.7246 99.2334 94.0645 98.7091 94.2051C98.5018 94.5658 90.0148 89.9867 86.9603 87.1438C86.8505 87.0399 86.6981 86.9788 86.5701 86.8993C86.6067 87.0582 86.6249 87.2294 86.6859 87.3761C87.887 90.2373 89.6124 92.7378 91.9902 94.7308C95.5143 98.5274 106.031 103.651 106.208 103.803C106.019 104.286 96.1179 99.6768 94.4595 98.6497C94.3254 98.5702 93.9778 98.2523 93.8315 98.1912C93.8864 98.344 93.7827 99.3956 96.2642 101.651C99.7638 105.081 103.983 108.456 108.812 109.208C108.958 109.452 105.196 108.817 102.885 107.863C102.593 107.741 102.27 107.68 101.965 107.594C102.16 107.838 102.331 108.114 102.556 108.328C106.062 111.586 110.208 113.64 115.049 113.206C115.713 113.145 112.171 114.49 111.756 114.46L111.763 114.441ZM146.155 74.5925C145.857 75.2589 145.527 75.9131 145.174 76.555C143.204 80.1437 141.711 83.9219 140.784 87.9202C140.546 88.9412 139.857 92.212 139.626 92.4994C139.357 92.8356 139.119 87.6635 142.515 78.597C143.204 77.1174 143.997 75.6869 144.747 74.2318C145.04 73.6632 144.997 73.1558 144.668 72.5811C143.814 71.0772 142.93 69.5732 142.247 67.9898C140.199 63.2578 138.79 58.3914 139.534 53.1398C139.79 51.324 139.918 50.0401 140.918 48.4445C141.138 48.096 140.778 47.9126 140.601 47.6864C138.485 45.0331 137.089 41.5666 135.858 38.4181C133.071 31.3202 131.187 23.9961 130.718 16.3479C130.517 13.071 130.687 9.80019 131.017 6.54162C131.157 5.15993 131.407 3.79048 131.602 2.41491C131.614 2.32321 131.602 2.22539 131.59 2.12757C131.498 2.18871 131.382 2.22539 131.328 2.31098C131.114 2.61055 130.901 2.91012 130.724 3.22803C129.858 4.73809 129.181 6.32764 128.706 8.00278C127.913 10.8151 127.572 13.6946 127.365 16.5986C127.084 20.4868 127.206 24.3568 127.779 28.2206C128.474 32.8731 131.443 43.3335 131.242 43.3885C130.992 43.4558 130.09 41.4505 129.907 40.9431C127.712 34.7866 125.846 28.5935 125.627 22.0519C125.615 21.7034 125.572 21.3488 125.542 21.0004C125.377 21.3427 125.17 21.6668 125.042 22.0213C123.475 26.4171 122.847 30.9595 123.072 35.6059C123.164 37.4338 123.377 39.2618 123.676 41.0653C124.426 45.5589 125.426 49.9668 127.09 54.1974C127.163 54.3808 127.608 55.3529 127.249 55.5119C127.011 55.2184 122.408 44.3178 121.707 38.8828C121.682 38.6932 121.652 38.4976 121.627 38.3081C121.548 38.5037 121.444 38.6932 121.402 38.9011C120.457 43.2724 120.445 47.6803 121.03 52.0943C121.384 59.6508 127.432 69.3837 127.456 69.6955C127.487 70.1112 121.682 61.5032 120.493 57.3582C120.432 57.132 120.323 56.9241 120.231 56.7101C120.189 56.9363 120.109 57.1564 120.103 57.3826C120.048 60.0726 121.176 65.0858 121.89 67.6597C123.353 72.9357 129.444 81.0913 129.267 81.2503C129.657 81.9289 126.298 78.4808 125.676 77.4292C124.712 76.231 123.7 74.7882 122.944 73.5349C122.889 73.4493 122.786 73.3942 122.7 73.3209C122.688 73.4126 122.652 73.5104 122.664 73.6021C122.743 74.0606 122.804 74.5192 122.92 74.9655C124.792 82.1551 128.182 88.6722 133.809 93.4898C134.62 94.199 134.937 94.3579 135.315 94.6758C135.15 95.0671 130.468 91.4784 129.133 90.164C129.035 90.0661 128.913 89.9928 128.803 89.9133C128.767 90.0661 128.669 90.2312 128.706 90.3596C128.901 91.0382 129.084 91.7229 129.364 92.371C131.291 96.8523 134.352 100.441 138.138 103.437C138.918 104.054 139.778 104.574 140.625 105.093C140.808 105.21 141.168 105.228 141.351 105.124C142.247 104.623 142.912 102.935 142.656 101.914C142.473 101.181 142.272 100.453 142.07 99.7257C141.223 96.7361 141.07 93.7404 141.79 90.6836C143.009 85.5054 145.363 80.9018 148.673 76.769C149.539 75.6869 150.368 74.562 151.155 73.4187C151.685 72.6545 151.661 71.8597 151.143 71.0283C149.222 67.9409 147.314 64.8474 145.472 61.7111C143.582 58.4953 142.137 55.0961 141.546 51.379C141.534 51.2996 141.479 51.2201 141.442 51.1406C141.381 51.2568 141.29 51.3729 141.266 51.5013C140.662 54.3319 140.589 57.1564 141.174 60.0115C142.052 64.2666 143.613 68.2343 145.899 71.9209C146.174 72.361 146.68 73.3514 146.137 74.6047L146.155 74.5925ZM133.961 142.124C135.12 142.05 136.29 142.02 137.443 141.891C138.9 141.732 140.375 141.586 141.802 141.268C147.509 140.015 152.685 137.575 157.325 134.023C161.02 131.193 164.013 127.787 165.915 123.471C166.617 121.875 166.885 120.286 166.586 118.562C166.19 116.269 165.294 114.288 163.196 113.102C160.934 111.825 158.514 111.562 155.996 112.216C152.899 113.023 150.35 114.71 148.228 117.076C145.149 120.512 141.9 123.765 138.083 126.399C135.559 128.142 132.998 129.823 130.181 131.052C126.554 132.635 122.774 133.614 118.835 134.005C115.622 134.323 112.488 134.035 109.409 132.996C105.855 131.804 102.556 130.11 99.3127 128.258C93.6669 125.036 88.9357 120.769 84.8995 115.695C84.7105 115.456 84.4971 115.23 84.2898 114.998C84.3569 115.297 84.3935 115.609 84.4971 115.896C85.2105 117.944 86.3872 119.748 87.5517 121.551C88.5272 123.068 89.838 124.254 91.3074 125.293C94.4351 127.5 97.7031 129.487 101.026 131.376C106.324 134.39 111.756 137.092 117.549 139.042C122.877 140.834 128.291 142.112 133.961 142.105V142.124ZM168.885 116.214C168.885 116.214 168.915 116.214 168.927 116.22C168.927 116.416 168.927 116.612 168.927 116.801C168.94 117.186 169.159 117.296 169.507 117.26C169.958 117.205 170.409 117.168 170.866 117.119C170.982 117.107 171.092 117.082 171.208 117.064C171.122 116.96 171.049 116.832 170.939 116.758C170.513 116.44 170.074 116.135 169.635 115.835C169.439 115.701 169.226 115.597 169.019 115.474C168.97 115.719 168.927 115.97 168.879 116.214H168.885Z" fill="#231300"/>
<path d="M109.33 113.292C106.946 112.46 104.77 112.008 102.794 110.406C101.825 109.618 100.788 108.811 100.337 107.637C99.6725 106.206 98.5995 105.497 97.4045 104.464C97.2155 104.354 97.0448 104.195 96.868 104.054C94.3011 101.988 92.7647 99.9458 91.9051 96.6995C91.8502 96.4794 90.9295 95.7213 90.7588 95.5501C89.9175 94.7003 89.3139 94.0339 88.5456 93.1291C86.6739 90.9282 85.2167 88.4766 84.4607 85.6521C84.6375 84.2032 83.6376 83.3656 82.7962 82.4486C82.6621 82.3018 82.5402 82.1429 82.4121 81.99C79.6746 78.6642 77.7419 75.7236 76.0652 71.7436C75.9311 71.4257 75.6141 71.2667 75.2605 71.1506C73.6326 70.6248 71.8035 70.0318 70.2305 69.3654C64.664 67.0116 59.0426 64.45 53.7566 61.5155C50.1045 59.4857 46.1781 57.0219 42.6175 54.8394C38.1119 52.0821 34.2525 49.5144 30.4663 45.779C29.4543 44.7824 28.1373 43.4436 28.052 43.4008C28.0764 43.4925 28.0825 43.5903 28.1251 43.6759C28.686 44.7886 28.4361 44.3423 29.0397 45.4305C32.8624 52.3267 37.49 58.6604 42.6602 64.5845C50.0923 73.0947 58.2195 80.645 67.7247 86.7587C67.9563 86.9054 70.0293 88.3115 69.5903 88.6845C68.7672 88.8801 69.5659 89.0819 61.6155 86.6425C54.7687 84.1543 47.3304 81.397 40.3251 79.9542C37.3925 79.2939 31.5638 78.1446 28.5946 77.7288C21.3636 76.983 8.88933 76.231 7.98089 76.2554C7.48704 76.2432 8.554 76.5428 8.65765 76.5795C10.438 77.1969 12.1512 77.4415 13.8827 78.1751C20.2784 80.8957 26.6619 83.6652 33.021 86.4713C38.0692 88.6967 43.0504 91.0871 47.7511 93.9911C51.8544 96.5283 55.8966 99.1694 59.9816 101.737C66.9381 106.108 73.3582 111.177 79.3393 116.801C79.7905 117.223 80.1868 117.724 80.6867 118.073C82.0097 119.002 83.3694 119.876 84.7168 120.769C84.8814 120.879 85.7715 121.955 85.9362 122.053C85.8691 121.863 85.1131 120.671 85.0094 120.5C85.5216 117.957 83.0218 116.11 82.3999 113.714C82.2841 112.901 82.2231 112.081 82.1988 111.256C82.1866 110.81 82.3878 110.425 82.8816 110.308C83.3816 110.192 83.6864 110.437 83.8693 110.877C83.8998 110.944 83.9425 111.005 83.9669 111.073C85.107 113.726 86.869 115.951 88.8139 118.048C94.6974 124.4 101.8 128.876 109.854 131.926C113.464 133.296 117.165 133.565 120.933 133.014C125.627 132.33 130.096 130.948 134.199 128.472C137.675 126.375 140.991 124.07 143.906 121.233C145.619 119.571 147.229 117.798 148.869 116.061C151.064 113.738 153.679 112.1 156.715 111.115C161.081 109.697 166.013 112.546 168.098 116.55C168.153 116.654 168.269 115.743 168.348 115.835C168.373 115.707 168.513 115.291 168.495 115.169C168.184 113.188 167.812 111.464 166.72 109.722C165.349 107.533 164.385 105.026 162.221 103.516C159.441 101.578 156.807 99.848 153.356 99.9641C152.295 100.001 150.881 99.9458 149.838 100.135C148.637 100.355 147.552 100.496 146.375 100.844C146.046 100.942 144.333 101.15 144.357 101.566C143.839 103.149 144.375 103.803 143.259 104.916C142.491 105.68 142.772 106.072 141.93 105.607C141.875 105.32 140.949 104.317 140.339 103.889C138.443 102.257 137.845 102.024 136.169 100.765C135.779 100.472 135.413 100.141 135.053 99.8113C134.047 98.8698 132.139 97.6593 131.547 97.3475C129.712 95.6846 128.926 95.5562 127.109 94.8164C126.097 94.4129 125.127 94.1012 124.194 93.8627C121.945 93.288 119.902 93.1291 117.975 93.0802C117.457 93.2269 115.823 92.8723 115.896 93.6426C116.409 99.5301 118.725 106.053 121.5 111.262C122.329 112.821 122.92 114.209 123.774 115.756C123.627 117.902 124.03 117.694 122.146 117.694C121.695 117.694 121.243 117.645 120.811 117.529C119.603 117.205 118.378 116.96 117.128 117.095C116.488 117.162 115.848 117.18 115.214 117.095C112.799 116.771 110.86 116.722 109.818 114.264" fill="#231300"/>
<path d="M160.337 116.838C159.928 116.398 159.27 116.312 158.575 116.624C158.111 116.832 157.666 117.095 157.203 117.309C155.941 117.883 154.654 117.957 153.392 117.37C151.246 116.373 149.673 114.753 148.832 112.546C147.929 110.168 147.484 107.674 147.71 105.1C147.631 104.103 147.6 103.107 147.466 102.116C147.186 100.093 146.863 98.0995 145.759 96.2777C144.558 94.2907 143.454 92.261 141.631 90.7448C140.577 89.8645 139.54 88.9841 138.248 88.4767C134.791 87.1195 131.26 87.0583 127.73 88.0548C125.145 88.7824 122.688 89.8156 120.585 91.5946C118.908 93.013 117.591 94.7248 116.341 96.4917C116.354 96.6384 116.384 96.834 116.469 97.0725C116.805 97.9956 116.835 99.359 117.055 100.325C117.414 101.914 117.853 103.48 118.176 105.081C118.817 108.26 119.713 111.226 121.359 113.928C121.737 114.288 122.127 114.637 122.548 114.967C125.401 117.223 127.462 114.979 130.303 117.382C130.95 117.926 134.047 118.525 135.888 118.128C140.388 117.156 141.217 115.713 142.229 115.371C143.149 115.059 143.363 114.93 143.991 115.297C144.863 115.811 145.411 116.618 146.033 117.364C147.198 118.758 148.789 119.992 150.356 120.934C152.545 122.248 155.118 122.126 156.971 121.613C158.617 121.154 160.361 119.43 160.666 118.678C160.94 118.006 160.843 117.382 160.343 116.844L160.337 116.838ZM143.979 107.606C143.564 109.153 142.18 110.877 141.156 112.039C139.01 114.484 135.394 115.389 132.388 115.78C129.425 116.165 126.279 114.985 124.066 113.243C122.024 111.635 119.963 108.083 119.445 105.485C118.719 101.853 119.731 98.5642 121.792 95.4218C122.67 94.0829 124.31 93.3982 125.316 92.1754C126.804 90.3658 130.035 90.1151 132.443 90.2863C134.382 90.4269 136.699 90.6715 138.284 91.8331C139.699 92.8663 142.247 94.4008 143.046 96.0026C143.643 97.2008 144.533 99.0227 144.662 100.392C144.759 101.431 145.137 102.666 145.235 103.706C145.247 104.971 144.302 106.39 143.979 107.6V107.606Z" fill="#F77962"/>
<path d="M125.938 128.802C123.865 125.305 120.701 123.147 117.043 121.649C114.963 120.799 112.775 120.353 110.555 119.986C106.903 119.381 103.733 117.792 101.099 115.144C96.7946 110.816 92.478 106.512 88.1614 102.196C87.2469 101.279 86.3323 100.368 85.4239 99.4445C85.3385 99.3589 85.2836 99.255 85.2105 99.1572C85.3446 99.1572 85.4787 99.1449 85.6129 99.1449C85.686 99.1449 85.7531 99.1755 85.8263 99.1938C88.198 99.7746 90.5636 100.362 92.9353 100.942C92.539 100.325 92.2463 99.6463 92.0207 98.9554C91.8988 98.5825 91.2099 96.5711 91.594 97.0296C90.7221 95.9903 89.6186 95.3545 88.6431 94.4619C85.8202 93.8994 82.9973 93.3431 80.1866 92.7256C79.3452 92.5422 78.4368 92.4688 77.7418 91.7658C65.3284 79.3001 52.8907 66.8649 40.4835 54.3931C35.4108 49.2943 25.4728 39.5492 25.2899 39.6592C25.107 39.7693 30.8381 47.2952 33.9963 50.7922C44.2879 62.188 54.5551 73.596 64.8346 84.998C65.8954 86.1718 67.0051 87.2967 68.0598 88.4766C68.7854 89.2959 69.4255 90.1885 70.1572 91.0016C72.0106 93.0619 73.9007 95.0916 75.7724 97.1397C76.8577 98.3318 77.9247 99.5362 79.0038 100.734C85.4056 107.845 91.8013 114.961 98.2213 122.047C99.1237 123.043 99.5139 124.15 99.4407 125.452C99.3249 127.457 98.8676 129.395 98.325 131.333C96.8678 136.536 97.2824 141.512 100.489 146.012C103.276 149.919 106.983 152.327 111.866 152.658C112.22 152.682 112.366 152.817 112.488 153.128C113.11 154.675 112.866 156.087 111.897 157.414C111.696 157.689 111.5 157.976 111.385 158.288C111.037 159.23 111.549 159.988 112.543 159.988C113.445 159.988 114.268 159.731 114.921 159.065C116.719 157.243 117.28 155.091 116.61 152.627C116.53 152.34 116.451 152.175 116.866 152.052C118.835 151.472 120.603 150.561 122.298 149.332C124.194 147.956 125.523 146.208 126.505 144.184C127.962 141.17 128.304 137.936 127.895 134.628C127.639 132.556 127.029 130.593 125.956 128.79L125.938 128.802ZM79.0343 97.5982C78.1563 97.8183 77.2296 96.889 77.1321 95.6479C77.065 94.8409 77.943 94.0951 78.9672 94.0584C79.833 94.0278 80.8024 94.7615 80.8451 95.4951C80.9183 96.6628 80.15 97.5615 79.0343 97.5982ZM123.963 143.285C122.658 146.795 119.963 148.366 116.25 149.032C115.055 149.246 113.683 149.668 112.555 149.479C110.671 149.57 109.238 149.075 107.653 148.244C104.166 146.422 100.782 143.86 100.154 139.782C100.002 138.798 99.9467 137.484 100.13 136.469C100.3 135.484 100.63 133.436 100.91 132.489C102.05 128.692 104.751 125.984 108.519 124.706C109.677 124.315 111.189 123.954 112.403 123.807C113.445 123.679 115.537 123.954 116.555 124.351C117.89 124.871 120.231 125.953 121.396 126.895C123.56 128.643 124.566 131.596 125.438 134.256C126.42 137.251 125.06 140.351 123.969 143.285H123.963Z" fill="#F77962"/>
<path d="M66.0844 90.2373C65.7125 89.7605 65.2308 89.5771 64.6882 89.4548C62.2372 88.9107 59.7802 88.3727 57.3292 87.8163C54.4697 87.1683 51.6103 86.5019 48.7508 85.8416C45.8914 85.1813 43.0319 84.5211 40.1725 83.8669C37.313 83.2128 34.4535 82.5586 31.6002 81.9044C28.9846 81.3053 26.369 80.6939 23.7534 80.0948C20.9245 79.4406 18.0894 78.7987 15.2604 78.1445C12.3827 77.4843 2.28008 75.4912 2.15814 75.907C2.02401 76.3594 16.7237 80.7979 23.5827 82.6992C31.1368 84.7962 38.6909 86.8993 46.245 88.9901C54.0369 91.1483 61.8287 93.3003 69.6267 95.4461C69.7852 95.4889 69.9559 95.5012 70.1205 95.5256C70.0535 95.3728 70.0108 95.1955 69.9132 95.0671C68.639 93.4531 67.3525 91.8574 66.0905 90.2312L66.0844 90.2373Z" fill="#F77962"/>
<path d="M112.89 150.915C120.672 150.915 126.98 144.59 126.98 136.787C126.98 128.984 120.672 122.658 112.89 122.658C105.109 122.658 98.8003 128.984 98.8003 136.787C98.8003 144.59 105.109 150.915 112.89 150.915Z" stroke="#F77962" stroke-width="5" stroke-miterlimit="10"/>
<path d="M132.291 117.046C140.072 117.046 146.381 110.72 146.381 102.917C146.381 95.114 140.072 88.7885 132.291 88.7885C124.509 88.7885 118.201 95.114 118.201 102.917C118.201 110.72 124.509 117.046 132.291 117.046Z" stroke="#F77962" stroke-width="5" stroke-miterlimit="10"/>
<path d="M115.817 87.5901C115.817 87.5901 115.037 107.478 123.572 116.783" stroke="#231300" stroke-width="2" stroke-miterlimit="10"/>
<path d="M78.9854 97.5553C79.8373 97.5553 80.5279 96.8628 80.5279 96.0085C80.5279 95.1543 79.8373 94.4618 78.9854 94.4618C78.1335 94.4618 77.4429 95.1543 77.4429 96.0085C77.4429 96.8628 78.1335 97.5553 78.9854 97.5553Z" fill="#231300" stroke="#231300" stroke-width="2" stroke-miterlimit="10"/>
<path d="M115.134 96.9318C115.177 97.1763 117.213 109.043 120.487 114.16" stroke="white" stroke-miterlimit="10"/>
<path d="M124.146 94.1256C124.146 94.1256 132.718 96.1064 139.973 102.917C139.973 102.917 143.601 100.759 144.381 100.973C145.162 101.187 143.735 106.909 143.735 106.909C143.735 106.909 137.601 109.031 137.169 108.859C136.736 108.688 130.297 102.446 129.523 101.279C128.749 100.111 124.152 94.1317 124.152 94.1317L124.146 94.1256Z" fill="#231300"/>
</g>
<defs>
<clipPath id="clip0_526_186">
<rect width="175" height="160" fill="white"/>
</clipPath>
</defs>
</svg>
