<svg width="704" height="519" viewBox="0 0 704 519" fill="none" xmlns="http://www.w3.org/2000/svg">
    <path d="M536.207 460.912C547.947 460.771 556.283 456.393 562.923 448.689C569.844 440.659 572.961 431.073 573.54 420.648C574.268 407.523 571.547 395.289 562.725 385.109C553.948 374.979 542.747 370.94 529.609 374.061C520.001 376.345 512.752 382.42 508.097 391.024C498.736 408.332 498.608 425.991 508.233 443.149C514.495 454.316 524.383 460.596 536.207 460.912ZM480.107 414.808C480.499 400.079 486.705 385.9 501.313 376.091C507.245 372.108 513.797 369.592 520.783 367.999C530.38 365.811 540.068 365.692 549.665 367.136C564.137 369.313 576.715 375.339 585.659 387.451C590.1 393.465 592.641 400.24 594.036 407.632C595.477 415.273 595.159 422.771 593.428 430.184C590.527 442.612 583.641 452.427 572.696 459.147C559.225 467.416 544.411 469.451 528.816 467.896C522.615 467.279 516.479 465.937 510.732 463.527C496.705 457.64 486.988 447.953 482.585 433.641C480.937 428.284 480.088 422.824 480.107 414.808Z"
          fill="white"/>
    <path d="M387.19 417.271H387.198C387.198 428.829 387.192 440.387 387.204 451.945C387.206 453.026 387.239 454.114 387.368 455.186C387.739 458.229 388.986 459.477 392.008 459.485C398.011 459.499 404.046 459.746 410.008 459.225C419.059 458.434 426.832 454.766 432.532 447.389C436.411 442.371 438.694 436.659 439.796 430.469C441.863 418.874 442.432 407.331 438.676 395.993C436.062 388.094 430.591 381.41 423.094 377.805C413.996 373.43 404.252 372.747 394.484 374.23C388.47 375.143 387.09 376.463 387.155 382.815C387.276 394.299 387.19 405.786 387.19 417.271ZM386.958 368.355C394.816 368.05 401.176 367.837 407.532 367.547C416.356 367.146 425.034 367.897 433.327 371.117C444.511 375.459 453.023 382.742 457.732 393.997C461.778 403.665 462.29 413.69 460.867 423.965C459.588 433.19 456.634 441.653 450.912 448.897C445.462 455.798 437.88 460.683 429.54 463.474C420.515 466.494 411.267 467.027 401.912 466.689C394.036 466.405 386.17 465.723 378.294 465.635C373.255 465.581 368.208 466.301 363.162 466.638C362.018 466.714 360.827 466.738 359.734 466.565C357.166 466.155 356.864 463.025 359.443 462.542C359.796 462.475 360.248 462.279 360.674 462.199C365.2 461.361 367.662 458.981 368.499 454.442C368.772 452.962 368.882 451.431 368.883 449.925C368.907 428.039 368.906 406.155 368.891 384.27C368.888 381.297 368.735 378.337 366.874 375.789C365.498 373.905 363.754 372.633 361.391 372.25C359.748 371.985 357.65 371.735 357.871 369.57C358.1 367.326 360.236 367.406 362 367.467C370.815 367.769 379.628 368.093 386.958 368.355Z"
          fill="white"/>
    <path d="M663.632 468.164C656.956 467.86 650.661 466.107 644.481 463.737C640.784 462.32 636.929 461.619 632.933 461.7C630.771 461.744 628.883 460.087 628.881 457.924C628.881 456.153 629.28 454.388 629.323 452.617C629.436 447.869 629.469 443.121 629.495 438.372C629.499 437.659 629.423 436.796 629.345 436.079C629.177 434.516 629.683 433.243 631.143 433.115C632.013 433.039 633.257 434.136 633.873 435.024C634.632 436.116 634.939 437.531 635.393 438.823C640.625 453.655 655.501 462.856 671.108 460.593C679.805 459.333 687.937 452.175 686.055 441.824C685.229 437.289 682.44 434.036 678.932 431.315C673.095 426.787 666.263 424.18 659.532 421.379C651.809 418.164 643.913 415.293 637.076 410.291C628.433 403.965 625.676 395.708 629.729 384.444C632.984 375.399 640.443 371.029 649.076 368.245C657.141 365.644 665.409 366.099 673.668 366.969C675.483 367.16 677.253 367.605 679 368.131C682.3 369.12 685.516 369.009 688.835 368.352C691.781 367.768 694.34 369.704 694.531 372.701C694.924 378.897 695.52 385.079 696.028 391.267C696.075 391.843 696.3 392.489 696.115 392.98C695.787 393.853 695.381 395.047 694.687 395.335C694.011 395.615 692.576 395.208 692.101 394.608C690.864 393.041 689.924 391.228 688.944 389.469C685.711 383.663 681.696 378.609 675.272 376.143C668.055 373.372 660.669 372.616 653.251 375.363C646.271 377.945 644.22 386.547 649.109 392.368C652.897 396.877 658.056 399.359 663.215 401.827C672.055 406.059 681.037 410.02 689.701 414.587C694.992 417.375 699.269 421.575 701.639 427.319C703.867 432.724 703.469 438.248 702.037 443.697C698.373 457.645 684.733 466.691 670.772 467.78C668.396 467.965 666.012 468.039 663.632 468.164Z"
          fill="white"/>
    <path d="M279.147 432.417V432.407C284.213 432.407 289.278 432.391 294.342 432.413C296.919 432.425 297.325 431.835 296.347 429.496C292.561 420.439 288.807 411.365 285.013 402.311C283.646 399.049 282.259 395.793 280.745 392.6C280.393 391.857 279.378 390.633 278.83 390.916C276.555 392.091 266.798 417.788 261.894 430.049C261.162 431.881 261.573 432.42 263.518 432.419C268.729 432.415 273.938 432.417 279.147 432.417ZM279.363 438.787C273.359 438.785 267.354 438.833 261.35 438.755C259.633 438.732 258.666 439.288 258.186 440.975C257.041 444.997 255.662 448.959 254.634 453.011C254.185 454.785 254.138 456.741 254.317 458.576C254.498 460.431 255.826 461.627 257.661 462.141C258.007 462.239 258.386 462.236 258.725 462.351C260.011 462.789 261.655 463.077 261.413 464.887C261.179 466.621 259.579 466.448 258.293 466.464C249.327 466.58 240.363 466.68 231.399 466.777C230.823 466.784 230.195 466.692 229.698 466.659C226.339 466.429 226.703 462.796 229.481 462.483C235.885 461.887 238.97 457.512 241.411 452.379C246.71 441.241 251.983 430.092 257.225 418.928C264.553 403.321 271.838 387.695 279.155 372.083C279.807 370.691 280.487 369.289 281.402 368.064C283.559 365.175 288.102 365.639 289.791 368.825C291.803 372.625 293.331 376.683 295.062 380.631C301.961 396.364 308.799 412.123 315.773 427.823C319.521 436.261 323.455 444.62 327.394 452.973C328.939 456.253 330.729 459.444 334.179 461.149C335.253 461.679 336.451 462.129 337.629 462.268C341.747 462.751 342.03 466.52 337.562 466.733C336.413 466.788 335.251 466.741 334.095 466.731C324.261 466.636 314.426 466.556 304.591 466.429C303.102 466.411 300.937 467.141 300.605 464.965C300.263 462.737 302.477 462.631 304.038 462.219C306.615 461.54 307.635 459.892 306.741 457.331C304.787 451.741 302.71 446.196 300.681 440.632C300.111 439.072 298.882 438.765 297.378 438.775C291.374 438.809 285.369 438.788 279.363 438.787Z"
          fill="white"/>
    <path d="M20.8978 367.915C26.0325 367.915 31.1671 367.915 36.3031 367.915C36.8085 367.913 37.3818 367.749 37.8071 367.933L37.8325 367.944C39.2218 368.548 39.5938 370.373 38.5258 371.448C38.4658 371.508 38.4045 371.567 38.3431 371.624C37.9631 371.972 37.2685 371.987 36.7125 372.136C34.1231 372.832 33.1418 374.268 33.9951 376.8C35.6525 381.719 37.3671 386.629 39.3258 391.436C44.6631 404.535 50.1218 417.585 55.5711 430.639C56.9045 433.835 58.3258 436.999 59.8351 440.115C59.9965 440.449 60.4778 440.881 60.9631 441.24C61.5978 441.709 62.4765 441.687 63.0605 441.156C63.4231 440.827 63.7391 440.477 63.9098 440.068C68.6418 428.668 73.4471 417.293 77.8805 405.776C80.8085 398.169 83.2045 390.357 85.7445 382.605C86.2778 380.977 86.5818 379.223 86.6645 377.511C86.8031 374.576 85.2925 372.768 82.4605 372.057C82.1111 371.969 81.7298 371.86 81.4285 371.779C77.6965 370.771 78.9045 367.767 81.9951 367.959C88.4311 368.357 94.8965 368.035 101.342 368.057C103.544 368.064 105.73 367.807 107.919 367.559C108.794 367.46 109.779 367.581 110.58 367.532C113.752 367.339 113.794 371.224 110.939 371.924C104.479 372.573 101.571 377.168 99.1738 382.239C91.0645 399.395 83.0591 416.6 75.0031 433.781C70.3165 443.779 65.6698 453.796 60.8418 463.725C60.0791 465.293 58.6871 466.967 57.1605 467.667C54.2978 468.979 51.5871 467.519 50.2085 464.341C46.2751 455.276 42.4658 446.155 38.5245 437.092C34.2405 427.241 29.9245 417.404 25.5085 407.612C21.5378 398.805 17.4591 390.047 13.3285 381.313C11.8458 378.179 10.1591 375.075 6.89247 373.381C5.70447 372.765 4.33381 372.484 3.02714 372.113C1.70314 371.737 0.397806 371.232 0.496473 369.625C0.596473 367.999 2.02181 367.508 3.33914 367.512C6.15514 367.519 8.9698 367.817 11.7871 367.884C14.8218 367.956 17.8605 367.901 20.8978 367.901C20.8978 367.905 20.8978 367.911 20.8978 367.915Z"
          fill="white"/>
    <path d="M174.414 459.5C182.024 459.521 189.35 458.105 196.368 455.168C201.306 453.1 205.122 449.6 208.296 445.397C210.252 442.809 211.961 440.036 213.844 437.39C214.728 436.148 215.776 434.692 217.541 435.693C219.142 436.601 218.865 438.181 218.364 439.742C216.594 445.26 214.824 450.78 213.193 456.338C212.709 457.988 212.376 459.688 212.34 461.405C212.252 465.436 210.433 467.261 206.574 467.136C189.23 466.569 171.886 465.908 154.536 465.576C149.068 465.47 143.582 466.316 138.101 466.652C136.964 466.721 135.745 466.746 134.656 466.469C132.098 465.816 131.806 464.192 134.078 462.848C134.629 462.521 135.296 462.325 135.928 462.206C137.209 461.969 138.453 461.521 139.545 460.808C143.906 457.958 144.028 454.18 144.029 450.497C144.037 428.249 144.072 406.001 143.978 383.753C143.969 381.513 143.378 379.208 142.678 377.054C141.778 374.288 139.54 372.844 136.728 372.29C135.013 371.954 133.101 371.76 132.914 369.524C132.804 368.186 134.966 367.208 137.38 367.525C147.836 368.904 158.281 368.929 168.737 367.526C171.269 367.186 173.266 368.061 173.218 369.461C173.14 371.758 171.22 371.96 169.508 372.282C165.33 373.07 163.3 376.086 162.445 380.265C162.257 381.188 162.173 382.134 162.173 383.076C162.164 406.274 162.253 429.474 162.09 452.672C162.064 456.428 164.984 459.706 168.774 459.516C170.649 459.422 172.534 459.5 174.414 459.5Z"
          fill="white"/>
    <path d="M615.946 377.376C615.282 381.064 615.722 387.66 613 393.2C611.526 396.202 607.042 396.247 608.08 393.339C610.375 386.908 605.758 379.875 604.891 373.103C604.468 369.795 605.776 368.646 609.08 368.574C609.44 368.566 609.802 368.574 610.162 368.572C615.958 368.568 616.554 369.206 615.946 377.376Z"
          fill="white"/>
    <path d="M442.184 229.893C442.184 229.893 446.608 227.024 445.369 222.924C444.131 218.825 442.284 210.065 442.184 206.537C442.084 203.011 447.669 183.081 450.324 180.251C452.977 177.419 464.303 162.379 464.303 162.379C464.303 162.379 466.024 161.751 462.829 155.652C459.635 149.552 460.216 150.424 458.569 147.519C456.924 144.615 447.048 126.509 447.048 126.509C446.371 124.573 442.061 115.183 442.183 113.052C442.304 110.923 440.852 105.016 441.045 104.436C441.24 103.855 438.141 101.725 437.367 100.079C436.592 98.4332 431.655 91.8492 431.364 88.1705C431.073 84.4905 428.267 78.5852 427.685 75.8745C427.104 73.1639 420.811 58.3505 420.811 54.1878C420.811 50.0238 419.649 40.2465 419.649 40.2465C419.649 40.2465 418.1 26.6918 418.197 23.5932C418.293 20.4958 419.649 14.7825 419.94 13.1372C420.231 11.4918 421.199 5.68251 421.005 4.71451C420.811 3.74651 416.648 3.64517 415.971 5.14784C415.293 6.65051 414.615 7.90919 413.84 10.2332C413.065 12.5559 409.677 24.8518 409.387 26.5945C409.096 28.3372 407.451 37.5345 407.451 39.0839C407.451 40.6332 406.483 44.8932 406.483 44.8932C406.483 44.8932 404.643 46.4425 403.481 49.1532C402.319 51.8639 401.545 55.7372 400.867 57.4798C400.189 59.2225 398.931 66.8705 398.931 66.8705C398.931 66.8705 398.059 72.8732 398.059 75.3905C398.059 77.9079 399.124 79.9412 398.059 81.1999C396.995 82.4585 395.445 83.7172 395.252 85.8465C395.057 87.9772 394.284 95.4318 394.187 98.1425C394.089 100.853 393.025 108.017 393.219 110.825C393.412 113.633 394.284 119.829 394.284 119.829C394.284 119.829 391.863 125.445 392.056 126.8C392.251 128.156 392.153 132.125 392.637 134.449C393.121 136.772 396.704 149.165 397.575 151.004C398.447 152.844 399.603 156.957 399.703 157.66C399.803 158.363 397.769 156.813 397.865 160.008C397.963 163.203 400.119 170.368 401.073 173.66C402.029 176.951 402.803 181.115 403.868 182.276C404.933 183.439 406.289 186.343 407.353 187.795C408.419 189.247 410.064 192.743 410.743 193.221C411.42 193.7 410.743 195.443 411.323 197.96C411.904 200.477 412.679 203.092 412.679 203.092C412.679 203.092 416.648 209.676 417.616 212.289C418.584 214.904 420.521 218.389 422.167 220.325C423.812 222.261 428.653 225.167 430.687 226.619C432.72 228.071 436.376 230.952 437.755 230.879C439.133 230.804 441.529 230.88 441.529 230.88L442.184 229.893Z"
          fill="white"/>
    <path d="M311.677 250.866C312.789 255.091 317.663 265.91 320.205 268.022C322.748 270.135 329.74 274.797 331.224 276.069C332.707 277.339 358.133 292.173 359.193 292.807C360.253 293.443 372.755 297.442 373.603 298.833C374.449 300.225 393.835 307.217 393.835 307.217C393.835 307.217 417.04 313.15 419.371 313.362C421.701 313.573 440.667 311.453 444.971 309.854C449.275 308.255 466.367 302.722 468.089 300.631C469.811 298.541 483.215 289.81 485.551 286.489C487.887 283.169 494.847 276.897 495.732 272.102C496.619 267.306 496.939 261.895 496.779 257.467C496.619 253.041 495.857 246.463 488.429 243.481C481.001 240.498 472.516 235.702 465.384 240.129C458.251 244.555 456.16 248.737 450.257 252.918C444.355 257.099 446.323 259.435 437.345 262.51C428.369 265.583 432.919 269.15 415.333 269.397C397.749 269.642 393.076 271.486 383.115 268.166C373.155 264.846 371.187 264.601 362.825 262.387C354.463 260.173 352.127 258.206 343.027 254.394C333.927 250.581 321.507 244.433 318.309 244.063C315.112 243.695 312.284 250.827 312.284 250.827L311.677 250.866Z"
          fill="white"/>
    <path d="M498.368 249.92C498.368 250.613 498.906 257.853 499.6 258.392C500.293 258.932 503.709 260.625 505.582 259.393C507.456 258.161 509.228 257.545 508.612 256.466C507.996 255.388 506.917 254.049 504.837 253.178C502.758 252.308 498.368 249.92 498.368 249.92Z"
          fill="white"/>
    <path d="M401.284 253.767C401.284 253.767 381.97 229.871 385.956 209.371C385.956 209.371 384.027 173.348 388.13 168.613C392.234 163.879 360.88 155.251 358.986 144.413C358.986 144.413 349.727 130.947 349.938 129.999C350.148 129.052 312.098 104.417 310.73 97.6441C310.73 97.6441 291.707 77.3108 291.95 70.0588C291.95 70.0588 285.422 58.0534 285.904 56.3614C285.904 56.3614 281.482 63.9588 287.444 87.1628C287.444 87.1628 280.759 87.7814 289.219 117.351C287.371 117.236 286.967 125.393 300.212 143.557C300.212 143.557 295.338 134.795 295.418 139.709C295.499 144.624 301.628 158.056 302.192 159.024C302.756 159.991 310.572 175.219 311.136 175.701C311.7 176.185 315.287 182.273 317.786 184.207C320.283 186.14 325.478 191.575 326.687 191.655C327.895 191.735 320.402 187.787 320.079 187.868C319.758 187.948 318.88 187.989 320.331 191.051C321.782 194.113 326.283 203.992 329.507 206.001C332.73 208.011 331.478 207.221 333.734 209.536C335.99 211.851 335.55 212.603 335.791 214.456C336.032 216.309 340.464 221.376 341.511 222.388C342.559 223.4 351.275 234.399 353.128 234.801C354.98 235.205 353.926 237.244 358.512 240.641C363.098 244.04 363.307 245.717 368.322 246.927C373.336 248.135 373.256 248.619 376.399 248.699C379.54 248.78 374.202 249.197 374.363 250.325C374.523 251.453 378.596 253.533 379.632 253.452C380.668 253.372 384.931 254.959 387.195 255.144C389.459 255.331 391.466 254.177 394.204 254.903C396.944 255.628 397.186 256.031 399.362 256.192C401.536 256.353 402.656 254.899 402.656 254.899L401.284 253.767Z"
          fill="white"/>
    <path d="M500.497 253.964C500.529 253.97 500.562 253.974 500.594 253.979C500.594 254.403 500.583 254.827 500.595 255.251C500.617 256.087 501.1 256.334 501.865 256.244C502.853 256.131 503.844 256.043 504.834 255.938C505.084 255.91 505.333 255.86 505.583 255.82C505.391 255.594 505.235 255.319 505.003 255.148C504.064 254.456 503.111 253.786 502.147 253.131C501.717 252.839 501.25 252.606 500.799 252.346C500.699 252.884 500.597 253.424 500.497 253.964ZM424.122 310.483C426.66 310.323 429.21 310.258 431.735 309.98C434.927 309.63 438.143 309.307 441.271 308.622C453.748 305.886 465.067 300.575 475.215 292.82C483.295 286.647 489.846 279.227 494 269.806C495.535 266.323 496.123 262.863 495.468 259.104C494.597 254.1 492.641 249.788 488.053 247.203C483.109 244.418 477.811 243.848 472.311 245.275C465.539 247.03 459.96 250.72 455.326 255.879C448.588 263.379 441.486 270.472 433.139 276.21C427.62 280.003 422.024 283.676 415.862 286.359C407.932 289.811 399.655 291.948 391.042 292.804C384.012 293.502 377.168 292.868 370.426 290.607C362.659 288.002 355.439 284.31 348.351 280.278C336.003 273.251 325.655 263.946 316.827 252.879C316.408 252.355 315.942 251.868 315.498 251.366C315.644 252.019 315.727 252.695 315.947 253.324C317.507 257.794 320.079 261.728 322.623 265.662C324.757 268.962 327.624 271.554 330.84 273.819C337.683 278.636 344.823 282.964 352.098 287.09C363.683 293.659 375.57 299.562 388.231 303.804C399.88 307.707 411.727 310.504 424.122 310.483ZM450.788 163.192C450.139 164.648 449.41 166.072 448.64 167.47C444.331 175.302 441.064 183.542 439.046 192.251C438.53 194.474 437.023 201.604 436.515 202.242C435.934 202.971 435.411 191.699 442.831 171.927C444.336 168.699 446.069 165.576 447.704 162.408C448.343 161.17 448.251 160.066 447.534 158.804C445.666 155.524 443.734 152.248 442.235 148.795C437.76 138.478 434.672 127.855 436.306 116.403C436.87 112.448 437.143 109.648 439.335 106.168C439.814 105.41 439.032 105.003 438.638 104.51C434.007 98.7283 430.964 91.1657 428.26 84.2963C422.164 68.8097 418.048 52.843 417.023 36.1643C416.583 29.0163 416.96 21.8883 417.675 14.7803C417.979 11.7656 418.531 8.77764 418.962 5.7763C418.991 5.5723 418.95 5.35765 418.94 5.14831C418.744 5.27765 418.491 5.36432 418.362 5.54299C417.896 6.18965 417.435 6.84564 417.039 7.53764C415.148 10.827 413.659 14.2936 412.628 17.9456C410.898 24.0763 410.155 30.363 409.692 36.6923C409.074 45.1737 409.339 53.6163 410.603 62.035C412.124 72.179 418.619 94.991 418.182 95.115C417.64 95.2683 415.655 90.883 415.262 89.7816C410.467 76.3577 406.386 62.847 405.898 48.579C405.872 47.815 405.775 47.0523 405.712 46.2883C405.346 47.0296 404.902 47.743 404.624 48.5163C401.196 58.099 399.825 68.003 400.321 78.1403C400.516 82.1203 400.982 86.1083 401.64 90.0403C403.279 99.8403 405.472 109.452 409.106 118.68C409.26 119.075 410.242 121.206 409.45 121.546C408.931 120.899 398.858 97.127 397.332 85.283C397.278 84.8643 397.215 84.4456 397.158 84.027C396.99 84.4563 396.759 84.871 396.663 85.3163C394.596 94.855 394.57 104.459 395.852 114.087C396.623 130.568 409.858 151.798 409.903 152.475C409.963 153.38 397.272 134.604 394.682 125.571C394.543 125.084 394.304 124.626 394.112 124.154C394.016 124.643 393.848 125.131 393.838 125.622C393.722 131.491 396.182 142.428 397.743 148.034C400.948 159.543 414.266 177.327 413.879 177.676C414.727 179.163 407.386 171.635 406.03 169.343C403.926 166.724 401.716 163.582 400.06 160.854C399.944 160.663 399.71 160.543 399.531 160.391C399.503 160.595 399.422 160.808 399.454 161.002C399.623 161.998 399.762 163.003 400.018 163.979C404.115 179.659 411.52 193.871 423.836 204.376C425.614 205.923 426.31 206.27 427.135 206.967C426.775 207.816 416.532 199.995 413.61 197.122C413.395 196.911 413.128 196.754 412.886 196.571C412.806 196.899 412.588 197.268 412.671 197.548C413.103 199.026 413.504 200.527 414.111 201.935C418.328 211.703 425.022 219.528 433.303 226.062C435.008 227.408 436.886 228.546 438.743 229.682C439.147 229.93 439.926 229.971 440.33 229.746C442.286 228.654 443.744 224.968 443.183 222.747C442.779 221.15 442.348 219.558 441.896 217.972C440.038 211.451 439.71 204.914 441.282 198.256C443.948 186.956 449.088 176.928 456.335 167.912C458.234 165.55 460.038 163.104 461.76 160.611C462.915 158.94 462.863 157.215 461.728 155.395C457.535 148.662 453.357 141.915 449.331 135.08C445.2 128.07 442.031 120.656 440.75 112.542C440.722 112.362 440.603 112.195 440.527 112.023C440.394 112.283 440.194 112.53 440.135 112.804C438.814 118.975 438.652 125.142 439.939 131.359C441.859 140.634 445.268 149.288 450.267 157.332C450.867 158.298 451.974 160.456 450.788 163.192ZM375.576 250.111C375.395 250.098 375.207 250.195 375.022 250.242C375.11 250.423 375.148 250.676 375.294 250.776C376.346 251.51 379.197 254.346 387.043 253.908C389.937 253.747 393.135 254.132 395.915 255.039C396.615 255.267 397.371 255.43 398.103 255.436C399.619 255.448 400.07 254.787 399.4 253.432C398.366 251.338 397.227 249.294 396.094 247.248C392.834 241.374 389.99 235.312 387.808 228.947C385.012 220.786 383.54 212.378 383.007 203.78C382.468 195.08 382.68 186.427 384.284 177.832C384.8 175.063 385.242 172.278 385.627 169.487C385.827 168.04 385.216 166.902 383.893 166.175C383.288 165.842 382.728 165.426 382.142 165.058C376.095 161.262 370.05 157.459 364.547 152.882C359.232 148.462 354.348 143.655 351.104 137.428C350.515 136.296 349.968 135.142 349.384 134.006C349.247 133.738 349.039 133.504 348.864 133.255C348.767 133.584 348.62 133.907 348.584 134.243C348.539 134.663 348.547 135.098 348.595 135.52C349.076 139.795 350.235 143.886 352.227 147.695C354.972 152.944 358.036 158.042 361.959 162.478C365.656 166.658 369.694 170.552 373.75 174.395C375.603 176.152 376.411 176.995 376.1 179.47C375.192 186.708 375.45 194.962 376.342 202.184C377.243 218.67 390.322 246.336 388.804 244.134C388.156 243.194 381.014 230.027 379.215 224.558C376.612 216.64 373.796 208.459 372.893 200.184C372.245 194.239 372.074 188.279 372.626 182.31C373.103 177.16 373.422 178.419 370.015 175.339C363.895 169.808 358.342 163.819 353.916 156.826C350.604 151.591 347.487 146.284 346.152 140.123C345.468 136.968 344.931 133.838 345.93 130.664C346.198 129.811 345.727 129.4 345.148 128.951C341.106 125.819 337.078 122.667 333.042 119.527C324.751 113.079 316.579 106.502 309.222 98.9643C300.018 89.5376 292.914 78.7736 288.25 66.4403C287.406 64.2083 286.843 61.871 286.144 59.583C286.023 59.1856 285.866 58.799 285.724 58.4083C285.628 58.7776 285.472 59.143 285.446 59.5176C285.288 61.747 284.943 63.991 285.066 66.207C285.476 73.6697 286.608 81.0483 288.623 88.2443C293.824 106.822 317.171 145.094 316.299 144.411C314.723 143.587 296.255 116.587 289.682 102.366C288.334 98.899 287.22 95.3416 285.986 91.8296C285.911 91.6203 285.72 91.451 285.584 91.263C285.536 91.4683 285.451 91.6736 285.447 91.879C285.42 93.475 285.243 95.0896 285.422 96.663C286.815 108.924 290.056 120.731 295.315 131.858C296.063 139.147 319.562 170.511 324.695 174.719C323.912 174.544 319.645 170.614 318.605 169.472C311.199 161.343 303.868 152.744 297.722 143.384C297.431 142.898 296.191 140.44 296.326 140.899C296.352 141.492 296.775 143.188 296.803 143.782C296.806 143.834 296.831 143.884 296.844 143.935C300.382 157.762 306.9 170.024 316.386 180.66C324.903 191.79 348.18 205.624 347.042 205.934C346.592 206.719 328.033 196.734 321.347 190.535C321.103 190.31 320.776 190.176 320.488 190C320.572 190.348 320.608 190.716 320.746 191.042C323.379 197.279 327.144 202.73 332.344 207.08C340.056 215.355 363.05 226.539 363.438 226.871C363.024 227.919 341.375 217.866 337.75 215.635C337.46 215.456 336.692 214.772 336.376 214.639C336.495 214.972 336.264 217.27 341.692 222.179C349.35 229.659 358.571 237.014 369.134 238.656C369.447 239.19 361.223 237.808 356.17 235.724C355.528 235.458 354.83 235.328 354.158 235.135C354.586 235.671 354.953 236.271 355.451 236.732C363.115 243.84 372.179 248.315 382.772 247.374C384.228 247.246 376.479 250.174 375.576 250.111ZM368.964 248.28C363.858 246.502 359.035 244.191 354.806 240.77C352.726 239.086 350.508 237.36 349.546 234.852C348.116 231.791 345.824 230.284 343.268 228.076C342.858 227.836 342.496 227.507 342.123 227.207C336.631 222.798 333.332 218.435 331.487 211.502C331.363 211.038 329.398 209.415 329.035 209.05C327.235 207.235 325.943 205.81 324.289 203.871C320.276 199.168 317.16 193.934 315.536 187.902C315.918 184.8 313.774 183.016 311.97 181.054C311.682 180.739 311.415 180.406 311.143 180.078C305.273 172.967 301.14 166.687 297.55 158.191C297.26 157.507 296.583 157.168 295.82 156.922C292.33 155.794 288.414 154.531 285.039 153.107C273.118 148.074 261.071 142.607 249.752 136.342C241.928 132.011 233.519 126.743 225.887 122.082C216.238 116.188 207.962 110.7 199.854 102.723C197.688 100.592 194.868 97.739 194.675 97.6443C194.726 97.839 194.742 98.0523 194.831 98.2283C196.036 100.599 195.5 99.6456 196.791 101.97C204.974 116.704 214.888 130.235 225.966 142.883C241.891 161.066 260.075 176.691 280.432 189.758C280.923 190.072 284.598 193.572 283.654 194.374C281.896 194.792 283.607 195.228 266.567 190.016C251.906 184.695 235.97 178.808 220.964 175.732C214.684 174.318 202.195 171.87 195.834 170.972C180.347 169.378 153.616 167.775 151.67 167.822C150.608 167.8 152.895 168.439 153.12 168.516C156.935 169.832 160.61 170.36 164.315 171.931C178.022 177.743 191.687 183.655 205.314 189.65C216.131 194.407 226.792 199.506 236.866 205.715C245.659 211.135 254.311 216.78 263.066 222.262C277.972 231.596 291.715 242.423 304.535 254.443C305.5 255.347 306.347 256.412 307.416 257.164C310.243 259.152 313.163 261.011 316.047 262.918C316.395 263.148 316.756 263.358 317.111 263.576C316.968 263.166 316.895 262.71 316.671 262.35C313.886 257.871 311.832 253.107 311.084 247.854C310.838 246.119 310.706 244.36 310.651 242.61C310.622 241.66 311.062 240.834 312.119 240.583C313.194 240.328 313.839 240.856 314.234 241.803C314.294 241.947 314.384 242.079 314.447 242.224C316.895 247.896 320.659 252.646 324.823 257.13C337.43 270.698 352.643 280.264 369.902 286.78C377.636 289.7 385.564 290.284 393.632 289.107C403.684 287.64 413.267 284.695 422.05 279.408C429.491 274.931 436.599 270.003 442.843 263.947C446.511 260.39 449.964 256.608 453.479 252.894C458.18 247.927 463.779 244.431 470.284 242.322C479.642 239.288 491.671 242.156 496.141 250.708C496.255 250.926 496.463 251.092 496.627 251.283C496.679 251.008 496.812 250.72 496.771 250.459C496.106 246.228 495.015 242.191 492.68 238.471C489.741 233.791 486.707 229.298 482.07 226.076C476.112 221.938 469.716 219.215 462.315 219.46C460.039 219.536 457.726 219.463 455.502 219.864C452.931 220.328 450.435 221.224 447.918 221.968C447.206 222.179 446.803 222.612 446.862 223.495C447.102 227.1 445.254 229.826 442.864 232.204C441.223 233.839 439.408 234.055 437.6 233.06C436.206 232.292 434.823 231.48 433.52 230.567C428.427 226.998 423.975 222.732 419.963 217.988C419.213 217.102 418.116 216.296 417.408 215.606C413.481 212.058 411.251 210.511 407.366 208.931C399.974 205.986 392.932 204.43 387.091 204.28C385.986 204.594 385.856 204.311 386.014 205.963C387.115 218.546 390.613 230.283 396.56 241.411C398.339 244.74 400.079 248.092 401.911 251.392C403.636 255.436 402.234 258.227 398.106 258.239C396.898 258.246 395.562 257.912 394.406 257.59C392.016 256.924 389.615 256.642 387.143 256.706C385.28 256.754 383.391 256.844 381.555 256.603C376.488 255.938 372.032 254.211 369.827 249.034M159.982 164.096C167.907 164.447 174.831 165.04 181.476 165.46C194.499 166.283 208.152 168.256 220.894 171.352C236.715 174.8 250.778 179.176 265.262 185.486C266.452 186.047 266.85 185.435 265.639 184.672C251.159 173.954 237.738 162.04 225.752 148.592C213.423 134.759 202.364 119.96 193.504 103.627C191.02 99.047 188.855 94.2936 186.608 89.5883C186.04 88.3976 185.646 87.1056 185.324 85.8216C185.135 85.071 217.496 112.61 232.588 121.346C238.578 124.814 244.403 128.572 250.459 131.916C260.338 137.37 270.427 142.416 280.754 146.99C285.087 148.908 289.4 150.842 293.975 152.123C294.302 152.215 294.659 152.199 295.002 152.232C294.946 151.927 294.91 151.616 294.83 151.318C294.078 148.496 293.492 146.414 292.794 143.579C291.65 137.623 293.26 136.994 293.059 136.602C287.728 126.182 284.636 115.027 282.275 103.643C281.142 98.1723 280.859 92.6616 282.106 87.1523C282.574 86.3576 283.004 81.8136 282.608 79.4776C282.055 72.659 281.751 67.379 282.108 61.4657C282.416 58.403 282.878 55.9243 283.967 53.0977C285.039 50.351 287.907 53.475 288.075 55.1283C288.687 61.1456 291.25 66.5283 293.775 71.9563C299.618 84.5123 308.254 94.9496 318.704 103.815C328.368 112.012 338.484 119.674 348.355 127.628C349.447 128.508 350.603 129.618 351.106 130.871C355.483 141.762 363.767 149.128 373.111 155.543C376.972 158.194 380.947 160.683 384.895 163.204C388.006 165.191 389.131 167.574 388.542 171.263C388.247 173.102 387.927 174.939 387.555 176.764C385.95 184.644 385.572 192.608 385.808 200.624C385.838 201.6 386.079 201.9 387.14 202.038C395.927 203.167 404.611 204.718 412.43 209.256C412.568 209.336 412.721 209.392 412.853 209.479C414.284 210.416 413.455 209.11 413.362 208.908C412.52 207.07 411.844 206.08 411.148 204.191C410.511 202.462 409.723 199.846 409.472 198.024C409.356 197.178 409.348 195.524 409.887 194.839C410.514 194.042 410.332 193.664 409.826 192.991C401.478 181.85 397.924 170.786 396.985 161.935C396.885 160.688 396.382 158.048 397.371 157.194C397.69 156.614 397.222 155.482 396.87 154.708C394.572 149.654 393.586 145.743 392.334 140.34C391.322 135.975 390.546 131.567 390.62 127.067C390.634 126.255 390.687 123.922 391.108 122.279C391.582 120.438 392.444 119.284 392.803 118.562C392.956 118.254 392.998 117.756 392.936 117.368C391.927 110.976 391.576 104.54 391.903 98.0897C392.208 92.071 393.04 86.1163 394.99 80.3696C395.058 80.1683 395.09 79.9416 395.204 79.771C397.291 76.675 397.063 73.1123 397.243 69.639C398.052 54.0136 402.936 43.2003 405.752 41.335C406.104 40.9843 406.234 40.3096 406.278 39.7683C406.8 33.507 407.36 27.2523 408.771 21.1083C409.959 15.935 411.848 11.0377 414.544 6.46566C415.799 4.34032 417.294 2.40698 419.434 1.06832C420.296 0.528317 421.178 0.238976 422.108 0.897642C423.243 1.69764 421.439 14.2896 421.175 19.4403C420.864 25.5003 420.752 31.5843 420.894 37.6497C421.078 45.507 422.722 53.187 424.491 60.8163C426.694 70.3203 429.646 79.5923 433.764 88.455C436.358 94.0336 439.642 99.199 443.632 103.89C444.579 105.003 444.806 106.01 444.464 107.514C444.099 109.12 444.258 110.907 444.484 112.575C445.48 119.911 448.221 126.662 451.908 133.006C455.892 139.863 460.119 146.58 464.239 153.36C464.487 153.77 464.7 154.204 464.977 154.592C467.209 157.708 466.855 160.858 464.832 163.822C462.855 166.72 460.655 169.471 458.495 172.24C451.776 180.854 447.115 190.419 444.772 201.122C443.408 207.359 444.239 213.396 445.914 219.416C446.142 220.238 446.56 220.068 447.068 219.84C450.33 218.372 453.827 217.788 457.322 217.364C467.922 216.079 477.42 218.784 485.839 225.41C489.814 228.539 492.72 232.476 495.283 236.752C497.279 240.082 499.199 243.41 499.679 247.376C499.747 247.938 500.335 248.562 500.848 248.922C504.768 251.679 508.74 254.36 512.671 257.103C514.331 258.26 514.265 260.12 512.485 261.08C510.956 261.906 509.324 262.54 507.73 263.243C505.16 264.375 502.575 265.475 500.022 266.646C499.711 266.788 499.48 267.252 499.348 267.616C498.715 269.354 498.339 271.218 497.488 272.835C494.131 279.222 490.195 285.224 484.931 290.244C473.004 301.618 459.008 309.147 442.887 312.618C439.456 313.356 435.944 313.715 432.468 314.239C427.394 315.004 422.286 314.887 417.208 314.496C408.718 313.842 400.431 312.062 392.271 309.603C376.48 304.843 361.886 297.5 347.61 289.388C336.135 282.867 325.564 275.055 314.96 267.266C311.876 265 295.742 252.011 292.198 248.86C292.516 244.498 270.995 231.307 251.303 219.775C244.159 215.334 211.171 196.784 200.251 192.004C187.298 186.334 174.304 180.752 161.259 175.295C154.83 172.606 131.575 166.695 131.228 166.364C129.708 164.918 156.091 164.096 159.982 164.096Z"
          fill="#231200"/>
    <path d="M370.258 247.602C365.045 245.786 360.287 244.807 355.97 241.314C353.847 239.596 351.582 237.834 350.601 235.272C349.141 232.148 346.802 230.61 344.191 228.356C343.773 228.111 343.405 227.775 343.023 227.468C337.415 222.967 334.049 218.514 332.165 211.435C332.038 210.962 330.031 209.306 329.661 208.931C327.823 207.079 326.505 205.623 324.817 203.646C320.719 198.844 317.539 193.5 315.881 187.342C316.27 184.176 314.081 182.355 312.239 180.351C311.946 180.031 311.673 179.69 311.397 179.355C305.403 172.095 301.183 165.686 297.518 157.011C297.223 156.312 296.531 155.967 295.753 155.715C292.189 154.563 288.191 153.275 284.747 151.82C272.575 146.682 260.278 141.102 248.722 134.706C240.735 130.284 232.151 124.907 224.358 120.147C214.509 114.131 206.059 108.53 197.782 100.384C195.571 98.2098 192.693 95.2964 192.495 95.2004C192.546 95.3991 192.562 95.6164 192.654 95.7951C193.885 98.2164 193.338 97.2431 194.655 99.6164C203.009 114.659 213.131 128.471 224.439 141.383C240.698 159.946 258.469 176.406 279.25 189.746C279.751 190.067 284.295 193.131 283.331 193.95C281.538 194.378 283.285 194.822 265.889 189.502C250.921 184.068 234.653 178.059 219.334 174.919C212.923 173.475 200.171 170.975 193.678 170.06C177.867 168.431 150.579 166.795 148.591 166.843C147.507 166.822 149.842 167.474 150.073 167.552C153.967 168.895 157.718 169.434 161.501 171.038C175.494 176.971 189.443 183.007 203.357 189.126C214.398 193.983 225.283 199.188 235.567 205.528C244.543 211.06 253.377 216.824 262.314 222.42C277.533 231.95 291.562 243.003 304.65 255.274C305.635 256.196 306.499 257.283 307.59 258.051C310.477 260.082 313.457 261.979 316.402 263.926C316.758 264.16 318.71 266.508 319.073 266.731C318.926 266.311 317.269 263.712 317.039 263.344C318.153 257.802 312.686 253.766 311.335 248.546C311.083 246.775 310.949 244.98 310.894 243.192C310.863 242.223 311.313 241.38 312.393 241.124C313.489 240.864 314.147 241.403 314.55 242.37C314.613 242.516 314.705 242.652 314.769 242.799C317.267 248.591 321.11 253.439 325.362 258.016C338.231 271.868 353.762 281.634 371.381 288.286C379.278 291.267 387.371 291.863 395.607 290.662C405.87 289.164 415.651 286.156 424.619 280.76C432.215 276.19 439.471 271.158 445.846 264.976C449.591 261.344 453.117 257.483 456.705 253.692C461.503 248.622 467.219 245.052 473.861 242.899C483.413 239.802 494.19 246.019 498.754 254.751C498.87 254.972 499.13 252.994 499.297 253.188C499.35 252.907 499.655 252 499.613 251.734C498.934 247.414 498.117 243.648 495.733 239.85C492.734 235.071 490.626 229.603 485.893 226.314C479.81 222.088 474.058 218.315 466.502 218.566C464.179 218.642 461.085 218.53 458.815 218.939C456.19 219.412 453.811 219.724 451.241 220.484C450.514 220.7 446.773 221.154 446.833 222.055C445.706 225.51 446.875 226.939 444.437 229.368C442.762 231.036 443.375 231.895 441.53 230.879C441.413 230.258 439.381 228.064 438.051 227.132C433.899 223.576 432.597 223.067 428.929 220.323C428.071 219.68 427.27 218.967 426.486 218.236C424.287 216.184 420.115 213.547 418.822 212.858C414.814 209.236 413.09 208.948 409.122 207.335C406.909 206.452 404.789 205.775 402.747 205.255C397.829 204 393.366 203.655 389.154 203.548C388.025 203.867 384.442 203.094 384.603 204.779C385.727 217.626 390.79 231.851 396.862 243.212C398.678 246.611 399.97 249.638 401.839 253.008C401.521 257.691 402.403 257.23 398.274 257.236C397.291 257.238 396.302 257.128 395.353 256.872C392.717 256.162 390.034 255.631 387.298 255.92C385.903 256.068 384.498 256.114 383.109 255.927C377.835 255.223 373.589 255.11 371.306 249.751"
          fill="#231200"/>
    <path d="M446.037 235.195C445.132 238.563 442.098 242.327 439.864 244.865C435.166 250.201 427.268 252.168 420.689 253.02C414.213 253.857 407.322 251.288 402.49 247.492C398.02 243.979 393.521 236.233 392.388 230.576C390.801 222.663 393.012 215.483 397.528 208.631C399.449 205.716 403.034 204.215 405.228 201.555C408.482 197.604 415.546 197.059 420.812 197.432C425.052 197.732 430.117 198.275 433.586 200.801C436.677 203.052 442.254 206.4 444.004 209.9C445.305 212.508 447.258 216.481 447.534 219.469C447.744 221.737 448.569 224.435 448.785 226.701C448.813 229.464 446.748 232.551 446.037 235.195ZM481.804 255.328C480.905 254.361 479.468 254.184 477.948 254.86C476.928 255.315 475.962 255.888 474.946 256.352C472.192 257.611 469.373 257.764 466.608 256.484C461.908 254.308 458.468 250.781 456.636 245.967C454.66 240.775 453.689 235.341 454.181 229.724C454.01 227.556 453.945 225.372 453.646 223.221C453.032 218.805 452.321 214.461 449.913 210.492C447.285 206.157 444.874 201.737 440.888 198.423C438.586 196.508 436.31 194.587 433.486 193.479C425.928 190.516 418.212 190.385 410.484 192.553C404.825 194.14 399.453 196.391 394.862 200.272C391.202 203.367 388.321 207.104 385.58 210.951C385.604 211.271 385.673 211.703 385.861 212.219C386.592 214.225 386.656 217.201 387.134 219.313C387.921 222.783 388.884 226.195 389.59 229.683C390.996 236.615 392.945 243.083 396.554 248.975C397.384 249.759 398.238 250.521 399.148 251.239C405.393 256.163 409.889 251.264 416.102 256.505C417.51 257.693 424.284 258.997 428.322 258.128C438.16 256.011 439.977 252.859 442.182 252.109C444.202 251.424 444.66 251.151 446.03 251.949C447.942 253.064 449.138 254.833 450.5 256.461C453.042 259.504 456.522 262.199 459.956 264.253C464.749 267.123 470.366 266.852 474.425 265.727C478.026 264.729 481.841 260.965 482.508 259.331C483.105 257.864 482.89 256.497 481.804 255.328Z"
          fill="#F77962"/>
    <path d="M402.257 313.016C399.406 320.664 393.505 324.092 385.394 325.555C382.781 326.025 379.774 326.947 377.317 326.532C373.194 326.736 370.063 325.645 366.59 323.837C358.969 319.869 351.569 314.277 350.187 305.383C349.854 303.237 349.737 300.363 350.129 298.151C350.509 296.011 351.218 291.537 351.841 289.469C354.331 281.193 360.235 275.284 368.481 272.492C371.018 271.633 374.314 270.853 376.973 270.532C379.254 270.257 383.822 270.852 386.047 271.717C388.962 272.849 394.093 275.212 396.634 277.263C401.361 281.077 403.573 287.519 405.475 293.316C407.621 299.855 404.646 306.603 402.257 313.016ZM304.001 213.365C302.085 213.847 300.053 211.817 299.835 209.107C299.694 207.345 301.606 205.725 303.847 205.639C305.746 205.565 307.854 207.173 307.959 208.775C308.125 211.323 306.442 213.275 304.001 213.365ZM406.582 281.428C402.049 273.8 395.134 269.097 387.123 265.828C382.575 263.972 377.787 262.995 372.942 262.199C364.95 260.884 358.017 257.408 352.257 251.633C342.85 242.2 333.399 232.808 323.969 223.399C321.969 221.404 319.971 219.407 317.981 217.404C317.798 217.22 317.667 216.987 317.511 216.776C317.806 216.768 318.102 216.745 318.395 216.755C318.551 216.759 318.706 216.816 318.861 216.855C324.043 218.127 329.226 219.4 334.409 220.673C333.545 219.332 332.902 217.851 332.405 216.335C332.137 215.517 330.627 211.136 331.466 212.131C329.558 209.868 327.142 208.472 325.018 206.535C318.846 205.315 312.671 204.099 306.529 202.744C304.693 202.339 302.706 202.181 301.178 200.651C274.033 173.465 246.83 146.339 219.698 119.141C208.598 108.015 186.873 86.7694 186.47 87.0134C186.063 87.26 198.602 103.671 205.505 111.293C228.007 136.141 250.461 161.033 272.945 185.897C275.261 188.459 277.693 190.915 279.994 193.488C281.586 195.269 282.981 197.227 284.582 199C288.639 203.495 292.773 207.921 296.858 212.391C299.23 214.987 301.565 217.616 303.922 220.225C317.923 235.728 331.906 251.247 345.951 266.707C347.921 268.876 348.781 271.293 348.619 274.129C348.369 278.509 347.369 282.736 346.183 286.957C342.997 298.301 343.897 309.152 350.911 318.975C356.999 327.5 365.114 332.744 375.793 333.463C376.565 333.515 376.879 333.807 377.155 334.493C378.513 337.873 377.982 340.951 375.855 343.839C375.418 344.433 374.985 345.068 374.731 345.752C373.974 347.804 375.09 349.453 377.259 349.461C379.231 349.468 381.031 348.897 382.466 347.451C386.402 343.481 387.625 338.791 386.155 333.407C385.986 332.781 385.809 332.423 386.71 332.157C391.015 330.892 394.886 328.905 398.586 326.225C402.737 323.22 405.641 319.409 407.782 315.001C410.971 308.433 411.717 301.379 410.818 294.164C410.254 289.648 408.918 285.36 406.582 281.428Z"
          fill="#F77962"/>
    <path d="M275.679 197.315C274.871 196.279 273.806 195.872 272.625 195.611C267.258 194.422 261.886 193.255 256.525 192.044C250.267 190.63 244.019 189.178 237.766 187.74C231.515 186.304 225.265 184.864 219.013 183.432C212.763 182 206.51 180.583 200.261 179.151C194.539 177.84 188.821 176.515 183.101 175.202C176.909 173.78 170.717 172.37 164.526 170.947C158.234 169.502 136.139 165.162 135.875 166.066C135.586 167.059 167.73 176.731 182.734 180.88C199.254 185.45 215.77 190.038 232.291 194.602C249.333 199.308 266.378 203.996 283.423 208.687C283.773 208.783 284.142 208.806 284.501 208.862C284.351 208.524 284.263 208.138 284.042 207.859C281.261 204.339 278.438 200.852 275.679 197.315Z"
          fill="#F77962"/>
    <path d="M408.862 298.833C408.862 315.849 395.067 329.644 378.051 329.644C361.035 329.644 347.24 315.849 347.24 298.833C347.24 281.817 361.035 268.023 378.051 268.023C395.067 268.023 408.862 281.817 408.862 298.833Z"
          stroke="#F77962" stroke-width="6.66667" stroke-miterlimit="10"/>
    <path d="M451.281 224.968C451.281 241.984 437.486 255.779 420.47 255.779C403.454 255.779 389.659 241.984 389.659 224.968C389.659 207.952 403.454 194.157 420.47 194.157C437.486 194.157 451.281 207.952 451.281 224.968Z"
          stroke="#F77962" stroke-width="6.66667" stroke-miterlimit="10"/>
    <path d="M384.44 191.545C384.44 191.545 382.732 234.913 401.403 255.21" stroke="#231200" stroke-width="2.66667"
          stroke-miterlimit="10"/>
    <path d="M307.269 209.908C307.269 211.769 305.76 213.278 303.899 213.278C302.037 213.278 300.529 211.769 300.529 209.908C300.529 208.046 302.037 206.537 303.899 206.537C305.76 206.537 307.269 208.046 307.269 209.908Z"
          fill="#231200"/>
    <path d="M307.269 209.908C307.269 211.769 305.76 213.278 303.899 213.278C302.037 213.278 300.529 211.769 300.529 209.908C300.529 208.046 302.037 206.537 303.899 206.537C305.76 206.537 307.269 208.046 307.269 209.908Z"
          stroke="#231200" stroke-width="2.66667" stroke-miterlimit="10"/>
    <path d="M382.947 211.919C383.041 212.456 387.489 238.335 394.649 249.489" stroke="white" stroke-width="1.33333"
          stroke-miterlimit="10"/>
    <path d="M402.656 205.801C402.656 205.801 421.398 210.117 437.273 224.968C437.273 224.968 445.21 220.258 446.912 220.732C448.613 221.204 445.494 233.677 445.494 233.677C445.494 233.677 432.076 238.308 431.13 237.929C430.186 237.552 416.106 223.944 414.405 221.393C412.704 218.841 402.656 205.801 402.656 205.801Z"
          fill="#231200"/>
    <path d="M230.177 503.216V513.874H234.887C236.924 513.874 238.504 513.392 239.627 512.428C240.749 511.464 241.309 510.142 241.309 508.463C241.309 504.966 238.928 503.216 234.164 503.216H230.177ZM230.177 490.535V500.098H233.729C235.631 500.098 237.124 499.64 238.212 498.724C239.3 497.808 239.844 496.518 239.844 494.851C239.844 491.974 237.951 490.535 234.164 490.535H230.177ZM226.708 517.014V487.395H235.135C237.696 487.395 239.727 488.022 241.227 489.275C242.728 490.528 243.479 492.159 243.479 494.17C243.479 495.85 243.024 497.31 242.116 498.548C241.207 499.788 239.953 500.67 238.356 501.192V501.275C240.353 501.508 241.951 502.263 243.148 503.536C244.347 504.81 244.945 506.466 244.945 508.504C244.945 511.038 244.036 513.088 242.219 514.659C240.401 516.228 238.108 517.014 235.341 517.014H226.708Z"
          fill="#FFFFFF"/>
    <path d="M230.177 503.216V513.874H234.887C236.924 513.874 238.504 513.392 239.627 512.428C240.749 511.464 241.309 510.142 241.309 508.463C241.309 504.966 238.928 503.216 234.164 503.216H230.177ZM230.177 490.535V500.098H233.729C235.631 500.098 237.124 499.64 238.212 498.724C239.3 497.808 239.844 496.518 239.844 494.851C239.844 491.974 237.951 490.535 234.164 490.535H230.177ZM226.708 517.014V487.395H235.135C237.696 487.395 239.727 488.022 241.227 489.275C242.728 490.528 243.479 492.159 243.479 494.17C243.479 495.85 243.024 497.31 242.116 498.548C241.207 499.788 239.953 500.67 238.356 501.192V501.275C240.353 501.508 241.951 502.263 243.148 503.536C244.347 504.81 244.945 506.466 244.945 508.504C244.945 511.038 244.036 513.088 242.219 514.659C240.401 516.228 238.108 517.014 235.341 517.014H226.708Z"
          stroke="#FFFFFF" stroke-width="1.33333" stroke-miterlimit="10"/>
    <path d="M265.765 505.591L261.118 492.971C260.966 492.558 260.814 491.898 260.663 490.989H260.581C260.443 491.829 260.285 492.49 260.106 492.971L255.499 505.591H265.765ZM273.882 517.013H270.041L266.901 508.71H254.343L251.39 517.013H247.527L258.887 487.395H262.481L273.882 517.013Z"
          fill="#FFFFFF"/>
    <path d="M265.765 505.591L261.118 492.971C260.966 492.558 260.814 491.898 260.663 490.989H260.581C260.443 491.829 260.285 492.49 260.106 492.971L255.499 505.591H265.765ZM273.882 517.013H270.041L266.901 508.71H254.343L251.39 517.013H247.527L258.887 487.395H262.481L273.882 517.013Z"
          stroke="#FFFFFF" stroke-width="1.33333" stroke-miterlimit="10"/>
    <path d="M281.71 490.535V501.275H286.419C287.286 501.275 288.088 501.144 288.826 500.883C289.562 500.622 290.199 500.246 290.735 499.758C291.272 499.268 291.692 498.67 291.995 497.96C292.298 497.251 292.45 496.456 292.45 495.575C292.45 493.991 291.936 492.755 290.911 491.867C289.886 490.979 288.402 490.535 286.46 490.535H281.71ZM299.472 517.014H295.342L290.384 508.711C289.93 507.939 289.49 507.282 289.063 506.738C288.636 506.194 288.199 505.75 287.751 505.406C287.303 505.062 286.822 504.811 286.306 504.652C285.788 504.494 285.207 504.415 284.56 504.415H281.71V517.014H278.24V487.395H287.08C288.374 487.395 289.568 487.558 290.663 487.88C291.758 488.204 292.708 488.696 293.514 489.358C294.319 490.019 294.948 490.842 295.403 491.826C295.858 492.811 296.084 493.963 296.084 495.286C296.084 496.318 295.93 497.264 295.62 498.126C295.311 498.986 294.87 499.754 294.298 500.428C293.727 501.103 293.039 501.678 292.232 502.152C291.427 502.628 290.522 502.996 289.516 503.258V503.34C290.012 503.56 290.443 503.812 290.808 504.095C291.172 504.376 291.52 504.711 291.851 505.096C292.182 505.482 292.508 505.919 292.832 506.407C293.155 506.896 293.516 507.464 293.916 508.111L299.472 517.014Z"
          fill="#FFFFFF"/>
    <path d="M281.71 490.535V501.275H286.419C287.286 501.275 288.088 501.144 288.826 500.883C289.562 500.622 290.199 500.246 290.735 499.758C291.272 499.268 291.692 498.67 291.995 497.96C292.298 497.251 292.45 496.456 292.45 495.575C292.45 493.991 291.936 492.755 290.911 491.867C289.886 490.979 288.402 490.535 286.46 490.535H281.71ZM299.472 517.014H295.342L290.384 508.711C289.93 507.939 289.49 507.282 289.063 506.738C288.636 506.194 288.199 505.75 287.751 505.406C287.303 505.062 286.822 504.811 286.306 504.652C285.788 504.494 285.207 504.415 284.56 504.415H281.71V517.014H278.24V487.395H287.08C288.374 487.395 289.568 487.558 290.663 487.88C291.758 488.204 292.708 488.696 293.514 489.358C294.319 490.019 294.948 490.842 295.403 491.826C295.858 492.811 296.084 493.963 296.084 495.286C296.084 496.318 295.93 497.264 295.62 498.126C295.311 498.986 294.87 499.754 294.298 500.428C293.727 501.103 293.039 501.678 292.232 502.152C291.427 502.628 290.522 502.996 289.516 503.258V503.34C290.012 503.56 290.443 503.812 290.808 504.095C291.172 504.376 291.52 504.711 291.851 505.096C292.182 505.482 292.508 505.919 292.832 506.407C293.155 506.896 293.516 507.464 293.916 508.111L299.472 517.014Z"
          stroke="#FFFFFF" stroke-width="1.33333" stroke-miterlimit="10"/>
    <path d="M307.011 503.216V513.874H311.72C313.758 513.874 315.338 513.392 316.46 512.428C317.583 511.464 318.143 510.142 318.143 508.463C318.143 504.966 315.762 503.216 310.998 503.216H307.011ZM307.011 490.535V500.098H310.563C312.464 500.098 313.958 499.64 315.046 498.724C316.134 497.808 316.678 496.518 316.678 494.851C316.678 491.974 314.784 490.535 310.998 490.535H307.011ZM303.542 517.014V487.395H311.968C314.53 487.395 316.56 488.022 318.06 489.275C319.562 490.528 320.312 492.159 320.312 494.17C320.312 495.85 319.858 497.31 318.95 498.548C318.04 499.788 316.787 500.67 315.19 501.192V501.275C317.187 501.508 318.784 502.263 319.982 503.536C321.18 504.81 321.779 506.466 321.779 508.504C321.779 511.038 320.87 513.088 319.052 514.659C317.235 516.228 314.942 517.014 312.175 517.014H303.542Z"
          fill="#FFFFFF"/>
    <path d="M307.011 503.216V513.874H311.72C313.758 513.874 315.338 513.392 316.46 512.428C317.583 511.464 318.143 510.142 318.143 508.463C318.143 504.966 315.762 503.216 310.998 503.216H307.011ZM307.011 490.535V500.098H310.563C312.464 500.098 313.958 499.64 315.046 498.724C316.134 497.808 316.678 496.518 316.678 494.851C316.678 491.974 314.784 490.535 310.998 490.535H307.011ZM303.542 517.014V487.395H311.968C314.53 487.395 316.56 488.022 318.06 489.275C319.562 490.528 320.312 492.159 320.312 494.17C320.312 495.85 319.858 497.31 318.95 498.548C318.04 499.788 316.787 500.67 315.19 501.192V501.275C317.187 501.508 318.784 502.263 319.982 503.536C321.18 504.81 321.779 506.466 321.779 508.504C321.779 511.038 320.87 513.088 319.052 514.659C317.235 516.228 314.942 517.014 312.175 517.014H303.542Z"
          stroke="#FFFFFF" stroke-width="1.33333" stroke-miterlimit="10"/>
    <path d="M343.486 517.013H327.789V487.396H342.825V490.535H331.259V500.387H341.958V503.505H331.259V513.873H343.486V517.013Z"
          fill="#FFFFFF"/>
    <path d="M343.486 517.013H327.789V487.396H342.825V490.535H331.259V500.387H341.958V503.505H331.259V513.873H343.486V517.013Z"
          stroke="#FFFFFF" stroke-width="1.33333" stroke-miterlimit="10"/>
    <path d="M352.656 490.535V501.275H357.366C358.232 501.275 359.035 501.144 359.772 500.883C360.508 500.622 361.146 500.246 361.682 499.758C362.219 499.268 362.639 498.67 362.942 497.96C363.244 497.251 363.396 496.456 363.396 495.575C363.396 493.991 362.883 492.755 361.858 491.867C360.832 490.979 359.348 490.535 357.407 490.535H352.656ZM370.419 517.014H366.288L361.331 508.711C360.876 507.939 360.436 507.282 360.01 506.738C359.583 506.194 359.146 505.75 358.698 505.406C358.25 505.062 357.768 504.811 357.252 504.652C356.735 504.494 356.154 504.415 355.507 504.415H352.656V517.014H349.187V487.395H358.027C359.32 487.395 360.515 487.558 361.61 487.88C362.704 488.204 363.655 488.696 364.46 489.358C365.266 490.019 365.895 490.842 366.35 491.826C366.804 492.811 367.031 493.963 367.031 495.286C367.031 496.318 366.876 497.264 366.567 498.126C366.258 498.986 365.816 499.754 365.244 500.428C364.674 501.103 363.986 501.678 363.179 502.152C362.374 502.628 361.468 502.996 360.463 503.258V503.34C360.959 503.56 361.39 503.812 361.755 504.095C362.119 504.376 362.467 504.711 362.798 505.096C363.128 505.482 363.455 505.919 363.779 506.407C364.102 506.896 364.463 507.464 364.863 508.111L370.419 517.014Z"
          fill="#FFFFFF"/>
    <path d="M352.656 490.535V501.275H357.366C358.232 501.275 359.035 501.144 359.772 500.883C360.508 500.622 361.146 500.246 361.682 499.758C362.219 499.268 362.639 498.67 362.942 497.96C363.244 497.251 363.396 496.456 363.396 495.575C363.396 493.991 362.883 492.755 361.858 491.867C360.832 490.979 359.348 490.535 357.407 490.535H352.656ZM370.419 517.014H366.288L361.331 508.711C360.876 507.939 360.436 507.282 360.01 506.738C359.583 506.194 359.146 505.75 358.698 505.406C358.25 505.062 357.768 504.811 357.252 504.652C356.735 504.494 356.154 504.415 355.507 504.415H352.656V517.014H349.187V487.395H358.027C359.32 487.395 360.515 487.558 361.61 487.88C362.704 488.204 363.655 488.696 364.46 489.358C365.266 490.019 365.895 490.842 366.35 491.826C366.804 492.811 367.031 493.963 367.031 495.286C367.031 496.318 366.876 497.264 366.567 498.126C366.258 498.986 365.816 499.754 365.244 500.428C364.674 501.103 363.986 501.678 363.179 502.152C362.374 502.628 361.468 502.996 360.463 503.258V503.34C360.959 503.56 361.39 503.812 361.755 504.095C362.119 504.376 362.467 504.711 362.798 505.096C363.128 505.482 363.455 505.919 363.779 506.407C364.102 506.896 364.463 507.464 364.863 508.111L370.419 517.014Z"
          stroke="#FFFFFF" stroke-width="1.33333" stroke-miterlimit="10"/>
    <path d="M373.104 515.815V511.726C373.572 512.139 374.133 512.511 374.786 512.841C375.441 513.171 376.129 513.45 376.853 513.678C377.576 513.905 378.301 514.081 379.032 514.205C379.761 514.329 380.436 514.39 381.056 514.39C383.19 514.39 384.784 513.994 385.837 513.202C386.89 512.411 387.417 511.271 387.417 509.785C387.417 508.986 387.241 508.29 386.89 507.698C386.54 507.106 386.054 506.566 385.434 506.077C384.814 505.589 384.081 505.119 383.234 504.673C382.388 504.225 381.476 503.753 380.498 503.258C379.465 502.734 378.501 502.205 377.606 501.667C376.712 501.13 375.933 500.538 375.273 499.891C374.612 499.243 374.092 498.51 373.713 497.691C373.334 496.873 373.145 495.911 373.145 494.81C373.145 493.461 373.441 492.287 374.033 491.289C374.625 490.29 375.404 489.467 376.368 488.821C377.33 488.173 378.429 487.691 379.661 487.374C380.894 487.058 382.15 486.899 383.43 486.899C386.35 486.899 388.477 487.251 389.813 487.953V491.857C388.064 490.645 385.82 490.039 383.08 490.039C382.322 490.039 381.565 490.118 380.808 490.277C380.05 490.435 379.376 490.693 378.784 491.051C378.192 491.409 377.709 491.87 377.338 492.435C376.966 492.999 376.78 493.687 376.78 494.501C376.78 495.258 376.921 495.911 377.204 496.462C377.486 497.013 377.902 497.515 378.453 497.97C379.004 498.425 379.676 498.865 380.466 499.293C381.258 499.719 382.17 500.187 383.204 500.697C384.264 501.219 385.269 501.77 386.22 502.349C387.169 502.927 388.002 503.567 388.718 504.27C389.434 504.971 390.002 505.75 390.422 506.603C390.842 507.457 391.052 508.435 391.052 509.537C391.052 510.997 390.766 512.231 390.194 513.243C389.624 514.255 388.853 515.079 387.882 515.713C386.91 516.346 385.792 516.803 384.525 517.086C383.258 517.367 381.924 517.509 380.518 517.509C380.05 517.509 379.472 517.471 378.784 517.395C378.096 517.319 377.393 517.21 376.677 517.065C375.961 516.921 375.282 516.741 374.642 516.527C374.002 516.314 373.489 516.077 373.104 515.815Z"
          fill="#FFFFFF"/>
    <path d="M373.104 515.815V511.726C373.572 512.139 374.133 512.511 374.786 512.841C375.441 513.171 376.129 513.45 376.853 513.678C377.576 513.905 378.301 514.081 379.032 514.205C379.761 514.329 380.436 514.39 381.056 514.39C383.19 514.39 384.784 513.994 385.837 513.202C386.89 512.411 387.417 511.271 387.417 509.785C387.417 508.986 387.241 508.29 386.89 507.698C386.54 507.106 386.054 506.566 385.434 506.077C384.814 505.589 384.081 505.119 383.234 504.673C382.388 504.225 381.476 503.753 380.498 503.258C379.465 502.734 378.501 502.205 377.606 501.667C376.712 501.13 375.933 500.538 375.273 499.891C374.612 499.243 374.092 498.51 373.713 497.691C373.334 496.873 373.145 495.911 373.145 494.81C373.145 493.461 373.441 492.287 374.033 491.289C374.625 490.29 375.404 489.467 376.368 488.821C377.33 488.173 378.429 487.691 379.661 487.374C380.894 487.058 382.15 486.899 383.43 486.899C386.35 486.899 388.477 487.251 389.813 487.953V491.857C388.064 490.645 385.82 490.039 383.08 490.039C382.322 490.039 381.565 490.118 380.808 490.277C380.05 490.435 379.376 490.693 378.784 491.051C378.192 491.409 377.709 491.87 377.338 492.435C376.966 492.999 376.78 493.687 376.78 494.501C376.78 495.258 376.921 495.911 377.204 496.462C377.486 497.013 377.902 497.515 378.453 497.97C379.004 498.425 379.676 498.865 380.466 499.293C381.258 499.719 382.17 500.187 383.204 500.697C384.264 501.219 385.269 501.77 386.22 502.349C387.169 502.927 388.002 503.567 388.718 504.27C389.434 504.971 390.002 505.75 390.422 506.603C390.842 507.457 391.052 508.435 391.052 509.537C391.052 510.997 390.766 512.231 390.194 513.243C389.624 514.255 388.853 515.079 387.882 515.713C386.91 516.346 385.792 516.803 384.525 517.086C383.258 517.367 381.924 517.509 380.518 517.509C380.05 517.509 379.472 517.471 378.784 517.395C378.096 517.319 377.393 517.21 376.677 517.065C375.961 516.921 375.282 516.741 374.642 516.527C374.002 516.314 373.489 516.077 373.104 515.815Z"
          stroke="#FFFFFF" stroke-width="1.33333" stroke-miterlimit="10"/>
    <path d="M419.224 517.013H415.755V503.505H400.43V517.013H396.959V487.396H400.43V500.387H415.755V487.396H419.224V517.013Z"
          fill="#FFFFFF"/>
    <path d="M419.224 517.013H415.755V503.505H400.43V517.013H396.959V487.396H400.43V500.387H415.755V487.396H419.224V517.013Z"
          stroke="#FFFFFF" stroke-width="1.33333" stroke-miterlimit="10"/>
    <path d="M439.176 490.039C436.064 490.039 433.538 491.162 431.596 493.406C429.655 495.65 428.684 498.596 428.684 502.246C428.684 505.895 429.631 508.831 431.524 511.055C433.418 513.278 435.886 514.39 438.928 514.39C442.178 514.39 444.739 513.33 446.612 511.21C448.484 509.088 449.42 506.122 449.42 502.307C449.42 498.398 448.512 495.375 446.695 493.24C444.876 491.106 442.371 490.039 439.176 490.039ZM438.928 517.508C434.728 517.508 431.366 516.126 428.839 513.358C426.312 510.59 425.048 506.99 425.048 502.555C425.048 497.791 426.336 493.991 428.911 491.154C431.486 488.318 434.991 486.899 439.424 486.899C443.514 486.899 446.808 488.276 449.307 491.031C451.807 493.784 453.056 497.384 453.056 501.832C453.056 506.666 451.775 510.487 449.214 513.295C446.654 516.104 443.224 517.508 438.928 517.508Z"
          fill="#FFFFFF"/>
    <path d="M439.176 490.039C436.064 490.039 433.538 491.162 431.596 493.406C429.655 495.65 428.684 498.596 428.684 502.246C428.684 505.895 429.631 508.831 431.524 511.055C433.418 513.278 435.886 514.39 438.928 514.39C442.178 514.39 444.739 513.33 446.612 511.21C448.484 509.088 449.42 506.122 449.42 502.307C449.42 498.398 448.512 495.375 446.695 493.24C444.876 491.106 442.371 490.039 439.176 490.039ZM438.928 517.508C434.728 517.508 431.366 516.126 428.839 513.358C426.312 510.59 425.048 506.99 425.048 502.555C425.048 497.791 426.336 493.991 428.911 491.154C431.486 488.318 434.991 486.899 439.424 486.899C443.514 486.899 446.808 488.276 449.307 491.031C451.807 493.784 453.056 497.384 453.056 501.832C453.056 506.666 451.775 510.487 449.214 513.295C446.654 516.104 443.224 517.508 438.928 517.508Z"
          stroke="#FFFFFF" stroke-width="1.33333" stroke-miterlimit="10"/>
    <path d="M462.35 490.535V502.679H465.985C468.381 502.679 470.209 502.132 471.469 501.038C472.729 499.943 473.358 498.398 473.358 496.4C473.358 492.49 471.046 490.535 466.42 490.535H462.35ZM462.35 505.819V517.014H458.881V487.395H467.018C470.185 487.395 472.64 488.167 474.381 489.708C476.124 491.251 476.994 493.427 476.994 496.235C476.994 499.044 476.026 501.344 474.092 503.134C472.157 504.924 469.545 505.819 466.254 505.819H462.35Z"
          fill="#FFFFFF"/>
    <path d="M462.35 490.535V502.679H465.985C468.381 502.679 470.209 502.132 471.469 501.038C472.729 499.943 473.358 498.398 473.358 496.4C473.358 492.49 471.046 490.535 466.42 490.535H462.35ZM462.35 505.819V517.014H458.881V487.395H467.018C470.185 487.395 472.64 488.167 474.381 489.708C476.124 491.251 476.994 493.427 476.994 496.235C476.994 499.044 476.026 501.344 474.092 503.134C472.157 504.924 469.545 505.819 466.254 505.819H462.35Z"
          stroke="#FFFFFF" stroke-width="1.33333" stroke-miterlimit="10"/>
</svg>
