<svg width="383" height="350" viewBox="0 0 383 350" fill="none" xmlns="http://www.w3.org/2000/svg">
    <path d="M311.183 229.893C311.183 229.893 315.607 227.024 314.369 222.924C313.13 218.825 311.283 210.065 311.183 206.537C311.083 203.011 316.669 183.081 319.323 180.251C321.977 177.419 333.302 162.379 333.302 162.379C333.302 162.379 335.023 161.751 331.829 155.652C328.634 149.552 329.215 150.424 327.569 147.519C325.923 144.615 316.047 126.509 316.047 126.509C315.37 124.573 311.061 115.183 311.182 113.052C311.303 110.923 309.851 105.016 310.045 104.436C310.239 103.855 307.141 101.725 306.366 100.079C305.591 98.4332 300.654 91.8492 300.363 88.1705C300.073 84.4905 297.266 78.5852 296.685 75.8745C296.103 73.1639 289.81 58.3505 289.81 54.1878C289.81 50.0238 288.649 40.2465 288.649 40.2465C288.649 40.2465 287.099 26.6918 287.197 23.5932C287.293 20.4958 288.649 14.7825 288.939 13.1372C289.23 11.4918 290.198 5.68251 290.005 4.71451C289.81 3.74651 285.647 3.64517 284.97 5.14784C284.293 6.65051 283.614 7.90919 282.839 10.2332C282.065 12.5559 278.677 24.8518 278.386 26.5945C278.095 28.3372 276.45 37.5345 276.45 39.0839C276.45 40.6332 275.482 44.8932 275.482 44.8932C275.482 44.8932 273.642 46.4425 272.481 49.1532C271.318 51.8639 270.545 55.7372 269.866 57.4798C269.189 59.2225 267.93 66.8705 267.93 66.8705C267.93 66.8705 267.058 72.8732 267.058 75.3905C267.058 77.9079 268.123 79.9412 267.058 81.1999C265.994 82.4585 264.445 83.7172 264.251 85.8465C264.057 87.9772 263.283 95.4318 263.186 98.1425C263.089 100.853 262.025 108.017 262.218 110.825C262.411 113.633 263.283 119.829 263.283 119.829C263.283 119.829 260.862 125.445 261.055 126.8C261.25 128.156 261.153 132.125 261.637 134.449C262.121 136.772 265.703 149.165 266.574 151.004C267.446 152.844 268.602 156.957 268.702 157.66C268.802 158.363 266.769 156.813 266.865 160.008C266.962 163.203 269.118 170.368 270.073 173.66C271.029 176.951 271.802 181.115 272.867 182.276C273.933 183.439 275.289 186.343 276.353 187.795C277.418 189.247 279.063 192.743 279.742 193.221C280.419 193.7 279.742 195.443 280.322 197.96C280.903 200.477 281.678 203.092 281.678 203.092C281.678 203.092 285.647 209.676 286.615 212.289C287.583 214.904 289.521 218.389 291.166 220.325C292.811 222.261 297.653 225.167 299.686 226.619C301.719 228.071 305.375 230.952 306.754 230.879C308.133 230.804 310.529 230.88 310.529 230.88L311.183 229.893Z" fill="white"/>
    <path d="M180.677 250.866C181.789 255.091 186.663 265.91 189.205 268.022C191.748 270.135 198.74 274.797 200.224 276.069C201.707 277.339 227.133 292.173 228.193 292.807C229.253 293.443 241.755 297.442 242.603 298.833C243.449 300.225 262.835 307.217 262.835 307.217C262.835 307.217 286.04 313.15 288.371 313.362C290.701 313.573 309.667 311.453 313.971 309.854C318.275 308.255 335.367 302.722 337.089 300.631C338.811 298.541 352.215 289.81 354.551 286.489C356.887 283.169 363.847 276.897 364.732 272.102C365.619 267.306 365.939 261.895 365.779 257.467C365.619 253.041 364.857 246.463 357.429 243.481C350.001 240.498 341.516 235.702 334.384 240.129C327.251 244.555 325.16 248.737 319.257 252.918C313.355 257.099 315.323 259.435 306.345 262.51C297.369 265.583 301.919 269.15 284.333 269.397C266.749 269.642 262.076 271.486 252.115 268.166C242.155 264.846 240.187 264.601 231.825 262.387C223.463 260.173 221.127 258.206 212.027 254.394C202.927 250.581 190.507 244.433 187.309 244.063C184.112 243.695 181.284 250.827 181.284 250.827L180.677 250.866Z" fill="white"/>
    <path d="M367.367 249.92C367.367 250.614 367.906 257.854 368.599 258.392C369.293 258.932 372.709 260.626 374.582 259.394C376.455 258.162 378.227 257.546 377.611 256.467C376.995 255.388 375.917 254.05 373.837 253.179C371.758 252.308 367.367 249.92 367.367 249.92Z" fill="white"/>
    <path d="M270.284 253.767C270.284 253.767 250.97 229.871 254.956 209.371C254.956 209.371 253.027 173.348 257.13 168.613C261.234 163.879 229.88 155.251 227.986 144.413C227.986 144.413 218.727 130.947 218.938 129.999C219.148 129.052 181.098 104.417 179.73 97.6441C179.73 97.6441 160.707 77.3108 160.95 70.0588C160.95 70.0588 154.422 58.0534 154.904 56.3614C154.904 56.3614 150.482 63.9588 156.444 87.1628C156.444 87.1628 149.759 87.7814 158.219 117.351C156.371 117.236 155.967 125.393 169.212 143.557C169.212 143.557 164.338 134.795 164.418 139.709C164.499 144.624 170.628 158.056 171.192 159.024C171.756 159.991 179.572 175.219 180.136 175.701C180.7 176.185 184.287 182.273 186.786 184.207C189.283 186.14 194.478 191.575 195.687 191.655C196.895 191.735 189.402 187.787 189.079 187.868C188.758 187.948 187.88 187.989 189.331 191.051C190.782 194.113 195.283 203.992 198.507 206.001C201.73 208.011 200.478 207.221 202.734 209.536C204.99 211.851 204.55 212.603 204.791 214.456C205.032 216.309 209.464 221.376 210.511 222.388C211.559 223.4 220.275 234.399 222.128 234.801C223.98 235.205 222.926 237.244 227.512 240.641C232.098 244.04 232.307 245.717 237.322 246.927C242.336 248.135 242.256 248.619 245.399 248.699C248.54 248.78 243.202 249.197 243.363 250.325C243.523 251.453 247.596 253.533 248.632 253.452C249.668 253.372 253.931 254.959 256.195 255.144C258.459 255.331 260.466 254.177 263.204 254.903C265.944 255.628 266.186 256.031 268.362 256.192C270.536 256.353 271.656 254.899 271.656 254.899L270.284 253.767Z" fill="white"/>
    <path d="M369.497 253.964C369.529 253.97 369.562 253.974 369.594 253.979C369.594 254.403 369.583 254.827 369.595 255.251C369.617 256.087 370.1 256.334 370.865 256.244C371.853 256.131 372.844 256.043 373.834 255.938C374.084 255.91 374.333 255.86 374.583 255.82C374.391 255.594 374.235 255.319 374.003 255.148C373.064 254.456 372.111 253.786 371.147 253.131C370.717 252.839 370.25 252.606 369.799 252.346C369.699 252.884 369.597 253.424 369.497 253.964ZM293.122 310.483C295.66 310.323 298.21 310.258 300.735 309.98C303.927 309.63 307.143 309.307 310.271 308.622C322.748 305.886 334.067 300.575 344.215 292.82C352.295 286.647 358.846 279.227 363 269.806C364.535 266.323 365.123 262.863 364.468 259.104C363.597 254.1 361.641 249.788 357.053 247.203C352.109 244.418 346.811 243.848 341.311 245.275C334.539 247.03 328.96 250.72 324.326 255.879C317.588 263.379 310.486 270.472 302.139 276.21C296.62 280.003 291.024 283.676 284.862 286.359C276.932 289.811 268.655 291.948 260.042 292.804C253.012 293.502 246.168 292.868 239.426 290.607C231.659 288.002 224.439 284.31 217.351 280.278C205.003 273.251 194.655 263.946 185.827 252.879C185.408 252.355 184.942 251.868 184.498 251.366C184.644 252.019 184.727 252.695 184.947 253.324C186.507 257.794 189.079 261.728 191.623 265.662C193.757 268.962 196.624 271.554 199.84 273.819C206.683 278.636 213.823 282.964 221.098 287.09C232.683 293.659 244.57 299.562 257.231 303.804C268.88 307.707 280.727 310.504 293.122 310.483ZM319.788 163.192C319.139 164.648 318.41 166.072 317.64 167.47C313.331 175.302 310.064 183.542 308.046 192.251C307.53 194.474 306.023 201.604 305.515 202.242C304.934 202.971 304.411 191.699 311.831 171.927C313.336 168.699 315.069 165.576 316.704 162.408C317.343 161.17 317.251 160.066 316.534 158.804C314.666 155.524 312.734 152.248 311.235 148.795C306.76 138.478 303.672 127.855 305.306 116.403C305.87 112.448 306.143 109.648 308.335 106.168C308.814 105.41 308.032 105.003 307.638 104.51C303.007 98.7283 299.964 91.1657 297.26 84.2963C291.164 68.8097 287.048 52.843 286.023 36.1643C285.583 29.0163 285.96 21.8883 286.675 14.7803C286.979 11.7656 287.531 8.77764 287.962 5.7763C287.991 5.5723 287.95 5.35765 287.94 5.14831C287.744 5.27765 287.491 5.36432 287.362 5.54299C286.896 6.18965 286.435 6.84564 286.039 7.53764C284.148 10.827 282.659 14.2936 281.628 17.9456C279.898 24.0763 279.155 30.363 278.692 36.6923C278.074 45.1737 278.339 53.6163 279.603 62.035C281.124 72.179 287.619 94.991 287.182 95.115C286.64 95.2683 284.655 90.883 284.262 89.7816C279.467 76.3577 275.386 62.847 274.898 48.579C274.872 47.815 274.775 47.0523 274.712 46.2883C274.346 47.0296 273.902 47.743 273.624 48.5163C270.196 58.099 268.825 68.003 269.321 78.1403C269.516 82.1203 269.982 86.1083 270.64 90.0403C272.279 99.8403 274.472 109.452 278.106 118.68C278.26 119.075 279.242 121.206 278.45 121.546C277.931 120.899 267.858 97.127 266.332 85.283C266.278 84.8643 266.215 84.4456 266.158 84.027C265.99 84.4563 265.759 84.871 265.663 85.3163C263.596 94.855 263.57 104.459 264.852 114.087C265.623 130.568 278.858 151.798 278.903 152.475C278.963 153.38 266.272 134.604 263.682 125.571C263.543 125.084 263.304 124.626 263.112 124.154C263.016 124.643 262.848 125.131 262.838 125.622C262.722 131.491 265.182 142.428 266.743 148.034C269.948 159.543 283.266 177.327 282.879 177.676C283.727 179.163 276.386 171.635 275.03 169.343C272.926 166.724 270.716 163.582 269.06 160.854C268.944 160.663 268.71 160.543 268.531 160.391C268.503 160.595 268.422 160.808 268.454 161.002C268.623 161.998 268.762 163.003 269.018 163.979C273.115 179.659 280.52 193.871 292.836 204.376C294.614 205.923 295.31 206.27 296.135 206.967C295.775 207.816 285.532 199.995 282.61 197.122C282.395 196.911 282.128 196.754 281.886 196.571C281.806 196.899 281.588 197.268 281.671 197.548C282.103 199.026 282.504 200.527 283.111 201.935C287.328 211.703 294.022 219.528 302.303 226.062C304.008 227.408 305.886 228.546 307.743 229.682C308.147 229.93 308.926 229.971 309.33 229.746C311.286 228.654 312.744 224.968 312.183 222.747C311.779 221.15 311.348 219.558 310.896 217.972C309.038 211.451 308.71 204.914 310.282 198.256C312.948 186.956 318.088 176.928 325.335 167.912C327.234 165.55 329.038 163.104 330.76 160.611C331.915 158.94 331.863 157.215 330.728 155.395C326.535 148.662 322.357 141.915 318.331 135.08C314.2 128.07 311.031 120.656 309.75 112.542C309.722 112.362 309.603 112.195 309.527 112.023C309.394 112.283 309.194 112.53 309.135 112.804C307.814 118.975 307.652 125.142 308.939 131.359C310.859 140.634 314.268 149.288 319.267 157.332C319.867 158.298 320.974 160.456 319.788 163.192ZM244.576 250.111C244.395 250.098 244.207 250.195 244.022 250.242C244.11 250.423 244.148 250.676 244.294 250.776C245.346 251.51 248.197 254.346 256.043 253.908C258.937 253.747 262.135 254.132 264.915 255.039C265.615 255.267 266.371 255.43 267.103 255.436C268.619 255.448 269.07 254.787 268.4 253.432C267.366 251.338 266.227 249.294 265.094 247.248C261.834 241.374 258.99 235.312 256.808 228.947C254.012 220.786 252.54 212.378 252.007 203.78C251.468 195.08 251.68 186.427 253.284 177.832C253.8 175.063 254.242 172.278 254.627 169.487C254.827 168.04 254.216 166.902 252.893 166.175C252.288 165.842 251.728 165.426 251.142 165.058C245.095 161.262 239.05 157.459 233.547 152.882C228.232 148.462 223.348 143.655 220.104 137.428C219.515 136.296 218.968 135.142 218.384 134.006C218.247 133.738 218.039 133.504 217.864 133.255C217.767 133.584 217.62 133.907 217.584 134.243C217.539 134.663 217.547 135.098 217.595 135.52C218.076 139.795 219.235 143.886 221.227 147.695C223.972 152.944 227.036 158.042 230.959 162.478C234.656 166.658 238.694 170.552 242.75 174.395C244.603 176.152 245.411 176.995 245.1 179.47C244.192 186.708 244.45 194.962 245.342 202.184C246.243 218.67 259.322 246.336 257.804 244.134C257.156 243.194 250.014 230.027 248.215 224.558C245.612 216.64 242.796 208.459 241.893 200.184C241.245 194.239 241.074 188.279 241.626 182.31C242.103 177.16 242.422 178.419 239.015 175.339C232.895 169.808 227.342 163.819 222.916 156.826C219.604 151.591 216.487 146.284 215.152 140.123C214.468 136.968 213.931 133.838 214.93 130.664C215.198 129.811 214.727 129.4 214.148 128.951C210.106 125.819 206.078 122.667 202.042 119.527C193.751 113.079 185.579 106.502 178.222 98.9643C169.018 89.5376 161.914 78.7736 157.25 66.4403C156.406 64.2083 155.843 61.871 155.144 59.583C155.023 59.1856 154.866 58.799 154.724 58.4083C154.628 58.7776 154.472 59.143 154.446 59.5176C154.288 61.747 153.943 63.991 154.066 66.207C154.476 73.6697 155.608 81.0483 157.623 88.2443C162.824 106.822 186.171 145.094 185.299 144.411C183.723 143.587 165.255 116.587 158.682 102.366C157.334 98.899 156.22 95.3416 154.986 91.8296C154.911 91.6203 154.72 91.451 154.584 91.263C154.536 91.4683 154.451 91.6736 154.447 91.879C154.42 93.475 154.243 95.0896 154.422 96.663C155.815 108.924 159.056 120.731 164.315 131.858C165.063 139.147 188.562 170.511 193.695 174.719C192.912 174.544 188.645 170.614 187.605 169.472C180.199 161.343 172.868 152.744 166.722 143.384C166.431 142.898 165.191 140.44 165.326 140.899C165.352 141.492 165.775 143.188 165.803 143.782C165.806 143.834 165.831 143.884 165.844 143.935C169.382 157.762 175.9 170.024 185.386 180.66C193.903 191.79 217.18 205.624 216.042 205.934C215.592 206.719 197.033 196.734 190.347 190.535C190.103 190.31 189.776 190.176 189.488 190C189.572 190.348 189.608 190.716 189.746 191.042C192.379 197.279 196.144 202.73 201.344 207.08C209.056 215.355 232.05 226.539 232.438 226.871C232.024 227.919 210.375 217.866 206.75 215.635C206.46 215.456 205.692 214.772 205.376 214.639C205.495 214.972 205.264 217.27 210.692 222.179C218.35 229.659 227.571 237.014 238.134 238.656C238.447 239.19 230.223 237.808 225.17 235.724C224.528 235.458 223.83 235.328 223.158 235.135C223.586 235.671 223.953 236.271 224.451 236.732C232.115 243.84 241.179 248.315 251.772 247.374C253.228 247.246 245.479 250.174 244.576 250.111ZM237.964 248.28C232.858 246.502 228.035 244.191 223.806 240.77C221.726 239.086 219.508 237.36 218.546 234.852C217.116 231.791 214.824 230.284 212.268 228.076C211.858 227.836 211.496 227.507 211.123 227.207C205.631 222.798 202.332 218.435 200.487 211.502C200.363 211.038 198.398 209.415 198.035 209.05C196.235 207.235 194.943 205.81 193.289 203.871C189.276 199.168 186.16 193.934 184.536 187.902C184.918 184.8 182.774 183.016 180.97 181.054C180.682 180.739 180.415 180.406 180.143 180.078C174.273 172.967 170.14 166.687 166.55 158.191C166.26 157.507 165.583 157.168 164.82 156.922C161.33 155.794 157.414 154.531 154.039 153.107C142.118 148.074 130.071 142.607 118.752 136.342C110.928 132.011 102.519 126.743 94.8869 122.082C85.2375 116.188 76.9615 110.7 68.8535 102.723C66.6882 100.592 63.8682 97.739 63.6749 97.6443C63.7255 97.839 63.7415 98.0523 63.8309 98.2283C65.0362 100.599 64.5002 99.6456 65.7909 101.97C73.9735 116.704 83.8882 130.235 94.9655 142.883C110.891 161.066 129.075 176.691 149.432 189.758C149.923 190.072 153.598 193.572 152.654 194.374C150.896 194.792 152.607 195.228 135.567 190.016C120.906 184.695 104.97 178.808 89.9642 175.732C83.6842 174.318 71.1949 171.87 64.8335 170.972C49.3469 169.378 22.6162 167.775 20.6695 167.822C19.6082 167.8 21.8949 168.439 22.1202 168.516C25.9349 169.832 29.6095 170.36 33.3149 171.931C47.0215 177.743 60.6869 183.655 74.3135 189.65C85.1309 194.407 95.7922 199.506 105.866 205.715C114.659 211.135 123.311 216.78 132.066 222.262C146.972 231.596 160.715 242.423 173.535 254.443C174.5 255.347 175.347 256.412 176.416 257.164C179.243 259.152 182.163 261.011 185.047 262.918C185.395 263.148 185.756 263.358 186.111 263.576C185.968 263.166 185.895 262.71 185.671 262.35C182.886 257.871 180.832 253.107 180.084 247.854C179.838 246.119 179.706 244.36 179.651 242.61C179.622 241.66 180.062 240.834 181.119 240.583C182.194 240.328 182.839 240.856 183.234 241.803C183.294 241.947 183.384 242.079 183.447 242.224C185.895 247.896 189.659 252.646 193.823 257.13C206.43 270.698 221.643 280.264 238.902 286.78C246.636 289.7 254.564 290.284 262.632 289.107C272.684 287.64 282.267 284.695 291.05 279.408C298.491 274.931 305.599 270.003 311.843 263.947C315.511 260.39 318.964 256.608 322.479 252.894C327.18 247.927 332.779 244.431 339.284 242.322C348.642 239.288 360.671 242.156 365.141 250.708C365.255 250.926 365.463 251.092 365.627 251.283C365.679 251.008 365.812 250.72 365.771 250.459C365.106 246.228 364.015 242.191 361.68 238.471C358.741 233.791 355.707 229.298 351.07 226.076C345.112 221.938 338.716 219.215 331.315 219.46C329.039 219.536 326.726 219.463 324.502 219.864C321.931 220.328 319.435 221.224 316.918 221.968C316.206 222.179 315.803 222.612 315.862 223.495C316.102 227.1 314.254 229.826 311.864 232.204C310.223 233.839 308.408 234.055 306.6 233.06C305.206 232.292 303.823 231.48 302.52 230.567C297.427 226.998 292.975 222.732 288.963 217.988C288.213 217.102 287.116 216.296 286.408 215.606C282.481 212.058 280.251 210.511 276.366 208.931C268.974 205.986 261.932 204.43 256.091 204.28C254.986 204.594 254.856 204.311 255.014 205.963C256.115 218.546 259.613 230.283 265.56 241.411C267.339 244.74 269.079 248.092 270.911 251.392C272.636 255.436 271.234 258.227 267.106 258.239C265.898 258.246 264.562 257.912 263.406 257.59C261.016 256.924 258.615 256.642 256.143 256.706C254.28 256.754 252.391 256.844 250.555 256.603C245.488 255.938 241.032 254.211 238.827 249.034M28.9815 164.096C36.9069 164.447 43.8308 165.04 50.4762 165.46C63.4988 166.283 77.1522 168.256 89.8935 171.352C105.715 174.8 119.778 179.176 134.262 185.486C135.452 186.047 135.85 185.435 134.639 184.672C120.159 173.954 106.738 162.04 94.7522 148.592C82.4228 134.759 71.3642 119.96 62.5042 103.627C60.0202 99.047 57.8548 94.2936 55.6082 89.5883C55.0402 88.3976 54.6455 87.1056 54.3242 85.8216C54.1349 85.071 86.4962 112.61 101.588 121.346C107.578 124.814 113.403 128.572 119.459 131.916C129.338 137.37 139.427 142.416 149.754 146.99C154.087 148.908 158.4 150.842 162.975 152.123C163.302 152.215 163.659 152.199 164.002 152.232C163.946 151.927 163.91 151.616 163.83 151.318C163.078 148.496 162.492 146.414 161.794 143.579C160.65 137.623 162.26 136.994 162.059 136.602C156.728 126.182 153.636 115.027 151.275 103.643C150.142 98.1723 149.859 92.6616 151.106 87.1523C151.574 86.3576 152.004 81.8136 151.608 79.4776C151.055 72.659 150.751 67.379 151.108 61.4657C151.416 58.403 151.878 55.9243 152.967 53.0977C154.039 50.351 156.907 53.475 157.075 55.1283C157.687 61.1456 160.25 66.5283 162.775 71.9563C168.618 84.5123 177.254 94.9496 187.704 103.815C197.368 112.012 207.484 119.674 217.355 127.628C218.447 128.508 219.603 129.618 220.106 130.871C224.483 141.762 232.767 149.128 242.111 155.543C245.972 158.194 249.947 160.683 253.895 163.204C257.006 165.191 258.131 167.574 257.542 171.263C257.247 173.102 256.927 174.939 256.555 176.764C254.95 184.644 254.572 192.608 254.808 200.624C254.838 201.6 255.079 201.9 256.14 202.038C264.927 203.167 273.611 204.718 281.43 209.256C281.568 209.336 281.721 209.392 281.853 209.479C283.284 210.416 282.455 209.11 282.362 208.908C281.52 207.07 280.844 206.08 280.148 204.191C279.511 202.462 278.723 199.846 278.472 198.024C278.356 197.178 278.348 195.524 278.887 194.839C279.514 194.042 279.332 193.664 278.826 192.991C270.478 181.85 266.924 170.786 265.985 161.935C265.885 160.688 265.382 158.048 266.371 157.194C266.69 156.614 266.222 155.482 265.87 154.708C263.572 149.654 262.586 145.743 261.334 140.34C260.322 135.975 259.546 131.567 259.62 127.067C259.634 126.255 259.687 123.922 260.108 122.279C260.582 120.438 261.444 119.284 261.803 118.562C261.956 118.254 261.998 117.756 261.936 117.368C260.927 110.976 260.576 104.54 260.903 98.0897C261.208 92.071 262.04 86.1163 263.99 80.3696C264.058 80.1683 264.09 79.9416 264.204 79.771C266.291 76.675 266.063 73.1123 266.243 69.639C267.052 54.0136 271.936 43.2003 274.752 41.335C275.104 40.9843 275.234 40.3096 275.278 39.7683C275.8 33.507 276.36 27.2523 277.771 21.1083C278.959 15.935 280.848 11.0377 283.544 6.46566C284.799 4.34032 286.294 2.40698 288.434 1.06832C289.296 0.528317 290.178 0.238976 291.108 0.897642C292.243 1.69764 290.439 14.2896 290.175 19.4403C289.864 25.5003 289.752 31.5843 289.894 37.6497C290.078 45.507 291.722 53.187 293.491 60.8163C295.694 70.3203 298.646 79.5923 302.764 88.455C305.358 94.0336 308.642 99.199 312.632 103.89C313.579 105.003 313.806 106.01 313.464 107.514C313.099 109.12 313.258 110.907 313.484 112.575C314.48 119.911 317.221 126.662 320.908 133.006C324.892 139.863 329.119 146.58 333.239 153.36C333.487 153.77 333.7 154.204 333.977 154.592C336.209 157.708 335.855 160.858 333.832 163.822C331.855 166.72 329.655 169.471 327.495 172.24C320.776 180.854 316.115 190.419 313.772 201.122C312.408 207.359 313.239 213.396 314.914 219.416C315.142 220.238 315.56 220.068 316.068 219.84C319.33 218.372 322.827 217.788 326.322 217.364C336.922 216.079 346.42 218.784 354.839 225.41C358.814 228.539 361.72 232.476 364.283 236.752C366.279 240.082 368.199 243.41 368.679 247.376C368.747 247.938 369.335 248.562 369.848 248.922C373.768 251.679 377.74 254.36 381.671 257.103C383.331 258.26 383.265 260.12 381.485 261.08C379.956 261.906 378.324 262.54 376.73 263.243C374.16 264.375 371.575 265.475 369.022 266.646C368.711 266.788 368.48 267.252 368.348 267.616C367.715 269.354 367.339 271.218 366.488 272.835C363.131 279.222 359.195 285.224 353.931 290.244C342.004 301.618 328.008 309.147 311.887 312.618C308.456 313.356 304.944 313.715 301.468 314.239C296.394 315.004 291.286 314.887 286.208 314.496C277.718 313.842 269.431 312.062 261.271 309.603C245.48 304.843 230.886 297.5 216.61 289.388C205.135 282.867 194.564 275.055 183.96 267.266C180.876 265 164.742 252.011 161.198 248.86C161.516 244.498 139.995 231.307 120.303 219.775C113.159 215.334 80.1709 196.784 69.2509 192.004C56.2975 186.334 43.3042 180.752 30.2589 175.295C23.8295 172.606 0.574865 166.695 0.228199 166.364C-1.2918 164.918 25.0909 164.096 28.9815 164.096Z" fill="#231200"/>
    <path d="M239.258 247.602C234.045 245.786 229.287 244.807 224.97 241.314C222.847 239.596 220.582 237.834 219.601 235.272C218.141 232.148 215.802 230.61 213.191 228.356C212.773 228.111 212.405 227.775 212.023 227.468C206.415 222.967 203.049 218.514 201.165 211.435C201.038 210.962 199.031 209.306 198.661 208.931C196.823 207.079 195.505 205.623 193.817 203.646C189.719 198.844 186.539 193.5 184.881 187.342C185.27 184.176 183.081 182.355 181.239 180.351C180.946 180.031 180.673 179.69 180.397 179.355C174.403 172.095 170.183 165.686 166.518 157.011C166.223 156.312 165.531 155.967 164.753 155.715C161.189 154.563 157.191 153.275 153.747 151.82C141.575 146.682 129.278 141.102 117.722 134.706C109.735 130.284 101.151 124.907 93.3579 120.147C83.5086 114.131 75.0593 108.53 66.7819 100.384C64.5713 98.2098 61.6926 95.2964 61.4953 95.2004C61.5459 95.3991 61.5619 95.6164 61.6539 95.7951C62.8846 98.2164 62.3379 97.2431 63.6553 99.6164C72.0086 114.659 82.1313 128.471 93.4393 141.383C109.698 159.946 127.469 176.406 148.25 189.746C148.751 190.067 153.295 193.131 152.331 193.95C150.538 194.378 152.285 194.822 134.889 189.502C119.921 184.068 103.653 178.059 88.3339 174.919C81.9233 173.475 69.1713 170.975 62.6779 170.06C46.8673 168.431 19.5793 166.795 17.5913 166.843C16.5073 166.822 18.8419 167.474 19.0726 167.552C22.9673 168.895 26.7179 169.434 30.5006 171.038C44.4939 176.971 58.4433 183.007 72.3566 189.126C83.3979 193.983 94.2833 199.188 104.567 205.528C113.543 211.06 122.377 216.824 131.314 222.42C146.533 231.95 160.562 243.003 173.65 255.274C174.635 256.196 175.499 257.283 176.59 258.051C179.477 260.082 182.457 261.979 185.402 263.926C185.758 264.16 187.71 266.508 188.073 266.731C187.926 266.311 186.269 263.712 186.039 263.344C187.153 257.802 181.686 253.766 180.335 248.546C180.083 246.775 179.949 244.98 179.894 243.192C179.863 242.223 180.313 241.38 181.393 241.124C182.489 240.864 183.147 241.403 183.55 242.37C183.613 242.516 183.705 242.652 183.769 242.799C186.267 248.591 190.11 253.439 194.362 258.016C207.231 271.868 222.762 281.634 240.381 288.286C248.278 291.267 256.371 291.863 264.607 290.662C274.87 289.164 284.651 286.156 293.619 280.76C301.215 276.19 308.471 271.158 314.846 264.976C318.591 261.344 322.117 257.483 325.705 253.692C330.503 248.622 336.219 245.052 342.861 242.899C352.413 239.802 363.19 246.019 367.754 254.751C367.87 254.972 368.13 252.994 368.297 253.188C368.35 252.907 368.655 252 368.613 251.734C367.934 247.414 367.117 243.648 364.733 239.85C361.734 235.071 359.626 229.603 354.893 226.314C348.81 222.088 343.058 218.315 335.502 218.566C333.179 218.642 330.085 218.53 327.815 218.939C325.19 219.412 322.811 219.724 320.241 220.484C319.514 220.7 315.773 221.154 315.833 222.055C314.706 225.51 315.875 226.939 313.437 229.368C311.762 231.036 312.375 231.895 310.53 230.879C310.413 230.258 308.381 228.064 307.051 227.132C302.899 223.576 301.597 223.067 297.929 220.323C297.071 219.68 296.27 218.967 295.486 218.236C293.287 216.184 289.115 213.547 287.822 212.858C283.814 209.236 282.09 208.948 278.122 207.335C275.909 206.452 273.789 205.775 271.747 205.255C266.829 204 262.366 203.655 258.154 203.548C257.025 203.867 253.442 203.094 253.603 204.779C254.727 217.626 259.79 231.851 265.862 243.212C267.678 246.611 268.97 249.638 270.839 253.008C270.521 257.691 271.403 257.23 267.274 257.236C266.291 257.238 265.302 257.128 264.353 256.872C261.717 256.162 259.034 255.631 256.298 255.92C254.903 256.068 253.498 256.114 252.109 255.927C246.835 255.223 242.589 255.11 240.306 249.751" fill="#231200"/>
    <path d="M315.037 235.195C314.132 238.563 311.098 242.327 308.864 244.865C304.166 250.201 296.268 252.168 289.689 253.02C283.213 253.857 276.322 251.288 271.49 247.492C267.02 243.979 262.521 236.233 261.388 230.576C259.801 222.663 262.012 215.483 266.528 208.631C268.449 205.716 272.034 204.215 274.228 201.555C277.482 197.604 284.546 197.059 289.812 197.432C294.052 197.732 299.117 198.275 302.586 200.801C305.677 203.052 311.254 206.4 313.004 209.9C314.305 212.508 316.258 216.481 316.534 219.469C316.744 221.737 317.569 224.435 317.785 226.701C317.813 229.464 315.748 232.551 315.037 235.195ZM350.804 255.328C349.905 254.361 348.468 254.184 346.948 254.86C345.928 255.315 344.962 255.888 343.946 256.352C341.192 257.611 338.373 257.764 335.608 256.484C330.908 254.308 327.468 250.781 325.636 245.967C323.66 240.775 322.689 235.341 323.181 229.724C323.01 227.556 322.945 225.372 322.646 223.221C322.032 218.805 321.321 214.461 318.913 210.492C316.285 206.157 313.874 201.737 309.888 198.423C307.586 196.508 305.31 194.587 302.486 193.479C294.928 190.516 287.212 190.385 279.484 192.553C273.825 194.14 268.453 196.391 263.862 200.272C260.202 203.367 257.321 207.104 254.58 210.951C254.604 211.271 254.673 211.703 254.861 212.219C255.592 214.225 255.656 217.201 256.134 219.313C256.921 222.783 257.884 226.195 258.59 229.683C259.996 236.615 261.945 243.083 265.554 248.975C266.384 249.759 267.238 250.521 268.148 251.239C274.393 256.163 278.889 251.264 285.102 256.505C286.51 257.693 293.284 258.997 297.322 258.128C307.16 256.011 308.977 252.859 311.182 252.109C313.202 251.424 313.66 251.151 315.03 251.949C316.942 253.064 318.138 254.833 319.5 256.461C322.042 259.504 325.522 262.199 328.956 264.253C333.749 267.123 339.366 266.852 343.425 265.727C347.026 264.729 350.841 260.965 351.508 259.331C352.105 257.864 351.89 256.497 350.804 255.328Z" fill="#F77962"/>
    <path d="M271.257 313.016C268.406 320.664 262.505 324.092 254.394 325.555C251.781 326.025 248.774 326.947 246.317 326.532C242.194 326.736 239.063 325.645 235.59 323.837C227.969 319.869 220.569 314.277 219.187 305.383C218.854 303.237 218.737 300.363 219.129 298.151C219.509 296.011 220.218 291.537 220.841 289.469C223.331 281.193 229.235 275.284 237.481 272.492C240.018 271.633 243.314 270.853 245.973 270.532C248.254 270.257 252.822 270.852 255.047 271.717C257.962 272.849 263.093 275.212 265.634 277.263C270.361 281.077 272.573 287.519 274.475 293.316C276.621 299.855 273.646 306.603 271.257 313.016ZM173.001 213.365C171.085 213.847 169.053 211.817 168.835 209.107C168.694 207.345 170.606 205.725 172.847 205.639C174.746 205.565 176.854 207.173 176.959 208.775C177.125 211.323 175.442 213.275 173.001 213.365ZM275.582 281.428C271.049 273.8 264.134 269.097 256.123 265.828C251.575 263.972 246.787 262.995 241.942 262.199C233.95 260.884 227.017 257.408 221.257 251.633C211.85 242.2 202.399 232.808 192.969 223.399C190.969 221.404 188.971 219.407 186.981 217.404C186.798 217.22 186.667 216.987 186.511 216.776C186.806 216.768 187.102 216.745 187.395 216.755C187.551 216.759 187.706 216.816 187.861 216.855C193.043 218.127 198.226 219.4 203.409 220.673C202.545 219.332 201.902 217.851 201.405 216.335C201.137 215.517 199.627 211.136 200.466 212.131C198.558 209.868 196.142 208.472 194.018 206.535C187.846 205.315 181.671 204.099 175.529 202.744C173.693 202.339 171.706 202.181 170.178 200.651C143.033 173.465 115.83 146.339 88.6981 119.141C77.5981 108.015 55.8728 86.7694 55.4701 87.0134C55.0634 87.26 67.6021 103.671 74.5048 111.293C97.0074 136.141 119.461 161.033 141.945 185.897C144.261 188.459 146.693 190.915 148.994 193.488C150.586 195.269 151.981 197.227 153.582 199C157.639 203.495 161.773 207.921 165.858 212.391C168.23 214.987 170.565 217.616 172.922 220.225C186.923 235.728 200.906 251.247 214.951 266.707C216.921 268.876 217.781 271.293 217.619 274.129C217.369 278.509 216.369 282.736 215.183 286.957C211.997 298.301 212.897 309.152 219.911 318.975C225.999 327.5 234.114 332.744 244.793 333.463C245.565 333.515 245.879 333.807 246.155 334.493C247.513 337.873 246.982 340.951 244.855 343.839C244.418 344.433 243.985 345.068 243.731 345.752C242.974 347.804 244.09 349.453 246.259 349.461C248.231 349.468 250.031 348.897 251.466 347.451C255.402 343.481 256.625 338.791 255.155 333.407C254.986 332.781 254.809 332.423 255.71 332.157C260.015 330.892 263.886 328.905 267.586 326.225C271.737 323.22 274.641 319.409 276.782 315.001C279.971 308.433 280.717 301.379 279.818 294.164C279.254 289.648 277.918 285.36 275.582 281.428Z" fill="#F77962"/>
    <path d="M144.679 197.315C143.871 196.279 142.806 195.872 141.625 195.611C136.258 194.422 130.886 193.255 125.525 192.044C119.267 190.63 113.019 189.178 106.766 187.74C100.515 186.304 94.2648 184.864 88.0128 183.432C81.7635 182 75.5101 180.583 69.2608 179.151C63.5395 177.84 57.8208 176.515 52.1008 175.202C45.9088 173.78 39.7168 172.37 33.5261 170.947C27.2341 169.502 5.13948 165.162 4.87548 166.066C4.58614 167.059 36.7301 176.731 51.7341 180.88C68.2541 185.45 84.7701 190.038 101.291 194.602C118.333 199.308 135.378 203.996 152.423 208.687C152.773 208.783 153.142 208.806 153.501 208.862C153.351 208.524 153.263 208.138 153.042 207.859C150.261 204.339 147.438 200.852 144.679 197.315Z" fill="#F77962"/>
    <path d="M277.861 298.833C277.861 315.849 264.066 329.644 247.05 329.644C230.034 329.644 216.24 315.849 216.24 298.833C216.24 281.817 230.034 268.023 247.05 268.023C264.066 268.023 277.861 281.817 277.861 298.833Z" stroke="#F77962" stroke-width="6.66667" stroke-miterlimit="10"/>
    <path d="M320.28 224.968C320.28 241.984 306.485 255.779 289.469 255.779C272.453 255.779 258.659 241.984 258.659 224.968C258.659 207.952 272.453 194.157 289.469 194.157C306.485 194.157 320.28 207.952 320.28 224.968Z" stroke="#F77962" stroke-width="6.66667" stroke-miterlimit="10"/>
    <path d="M253.44 191.545C253.44 191.545 251.732 234.913 270.402 255.21" stroke="#231200" stroke-width="2.66667" stroke-miterlimit="10"/>
    <path d="M176.269 209.908C176.269 211.769 174.76 213.278 172.899 213.278C171.037 213.278 169.529 211.769 169.529 209.908C169.529 208.046 171.037 206.537 172.899 206.537C174.76 206.537 176.269 208.046 176.269 209.908Z" fill="#231200"/>
    <path d="M176.269 209.908C176.269 211.769 174.76 213.278 172.899 213.278C171.037 213.278 169.529 211.769 169.529 209.908C169.529 208.046 171.037 206.537 172.899 206.537C174.76 206.537 176.269 208.046 176.269 209.908Z" stroke="#231200" stroke-width="2.66667" stroke-miterlimit="10"/>
    <path d="M251.947 211.919C252.041 212.456 256.489 238.335 263.649 249.489" stroke="white" stroke-width="1.33333" stroke-miterlimit="10"/>
    <path d="M271.655 205.801C271.655 205.801 290.398 210.117 306.273 224.968C306.273 224.968 314.21 220.258 315.911 220.732C317.613 221.204 314.494 233.677 314.494 233.677C314.494 233.677 301.075 238.308 300.13 237.929C299.186 237.552 285.106 223.944 283.405 221.393C281.703 218.841 271.655 205.801 271.655 205.801Z" fill="#231200"/>
</svg>
